<svg width="1.0417vw" height="1.8519vh" viewBox="0 0 20 20" >
<path fill-rule="evenodd" clip-rule="evenodd" d="M20 10C20 15.5228 15.5228 20 10 20C4.47715 20 0 15.5228 0 10C0 4.47715 4.47715 0 10 0C15.5228 0 20 4.47715 20 10ZM15.5 7.50365C15.6824 7.13177 15.5288 6.68242 15.1569 6.5C14.7851 6.31758 14.3357 6.47117 14.1533 6.84305L12.693 9.8201C12.2403 10.7429 10.91 10.6978 10.5208 9.74652C9.64165 7.59747 6.6362 7.49567 5.61363 9.58029L4.1533 12.5573C3.97088 12.9292 4.12447 13.3786 4.49635 13.561C4.86823 13.7434 5.31758 13.5898 5.5 13.2179L6.96033 10.2409C7.41297 9.31813 8.74333 9.3632 9.13249 10.3145C10.0116 12.4635 13.0171 12.5653 14.0397 10.4807L15.5 7.50365Z" />
</svg>
