<svg width="1.3542vw" height="1.0185vh" viewBox="0 0 26 11" >
<path d="M22.6365 5.7687C23.3797 5.73716 24.0475 5.66752 24.5554 5.49517C25.0633 5.32283 25.2174 5.11355 25.2385 4.88571C25.2586 4.669 25.1591 4.39708 25.0392 4.06919L24.7032 3.15098C24.4523 2.46497 24.2552 1.92616 23.9204 1.5074C23.5773 1.07816 23.067 0.743164 22.1195 0.485603C21.1711 0.227795 20.0131 0.110884 18.5628 0.0547748C17.1468 -6.88806e-06 15.3487 -3.72907e-06 13.0579 6.29662e-08H12.9411C10.6503 -3.72907e-06 8.85215 -6.88806e-06 7.43615 0.0547748C5.98584 0.110884 4.8278 0.227795 3.87944 0.485603C2.93199 0.743164 2.42164 1.07816 2.07851 1.5074C1.74375 1.92617 1.54665 2.46496 1.2957 3.15099L0.959799 4.06917C0.839809 4.39707 0.740304 4.66899 0.760409 4.88571C0.781545 5.11355 0.935688 5.32283 1.44357 5.49517C1.95144 5.66752 2.61926 5.73716 3.36247 5.7687C4.02777 5.79693 4.86475 5.79859 5.86641 5.79868L6.05649 5.79868H12.2313H13.8816L19.2196 5.79868L19.9424 5.79868L20.2464 5.79866C21.1978 5.79842 21.9965 5.79586 22.6365 5.7687Z" />
<path d="M10.8828 6.62204C11.3284 6.36477 11.698 6.15142 11.9796 5.96955C12.0676 5.91273 12.152 5.85587 12.2313 5.79868H6.05649L5.86641 5.79868C5.17547 6.19869 4.61083 6.53026 4.15693 6.82052C3.57757 7.19101 3.13499 7.52153 2.81756 7.87018C2.50044 8.21849 2.38414 8.50054 2.36261 8.78832C2.34161 9.06909 2.41042 9.375 2.49804 9.7645L2.61529 10.2858C2.65716 10.472 2.69187 10.6264 2.76032 10.7259C2.83228 10.8305 2.95364 10.8947 3.20986 10.8573C3.46607 10.82 3.75937 10.6953 4.07302 10.5344C4.37136 10.3814 4.74089 10.1681 5.18649 9.91082L10.5863 6.79323L10.8828 6.62204Z" />
<path d="M19.9424 5.79868L19.2196 5.79868L13.8816 5.79868C13.9609 5.85587 14.0452 5.91273 14.1332 5.96955C14.4149 6.15142 14.7844 6.36477 15.23 6.62204L15.5265 6.79323L20.9263 9.91082C21.3719 10.1681 21.7415 10.3814 22.0398 10.5344C22.3535 10.6953 22.6468 10.82 22.903 10.8573C23.1592 10.8947 23.2806 10.8305 23.3525 10.7259C23.421 10.6264 23.4557 10.472 23.4975 10.2858L23.6148 9.7645C23.7024 9.375 23.7712 9.06909 23.7502 8.78832C23.7287 8.50054 23.6124 8.21849 23.2953 7.87018C22.9778 7.52153 22.5353 7.19101 21.9559 6.82051C21.502 6.53025 20.9373 6.19868 20.2464 5.79866L19.9424 5.79868Z" />
</svg>
