<svg width="1.25vw" height="1.6667vh" viewBox="0 0 24 18" >
<path fill-rule="evenodd" clip-rule="evenodd" d="M8.78356 7.03172e-08H8.71644C7.34473 -4.37339e-06 6.26928 -7.86036e-06 5.40494 0.0706121C4.5248 0.142522 3.79769 0.291379 3.13955 0.626713C2.05762 1.17798 1.17798 2.05762 0.626713 3.13955C0.291379 3.79769 0.142522 4.5248 0.0706121 5.40494C-7.86036e-06 6.26928 -4.37339e-06 7.34472 7.03171e-08 8.71643V8.78356C-4.37339e-06 10.1553 -7.86036e-06 11.2307 0.0706121 12.0951C0.142522 12.9752 0.291379 13.7023 0.626713 14.3604C1.17798 15.4424 2.05762 16.322 3.13955 16.8733C3.79769 17.2086 4.52479 17.3575 5.40494 17.4294C6.26921 17.5 7.34454 17.5 8.71608 17.5H8.78358C10.1551 17.5 11.2308 17.5 12.0951 17.4294C12.9752 17.3575 13.7023 17.2086 14.3604 16.8733C15.4424 16.322 16.322 15.4424 16.8733 14.3604C16.9233 14.2623 16.9692 14.1625 17.0113 14.0609C18.178 14.5706 19.1334 14.9844 19.909 15.1948C20.7339 15.4186 21.5374 15.4647 22.2557 14.9946C22.9741 14.5246 23.2536 13.7698 23.3788 12.9243C23.5001 12.1056 23.5 11.0257 23.5 9.70018V7.79982C23.5 6.47426 23.5001 5.39436 23.3788 4.57567C23.2536 3.73019 22.9741 2.9754 22.2557 2.50537C21.5374 2.03534 20.7339 2.08144 19.909 2.30522C19.1334 2.51561 18.178 2.92938 17.0113 3.43909C16.9692 3.33748 16.9233 3.23774 16.8733 3.13955C16.322 2.05762 15.4424 1.17798 14.3604 0.626713C13.7023 0.291379 12.9752 0.142522 12.0951 0.0706121C11.2307 -7.86036e-06 10.1553 -4.37339e-06 8.78356 7.03172e-08ZM4.75 5C4.33579 5 4 5.33579 4 5.75C4 6.16421 4.33579 6.5 4.75 6.5H8.75C9.16421 6.5 9.5 6.16421 9.5 5.75C9.5 5.33579 9.16421 5 8.75 5H4.75Z"/>
</svg>
