<svg width="1.25vw" height="1.8519vh" viewBox="0 0 24 20">
<path d="M14 0.75C14 0.335786 14.3358 0 14.75 0H15.75C18.9256 0 21.5 2.57436 21.5 5.75V6.75C21.5 7.16421 21.1642 7.5 20.75 7.5C20.3358 7.5 20 7.16421 20 6.75V5.75C20 3.40279 18.0972 1.5 15.75 1.5H14.75C14.3358 1.5 14 1.16421 14 0.75Z"/>
<path d="M2 5.75C2 2.57436 4.57436 0 7.75 0H8.75C9.16421 0 9.5 0.335787 9.5 0.75C9.5 1.16421 9.16421 1.5 8.75 1.5H7.75C5.40279 1.5 3.5 3.40279 3.5 5.75V6.75C3.5 7.16421 3.16421 7.5 2.75 7.5C2.33579 7.5 2 7.16421 2 6.75V5.75Z"/>
<path d="M0 11.75C0 11.3358 0.335786 11 0.75 11H22.75C23.1642 11 23.5 11.3358 23.5 11.75C23.5 12.1642 23.1642 12.5 22.75 12.5H21.4573C21.485 12.5782 21.5 12.6623 21.5 12.75V13.75C21.5 16.9256 18.9256 19.5 15.75 19.5H14.75C14.3358 19.5 14 19.1642 14 18.75C14 18.3358 14.3358 18 14.75 18H15.75C18.0972 18 20 16.0972 20 13.75V12.75C20 12.6623 20.015 12.5782 20.0427 12.5H16.6488C16.2312 14.3602 14.5696 15.75 12.5833 15.75H10.9167C8.93042 15.75 7.26878 14.3602 6.85116 12.5H3.45732C3.48496 12.5782 3.5 12.6623 3.5 12.75V13.75C3.5 16.0972 5.40279 18 7.75 18H8.75C9.16421 18 9.5 18.3358 9.5 18.75C9.5 19.1642 9.16421 19.5 8.75 19.5H7.75C4.57436 19.5 2 16.9256 2 13.75V12.75C2 12.6623 2.01504 12.5782 2.04268 12.5H0.75C0.335786 12.5 0 12.1642 0 11.75Z"/>
<path d="M10.9167 3.75C8.61548 3.75 6.75 5.61548 6.75 7.91667C6.75 8.3769 7.1231 8.75 7.58333 8.75H15.9167C16.3769 8.75 16.75 8.3769 16.75 7.91667C16.75 5.61548 14.8845 3.75 12.5833 3.75H10.9167Z"/>
</svg>
