<svg width="1.0938vw" height="1.8519vh" viewBox="0 0 20 20"  xmlns="http://www.w3.org/2000/svg">
<path fill-rule="evenodd" clip-rule="evenodd" d="M10.0452 0.25C11.8818 0.249992 13.3214 0.249985 14.4635 0.373728C15.6291 0.500006 16.5734 0.762324 17.3798 1.34815C17.8679 1.70281 18.2972 2.13209 18.6518 2.62024C19.2377 3.42656 19.5 4.37094 19.6263 5.53648C19.75 6.67859 19.75 8.11816 19.75 9.95465V10.0453C19.75 11.8818 19.75 13.3214 19.6263 14.4635C19.5 15.6291 19.2377 16.5734 18.6518 17.3798C18.2972 17.8679 17.8679 18.2972 17.3798 18.6518C16.5734 19.2377 15.6291 19.5 14.4635 19.6263C13.3214 19.75 11.8818 19.75 10.0453 19.75H9.95473C8.11824 19.75 6.67859 19.75 5.53648 19.6263C4.37094 19.5 3.42656 19.2377 2.62024 18.6518C2.13209 18.2972 1.70281 17.8679 1.34815 17.3798C0.762324 16.5734 0.500006 15.6291 0.373728 14.4635C0.249985 13.3214 0.249992 11.8818 0.25 10.0452V9.95475C0.249992 8.11821 0.249985 6.67861 0.373728 5.53648C0.500006 4.37094 0.762324 3.42656 1.34815 2.62024C1.70281 2.13209 2.13209 1.70281 2.62024 1.34815C3.42656 0.762324 4.37094 0.500006 5.53648 0.373728C6.67861 0.249985 8.11821 0.249992 9.95475 0.25H10.0452ZM10.75 5C10.75 4.58579 10.4142 4.25 10 4.25C9.58579 4.25 9.25 4.58579 9.25 5V8.61842L6.78019 6.1486C6.48729 5.85571 6.01242 5.85571 5.71952 6.1486C5.42663 6.4415 5.42663 6.91637 5.71952 7.20926L7.76026 9.25H5C4.58579 9.25 4.25 9.58579 4.25 10C4.25 10.4142 4.58579 10.75 5 10.75H8.18934L5.71967 13.2197C5.42678 13.5126 5.42678 13.9874 5.71967 14.2803C6.01256 14.5732 6.48744 14.5732 6.78033 14.2803L9.25 11.8107V15C9.25 15.4142 9.58579 15.75 10 15.75C10.4142 15.75 10.75 15.4142 10.75 15V12.2397L12.7906 14.2803C13.0835 14.5732 13.5584 14.5732 13.8513 14.2803C14.1441 13.9874 14.1441 13.5126 13.8513 13.2197L11.3816 10.75H15C15.4142 10.75 15.75 10.4142 15.75 10C15.75 9.58579 15.4142 9.25 15 9.25H11.8107L13.8514 7.20926C14.1443 6.91637 14.1443 6.4415 13.8514 6.1486C13.5585 5.85571 13.0836 5.85571 12.7907 6.1486L10.75 8.18934V5Z" />
</svg>
