<svg width=".9375vw" height="1.6667vh" viewBox="0 0 18 18"  >
<path fill-rule="evenodd" clip-rule="evenodd" d="M9.04178 1.19186e-07C10.737 -7.29637e-06 12.0659 -1.31084e-05 13.1202 0.114211C14.1961 0.230775 15.0678 0.472915 15.8121 1.01368C16.2627 1.34106 16.6589 1.73731 16.9863 2.18791C17.5271 2.93221 17.7692 3.80394 17.8858 4.87982C18 5.93409 18 7.26299 18 8.95821V9.04186C18 10.7371 18 12.0659 17.8858 13.1202C17.7692 14.1961 17.5271 15.0678 16.9863 15.8121C16.6589 16.2627 16.2627 16.6589 15.8121 16.9863C15.0678 17.5271 14.1961 17.7692 13.1202 17.8858C12.0659 18 10.737 18 9.04179 18H8.95814C7.26292 18 5.93408 18 4.87982 17.8858C3.80394 17.7692 2.93221 17.5271 2.18791 16.9863C1.73731 16.6589 1.34106 16.2627 1.01368 15.8121C0.472915 15.0678 0.230775 14.1961 0.114211 13.1202C-1.31084e-05 12.0659 -7.29637e-06 10.737 1.19186e-07 9.04178V8.95823C-7.29637e-06 7.26297 -1.31084e-05 5.9341 0.114211 4.87982C0.230775 3.80394 0.472915 2.93221 1.01368 2.18791C1.34106 1.73731 1.73731 1.34106 2.18791 1.01368C2.93221 0.472915 3.80394 0.230775 4.87982 0.114211C5.9341 -1.31084e-05 7.26296 -7.29637e-06 8.95822 1.19186e-07H9.04178ZM9.69231 4.38462C9.69231 4.00226 9.38235 3.69231 9 3.69231C8.61765 3.69231 8.30769 4.00226 8.30769 4.38462V13.6154C8.30769 13.9977 8.61765 14.3077 9 14.3077C9.38235 14.3077 9.69231 13.9977 9.69231 13.6154V4.38462ZM13.3846 8.07692C13.3846 7.69457 13.0747 7.38462 12.6923 7.38462C12.31 7.38462 12 7.69457 12 8.07692V13.6154C12 13.9977 12.31 14.3077 12.6923 14.3077C13.0747 14.3077 13.3846 13.9977 13.3846 13.6154V8.07692ZM6 9.92308C6 9.54073 5.69004 9.23077 5.30769 9.23077C4.92534 9.23077 4.61538 9.54073 4.61538 9.92308V13.6154C4.61538 13.9977 4.92534 14.3077 5.30769 14.3077C5.69004 14.3077 6 13.9977 6 13.6154V9.92308Z"/>
</svg>
