<svg width="1.0938vw" height="2.037vh" viewBox="0 0 21 22">
<path fill-rule="evenodd" clip-rule="evenodd" d="M10.1272 0.608329C10.3089 0.599307 10.491 0.599307 10.6727 0.608329C11.3742 0.643157 12.02 0.846986 12.74 1.18108C13.4408 1.50633 14.2553 1.97654 15.2856 2.57142L15.3439 2.6051C16.3743 3.19997 17.1888 3.67019 17.8209 4.11455C18.4702 4.57099 18.9696 5.02838 19.3505 5.61847C19.4492 5.77132 19.5402 5.92898 19.6233 6.09086C19.9438 6.71578 20.0902 7.37699 20.1609 8.16753C20.2296 8.93713 20.2296 9.87753 20.2296 11.0673V11.1347C20.2296 12.3244 20.2296 13.2649 20.1609 14.0345C20.0902 14.825 19.9438 15.4862 19.6233 16.1111C19.5402 16.273 19.4492 16.4307 19.3505 16.5835C18.8863 17.3027 18.2442 17.8266 17.3706 18.3896C16.8165 18.7467 16.141 19.1367 15.3291 19.6055L15.2856 19.6306C14.2553 20.2255 13.4408 20.6957 12.74 21.0209C12.02 21.355 11.3742 21.5588 10.6727 21.5937C10.491 21.6027 10.3089 21.6027 10.1272 21.5937C9.42574 21.5588 8.77992 21.355 8.05998 21.0209C7.35909 20.6957 6.54466 20.2255 5.5143 19.6306L5.47144 19.6058C4.66708 19.1414 3.99673 18.7544 3.44573 18.4002C2.56378 17.8332 1.91646 17.3071 1.44941 16.5835C1.35074 16.4307 1.25972 16.273 1.17668 16.1111C0.856096 15.4862 0.709706 14.825 0.639069 14.0345C0.570302 13.2649 0.570307 12.3244 0.570313 11.1347V11.0673C0.570307 9.87756 0.570302 8.93714 0.639069 8.16753C0.709706 7.37699 0.856096 6.71578 1.17668 6.09086C1.25972 5.92898 1.35074 5.77133 1.44941 5.61847C1.83032 5.02838 2.32975 4.57099 2.97906 4.11455C3.61117 3.67019 4.4256 3.19999 5.45596 2.60512L5.51432 2.57142C6.54467 1.97654 7.3591 1.50633 8.05998 1.18108C8.77992 0.846986 9.42574 0.643157 10.1272 0.608329ZM16.7212 17.1002C16.1044 15.8147 14.7906 14.9272 13.2696 14.9272H7.53035C6.00928 14.9272 4.69552 15.8147 4.07875 17.1002C4.12507 17.1308 4.17268 17.1618 4.22163 17.1933C4.74058 17.5269 5.38174 17.8973 6.20254 18.3712C7.2685 18.9866 8.02792 19.4243 8.66394 19.7194C9.28751 20.0088 9.7461 20.1382 10.1984 20.1606C10.3327 20.1673 10.4672 20.1673 10.6016 20.1606C11.0538 20.1382 11.5124 20.0088 12.136 19.7194C12.772 19.4243 13.5314 18.9866 14.5974 18.3712C15.4263 17.8926 16.072 17.5196 16.5934 17.1836C16.637 17.1554 16.6796 17.1277 16.7212 17.1002ZM10.3999 3.68783C7.8906 3.68783 5.85638 5.72205 5.85638 8.23139C5.85638 10.7407 7.8906 12.7749 10.3999 12.7749C12.9093 12.7749 14.9435 10.7407 14.9435 8.23139C14.9435 5.72205 12.9093 3.68783 10.3999 3.68783Z" />
</svg>
