<svg width=".8854vw" height="1.6667vh" viewBox="0 0 17 18" >
<path fill-rule="evenodd" clip-rule="evenodd" d="M11.1839 0.881779C11.7532 1.46963 12.0378 2.32747 12.0378 3.4553L12.0378 5.31462L4.15359 5.31462L4.15359 3.4553C4.15359 2.32747 4.43822 1.46963 5.0075 0.881778C5.57672 0.293926 6.40397 -4.27993e-07 7.48925 -3.80554e-07L8.70218 -3.27535e-07C9.78744 -2.80097e-07 10.6147 0.293926 11.1839 0.881779ZM3.72671 8.79385C3.91558 7.99054 4.05523 7.19522 4.14566 6.40787L12.0378 6.40787C12.1176 7.12606 12.2506 7.88813 12.4368 8.69407C12.623 9.50005 12.8597 10.31 13.147 11.124C13.4343 11.9379 13.7694 12.7173 14.1525 13.4621L14.1165 13.4621L14.0806 13.4621L2.16662 13.4621L2.0988 13.4621L2.03098 13.4621C2.40871 12.7226 2.73854 11.9606 3.02046 11.1759C3.30242 10.3912 3.53784 9.59715 3.72671 8.79385ZM0.841953 14.7628C1.092 14.6245 1.38195 14.5554 1.7118 14.5554L14.5275 14.5554C14.8627 14.5554 15.1553 14.6245 15.4053 14.7628C15.6553 14.9011 15.8495 15.094 15.9878 15.3414C16.1262 15.5887 16.1953 15.8774 16.1953 16.2072C16.1953 16.5423 16.1262 16.8349 15.9878 17.085C15.8495 17.335 15.6553 17.5292 15.4053 17.6675C15.1553 17.8058 14.8627 17.875 14.5275 17.875L1.7118 17.875C1.38195 17.875 1.092 17.8058 0.841953 17.6675C0.591907 17.5292 0.397726 17.335 0.259411 17.085C0.121097 16.8349 0.0519383 16.5423 0.0519383 16.2072C0.0519383 15.8774 0.121097 15.5887 0.259411 15.3414C0.397726 15.094 0.591907 14.9011 0.841953 14.7628Z"/>
</svg>
