<svg width="1.0938vw" height="2.037vh" viewBox="0 0 21 22">
<path d="M12.3426 8.58382C12.5481 8.49921 12.7535 8.70469 12.6689 8.91017L11.5667 11.587C11.4398 11.8953 11.195 12.14 10.8868 12.267L8.2099 13.3692C8.00442 13.4538 7.79893 13.2483 7.88354 13.0428L8.98579 10.366C9.1127 10.0577 9.35747 9.81297 9.6657 9.68606L12.3426 8.58382Z"/>
<path fill-rule="evenodd" clip-rule="evenodd" d="M10.5614 0.00707375C10.3714 -0.00235792 10.1811 -0.00235792 9.99115 0.00707375C9.25779 0.043484 8.58263 0.256574 7.82997 0.60585C7.09724 0.945876 6.24581 1.43746 5.16865 2.05937L5.10764 2.09459C4.03046 2.71649 3.17903 3.20806 2.51819 3.67261C1.83938 4.14979 1.31726 4.62795 0.919044 5.24486C0.815892 5.40466 0.720733 5.56948 0.633916 5.73871C0.298768 6.39203 0.145728 7.08328 0.0718805 7.90974C-1.11461e-05 8.71431 -6.14203e-06 9.69747 1.16458e-07 10.9413V11.0117C-6.14203e-06 12.2555 -1.11461e-05 13.2387 0.0718805 14.0433C0.145728 14.8697 0.298768 15.561 0.633916 16.2143C0.720732 16.3835 0.815892 16.5483 0.919044 16.7081C1.31726 17.325 1.83938 17.8032 2.51819 18.2804C3.17898 18.7449 4.03035 19.2364 5.10743 19.8583L5.16863 19.8936C6.2458 20.5155 7.09724 21.0071 7.82997 21.3471C8.58263 21.6964 9.25779 21.9095 9.99115 21.9459C10.1811 21.9554 10.3714 21.9554 10.5614 21.9459C11.2948 21.9095 11.9699 21.6964 12.7226 21.3471C13.4553 21.0071 14.3068 20.5155 15.3839 19.8936L15.445 19.8584C16.5221 19.2365 17.3735 18.7449 18.0344 18.2804C18.7132 17.8032 19.2353 17.325 19.6335 16.7081C19.7367 16.5483 19.8318 16.3835 19.9186 16.2143C20.2538 15.561 20.4068 14.8697 20.4807 14.0433C20.5526 13.2387 20.5526 12.2556 20.5526 11.0118V10.9413C20.5526 9.6975 20.5526 8.7143 20.4807 7.90974C20.4068 7.08328 20.2538 6.39203 19.9186 5.73871C19.8318 5.56948 19.7367 5.40466 19.6335 5.24486C19.2353 4.62795 18.7132 4.14979 18.0344 3.67261C17.3735 3.20806 16.5221 2.71649 15.4449 2.09459L15.3839 2.05937C14.3067 1.43746 13.4553 0.945876 12.7226 0.60585C11.9699 0.256574 11.2948 0.043484 10.5614 0.00707375ZM14.0559 9.4813C14.6482 8.04291 13.2098 6.60452 11.7714 7.1968L9.09457 8.29904C8.41648 8.57826 7.87799 9.11675 7.59877 9.79484L6.49653 12.4717C5.90425 13.9101 7.34263 15.3485 8.78102 14.7562L11.4579 13.654C12.136 13.3748 12.6745 12.8363 12.9537 12.1582L14.0559 9.4813Z"/>
</svg>
