<svg width="1.0417vw" height="2.037vh" viewBox="0 0 20 22" >
<path d="M9.13294 7.95819C9.3251 7.34727 10.1299 7.34727 10.322 7.95819C10.6006 8.84399 11.4099 9.46631 12.3474 9.46631C12.6375 9.46631 12.854 9.64471 12.942 9.92451C13.0305 10.206 12.9582 10.5018 12.7069 10.6904C11.9635 11.2483 11.6638 12.2239 11.9412 13.1061C12.0437 13.4318 11.9211 13.7106 11.7061 13.872C11.4947 14.0307 11.2299 14.054 10.9873 13.872C10.2378 13.3094 9.21718 13.3094 8.46767 13.872C8.22509 14.054 7.96029 14.0307 7.74883 13.872C7.53387 13.7106 7.41127 13.4318 7.51371 13.1061C7.79119 12.2239 7.49144 11.2483 6.7481 10.6904C6.49676 10.5018 6.42443 10.206 6.51298 9.92451C6.60098 9.64471 6.81745 9.46631 7.10751 9.46631C8.04506 9.46631 8.85432 8.84399 9.13294 7.95819Z"/>
<path fill-rule="evenodd" clip-rule="evenodd" d="M4.49871 2.79167C4.49871 1.24987 5.74858 0 7.29038 0H12.4564C13.8371 0 14.9564 1.11929 14.9564 2.5C14.9564 3.05228 15.4041 3.5 15.9564 3.5H16.5457C18.1306 3.5 19.5245 4.72999 19.4599 6.41561C19.3771 8.57667 18.9574 12.0431 17.2741 15.1108C16.8178 15.9423 16.2084 16.7592 15.5496 17.5203L15.5 17.5776C14.5523 18.6726 13.7622 19.5856 12.9127 20.2079C11.999 20.8773 11.0238 21.2107 9.72755 21.2107C8.43125 21.2107 7.45607 20.8773 6.54238 20.2079C5.69291 19.5856 4.90276 18.6726 3.95509 17.5776L3.90549 17.5203C3.24673 16.7592 2.63733 15.9423 2.18104 15.1108C0.55189 12.1418 0.105237 9.00749 0.00371348 6.99648C-0.0817939 5.30273 1.32212 4.08333 2.89818 4.08333H3.20704C3.92041 4.08333 4.49871 3.50503 4.49871 2.79167ZM11.7529 7.50812C11.1204 5.49729 8.33454 5.49729 7.70205 7.50812C7.61188 7.7948 7.36341 7.96631 7.10751 7.96631C4.99845 7.96631 4.23538 10.68 5.8477 11.8901C6.06988 12.0568 6.17415 12.3657 6.08283 12.656C5.77294 13.6412 6.1704 14.5628 6.84844 15.0717C7.52999 15.5832 8.53116 15.6998 9.36806 15.0717C9.58407 14.9095 9.87088 14.9095 10.0869 15.0717C10.9238 15.6998 11.925 15.5832 12.6065 15.0717C13.2846 14.5628 13.682 13.6412 13.3721 12.656C13.2808 12.3657 13.3851 12.0568 13.6073 11.8901C15.2196 10.68 14.4565 7.96631 12.3474 7.96631C12.0915 7.96631 11.8431 7.7948 11.7529 7.50812Z"/>
</svg>
