<svg width=".8854vw" height="1.6667vh" viewBox="0 0 17 18">
<path d="M14.9985 4.67791C15.2761 4.72187 15.6188 4.72488 16.4381 4.725C16.3531 3.42934 16.1454 2.55405 15.6375 1.85497C15.3599 1.47294 15.0239 1.13698 14.6419 0.859423C13.9428 0.351509 13.0675 0.14377 11.7719 0.0588026C11.772 0.878108 11.775 1.22081 11.819 1.49836C12.0782 3.13505 13.3618 4.41868 14.9985 4.67791Z"/>
<path d="M1.1563 16.145C0.296875 14.9621 0.296875 13.2748 0.296875 9.9V8.1C0.296875 4.72524 0.296875 3.03786 1.1563 1.85497C1.43386 1.47294 1.76982 1.13698 2.15184 0.859423C3.33474 0 5.02212 0 8.39688 0C9.15192 0 9.82251 0 10.4219 0.00962505L10.4219 0.0727381C10.4218 0.839553 10.4218 1.30664 10.4856 1.70955C10.8363 3.92389 12.573 5.66057 14.7873 6.01129C15.1902 6.0751 15.6573 6.07506 16.4241 6.075L16.4873 6.075C16.4969 6.67437 16.4969 7.34495 16.4969 8.1V9.9C16.4969 13.2748 16.4969 14.9621 15.6375 16.145C15.3599 16.5271 15.0239 16.863 14.6419 17.1406C13.459 18 11.7716 18 8.39688 18C5.02212 18 3.33474 18 2.15184 17.1406C1.76982 16.863 1.43386 16.5271 1.1563 16.145Z"/>
</svg>
