<svg width="1.1458vw" height="1.6667vh" viewBox="0 0 22 18" >
<path d="M21.9726 5.12604C21.9306 5.01362 21.8439 4.92407 21.7334 4.87913L19.8779 4.12371C19.7626 3.51882 19.3074 3.03437 18.7215 2.88165L18.6214 1.71814C18.6068 1.54789 18.7054 0.700041 18.5449 0.645455C18.3843 0.590869 17.9952 1.34 17.8815 1.46661L17.4053 1.99666L17.111 0.957183C17.0603 0.777998 16.9008 0.00653337 16.7162 3.84136e-05C16.5314 -0.00621776 16.364 0.753546 16.301 0.928815L14.1018 7.05108L5.96272 7.43452C5.95931 7.43466 5.95586 7.4348 5.9525 7.435C4.28172 7.53624 2.69963 6.6343 1.92193 5.13697C1.8127 4.9267 0.913408 4.12083 0.705128 4.2311C0.496754 4.34133 1.05824 5.32576 1.16742 5.53598C1.85847 6.86654 3.07904 7.80526 4.4802 8.15326C4.43047 8.19758 4.38044 8.24429 4.33028 8.29419C3.79574 8.8263 3.15769 9.79883 3.06498 11.4506L1.22095 12.2679C1.11323 12.3156 1.02989 12.4062 0.990662 12.5181L0.0244176 15.2751C-0.0440623 15.4705 0.0354444 15.6875 0.213483 15.7909L0.677462 16.0604C0.742865 16.0984 0.81622 16.1177 0.89 16.1177C0.939692 16.1177 0.989573 16.1089 1.03728 16.0912C1.15578 16.0471 1.24882 15.9522 1.29123 15.8321L1.9774 13.8883L3.63294 13.7501L3.12987 14.4396C3.06011 14.5352 3.03266 14.6556 3.054 14.7723L3.57955 17.6481C3.6168 17.852 3.79299 18 3.99843 18H4.53378C4.66009 18 4.77992 17.9434 4.86084 17.8456C4.94177 17.7477 4.97547 17.6186 4.95284 17.4932L4.58659 15.4631L8.14111 12.9812C8.13089 12.9899 8.15209 12.9736 8.14111 12.9812C8.47779 12.6959 8.72218 12.3816 8.897 12.0584C10.6868 12.3755 13.1873 12.8262 14.7997 13.0899C14.7764 13.0836 14.8212 13.0998 14.7997 13.0899L18.1408 17.6996C18.2234 17.8136 18.3526 17.8757 18.4848 17.8757C18.5508 17.8757 18.6175 17.8603 18.6796 17.828L19.0712 17.6245C19.1716 17.5723 19.2474 17.482 19.2818 17.3735C19.3163 17.2649 19.3066 17.147 19.2548 17.0456L17.5225 13.651L19.2981 14.0156L19.2554 14.636C19.2445 14.7938 19.3204 14.9449 19.4529 15.0293L19.7142 15.1957C19.783 15.2395 19.862 15.262 19.9416 15.262C19.9852 15.262 20.029 15.2553 20.0714 15.2416C20.1913 15.2029 20.2881 15.1126 20.3357 14.995L20.9461 13.4893C20.9908 13.379 20.9881 13.2548 20.9387 13.1466C20.8892 13.0383 20.7974 12.9557 20.6852 12.9184L17.4779 11.8047C17.481 11.7904 18.4347 7.34836 18.4347 7.34836C18.6127 7.37831 18.7925 7.39407 18.9736 7.39407C20.221 7.39407 21.3632 6.65713 21.9546 5.47084C22.0081 5.36349 22.0146 5.23846 21.9726 5.12604Z"/>
</svg>
