<svg width="1.0417vw" height="2.037vh" viewBox="0 0 20 22">
<path d="M8.47742 8.75C8.47742 8.05964 9.03706 7.5 9.72742 7.5C10.4178 7.5 10.9774 8.05964 10.9774 8.75C10.9774 9.44036 10.4178 10 9.72742 10C9.03706 10 8.47742 9.44036 8.47742 8.75Z"/>
<path fill-rule="evenodd" clip-rule="evenodd" d="M4.49871 2.79167C4.49871 1.24987 5.74858 0 7.29038 0H12.4564C13.8371 0 14.9564 1.11929 14.9564 2.5C14.9564 3.05228 15.4041 3.5 15.9564 3.5H16.5457C18.1306 3.5 19.5245 4.72999 19.4599 6.41561C19.3771 8.57667 18.9574 12.0431 17.2741 15.1108C16.8178 15.9423 16.2084 16.7592 15.5496 17.5203L15.5 17.5776C14.5523 18.6726 13.7622 19.5856 12.9127 20.2079C11.999 20.8773 11.0238 21.2107 9.72755 21.2107C8.43125 21.2107 7.45607 20.8773 6.54238 20.2079C5.69291 19.5856 4.90276 18.6726 3.95509 17.5776L3.90549 17.5203C3.24673 16.7592 2.63733 15.9423 2.18104 15.1108C0.55189 12.1418 0.105237 9.00749 0.00371348 6.99648C-0.0817939 5.30273 1.32212 4.08333 2.89818 4.08333H3.20704C3.92041 4.08333 4.49871 3.50503 4.49871 2.79167ZM9.72742 6C8.20863 6 6.97742 7.23122 6.97742 8.75C6.97742 10.0088 7.82316 11.07 8.97742 11.3965V14.75C8.97742 15.1642 9.3132 15.5 9.72742 15.5C10.1416 15.5 10.4774 15.1642 10.4774 14.75V11.3965C11.6317 11.07 12.4774 10.0088 12.4774 8.75C12.4774 7.23122 11.2462 6 9.72742 6Z"/>
</svg>
