<svg width="1.0938vw" height="1.8519vh" viewBox="0 0 21 20" >
<path d="M0 9.05273C0 9.69724 0.102539 10.2767 0.307617 10.791C0.512695 11.3053 0.792643 11.7139 1.14746 12.0166C1.50228 12.3193 1.89779 12.4707 2.33398 12.4707C2.77669 12.4707 3.17546 12.3193 3.53027 12.0166C3.88509 11.7139 4.16504 11.3053 4.37012 10.791C4.57519 10.2767 4.67773 9.69724 4.67773 9.05273C4.67773 8.41471 4.57519 7.83691 4.37012 7.31934C4.16504 6.80176 3.88509 6.3916 3.53027 6.08887C3.17546 5.78614 2.77669 5.63477 2.33398 5.63477C1.89779 5.63477 1.50228 5.78614 1.14746 6.08887C0.792643 6.3916 0.512695 6.80176 0.307617 7.31934C0.102539 7.83691 0 8.41471 0 9.05273ZM4.73633 3.41797C4.73633 4.05599 4.8405 4.63379 5.04883 5.15137C5.25716 5.66894 5.53874 6.07747 5.89355 6.37695C6.24837 6.67643 6.64388 6.82617 7.08008 6.82617C7.52279 6.82617 7.92155 6.67643 8.27637 6.37695C8.63118 6.07747 8.91276 5.66894 9.12109 5.15137C9.32942 4.63379 9.43359 4.05599 9.43359 3.41797C9.43359 2.77344 9.32942 2.19401 9.12109 1.67969C8.91276 1.16537 8.63118 0.756836 8.27637 0.454102C7.92155 0.151367 7.52279 0 7.08008 0C6.64388 0 6.24837 0.151367 5.89355 0.454102C5.53874 0.756836 5.25716 1.16537 5.04883 1.67969C4.8405 2.19401 4.73633 2.77344 4.73633 3.41797ZM11.123 3.41797C11.123 4.05599 11.2256 4.63379 11.4307 5.15137C11.6358 5.66894 11.9157 6.07747 12.2705 6.37695C12.6253 6.67643 13.0241 6.82617 13.4668 6.82617C13.903 6.82617 14.2985 6.67643 14.6533 6.37695C15.0081 6.07747 15.2897 5.66894 15.498 5.15137C15.7063 4.63379 15.8105 4.05599 15.8105 3.41797C15.8105 2.77344 15.7063 2.19401 15.498 1.67969C15.2897 1.16537 15.0081 0.756836 14.6533 0.454102C14.2985 0.151367 13.903 0 13.4668 0C13.0241 0 12.6253 0.151367 12.2705 0.454102C11.9157 0.756836 11.6358 1.16537 11.4307 1.67969C11.2256 2.19401 11.123 2.77344 11.123 3.41797ZM15.8691 9.05273C15.8691 9.69724 15.9733 10.2767 16.1816 10.791C16.3899 11.3053 16.6699 11.7139 17.0215 12.0166C17.373 12.3193 17.7702 12.4707 18.2129 12.4707C18.6491 12.4707 19.0446 12.3193 19.3994 12.0166C19.7542 11.7139 20.0342 11.3053 20.2393 10.791C20.4444 10.2767 20.5469 9.69724 20.5469 9.05273C20.5469 8.41471 20.4444 7.83691 20.2393 7.31934C20.0342 6.80176 19.7542 6.3916 19.3994 6.08887C19.0446 5.78614 18.6491 5.63477 18.2129 5.63477C17.7702 5.63477 17.373 5.78614 17.0215 6.08887C16.6699 6.3916 16.3899 6.80176 16.1816 7.31934C15.9733 7.83691 15.8691 8.41471 15.8691 9.05273ZM2.92969 16.6113C2.92969 17.2689 3.06804 17.8516 3.34473 18.3594C3.62142 18.8672 4.00554 19.266 4.49707 19.5557C4.98861 19.8454 5.5599 19.9902 6.21094 19.9902C6.69271 19.9902 7.11914 19.9349 7.49023 19.8242C7.86133 19.7135 8.21615 19.5996 8.55469 19.4824C8.82812 19.3847 9.10319 19.2985 9.37988 19.2236C9.65657 19.1487 9.95441 19.1113 10.2734 19.1113C10.5925 19.1113 10.8887 19.1487 11.1621 19.2236C11.4356 19.2985 11.7123 19.3847 11.9922 19.4824C12.3242 19.5996 12.6758 19.7135 13.0469 19.8242C13.418 19.9349 13.8444 19.9902 14.3262 19.9902C14.9772 19.9902 15.5501 19.8454 16.0449 19.5557C16.5397 19.266 16.9254 18.8672 17.2021 18.3594C17.4788 17.8516 17.6172 17.2689 17.6172 16.6113C17.6172 16.0514 17.5195 15.5729 17.3242 15.1758C17.1289 14.7787 16.8798 14.432 16.5771 14.1357C16.2744 13.8395 15.9635 13.5579 15.6445 13.291C15.3776 13.0762 15.1204 12.8597 14.873 12.6416C14.6257 12.4235 14.4141 12.1778 14.2383 11.9043C14.0886 11.683 13.9535 11.4567 13.833 11.2256C13.7125 10.9945 13.6002 10.765 13.4961 10.5371C13.2617 10.0358 13.0224 9.56218 12.7783 9.11621C12.5342 8.67025 12.22 8.30892 11.8359 8.03223C11.4518 7.75554 10.931 7.61719 10.2734 7.61719C9.61587 7.61719 9.09505 7.75554 8.71094 8.03223C8.32683 8.30892 8.0127 8.67025 7.76855 9.11621C7.52441 9.56218 7.28515 10.0325 7.05078 10.5273C6.94661 10.7552 6.83431 10.9847 6.71387 11.2158C6.59342 11.4469 6.46159 11.6699 6.31836 11.8848C6.14258 12.1582 5.92936 12.4072 5.67871 12.6318C5.42806 12.8565 5.16927 13.0762 4.90234 13.291C4.57682 13.5579 4.26432 13.8395 3.96484 14.1357C3.66536 14.432 3.41797 14.7787 3.22266 15.1758C3.02735 15.5729 2.92969 16.0514 2.92969 16.6113Z" />
</svg>
