<svg width="1.0417vw" height="2.037vh" viewBox="0 0 20 22">
<path fill-rule="evenodd" clip-rule="evenodd" d="M4.49871 2.79167C4.49871 1.24987 5.74858 0 7.29038 0H12.4564C13.8371 0 14.9564 1.11929 14.9564 2.5C14.9564 3.05228 15.4041 3.5 15.9564 3.5H16.5457C18.1306 3.5 19.5245 4.72999 19.4599 6.41561C19.3771 8.57667 18.9574 12.0431 17.2741 15.1108C16.8178 15.9423 16.2084 16.7592 15.5496 17.5203L15.5 17.5776C14.5523 18.6726 13.7622 19.5856 12.9127 20.2079C11.999 20.8773 11.0238 21.2107 9.72755 21.2107C8.43125 21.2107 7.45607 20.8773 6.54238 20.2079C5.69291 19.5856 4.90276 18.6726 3.95509 17.5776L3.90549 17.5203C3.24673 16.7592 2.63733 15.9423 2.18104 15.1108C0.55189 12.1418 0.105237 9.00749 0.00371348 6.99648C-0.0817939 5.30273 1.32212 4.08333 2.89818 4.08333H3.20704C3.92041 4.08333 4.49871 3.50503 4.49871 2.79167ZM12.6218 9.40165C12.9147 9.10876 12.9147 8.63388 12.6218 8.34099C12.329 8.0481 11.8541 8.0481 11.5612 8.34099L9.9702 9.93198L8.37921 8.34099C8.08631 8.0481 7.61144 8.0481 7.31855 8.34099C7.02565 8.63388 7.02565 9.10876 7.31855 9.40165L8.90954 10.9926L7.31855 12.5836C7.02565 12.8765 7.02565 13.3514 7.31855 13.6443C7.61144 13.9372 8.08631 13.9372 8.37921 13.6443L9.9702 12.0533L11.5612 13.6443C11.8541 13.9372 12.329 13.9372 12.6218 13.6443C12.9147 13.3514 12.9147 12.8765 12.6218 12.5836L11.0309 10.9926L12.6218 9.40165Z" />
</svg>
