<svg width="1.0417vw" height="1.8519vh" viewBox="0 0 20 20" >
<path d="M11.7959 6.13114e-08C12.9058 -3.66005e-06 13.778 -6.6325e-06 14.4845 0.0545566C15.2055 0.110236 15.8057 0.225474 16.3622 0.483341C17.2812 0.909188 18.0563 1.59342 18.5928 2.45249C18.9177 2.97269 19.1065 3.55393 19.2512 4.26247C19.3929 4.95678 19.5011 5.82222 19.6388 6.92349L19.6463 6.98394C19.8191 8.36599 19.9542 9.44673 19.9882 10.3171C20.0227 11.201 19.9575 11.937 19.6847 12.6117C19.2386 13.715 18.4286 14.6327 17.389 15.2122C16.7534 15.5665 16.0312 15.7225 15.1498 15.7979C14.282 15.8721 13.1928 15.8721 11.8 15.8721H10.6903V17.5355C11.2566 17.5751 11.8202 17.6642 12.3748 17.8028L13.8029 18.1599C14.1674 18.251 14.389 18.6203 14.2979 18.9848C14.2068 19.3492 13.8374 19.5708 13.473 19.4797L12.0448 19.1227C11.3768 18.9557 10.6934 18.8722 10.0101 18.8722C9.32665 18.8722 8.64326 18.9557 7.97529 19.1227L6.54712 19.4797C6.18266 19.5708 5.81333 19.3492 5.72222 18.9848C5.6311 18.6203 5.85269 18.251 6.21716 18.1599L7.64533 17.8028C8.19986 17.6642 8.76353 17.5751 9.32982 17.5355V15.8721H8.22013C6.8273 15.8721 5.73813 15.8721 4.87029 15.7979C3.98888 15.7225 3.26669 15.5665 2.63106 15.2122C1.59152 14.6327 0.781464 13.715 0.335388 12.6117C0.0626328 11.937 -0.00262366 11.201 0.0319079 10.3171C0.0659076 9.44672 0.201007 8.36595 0.373773 6.98385L0.381306 6.92359C0.518967 5.82227 0.627147 4.9568 0.768927 4.26247C0.913607 3.55393 1.1024 2.97269 1.4273 2.45249C1.96384 1.59342 2.73893 0.909188 3.65792 0.483341C4.2144 0.225474 4.81457 0.110236 5.53558 0.0545566C6.24213 -6.6325e-06 7.11434 -3.66005e-06 8.22423 6.13114e-08H11.7959Z"/>
</svg>
