<svg width="1.0938vw" height="2.037vh" viewBox="0 0 21 22" >
<path fill-rule="evenodd" clip-rule="evenodd" d="M9.99115 0.00707375C10.1811 -0.00235791 10.3714 -0.00235791 10.5614 0.00707369C11.2948 0.0434839 11.9699 0.256574 12.7226 0.60585C13.4553 0.945868 14.3067 1.43743 15.3838 2.05933L15.4449 2.09458C16.5221 2.71648 17.3735 3.20806 18.0344 3.67261C18.7132 4.14979 19.2353 4.62795 19.6335 5.24486C19.7367 5.40466 19.8318 5.56948 19.9186 5.73871C20.2538 6.39203 20.4068 7.08328 20.4807 7.90974C20.5526 8.7143 20.5526 9.69744 20.5526 10.9412V11.0117C20.5526 12.2555 20.5526 13.2387 20.4807 14.0433C20.4068 14.8697 20.2538 15.561 19.9186 16.2143C19.8318 16.3835 19.7367 16.5483 19.6335 16.7081C19.2353 17.325 18.7132 17.8032 18.0344 18.2804C17.3735 18.7449 16.5221 19.2365 15.4449 19.8584L15.3839 19.8936C14.3068 20.5155 13.4553 21.0071 12.7226 21.3471C11.9699 21.6964 11.2948 21.9095 10.5614 21.9459C10.3714 21.9554 10.1811 21.9554 9.99115 21.9459C9.25779 21.9095 8.58263 21.6964 7.82997 21.3471C7.09726 21.0071 6.24584 20.5156 5.1687 19.8937L5.10758 19.8584C4.0305 19.2365 3.17898 18.7449 2.51819 18.2804C1.83938 17.8032 1.31726 17.325 0.919045 16.7081C0.815892 16.5483 0.720733 16.3835 0.633917 16.2143C0.298769 15.561 0.145728 14.8697 0.0718808 14.0433C-1.09076e-05 13.2387 -6.01949e-06 12.2555 1.19788e-07 11.0117V10.9413C-6.25791e-06 9.69747 -1.13249e-05 8.71432 0.0718802 7.90974C0.145727 7.08328 0.298768 6.39203 0.633916 5.73871C0.720732 5.56948 0.815891 5.40466 0.919044 5.24486C1.31726 4.62795 1.83938 4.14979 2.51819 3.67261C3.17902 3.20806 4.03046 2.71649 5.10764 2.09459L5.16862 2.05938C6.24579 1.43747 7.09724 0.945877 7.82997 0.60585C8.58263 0.256575 9.25779 0.0434841 9.99115 0.00707375ZM15.9496 8.44966C16.132 8.07777 15.9784 7.62842 15.6065 7.446C15.2347 7.26359 14.7853 7.41718 14.6029 7.78906L13.1426 10.7661C12.6899 11.6889 11.3596 11.6438 10.9704 10.6925C10.0912 8.54348 7.0858 8.44167 6.06323 10.5263L4.60289 13.5033C4.42047 13.8752 4.57406 14.3246 4.94595 14.507C5.31783 14.6894 5.76718 14.5358 5.9496 14.1639L7.40993 11.1869C7.86257 10.2641 9.19293 10.3092 9.58208 11.2605C10.4612 13.4095 13.4667 13.5113 14.4893 11.4267L15.9496 8.44966Z"/>
</svg>
