<svg width=".9375vw" height="1.6667vh" viewBox="0 0 18 18" >
<path fill-rule="evenodd" clip-rule="evenodd" d="M7.07154 1.55111e-05H7.38599C9.00506 -0.000234718 9.989 -0.000386787 10.7766 0.250575C12.7137 0.867832 14.1279 2.53735 14.4184 4.54956C14.465 4.87268 14.4679 5.21958 14.438 5.61946C15.9903 5.96126 17.1518 7.345 17.1518 9.00001C17.1518 10.9118 15.602 12.4615 13.6903 12.4615C13.5777 12.4615 13.4663 12.4562 13.3563 12.4456L13.2764 12.925C13.1759 13.5283 13.1145 13.8969 13.0174 14.2201C12.4139 16.2278 10.6853 17.6922 8.60571 17.9574C8.27089 18.0001 7.89728 18 7.28574 18H7.17189C6.56035 18 6.18664 18.0001 5.85182 17.9574C3.77225 17.6922 2.04361 16.2278 1.44016 14.2201C1.343 13.8969 1.28159 13.5283 1.18108 12.925L0.349435 7.93519C0.0830144 6.33819 -0.0788934 5.36767 0.0391778 4.54956C0.329582 2.53735 1.74388 0.867832 3.68096 0.250575C4.46853 -0.000386787 5.45247 -0.000234718 7.07154 1.55111e-05ZM13.5849 11.0743C13.6198 11.0761 13.6549 11.0769 13.6903 11.0769C14.8373 11.0769 15.7672 10.1471 15.7672 9.00001C15.7672 8.05099 15.1307 7.25063 14.2613 7.00257C14.216 7.28827 14.1644 7.59741 14.1082 7.93447L13.5849 11.0743ZM4.21825 7.03364C4.15186 6.6571 3.79279 6.40568 3.41625 6.47207C3.03971 6.53847 2.78828 6.89754 2.85468 7.27408L3.81642 12.7284C3.88281 13.1049 4.24188 13.3563 4.61842 13.29C4.99497 13.2236 5.24639 12.8645 5.17999 12.4879L4.21825 7.03364Z"/>
</svg>
