<svg width=".9375vw" height="1.6667vh" viewBox="0 0 18 18">
<path fill-rule="evenodd" clip-rule="evenodd" d="M8.79818 0.606763C3.99517 0.606763 0.101562 4.50037 0.101562 9.30338C0.101562 14.1064 3.99517 18 8.79818 18C13.6012 18 17.4948 14.1064 17.4948 9.30338C17.4948 4.50037 13.6012 0.606763 8.79818 0.606763ZM9.40492 6.06743C9.40492 5.73234 9.13327 5.46069 8.79818 5.46069C8.46309 5.46069 8.19144 5.73234 8.19144 6.06743L8.19144 8.89889C8.19144 9.23398 7.91979 9.50563 7.5847 9.50563H6.37122C6.03612 9.50563 5.76448 9.77728 5.76448 10.1124C5.76448 10.4475 6.03612 10.7191 6.37122 10.7191H7.5847C8.58998 10.7191 9.40492 9.90417 9.40492 8.89889L9.40492 6.06743Z" />
<path d="M3.91879 1.08055C4.18045 0.871217 4.22288 0.489399 4.01355 0.227735C3.80421 -0.033929 3.4224 -0.0763532 3.16073 0.132978L1.13826 1.75095C0.876599 1.96029 0.834175 2.3421 1.04351 2.60377C1.25284 2.86543 1.63465 2.90786 1.89632 2.69852L3.91879 1.08055Z" />
<path d="M14.4356 0.132978C14.174 -0.0763532 13.7921 -0.033929 13.5828 0.227735C13.3735 0.489399 13.4159 0.871217 13.6776 1.08055L15.7 2.69852C15.9617 2.90786 16.3435 2.86543 16.5529 2.60377C16.7622 2.3421 16.7198 1.96029 16.4581 1.75095L14.4356 0.132978Z" />
</svg>
