<svg width="1.1979vw" height="2.1296vh" viewBox="0 0 23 23">
<path fill-rule="evenodd" clip-rule="evenodd" d="M0.601562 11.4016C0.601562 5.43689 5.43689 0.601562 11.4016 0.601562C17.3662 0.601562 22.2016 5.43689 22.2016 11.4016C22.2016 14.4642 20.9258 17.2302 18.8787 19.1947C16.9389 21.0563 14.3032 22.2016 11.4016 22.2016C8.49995 22.2016 5.86425 21.0563 3.92445 19.1947C1.87736 17.2302 0.601562 14.4642 0.601562 11.4016ZM17.513 18.4025C17.0799 17.1072 15.8561 16.1737 14.4155 16.1737H8.38761C6.94707 16.1737 5.72318 17.1072 5.29014 18.4025C6.92436 19.8304 9.06135 20.6946 11.4016 20.6946C13.7418 20.6946 15.8788 19.8304 17.513 18.4025ZM11.4016 3.61552C8.76601 3.61552 6.62947 5.75206 6.62947 8.38761C6.62947 11.0232 8.76601 13.1597 11.4016 13.1597C14.0371 13.1597 16.1737 11.0232 16.1737 8.38761C16.1737 5.75206 14.0371 3.61552 11.4016 3.61552Z" />
</svg>
