<svg width="1.1979vw" height="2.1296vh"  viewBox="0 0 23 23" >
<path d="M0.601562 5.43738C0.601562 4.23567 0.601562 3.63482 0.797885 3.16085C1.05965 2.5289 1.56173 2.02681 2.19369 1.76505C2.66765 1.56873 3.26851 1.56873 4.47022 1.56873C5.67193 1.56873 6.27279 1.56873 6.74675 1.76505C7.37871 2.02681 7.88079 2.5289 8.14255 3.16085C8.33888 3.63482 8.33888 4.23567 8.33888 5.43738C8.33888 6.6391 8.33888 7.23995 8.14255 7.71392C7.88079 8.34587 7.37871 8.84795 6.74675 9.10972C6.27279 9.30604 5.67193 9.30604 4.47022 9.30604C3.26851 9.30604 2.66765 9.30604 2.19369 9.10972C1.56173 8.84795 1.05965 8.34587 0.797885 7.71392C0.601562 7.23995 0.601562 6.6391 0.601562 5.43738Z" />
<path d="M0.601562 18.3329C0.601562 17.1312 0.601562 16.5303 0.797885 16.0564C1.05965 15.4244 1.56173 14.9223 2.19369 14.6606C2.66765 14.4642 3.26851 14.4642 4.47022 14.4642C5.67193 14.4642 6.27279 14.4642 6.74675 14.6606C7.37871 14.9223 7.88079 15.4244 8.14255 16.0564C8.33888 16.5303 8.33888 17.1312 8.33888 18.3329C8.33888 19.5346 8.33888 20.1355 8.14255 20.6094C7.88079 21.2414 7.37871 21.7435 6.74675 22.0052C6.27279 22.2016 5.67193 22.2016 4.47022 22.2016C3.26851 22.2016 2.66765 22.2016 2.19369 22.0052C1.56173 21.7435 1.05965 21.2414 0.797885 20.6094C0.601562 20.1355 0.601562 19.5346 0.601562 18.3329Z" />
<path d="M13.4971 18.3329C13.4971 17.1312 13.4971 16.5303 13.6934 16.0564C13.9552 15.4244 14.4573 14.9223 15.0892 14.6606C15.5632 14.4642 16.164 14.4642 17.3657 14.4642C18.5675 14.4642 19.1683 14.4642 19.6423 14.6606C20.2742 14.9223 20.7763 15.4244 21.0381 16.0564C21.2344 16.5303 21.2344 17.1312 21.2344 18.3329C21.2344 19.5346 21.2344 20.1355 21.0381 20.6094C20.7763 21.2414 20.2742 21.7435 19.6423 22.0052C19.1683 22.2016 18.5675 22.2016 17.3657 22.2016C16.164 22.2016 15.5632 22.2016 15.0892 22.0052C14.4573 21.7435 13.9552 21.2414 13.6934 20.6094C13.4971 20.1355 13.4971 19.5346 13.4971 18.3329Z" />
<path d="M18.3329 1.56873C18.3329 1.03458 17.8999 0.601562 17.3657 0.601562C16.8316 0.601562 16.3986 1.03458 16.3986 1.56873V4.47022H13.4971C12.9629 4.47022 12.5299 4.90323 12.5299 5.43738C12.5299 5.97153 12.9629 6.40455 13.4971 6.40455H16.3986V9.30604C16.3986 9.84019 16.8316 10.2732 17.3657 10.2732C17.8999 10.2732 18.3329 9.84019 18.3329 9.30604V6.40455H21.2344C21.7685 6.40455 22.2016 5.97153 22.2016 5.43738C22.2016 4.90323 21.7685 4.47022 21.2344 4.47022H18.3329V1.56873Z" />
</svg>
