<svg width="1.1979vw" height="1.8519vh" viewBox="0 0 23 20">
<path d="M3.88336 16.2693C3.9478 16.3348 3.9478 16.4409 3.88336 16.5064L3.82675 16.5639L3.53334 16.862L3.88336 17.2177C3.9478 17.2831 3.9478 17.3893 3.88336 17.4548C3.81892 17.5202 3.71445 17.5202 3.65002 17.4548L3.3 17.0991L2.94998 17.4548C2.88554 17.5202 2.78107 17.5202 2.71663 17.4548C2.6522 17.3893 2.6522 17.2831 2.71663 17.2177L3.06665 16.862L2.71663 16.5064C2.6522 16.4409 2.6522 16.3348 2.71663 16.2693C2.78107 16.2038 2.88554 16.2038 2.94998 16.2693L3.3 16.6249L3.48811 16.4338L3.65002 16.2693C3.71445 16.2038 3.81892 16.2038 3.88336 16.2693Z"/>
<path fill-rule="evenodd" clip-rule="evenodd" d="M18.7 19.0431C19.915 19.0431 20.9 18.0423 20.9 16.8078C20.9 15.5733 19.915 14.5725 18.7 14.5725C17.485 14.5725 16.5 15.5733 16.5 16.8078C16.5 18.0423 17.485 19.0431 18.7 19.0431ZM19.2834 16.5064C19.3478 16.4409 19.3478 16.3348 19.2834 16.2693C19.2189 16.2038 19.1145 16.2038 19.05 16.2693L18.7 16.6249L18.35 16.2693C18.2855 16.2038 18.1811 16.2038 18.1166 16.2693C18.0522 16.3348 18.0522 16.4409 18.1166 16.5064L18.4667 16.862L18.1166 17.2177C18.0522 17.2831 18.0522 17.3893 18.1166 17.4548C18.1811 17.5202 18.2855 17.5202 18.35 17.4548L18.7 17.0991L19.05 17.4548C19.1145 17.5202 19.2189 17.5202 19.2834 17.4548C19.3478 17.3893 19.3478 17.2831 19.2834 17.2177L18.9333 16.862L19.2834 16.5064Z"/>
<path d="M19.2834 16.2693C19.3478 16.3348 19.3478 16.4409 19.2834 16.5064L18.9333 16.862L19.2834 17.2177C19.3478 17.2831 19.3478 17.3893 19.2834 17.4548C19.2189 17.5202 19.1145 17.5202 19.05 17.4548L18.7 17.0991L18.35 17.4548C18.2855 17.5202 18.1811 17.5202 18.1166 17.4548C18.0522 17.3893 18.0522 17.2831 18.1166 17.2177L18.4667 16.862L18.1166 16.5064C18.0522 16.4409 18.0522 16.3348 18.1166 16.2693C18.1811 16.2038 18.2855 16.2038 18.35 16.2693L18.7 16.6249L19.05 16.2693C19.1145 16.2038 19.2189 16.2038 19.2834 16.2693Z"/>
<path d="M5.5 16.8078C5.5 15.5733 4.51503 14.5725 3.3 14.5725C2.69395 14.5725 2.14514 14.8215 1.74724 15.2243C2.17565 15.656 2.66917 16.0208 3.21257 16.3031C3.30303 16.3501 3.39481 16.3935 3.48811 16.4338L3.65002 16.2693C3.71445 16.2038 3.81892 16.2038 3.88336 16.2693C3.9478 16.3348 3.9478 16.4409 3.88336 16.5064L3.82675 16.5639C3.97564 16.6145 4.12868 16.6582 4.28662 16.6962C4.88895 16.8408 5.16227 16.88 5.49823 16.8982C5.49941 16.8682 5.5 16.8381 5.5 16.8078Z"/>
<path d="M17.5566 4.76017C17.546 4.92655 17.5325 5.08593 17.5154 5.23925C17.6139 5.25948 17.7105 5.28171 17.8054 5.30618L22.1745 0.93708C22.3889 0.72271 22.3889 0.375148 22.1745 0.160777C21.9602 -0.0535926 21.6126 -0.0535924 21.3982 0.160777L17.5885 3.97053C17.5821 4.2568 17.5721 4.519 17.5566 4.76017Z"/>
<path fill-rule="evenodd" clip-rule="evenodd" d="M12.1117 0.0430844H12.2485C13.0907 0.0430807 13.751 0.043078 14.2816 0.0982695C14.822 0.154469 15.2684 0.270805 15.6725 0.532878C16.3367 0.963712 16.8768 1.65117 17.2152 2.49673C17.396 2.94835 17.4885 3.44153 17.5383 4.02074L16.4632 5.09581L13.6192 7.93981C13.5979 7.8508 13.5802 7.74599 13.5665 7.62059C13.5244 7.2347 13.5258 6.72811 13.5291 5.99082L13.5334 5.02276L13.5372 4.17412C13.5386 3.87096 13.2939 3.6241 12.9907 3.62275C12.6876 3.6214 12.4407 3.86606 12.4394 4.16923L12.4356 5.02266L12.4311 6.01865C12.428 6.7152 12.4254 7.28451 12.4752 7.73977C12.5264 8.20885 12.6386 8.62464 12.9122 8.98306L12.9198 8.99299C13.0422 9.15114 13.1842 9.29308 13.3423 9.41547C13.703 9.69459 14.1221 9.80845 14.5955 9.86015C15.0508 9.90987 15.6201 9.90732 16.3167 9.9042L18.1661 9.89595C18.4692 9.8946 18.7139 9.64774 18.7126 9.34458C18.7112 9.04141 18.4644 8.79675 18.1612 8.7981L16.3445 8.80621C15.7853 8.8087 15.3589 8.81013 15.0171 8.79229C14.9082 8.7866 14.808 8.77896 14.7147 8.76878C14.5893 8.75509 14.4845 8.73744 14.3955 8.71611L17.4566 5.65506L17.8054 5.30618C18.1533 5.39588 18.4778 5.51558 18.7874 5.67641C19.8945 6.25146 20.7946 7.16904 21.3587 8.29764C21.7018 8.98416 21.8542 9.74263 21.9277 10.6607C21.9823 11.3414 21.9966 8.54485 21.9998 7.74928L22 7.79421V7.86446C22 9.29524 22 10.4172 21.9277 11.3187C21.8542 12.2368 21.7018 12.9953 21.3587 13.6818C20.7946 14.8104 19.8945 15.728 18.7874 16.3031C18.4511 16.4777 18.0967 16.6041 17.7134 16.6962C16.9536 16.8787 16.6267 16.9568 15.7678 16.9256C15.0191 16.9568 14.1316 16.9568 13.0694 16.9568H8.93043C7.86808 16.9568 6.98096 16.9568 6.2322 16.9256C6.08752 16.9196 5.96335 16.9156 5.85264 16.912C5.71976 16.9077 5.60556 16.904 5.49823 16.8982C5.49941 16.8682 5.5 16.8381 5.5 16.8078C5.5 15.5733 4.51503 14.5725 3.3 14.5725C2.69395 14.5725 2.14514 14.8215 1.74724 15.2243C1.30284 14.7764 0.928506 14.2565 0.641288 13.6818C0.298155 12.9953 0.145837 12.2368 0.0722542 11.3187C-8.27014e-06 10.4171 -4.54704e-06 9.29528 7.37268e-08 7.86439V7.79438L0.000130452 7.54359L0.000722044 7.66598C0.003355 8.32217 0.0155761 11.3679 0.0722542 10.6607C0.145837 9.74263 0.298155 8.98416 0.641288 8.29764C1.20538 7.16904 2.10547 6.25146 3.21257 5.67641C3.60667 5.4717 4.02495 5.33362 4.48463 5.23925C4.46747 5.08593 4.45403 4.92655 4.44335 4.76017C4.4 4.08466 4.4 3.24417 4.4 2.17214V2.11968L4.40008 1.93179L4.40043 2.02353C4.40201 2.51524 4.40935 4.797 4.44335 4.26719C4.4875 3.57933 4.57889 3.01108 4.78477 2.49673C5.12323 1.65117 5.66329 0.963712 6.32754 0.532878C6.7316 0.270805 7.17801 0.154469 7.71838 0.0982695C8.24905 0.043078 8.90932 0.0430807 9.75149 0.0430844H12.1117ZM3.48811 16.4338C3.39481 16.3935 3.30303 16.3501 3.21257 16.3031C2.66917 16.0208 2.17565 15.656 1.74724 15.2243C1.34743 15.629 1.1 16.1891 1.1 16.8078C1.1 18.0423 2.08498 19.0431 3.3 19.0431C4.48522 19.0431 5.45153 18.0908 5.49823 16.8982C5.16227 16.88 4.88895 16.8408 4.28662 16.6962C4.12868 16.6582 3.97564 16.6145 3.82675 16.5639L3.88336 16.5064C3.9478 16.4409 3.9478 16.3348 3.88336 16.2693C3.81892 16.2038 3.71445 16.2038 3.65002 16.2693L3.48811 16.4338ZM3.48811 16.4338C3.59874 16.4816 3.7115 16.5248 3.82675 16.5639L3.53334 16.862L3.88336 17.2177C3.9478 17.2831 3.9478 17.3893 3.88336 17.4548C3.81892 17.5202 3.71445 17.5202 3.65002 17.4548L3.3 17.0991L2.94998 17.4548C2.88554 17.5202 2.78107 17.5202 2.71663 17.4548C2.6522 17.3893 2.6522 17.2831 2.71663 17.2177L3.06665 16.862L2.71663 16.5064C2.6522 16.4409 2.6522 16.3348 2.71663 16.2693C2.78107 16.2038 2.88554 16.2038 2.94998 16.2693L3.3 16.6249L3.48811 16.4338ZM17.5837 3.97531C17.5774 4.28937 17.5687 4.45506 17.5566 4.26719C17.5513 4.1833 17.5452 4.10119 17.5383 4.02074L17.5837 3.97531ZM17.5837 3.97531C17.5951 3.40387 17.5985 2.34122 17.5996 2.02362L17.6 2.11955V2.17219C17.6 2.86143 17.6 3.45499 17.5885 3.97053L17.5837 3.97531ZM21.9996 7.58234C21.9996 7.56303 21.9998 7.55118 21.9998 7.54619L21.9996 7.58234ZM6 12.0431C6 12.5954 5.55228 13.0431 5 13.0431C4.44771 13.0431 4 12.5954 4 12.0431C4 11.4908 4.44771 11.0431 5 11.0431C5.55228 11.0431 6 11.4908 6 12.0431ZM18 13.0431C18.5523 13.0431 19 12.5954 19 12.0431C19 11.4908 18.5523 11.0431 18 11.0431C17.4477 11.0431 17 11.4908 17 12.0431C17 12.5954 17.4477 13.0431 18 13.0431Z"/>
</svg>
