<svg width="1.0417vw" height="1.8519vh" viewBox="0 0 20 20">
<path fill-rule="evenodd" clip-rule="evenodd" d="M9.79525 1.32337e-07C11.6318 -8.0335e-06 13.0714 -1.45286e-05 14.2135 0.123728C15.3791 0.250006 16.3234 0.512324 17.1298 1.09815C17.6179 1.45281 18.0472 1.88209 18.4018 2.37024C18.9877 3.17656 19.25 4.12094 19.3763 5.28648C19.5 6.42859 19.5 7.86816 19.5 9.70465V9.79527C19.5 11.6318 19.5 13.0714 19.3763 14.2135C19.25 15.3791 18.9877 16.3234 18.4018 17.1298C18.0472 17.6179 17.6179 18.0472 17.1298 18.4018C16.3234 18.9877 15.3791 19.25 14.2135 19.3763C13.0714 19.5 11.6318 19.5 9.79535 19.5H9.70473C7.86824 19.5 6.42859 19.5 5.28648 19.3763C4.12094 19.25 3.17656 18.9877 2.37024 18.4018C1.88209 18.0472 1.45281 17.6179 1.09815 17.1298C0.512324 16.3234 0.250006 15.3791 0.123728 14.2135C-1.45286e-05 13.0714 -8.0335e-06 11.6318 1.32337e-07 9.79525V9.70475C-8.0335e-06 7.86821 -1.45286e-05 6.42861 0.123728 5.28648C0.250006 4.12094 0.512324 3.17656 1.09815 2.37024C1.45281 1.88209 1.88209 1.45281 2.37024 1.09815C3.17656 0.512324 4.12094 0.250006 5.28648 0.123728C6.42861 -1.45286e-05 7.86821 -8.0335e-06 9.70475 1.32337e-07H9.79525ZM10.5 4.75C10.5 4.33579 10.1642 4 9.75 4C9.33579 4 9 4.33579 9 4.75V8.36842L6.53019 5.8986C6.23729 5.60571 5.76242 5.60571 5.46952 5.8986C5.17663 6.1915 5.17663 6.66637 5.46952 6.95926L7.51026 9H4.75C4.33579 9 4 9.33579 4 9.75C4 10.1642 4.33579 10.5 4.75 10.5H7.93934L5.46967 12.9697C5.17678 13.2626 5.17678 13.7374 5.46967 14.0303C5.76256 14.3232 6.23744 14.3232 6.53033 14.0303L9 11.5607V14.75C9 15.1642 9.33579 15.5 9.75 15.5C10.1642 15.5 10.5 15.1642 10.5 14.75V11.9897L12.5406 14.0303C12.8335 14.3232 13.3084 14.3232 13.6013 14.0303C13.8941 13.7374 13.8941 13.2626 13.6013 12.9697L11.1316 10.5H14.75C15.1642 10.5 15.5 10.1642 15.5 9.75C15.5 9.33579 15.1642 9 14.75 9H11.5607L13.6014 6.95926C13.8943 6.66637 13.8943 6.1915 13.6014 5.8986C13.3085 5.60571 12.8336 5.60571 12.5407 5.8986L10.5 7.93934V4.75Z"/>
</svg>
