<svg width="1.0417vw" height="2.037vh" viewBox="0 0 20 22">
<path fill-rule="evenodd" clip-rule="evenodd" d="M4.49871 2.79167C4.49871 1.24987 5.74858 0 7.29038 0H12.4564C13.8371 0 14.9564 1.11929 14.9564 2.5C14.9564 3.05228 15.4041 3.5 15.9564 3.5H16.5457C18.1306 3.5 19.5245 4.72999 19.4599 6.41561C19.3771 8.57667 18.9574 12.0431 17.2741 15.1108C16.8178 15.9423 16.2084 16.7592 15.5496 17.5203L15.5 17.5776C14.5523 18.6726 13.7622 19.5856 12.9127 20.2079C11.999 20.8773 11.0238 21.2107 9.72755 21.2107C8.43125 21.2107 7.45607 20.8773 6.54238 20.2079C5.69291 19.5856 4.90276 18.6726 3.95509 17.5776L3.90549 17.5203C3.24673 16.7592 2.63733 15.9423 2.18104 15.1108C0.55189 12.1418 0.105237 9.00749 0.00371348 6.99648C-0.0817939 5.30273 1.32212 4.08333 2.89818 4.08333H3.20704C3.92041 4.08333 4.49871 3.50503 4.49871 2.79167ZM8.44659 7.10438C8.01563 6.70838 7.35321 6.70838 6.92225 7.10438C6.9046 7.12059 6.88576 7.13944 6.86129 7.16391L6.49366 7.53155C6.12372 7.90148 5.96842 8.43478 6.08191 8.94549C6.72583 11.8431 8.98881 14.1061 11.8864 14.75C12.3971 14.8635 12.9304 14.7082 13.3004 14.3383L13.668 13.9707C13.6925 13.9462 13.7113 13.9273 13.7275 13.9097C14.1235 13.4787 14.1235 12.8163 13.7275 12.3853C13.7113 12.3677 13.6925 12.3488 13.668 12.3243L13.0661 11.7225C12.6483 11.3046 12.0172 11.1851 11.4755 11.4213C11.1654 11.5564 10.8041 11.488 10.5649 11.2488L9.58312 10.267C9.34389 10.0278 9.27548 9.66652 9.41066 9.35639C9.64679 8.81468 9.52728 8.18365 9.10943 7.76579L8.50756 7.16392C8.48309 7.13944 8.46424 7.12059 8.44659 7.10438Z"/>
</svg>
