<svg width=".9896vw" height="1.9444vh" viewBox="0 0 19 21" >
<path d="M18.7164 5.43003L16.698 4.59667C16.5748 3.92987 16.0796 3.39601 15.4425 3.23032L15.3333 1.94309C15.3177 1.75947 15.504 0.766861 15.3333 0.708041C15.1626 0.649221 14.6674 1.53526 14.5465 1.67186L14.0184 2.26788L13.6945 1.1074C13.6405 0.914153 13.471 0.00703875 13.2747 3.39533e-05C13.0785 -0.00619826 12.9001 0.887782 12.8331 1.07681L10.038 8.96802C8.02743 9.50235 6.27172 10.819 5.19333 12.6107C4.20558 14.2518 3.89878 16.132 4.32944 17.9048C4.58113 18.941 5.059 19.6237 5.54784 20.0714H5.16338C5.15976 20.0714 5.15614 20.0715 5.15251 20.0716C3.33389 20.1169 1.64855 19.0588 0.861559 17.3774C0.753504 17.1465 0.482989 17.0491 0.257366 17.1596C0.0317437 17.2703 -0.0635282 17.547 0.0445774 17.7779C0.966092 19.7468 2.91723 21 5.04149 21C5.08387 21 13.6894 21 13.6894 21C13.9396 21 14.1423 20.7925 14.1423 20.5364C14.1423 19.2887 13.1698 18.7199 12.3115 18.5112C12.7129 17.7105 12.7475 17.0063 12.702 16.5456L12.8204 16.5294L15.5353 20.7897C15.6189 20.9208 15.7616 21 15.9147 21H17.5632C17.7281 21 17.8801 20.9082 17.9597 20.7604C18.0395 20.6126 18.0343 20.4321 17.9464 20.2893C17.9289 20.2609 16.2269 17.4953 15.3119 15.9469V8.15794C15.4466 8.1738 15.5978 8.18179 15.7314 8.18179C16.1417 8.18179 16.5444 8.10782 16.9244 7.96512C17.2161 7.85562 17.4944 7.70565 17.7527 7.51758C17.9819 7.35065 18.1953 7.1537 18.3881 6.92839C18.6016 6.67891 18.79 6.39465 18.9466 6.07787C18.9472 6.07679 18.9643 6.04033 18.967 6.03332C19.0606 5.79593 18.9484 5.52578 18.7164 5.43003Z" />
</svg>
