<svg width="1.0417vw" height="1.8519vh" viewBox="0 0 20 20" >
<path fill-rule="evenodd" clip-rule="evenodd" d="M9.99999 18.3333C8.84313 18.3333 7.76143 18.1176 6.7549 17.6863C5.74836 17.2549 4.86437 16.6585 4.10293 15.8971C3.3415 15.1356 2.74673 14.2517 2.31862 13.2451C1.89052 12.2386 1.67647 11.1569 1.67647 9.99999C1.67647 8.84313 1.89052 7.76143 2.31862 6.7549C2.74673 5.74836 3.33987 4.86274 4.09803 4.09803C4.8562 3.33333 5.73855 2.73692 6.74509 2.30882C7.75163 1.88072 8.83332 1.66667 9.99018 1.66667C11.1471 1.66667 12.2288 1.88072 13.2353 2.30882C14.2418 2.73692 15.1274 3.33333 15.8922 4.09803C16.6569 4.86274 17.2549 5.74836 17.6863 6.7549C18.1176 7.76143 18.3333 8.84313 18.3333 9.99999C18.3333 11.1569 18.1193 12.2386 17.6912 13.2451C17.263 14.2517 16.6683 15.1356 15.9068 15.8971C15.1454 16.6585 14.2598 17.2549 13.2499 17.6863C12.2402 18.1176 11.1569 18.3333 9.99999 18.3333ZM9.72548 15.951C9.72548 16.415 9.51306 16.647 9.08822 16.647C8.89868 16.647 8.74182 16.5882 8.61763 16.4705C8.49345 16.3529 8.43137 16.1797 8.43137 15.951V8.49018C8.43137 8.2745 8.34313 8.1013 8.16666 7.97057L6.74509 6.93137C6.60783 6.83332 6.49509 6.71567 6.40686 6.57842C6.31862 6.44117 6.26797 6.26797 6.2549 6.05882L6.12745 4.10784C6.11437 3.89215 6.15849 3.72875 6.25979 3.61765C6.3611 3.50653 6.49999 3.44444 6.67646 3.43137C6.8464 3.4183 6.98856 3.46241 7.10294 3.56372C7.21731 3.66503 7.28103 3.81699 7.2941 4.01961L7.42156 5.98038L8.2843 6.57842C8.43463 6.68299 8.57025 6.75652 8.69117 6.79901C8.81208 6.8415 8.97384 6.86274 9.17645 6.86274H9.99999C11.0653 6.86274 11.8529 7.01633 12.3628 7.32352C12.8726 7.63071 13.1275 8.22221 13.1275 9.09803V11.8137C13.1275 12.232 12.9346 12.4412 12.549 12.4412C12.3791 12.4412 12.2369 12.3872 12.1225 12.2794C12.0082 12.1715 11.951 12.0163 11.951 11.8137V8.95097C11.951 8.7745 11.8791 8.68626 11.7353 8.68626C11.5849 8.68626 11.5097 8.7745 11.5097 8.95097V15.951C11.5097 16.415 11.3006 16.647 10.8823 16.647C10.6928 16.647 10.5359 16.5882 10.4118 16.4705C10.2875 16.3529 10.2254 16.1797 10.2254 15.951V11.9411C10.2254 11.7255 10.147 11.6177 9.99018 11.6177C9.81371 11.6177 9.72548 11.7255 9.72548 11.9411V15.951ZM10.902 5.91665C10.6536 6.16829 10.3529 6.29411 9.99999 6.29411C9.64051 6.29411 9.33823 6.16666 9.09313 5.91176C8.84803 5.65685 8.72548 5.36274 8.72548 5.02941C8.72548 4.66993 8.84803 4.36601 9.09313 4.11764C9.33823 3.86928 9.64051 3.74509 9.99999 3.74509C10.3529 3.74509 10.6536 3.86928 10.902 4.11764C11.1503 4.36601 11.2745 4.66993 11.2745 5.02941C11.2745 5.36928 11.1503 5.66503 10.902 5.91665Z"/>
<path fill-rule="evenodd" clip-rule="evenodd" d="M9.99999 20C11.366 20 12.652 19.7385 13.8578 19.2156C15.0637 18.6928 16.1274 17.9706 17.049 17.049C17.9706 16.1274 18.6928 15.0637 19.2156 13.8578C19.7385 12.652 20 11.366 20 9.99999C20 8.63398 19.7385 7.34803 19.2156 6.14214C18.6928 4.93627 17.9706 3.87255 17.049 2.95097C16.1274 2.02941 15.0621 1.30719 13.8529 0.784313C12.6438 0.261438 11.3562 0 9.99018 0C8.62417 0 7.33823 0.261438 6.13235 0.784313C4.92646 1.30719 3.86437 2.02941 2.94607 2.95097C2.02778 3.87255 1.30719 4.93627 0.784313 6.14214C0.261438 7.34803 0 8.63398 0 9.99999C0 11.366 0.261438 12.652 0.784313 13.8578C1.30719 15.0637 2.02941 16.1274 2.95097 17.049C3.87255 17.9706 4.93627 18.6928 6.14214 19.2156C7.34803 19.7385 8.63398 20 9.99999 20ZM9.99999 18.3333C8.84313 18.3333 7.76143 18.1176 6.7549 17.6863C5.74836 17.2549 4.86437 16.6585 4.10293 15.8971C3.3415 15.1356 2.74673 14.2517 2.31862 13.2451C1.89052 12.2386 1.67647 11.1569 1.67647 9.99999C1.67647 8.84313 1.89052 7.76143 2.31862 6.7549C2.74673 5.74836 3.33987 4.86274 4.09803 4.09803C4.8562 3.33333 5.73855 2.73692 6.74509 2.30882C7.75163 1.88072 8.83332 1.66667 9.99018 1.66667C11.1471 1.66667 12.2288 1.88072 13.2353 2.30882C14.2418 2.73692 15.1274 3.33333 15.8922 4.09803C16.6569 4.86274 17.2549 5.74836 17.6863 6.7549C18.1176 7.76143 18.3333 8.84313 18.3333 9.99999C18.3333 11.1569 18.1193 12.2386 17.6912 13.2451C17.263 14.2517 16.6683 15.1356 15.9068 15.8971C15.1454 16.6585 14.2598 17.2549 13.2499 17.6863C12.2402 18.1176 11.1569 18.3333 9.99999 18.3333Z"/>
</svg>
