<svg width="1.4063vw" height="1.1111vh" viewBox="0 0 27 12">
<path d="M23.7339 8.21706C24.5232 8.23501 25.2324 8.27465 25.7717 8.37273C26.311 8.47081 26.4747 8.58991 26.4972 8.71957C26.5185 8.8429 26.4129 8.99764 26.2854 9.18425L25.9287 9.7068C25.6622 10.0972 25.4529 10.4038 25.0974 10.6421C24.733 10.8864 24.1911 11.0771 23.1849 11.2236C22.1778 11.3704 20.948 11.4369 19.4079 11.4688C17.9042 11.5 15.9947 11.5 13.562 11.5H13.4379C11.0052 11.5 9.09569 11.5 7.59197 11.4688C6.05182 11.4369 4.82204 11.3704 3.81493 11.2236C2.80879 11.0771 2.26683 10.8864 1.90244 10.6421C1.54694 10.4038 1.33764 10.0972 1.07113 9.70679L0.714427 9.18426C0.587004 8.99765 0.481335 8.8429 0.502686 8.71957C0.525131 8.58991 0.688823 8.47081 1.22816 8.37273C1.7675 8.27465 2.47669 8.23501 3.26594 8.21706C3.97246 8.201 4.86128 8.20005 5.92499 8.2L6.12685 8.2H20.1054H20.873L21.1958 8.20001C22.2061 8.20015 23.0543 8.20161 23.7339 8.21706Z"/>
<path d="M5.37493 7.1L6.45826 8.2H4.29159L5.37493 7.1Z"/>
<path d="M8.62493 7.1L9.70826 8.2H7.54159L8.62493 7.1Z"/>
<path d="M11.8749 7.1L12.9583 8.2H10.7916L11.8749 7.1Z"/>
<path d="M15.1249 7.1L16.2083 8.2H14.0416L15.1249 7.1Z"/>
<path d="M18.3749 7.1L19.4583 8.2H17.2916L18.3749 7.1Z"/>
<path d="M21.6249 7.1L22.7083 8.2H20.5416L21.6249 7.1Z"/>
<path d="M23.7339 3.78294C24.5232 3.76499 25.2324 3.72535 25.7717 3.62727C26.311 3.5292 26.4747 3.41009 26.4972 3.28043C26.5185 3.1571 26.4129 3.00236 26.2854 2.81575L25.9287 2.2932C25.6622 1.9028 25.4529 1.59617 25.0974 1.35785C24.733 1.11357 24.1911 0.922931 23.1849 0.776354C22.1778 0.629637 20.948 0.563104 19.4079 0.531172C17.9042 0.499996 15.9947 0.499998 13.562 0.5H13.4379C11.0052 0.499998 9.09569 0.499996 7.59197 0.531172C6.05182 0.563104 4.82204 0.629637 3.81493 0.776354C2.80879 0.922931 2.26683 1.11357 1.90244 1.35785C1.54694 1.59617 1.33764 1.9028 1.07113 2.29321L0.714427 2.81574C0.587004 3.00235 0.481335 3.1571 0.502686 3.28043C0.525131 3.41009 0.688823 3.5292 1.22816 3.62727C1.7675 3.72535 2.47669 3.76499 3.26594 3.78294C3.97246 3.799 4.86128 3.79995 5.92499 3.8L6.12685 3.8L20.1054 3.8L20.873 3.8L21.1958 3.79999C22.2061 3.79985 23.0543 3.79839 23.7339 3.78294Z"/>
<path d="M5.37493 4.9L6.45826 3.8H4.29159L5.37493 4.9Z"/>
<path d="M8.62493 4.9L9.70826 3.8H7.54159L8.62493 4.9Z"/>
<path d="M11.8749 4.9L12.9583 3.8H10.7916L11.8749 4.9Z"/>
<path d="M15.1249 4.9L16.2083 3.8H14.0416L15.1249 4.9Z"/>
<path d="M18.3749 4.9L19.4583 3.8H17.2916L18.3749 4.9Z"/>
<path d="M21.6249 4.9L22.7083 3.8H20.5416L21.6249 4.9Z"/>
</svg>
