<svg width="1.1979vw" height="1.8519vh" viewBox="0 0 23 20">
<path d="M3.88336 16.7872C3.9478 16.8527 3.9478 16.9588 3.88336 17.0243L3.82675 17.0818L3.53334 17.3799L3.88336 17.7355C3.9478 17.801 3.9478 17.9072 3.88336 17.9726C3.81892 18.0381 3.71445 18.0381 3.65002 17.9726L3.3 17.617L2.94998 17.9726C2.88554 18.0381 2.78107 18.0381 2.71663 17.9726C2.6522 17.9072 2.6522 17.801 2.71663 17.7355L3.06665 17.3799L2.71663 17.0243C2.6522 16.9588 2.6522 16.8527 2.71663 16.7872C2.78107 16.7217 2.88554 16.7217 2.94998 16.7872L3.3 17.1428L3.48811 16.9517L3.65002 16.7872C3.71445 16.7217 3.81892 16.7217 3.88336 16.7872Z"/>
<path fill-rule="evenodd" clip-rule="evenodd" d="M18.7 19.561C19.915 19.561 20.9 18.5602 20.9 17.3257C20.9 16.0912 19.915 15.0904 18.7 15.0904C17.485 15.0904 16.5 16.0912 16.5 17.3257C16.5 18.5602 17.485 19.561 18.7 19.561ZM19.2834 17.0243C19.3478 16.9588 19.3478 16.8527 19.2834 16.7872C19.2189 16.7217 19.1145 16.7217 19.05 16.7872L18.7 17.1428L18.35 16.7872C18.2855 16.7217 18.1811 16.7217 18.1166 16.7872C18.0522 16.8527 18.0522 16.9588 18.1166 17.0243L18.4667 17.3799L18.1166 17.7355C18.0522 17.801 18.0522 17.9072 18.1166 17.9726C18.1811 18.0381 18.2855 18.0381 18.35 17.9726L18.7 17.617L19.05 17.9726C19.1145 18.0381 19.2189 18.0381 19.2834 17.9726C19.3478 17.9072 19.3478 17.801 19.2834 17.7355L18.9333 17.3799L19.2834 17.0243Z"/>
<path d="M19.2834 16.7872C19.3478 16.8527 19.3478 16.9588 19.2834 17.0243L18.9333 17.3799L19.2834 17.7355C19.3478 17.801 19.3478 17.9072 19.2834 17.9726C19.2189 18.0381 19.1145 18.0381 19.05 17.9726L18.7 17.617L18.35 17.9726C18.2855 18.0381 18.1811 18.0381 18.1166 17.9726C18.0522 17.9072 18.0522 17.801 18.1166 17.7355L18.4667 17.3799L18.1166 17.0243C18.0522 16.9588 18.0522 16.8527 18.1166 16.7872C18.1811 16.7217 18.2855 16.7217 18.35 16.7872L18.7 17.1428L19.05 16.7872C19.1145 16.7217 19.2189 16.7217 19.2834 16.7872Z"/>
<path d="M19 12.561C19 13.1132 18.5523 13.561 18 13.561C17.4477 13.561 17 13.1132 17 12.561C17 12.0087 17.4477 11.561 18 11.561C18.5523 11.561 19 12.0087 19 12.561Z"/>
<path d="M5.5 17.3257C5.5 16.0912 4.51503 15.0904 3.3 15.0904C2.69395 15.0904 2.14514 15.3394 1.74724 15.7422C2.17565 16.1739 2.66917 16.5387 3.21257 16.8209C3.30303 16.8679 3.39481 16.9114 3.48811 16.9517L3.65002 16.7872C3.71445 16.7217 3.81892 16.7217 3.88336 16.7872C3.9478 16.8527 3.9478 16.9588 3.88336 17.0243L3.82675 17.0818C3.97564 17.1324 4.12868 17.1761 4.28662 17.214C4.88895 17.3587 5.16227 17.3979 5.49823 17.4161C5.49941 17.3861 5.5 17.356 5.5 17.3257Z"/>
<path fill-rule="evenodd" clip-rule="evenodd" d="M12.2485 0.560953H12.1117H9.75149C8.90932 0.560949 8.24905 0.560947 7.71838 0.616138C7.17801 0.672338 6.7316 0.788673 6.32754 1.05075C5.66329 1.48158 5.12323 2.16904 4.78477 3.0146C4.57889 3.52895 4.4875 4.0972 4.44335 4.78506C4.40935 5.31487 4.40201 3.03311 4.40043 2.5414L4.40008 2.44966L4.4 2.63755V2.69001C4.4 3.76204 4.4 4.60253 4.44335 5.27804C4.45403 5.44442 4.46747 5.6038 4.48463 5.75712C4.02495 5.85149 3.60667 5.98957 3.21257 6.19428C2.10547 6.76933 1.20538 7.68691 0.641288 8.81551C0.298155 9.50203 0.145837 10.2605 0.0722542 11.1786C0.0155761 11.8858 0.003355 8.84004 0.000722044 8.18385C0.000408515 8.10571 0.000130452 8.06146 0.000130452 8.06146C0.000130452 8.06146 7.37271e-08 8.1373 7.37271e-08 8.31225V8.38226C-4.54704e-06 9.81315 -8.27014e-06 10.935 0.0722542 11.8366C0.145837 12.7547 0.298155 13.5132 0.641288 14.1997C0.928506 14.7743 1.30284 15.2943 1.74724 15.7422C1.34743 16.1469 1.1 16.7069 1.1 17.3257C1.1 18.5602 2.08498 19.561 3.3 19.561C4.48522 19.561 5.45153 18.6087 5.49823 17.4161C5.60556 17.4219 5.71976 17.4256 5.85264 17.4299C5.96335 17.4335 6.08752 17.4375 6.2322 17.4435C6.98096 17.4747 7.86808 17.4747 8.93043 17.4747H13.0694C14.1316 17.4747 15.0191 17.4747 15.7678 17.4435C16.6267 17.4747 16.9536 17.3965 17.7134 17.214C18.0967 17.122 18.4511 16.9956 18.7874 16.8209C19.8945 16.2459 20.7946 15.3283 21.3587 14.1997C21.7018 13.5132 21.8542 12.7547 21.9277 11.8366C22 10.935 22 9.81311 22 8.38233V8.31207L21.9998 8.26715C21.9966 9.06272 21.9823 11.8593 21.9277 11.1786C21.8542 10.2605 21.7018 9.50203 21.3587 8.81551C20.7946 7.68691 19.8945 6.76933 18.7874 6.19428C18.3933 5.98957 17.9751 5.85149 17.5154 5.75712C17.5325 5.6038 17.546 5.44442 17.5566 5.27804C17.6 4.60256 17.6 3.76201 17.6 2.69006V2.63742L17.5996 2.54149C17.598 3.03363 17.5907 5.31478 17.5566 4.78506C17.5125 4.0972 17.4211 3.52895 17.2152 3.0146C16.8768 2.16904 16.3367 1.48158 15.6725 1.05075C15.2684 0.788673 14.822 0.672338 14.2816 0.616138C13.751 0.560947 13.0907 0.560949 12.2485 0.560953ZM3.82675 17.0818C3.97564 17.1324 4.12868 17.1761 4.28662 17.214C4.88895 17.3587 5.16227 17.3979 5.49823 17.4161C5.49941 17.3861 5.5 17.356 5.5 17.3257C5.5 16.0912 4.51503 15.0904 3.3 15.0904C2.69395 15.0904 2.14514 15.3394 1.74724 15.7422C2.17565 16.1739 2.66917 16.5387 3.21257 16.8209C3.30303 16.8679 3.39481 16.9114 3.48811 16.9517L3.3 17.1428L2.94998 16.7872C2.88554 16.7217 2.78107 16.7217 2.71663 16.7872C2.6522 16.8527 2.6522 16.9588 2.71663 17.0243L3.06665 17.3799L2.71663 17.7355C2.6522 17.801 2.6522 17.9072 2.71663 17.9726C2.78107 18.0381 2.88554 18.0381 2.94998 17.9726L3.3 17.617L3.65002 17.9726C3.71445 18.0381 3.81892 18.0381 3.88336 17.9726C3.9478 17.9072 3.9478 17.801 3.88336 17.7355L3.53334 17.3799L3.82675 17.0818ZM3.82675 17.0818C3.7115 17.0426 3.59874 16.9994 3.48811 16.9517L3.65002 16.7872C3.71445 16.7217 3.81892 16.7217 3.88336 16.7872C3.9478 16.8527 3.9478 16.9588 3.88336 17.0243L3.82675 17.0818ZM17.5154 5.75712C17.5117 5.78981 17.5079 5.82224 17.5039 5.85439C17.449 6.29478 17.3607 6.68509 17.2152 7.0485C16.8768 7.89406 16.3367 8.58152 15.6725 9.01235C15.4707 9.14322 15.258 9.2379 15.028 9.30688C14.5775 9.44199 14.3807 9.50076 13.8787 9.47957C13.8727 9.47932 13.8667 9.47905 13.8607 9.47878C13.5605 9.49439 13.2232 9.49957 12.8423 9.50129C12.6531 9.50214 12.4531 9.50214 12.2416 9.50214H9.75826C9.12085 9.50214 8.58858 9.50214 8.13932 9.47878C8.05246 9.47426 7.97803 9.47126 7.91158 9.46858C7.58206 9.4553 7.44895 9.44993 6.97197 9.30688C6.74199 9.2379 6.52932 9.14322 6.32754 9.01235C5.66329 8.58152 5.12323 7.89406 4.78477 7.0485C4.62869 6.65856 4.53841 6.23764 4.48463 5.75712C4.81045 5.69023 5.15707 5.6453 5.53063 5.61419C6.41508 5.54052 7.51553 5.54053 8.91916 5.54053H12.8528H13.0808C14.3583 5.54053 15.3846 5.54053 16.2256 5.59606C16.3086 5.60154 16.3899 5.60757 16.4694 5.61419C16.8429 5.6453 17.1896 5.69023 17.5154 5.75712ZM21.9996 8.10021C21.9996 8.0809 21.9998 8.06905 21.9998 8.06406L21.9996 8.10021ZM5 13.561C5.55228 13.561 6 13.1132 6 12.561C6 12.0087 5.55228 11.561 5 11.561C4.44771 11.561 4 12.0087 4 12.561C4 13.1132 4.44771 13.561 5 13.561Z"/>
<path fill-rule="evenodd" clip-rule="evenodd" d="M22.0347 6.21827C21.7346 6.21693 21.4925 5.97261 21.4938 5.67256L21.5018 3.87456C21.5051 3.14484 21.5065 2.64347 21.4648 2.26155C21.4512 2.13743 21.4338 2.0337 21.4127 1.94561L17.5039 5.85439C17.5079 5.82224 17.5117 5.78981 17.5154 5.75712C17.1896 5.69023 16.8429 5.6453 16.4694 5.61419C16.3899 5.60757 16.3086 5.60154 16.2256 5.59606L20.6443 1.17729C20.5562 1.15618 20.4525 1.13871 20.3284 1.12516C19.9465 1.08345 19.4451 1.08486 18.7154 1.08812L16.9174 1.09614C16.6173 1.09748 16.373 0.855332 16.3717 0.555288C16.3703 0.255244 16.6125 0.010925 16.9125 0.00958608L18.7429 0.0014198C19.4323 -0.00166861 19.9958 -0.00419264 20.4464 0.0450137C20.9149 0.0961818 21.3297 0.208872 21.6867 0.485123C21.8432 0.606251 21.9837 0.746736 22.1048 0.903254C22.3811 1.26021 22.4938 1.67504 22.5449 2.14359C22.5941 2.59417 22.5916 3.15762 22.5885 3.84701L22.5804 5.67741C22.579 5.97746 22.3347 6.2196 22.0347 6.21827ZM16.2256 5.59606L12.9453 8.87632C12.7762 9.0454 12.7419 9.29821 12.8423 9.50129C12.6531 9.50214 12.4531 9.50214 12.2416 9.50214H9.75826C9.12085 9.50214 8.58858 9.50214 8.13932 9.47878C8.05246 9.47426 7.97803 9.47126 7.91158 9.46858C7.58206 9.4553 7.44895 9.44993 6.97197 9.30688C6.74199 9.2379 6.52932 9.14322 6.32754 9.01235C5.66329 8.58152 5.12323 7.89406 4.78477 7.0485C4.62869 6.65856 4.53841 6.23764 4.48463 5.75712C4.81045 5.69023 5.15707 5.6453 5.53063 5.61419C6.41508 5.54052 7.51553 5.54053 8.91916 5.54053H12.8528H13.0808C14.3583 5.54053 15.3846 5.54053 16.2256 5.59606ZM13.8787 9.47957L17.5039 5.85439C17.449 6.29478 17.3607 6.68509 17.2152 7.0485C16.8768 7.89406 16.3367 8.58152 15.6725 9.01235C15.4707 9.14322 15.258 9.2379 15.028 9.30688C14.5775 9.44199 14.3807 9.50076 13.8787 9.47957ZM13.8787 9.47957L13.8607 9.47878C13.5605 9.49439 13.2232 9.49957 12.8423 9.50129C12.8679 9.55303 12.9022 9.60155 12.9453 9.64463C13.1575 9.8568 13.5015 9.8568 13.7136 9.64463L13.8787 9.47957Z"/>
</svg>
