<svg width="1.1458vw" height="1.1111vh" viewBox="0 0 22 12" >
<path d="M11.0303 7.06422C11.4098 7.06422 11.7613 6.9607 12.0847 6.75367C12.4082 6.54667 12.668 6.26527 12.8643 5.90947C13.0605 5.55367 13.1586 5.15367 13.1586 4.70947C13.1586 4.26957 13.0605 3.87711 12.8643 3.5321C12.668 3.18708 12.4082 2.91538 12.0847 2.717C11.7613 2.51861 11.4098 2.41942 11.0303 2.41942C10.6507 2.41942 10.2992 2.52077 9.9758 2.72347C9.65236 2.92616 9.39145 3.2011 9.19307 3.54827C8.99465 3.89544 8.89544 4.28682 8.89544 4.7224C8.89544 5.1623 8.99357 5.55906 9.18983 5.9127C9.38604 6.26634 9.64695 6.54667 9.97255 6.75367C10.2982 6.9607 10.6507 7.06422 11.0303 7.06422ZM7.45287 12.0001H14.6011C14.8815 12.0001 15.1036 11.9375 15.2675 11.8125C15.4314 11.6874 15.5133 11.5149 15.5133 11.295C15.5133 10.9499 15.4098 10.5877 15.2028 10.2082C14.9958 9.82865 14.6971 9.47284 14.3068 9.14074C13.9165 8.80868 13.4454 8.53806 12.8933 8.32886C12.3413 8.11971 11.7203 8.01514 11.0303 8.01514C10.3359 8.01514 9.7127 8.11971 9.16068 8.32886C8.60865 8.53806 8.13749 8.80868 7.74719 9.14074C7.35693 9.47284 7.05828 9.82865 6.85126 10.2082C6.64425 10.5877 6.54074 10.9499 6.54074 11.295C6.54074 11.5149 6.62161 11.6874 6.78333 11.8125C6.94506 11.9375 7.16824 12.0001 7.45287 12.0001ZM1.00971 11.8384C1.15634 11.8384 1.27925 11.7877 1.37845 11.6863C1.47764 11.585 1.52723 11.461 1.52723 11.3144C1.52723 10.1844 1.6868 9.10627 2.00595 8.07986C2.32508 7.05342 2.77576 6.11217 3.35797 5.2561C3.94019 4.40003 4.62698 3.65609 5.41836 3.02428C6.20974 2.39247 7.07876 1.90298 8.02541 1.5558C8.97202 1.20863 9.96933 1.03505 11.0173 1.03505C12.061 1.03505 13.0572 1.20863 14.006 1.5558C14.9548 1.90298 15.8249 2.39247 16.6163 3.02428C17.4076 3.65609 18.0934 4.40003 18.6734 5.2561C19.2535 6.11217 19.7042 7.05342 20.0255 8.07986C20.3467 9.10627 20.5074 10.1844 20.5074 11.3144C20.5074 11.461 20.557 11.585 20.6562 11.6863C20.7554 11.7877 20.8761 11.8384 21.0184 11.8384C21.1651 11.8384 21.2891 11.7877 21.3905 11.6863C21.4918 11.585 21.5424 11.461 21.5424 11.3144C21.5424 10.068 21.3645 8.87983 21.0088 7.7499C20.653 6.61998 20.1527 5.58386 19.508 4.64154C18.8632 3.69922 18.102 2.88088 17.2244 2.18654C16.3467 1.49219 15.3829 0.954186 14.3327 0.57251C13.2826 0.190837 12.1774 0 11.0173 0C9.8572 0 8.75207 0.190837 7.70194 0.57251C6.6518 0.954186 5.68791 1.49219 4.81027 2.18654C3.93264 2.88088 3.17145 3.69922 2.5267 4.64154C1.88195 5.58386 1.38168 6.61998 1.02588 7.7499C0.670086 8.87983 0.492188 10.068 0.492188 11.3144C0.492188 11.461 0.542862 11.585 0.64421 11.6863C0.745558 11.7877 0.867392 11.8384 1.00971 11.8384ZM4.30245 11.8319C4.44477 11.8319 4.56661 11.7812 4.66795 11.6798C4.7693 11.5785 4.81997 11.4567 4.81997 11.3144C4.81997 10.5165 4.95043 9.75207 5.21135 9.0211C5.47227 8.29009 5.84208 7.627 6.3208 7.03183C6.7995 6.43669 7.36446 5.9429 8.01567 5.55044C7.97685 5.38656 7.94991 5.20434 7.93485 5.0038C7.91975 4.80326 7.92297 4.60596 7.94452 4.41189C7.10786 4.82591 6.37794 5.3844 5.75476 6.08737C5.13157 6.79032 4.64747 7.58924 4.30245 8.48414C3.95744 9.37904 3.78493 10.3224 3.78493 11.3144C3.78493 11.4567 3.8356 11.5785 3.93696 11.6798C4.0383 11.7812 4.16013 11.8319 4.30245 11.8319ZM17.7257 11.8319C17.8724 11.8319 17.9963 11.7812 18.0977 11.6798C18.199 11.5785 18.2497 11.4567 18.2497 11.3144C18.2497 10.3268 18.0783 9.38661 17.7354 8.49388C17.3926 7.60114 16.9106 6.80436 16.2896 6.10354C15.6686 5.40273 14.9419 4.84316 14.1095 4.42483C14.1311 4.6189 14.1343 4.81189 14.1192 5.0038C14.1041 5.19572 14.075 5.38656 14.0319 5.57632C14.6788 5.96014 15.2405 6.44748 15.7171 7.03832C16.1936 7.62916 16.5624 8.29009 16.8233 9.0211C17.0842 9.75207 17.2146 10.5165 17.2146 11.3144C17.2146 11.4567 17.2643 11.5785 17.3635 11.6798C17.4627 11.7812 17.5834 11.8319 17.7257 11.8319Z"/>
</svg>
