<svg width="1.0938vw" height="1.8519vh" viewBox="0 0 22 20"  xmlns="http://www.w3.org/2000/svg">
<path d="M12.8528 5.67196H13.0808C14.4845 5.67196 15.5849 5.67195 16.4694 5.74562C16.8429 5.77673 17.1896 5.82166 17.5154 5.88855C17.5325 5.73523 17.546 5.57585 17.5566 5.40947C17.6 4.73399 17.6 3.89344 17.6 2.82149V2.76885L17.5996 2.67292C17.598 3.16506 17.5907 5.44621 17.5566 4.91649C17.5125 4.22863 17.4211 3.66038 17.2152 3.14603C16.8768 2.30047 16.3367 1.61301 15.6725 1.18218C15.2684 0.920103 14.822 0.803768 14.2816 0.747568C13.751 0.692376 13.0907 0.692379 12.2485 0.692383H12.1117H9.75149C8.90932 0.692379 8.24905 0.692376 7.71838 0.747568C7.17801 0.803768 6.7316 0.920103 6.32754 1.18218C5.66329 1.61301 5.12323 2.30047 4.78477 3.14603C4.57889 3.66038 4.4875 4.22863 4.44335 4.91649C4.40935 5.4463 4.40201 3.16454 4.40043 2.67283L4.40008 2.58109L4.4 2.76898V2.82144C4.4 3.89347 4.4 4.73396 4.44335 5.40947C4.45403 5.57585 4.46747 5.73523 4.48463 5.88855C4.81045 5.82166 5.15707 5.77673 5.53063 5.74562C6.41508 5.67195 7.51553 5.67196 8.91916 5.67196H12.8528Z" />
<path d="M13.0808 5.67196H12.8528H8.91916C7.51553 5.67196 6.41508 5.67195 5.53063 5.74562C5.15707 5.77673 4.81045 5.82166 4.48463 5.88855C4.53841 6.36907 4.62869 6.78999 4.78477 7.17993C5.12323 8.02549 5.66329 8.71295 6.32754 9.14378C6.52932 9.27465 6.74199 9.36933 6.97197 9.43831C7.44895 9.58136 7.58206 9.58673 7.91158 9.60001C7.97803 9.60269 8.05246 9.60569 8.13932 9.61021C8.58858 9.63357 9.12085 9.63357 9.75826 9.63357H12.2416C12.879 9.63357 13.4114 9.63357 13.8607 9.61021C14.376 9.63357 14.5722 9.57502 15.028 9.43831C15.258 9.36933 15.4707 9.27465 15.6725 9.14378C16.3367 8.71295 16.8768 8.02549 17.2152 7.17993C17.3713 6.78999 17.4616 6.36907 17.5154 5.88855C17.1896 5.82166 16.8429 5.77673 16.4694 5.74562C15.5849 5.67195 14.4845 5.67196 13.0808 5.67196Z" />
<path d="M5.5 17.4571C5.5 16.2226 4.51503 15.2218 3.3 15.2218C2.69395 15.2218 2.14514 15.4708 1.74724 15.8736C2.17565 16.3053 2.66917 16.6701 3.21257 16.9524C3.30303 16.9993 3.39481 17.0428 3.48811 17.0831C3.59874 17.1309 3.7115 17.1741 3.82675 17.2132C3.97564 17.2638 4.12868 17.3075 4.28662 17.3455C4.88895 17.4901 5.16227 17.5293 5.49823 17.5475C5.49941 17.5175 5.5 17.4874 5.5 17.4571Z" />
<path d="M1.1 17.4571C1.1 18.6916 2.08498 19.6924 3.3 19.6924C4.48522 19.6924 5.45153 18.7401 5.49823 17.5475C5.16227 17.5293 4.88895 17.4901 4.28662 17.3455C4.12868 17.3075 3.97564 17.2638 3.82675 17.2132C3.7115 17.1741 3.59874 17.1309 3.48811 17.0831C3.39481 17.0428 3.30303 16.9993 3.21257 16.9524C2.66917 16.6701 2.17565 16.3053 1.74724 15.8736C1.34743 16.2783 1.1 16.8384 1.1 17.4571Z" />
<path d="M18.7 15.2218C17.485 15.2218 16.5 16.2226 16.5 17.4571C16.5 17.4945 16.5009 17.5317 16.5027 17.5686C16.9018 17.5402 17.2142 17.4654 17.7134 17.3455C17.8713 17.3075 18.0244 17.2638 18.1732 17.2132C18.2885 17.1741 18.4013 17.1309 18.5119 17.0831C18.6052 17.0428 18.697 16.9993 18.7874 16.9524C19.3308 16.6701 19.8244 16.3053 20.2528 15.8736C19.8549 15.4708 19.3061 15.2218 18.7 15.2218Z" />
<path d="M18.7 19.6924C19.915 19.6924 20.9 18.6916 20.9 17.4571C20.9 16.8384 20.6526 16.2783 20.2528 15.8736C19.8244 16.3053 19.3308 16.6701 18.7874 16.9524C18.697 16.9993 18.6052 17.0428 18.5119 17.0831C18.4013 17.1309 18.2885 17.1741 18.1732 17.2132C18.0244 17.2638 17.8713 17.3075 17.7134 17.3455C17.2142 17.4654 16.9018 17.5402 16.5027 17.5686C16.5599 18.7513 17.5218 19.6924 18.7 19.6924Z" />
<path fill-rule="evenodd" clip-rule="evenodd" d="M21.3587 8.94694C20.7946 7.81834 19.8945 6.90076 18.7874 6.32571C18.3933 6.121 17.9751 5.98291 17.5154 5.88855C17.4616 6.36907 17.3713 6.78999 17.2152 7.17993C16.8768 8.02549 16.3367 8.71295 15.6725 9.14378C15.4707 9.27465 15.258 9.36933 15.028 9.43831C14.5722 9.57502 14.376 9.63357 13.8607 9.61021C13.4114 9.63357 12.879 9.63357 12.2416 9.63357H9.75826C9.12085 9.63357 8.58858 9.63357 8.13932 9.61021C8.05246 9.60569 7.97803 9.60269 7.91158 9.60001C7.58206 9.58673 7.44895 9.58136 6.97197 9.43831C6.74199 9.36933 6.52932 9.27465 6.32754 9.14378C5.66329 8.71295 5.12323 8.02549 4.78477 7.17993C4.62869 6.78999 4.53841 6.36907 4.48463 5.88855C4.02495 5.98291 3.60667 6.121 3.21257 6.32571C2.10547 6.90076 1.20538 7.81834 0.641288 8.94694C0.298155 9.63346 0.145837 10.3919 0.0722542 11.31C0.0155761 12.0172 0.003355 8.97147 0.000722044 8.31528L0.000130452 8.19289L7.37266e-08 8.44368V8.51369C-4.54704e-06 9.94458 -8.27014e-06 11.0664 0.0722542 11.968C0.145837 12.8861 0.298155 13.6446 0.641288 14.3311C0.928506 14.9058 1.30284 15.4257 1.74724 15.8736C2.14514 15.4708 2.69395 15.2218 3.3 15.2218C4.51503 15.2218 5.5 16.2226 5.5 17.4571C5.5 17.4874 5.49941 17.5175 5.49823 17.5475C5.60556 17.5533 5.71976 17.557 5.85264 17.5613C5.96335 17.5649 6.08752 17.5689 6.2322 17.5749C6.98096 17.6061 7.86808 17.6061 8.93043 17.6061H13.0694C14.1316 17.6061 15.0191 17.6061 15.7678 17.5749C16.0624 17.5856 16.2944 17.5835 16.5027 17.5686C16.5009 17.5317 16.5 17.4945 16.5 17.4571C16.5 16.2226 17.485 15.2218 18.7 15.2218C19.3061 15.2218 19.8549 15.4708 20.2528 15.8736C20.6972 15.4257 21.0715 14.9058 21.3587 14.3311C21.7018 13.6446 21.8542 12.8861 21.9277 11.968C22 11.0665 22 9.94454 22 8.51376V8.4435L21.9998 8.39857C21.9966 9.19415 21.9823 11.9907 21.9277 11.31C21.8542 10.3919 21.7018 9.63346 21.3587 8.94694ZM5 13.6924C5.55228 13.6924 6 13.2447 6 12.6924C6 12.1401 5.55228 11.6924 5 11.6924C4.44771 11.6924 4 12.1401 4 12.6924C4 13.2447 4.44771 13.6924 5 13.6924ZM18 13.6924C18.5523 13.6924 19 13.2447 19 12.6924C19 12.1401 18.5523 11.6924 18 11.6924C17.4477 11.6924 17 12.1401 17 12.6924C17 13.2447 17.4477 13.6924 18 13.6924Z" />
</svg>
