<svg width="1.25vw" height="1.9444vh" viewBox="0 0 24 21" >
<path d="M19.122 6.17647H21.3293C22.8043 6.17647 24 5.01187 24 3.57523V3.13575H21.6585C21.6585 2.23408 20.9258 1.52036 20 1.52036H19.0244V0L13.2683 6.27149H2.4878C1.11385 6.27149 0 7.35637 0 8.69457V13.7308C0 14.0719 0.283902 14.3484 0.634146 14.3484C0.98439 14.3484 1.26829 14.0719 1.26829 13.7308V10.0249C1.26829 9.89366 1.37746 9.78733 1.5122 9.78733C1.64693 9.78733 1.7561 9.89366 1.7561 10.0249V14.7285L0.208976 16.5113C0.0488781 16.6984 0.0289756 16.964 0.159317 17.1717L2.53659 21H4.87805V20.905C4.87805 20.0653 4.17922 19.3846 3.31707 19.3846L1.98127 17.1749L5.1 14.3159C5.71337 13.7537 6.04878 12.9833 6.04878 12.1629H7.12195C8.17483 13.628 9.87122 14.4434 11.7073 14.4434H12.6829L13.2613 19.7462L14.0488 21H16.3902V20.905C16.3902 20.0653 15.6914 19.3846 14.8293 19.3846V14.3484C16.3465 13.7854 17.3659 12.414 17.3659 10.8326V8.36199L19.122 6.17647Z" >
</svg>
