<svg width="37" height="32" viewBox="0 0 37 32" fill="none" xmlns="http://www.w3.org/2000/svg">
<path d="M0.496989 1.00421C0.314188 1.88394 0.185657 2.83793 0.111394 3.86619C0.0371314 4.89444 0 5.79131 0 6.55678C0 9.76721 0.454145 12.6749 1.36243 15.2798C2.27072 17.8847 3.57317 20.124 5.2698 21.9977C6.96641 23.8714 8.99721 25.3139 11.3622 26.325C13.7272 27.3361 16.3663 27.8416 19.2797 27.8416C20.7764 27.8416 22.1217 27.6873 23.3156 27.3788C24.5095 27.0704 25.5577 26.6763 26.4603 26.1964C27.3629 25.7166 28.1313 25.2054 28.7654 24.6626C29.3995 24.1199 29.9079 23.6115 30.2905 23.1373C30.6733 22.6632 30.939 22.2834 31.0874 21.9977L28.9453 21.9462C29.6879 22.7232 30.3135 23.5315 30.8219 24.3713C31.3303 25.211 31.7758 26.1192 32.1586 27.0961C32.5413 28.073 32.9212 29.1498 33.2982 30.3265C33.4354 30.7379 33.6324 31.0264 33.8895 31.192C34.1465 31.3577 34.4236 31.4405 34.7208 31.4405C35.3491 31.4405 35.8861 31.1949 36.3316 30.7036C36.7772 30.2123 37 29.5896 37 28.8356C37 28.2415 36.8201 27.5674 36.4602 26.8134C36.1003 26.0593 35.6433 25.2909 35.0891 24.5084C34.535 23.7257 33.9638 23.0002 33.3755 22.332C32.787 21.6636 32.2757 21.118 31.8415 20.6952C30.5848 19.5413 29.2452 18.6502 27.8228 18.0218C26.4004 17.3934 24.9552 16.9136 23.487 16.5823C22.0189 16.2509 20.585 15.9653 19.1855 15.7254C17.7859 15.4854 16.4778 15.1798 15.261 14.8085C14.0442 14.4372 12.9788 13.8974 12.0648 13.189C11.1508 12.4807 10.4482 11.4924 9.95692 10.2242C9.84267 9.92717 9.90265 9.69581 10.1369 9.53015C10.3711 9.36449 10.631 9.42447 10.9166 9.7101C11.8992 10.6926 12.9274 11.4153 14.0014 11.878C15.0753 12.3407 16.1836 12.6606 17.3261 12.8377C18.4686 13.0148 19.6339 13.149 20.8221 13.2404C22.0104 13.3318 23.2157 13.4918 24.4382 13.7203C25.6606 13.9488 26.8917 14.3429 28.1313 14.9028C29.3709 15.4626 30.6076 16.3137 31.8415 17.4562C32.1272 17.7076 32.4157 17.7848 32.707 17.6877C32.9983 17.5906 33.1669 17.3878 33.2126 17.0792C33.2582 16.8393 33.2925 16.5337 33.3154 16.1624C33.3383 15.7911 33.3497 15.4169 33.3497 15.0399C33.3497 12.2522 32.7498 9.94145 31.5502 8.10773C30.3506 6.27401 28.6968 4.90586 26.589 4.00328C24.481 3.10071 22.0617 2.64942 19.3311 2.64942C18.4172 2.64942 17.4689 2.70369 16.4863 2.81222C15.5038 2.92077 14.5326 3.03216 13.5729 3.1464C12.6132 3.26066 11.7107 3.31779 10.8652 3.31779C9.95121 3.31779 9.00864 3.26352 8.03751 3.15498C7.06638 3.04644 6.11239 2.78937 5.17554 2.38378C4.23869 1.97819 3.35896 1.33554 2.53635 0.455815C2.18218 0.0902139 1.78802 -0.0554556 1.35387 0.0188065C0.919715 0.0930697 0.63409 0.421539 0.496989 1.00421Z" fill="#96BCFF"/>
</svg>
