<svg width="12" height="10" viewBox="0 0 12 10" fill="none" xmlns="http://www.w3.org/2000/svg">
<path d="M0.33776 0.319401C0.279618 0.599207 0.238738 0.902634 0.215118 1.22968C0.191498 1.55673 0.179688 1.84199 0.179688 2.08545C0.179688 3.10657 0.324133 4.03138 0.613025 4.85991C0.901915 5.68844 1.31617 6.40067 1.8558 6.99659C2.39543 7.59256 3.04135 8.05135 3.79356 8.37296C4.54576 8.69454 5.38518 8.85532 6.3118 8.85532C6.78784 8.85532 7.21573 8.80626 7.59546 8.70814C7.9752 8.61005 8.3086 8.48469 8.59568 8.33205C8.88276 8.17945 9.12715 8.01684 9.32883 7.84422C9.53051 7.6716 9.69221 7.50988 9.81393 7.35906C9.93568 7.20829 10.0202 7.08746 10.0674 6.99659L9.38604 6.98024C9.62225 7.22736 9.82122 7.48446 9.98294 7.75156C10.1446 8.01862 10.2863 8.30751 10.4081 8.61822C10.5298 8.92893 10.6506 9.27141 10.7706 9.64568C10.8142 9.77651 10.8768 9.86827 10.9586 9.92096C11.0404 9.97366 11.1285 10 11.223 10C11.4229 10 11.5936 9.92188 11.7353 9.76563C11.8771 9.60934 11.9479 9.41129 11.9479 9.17147C11.9479 8.98251 11.8907 8.76812 11.7762 8.5283C11.6618 8.28844 11.5164 8.04406 11.3402 7.79515C11.1639 7.54622 10.9822 7.31547 10.7951 7.10292C10.6079 6.89034 10.4453 6.71681 10.3072 6.58233C9.90751 6.21532 9.48145 5.93189 9.02904 5.73203C8.57663 5.53217 8.11695 5.37955 7.64999 5.27417C7.18304 5.16878 6.72698 5.07794 6.28183 5.00162C5.83669 4.92531 5.42062 4.82811 5.03361 4.71001C4.64661 4.59191 4.30775 4.42021 4.01704 4.19491C3.72633 3.96961 3.50285 3.65528 3.34659 3.25193C3.31025 3.15744 3.32933 3.08386 3.40383 3.03117C3.47832 2.97848 3.56099 2.99756 3.65184 3.0884C3.96435 3.40091 4.2914 3.63075 4.63298 3.77792C4.97456 3.9251 5.32704 4.02684 5.69043 4.08317C6.05381 4.13949 6.42446 4.18219 6.80237 4.21126C7.18032 4.24033 7.5637 4.2912 7.95252 4.36388C8.34133 4.43656 8.73288 4.56193 9.12716 4.73999C9.52141 4.91805 9.91477 5.18876 10.3072 5.55213C10.3981 5.6321 10.4899 5.65664 10.5825 5.62575C10.6752 5.59487 10.7288 5.53036 10.7433 5.43224C10.7578 5.35592 10.7687 5.25871 10.776 5.14062C10.7833 5.02252 10.7869 4.90351 10.7869 4.7836C10.7869 3.89694 10.5961 3.16199 10.2146 2.57875C9.83301 1.99552 9.30702 1.56036 8.6366 1.27329C7.96614 0.986213 7.19666 0.842677 6.32816 0.842677C6.03747 0.842677 5.73586 0.859937 5.42334 0.894457C5.11083 0.928981 4.80195 0.964411 4.49671 1.00075C4.19146 1.03709 3.90439 1.05526 3.63549 1.05526C3.34478 1.05526 3.04498 1.038 2.73611 1.00348C2.42723 0.968953 2.1238 0.88719 1.82583 0.758188C1.52785 0.629186 1.24804 0.424782 0.986402 0.144977C0.873754 0.0286935 0.748387 -0.0176382 0.610299 0.00598161C0.472213 0.0296018 0.381367 0.134075 0.33776 0.319401Z" fill="white"/>
</svg>
