<svg width="12" height="11" viewBox="0 0 12 11" fill="none" xmlns="http://www.w3.org/2000/svg">
<path d="M8.2175 10.8683H11.1589C11.4171 10.8683 11.6219 10.7842 11.7731 10.616C11.9244 10.4478 12 10.2226 12 9.9405V3.43585C12 3.15378 11.9244 2.92863 11.7731 2.76041C11.6219 2.59218 11.4171 2.50807 11.1589 2.50807H8.46728V9.9405C8.46728 10.1138 8.44604 10.2778 8.40354 10.4324C8.36109 10.5871 8.29907 10.7324 8.2175 10.8683ZM9.62446 5.08751V4.27188C9.62446 4.15293 9.68394 4.09345 9.80288 4.09345H10.6491C10.7681 4.09345 10.8275 4.15293 10.8275 4.27188V5.08751C10.8275 5.20984 10.7681 5.27101 10.6491 5.27101H9.80288C9.68394 5.27101 9.62446 5.20984 9.62446 5.08751ZM9.62446 7.09599V6.28036C9.62446 6.16141 9.68394 6.10194 9.80288 6.10194H10.6491C10.7681 6.10194 10.8275 6.16141 10.8275 6.28036V7.09599C10.8275 7.21494 10.7681 7.27441 10.6491 7.27441H9.80288C9.68394 7.27441 9.62446 7.21494 9.62446 7.09599ZM9.62446 9.10451V8.28888C9.62446 8.16652 9.68394 8.10534 9.80288 8.10534H10.6491C10.7681 8.10534 10.8275 8.16652 10.8275 8.28888V9.10451C10.8275 9.22346 10.7681 9.28293 10.6491 9.28293H9.80288C9.68394 9.28293 9.62446 9.22346 9.62446 9.10451ZM0 9.9405C0 10.2226 0.0756159 10.4478 0.226848 10.616C0.37808 10.7842 0.584536 10.8683 0.846217 10.8683H6.92267C7.18437 10.8683 7.39082 10.7842 7.54203 10.616C7.69327 10.4478 7.76889 10.2226 7.76889 9.9405V0.927782C7.76889 0.642311 7.69327 0.416312 7.54203 0.249787C7.39082 0.0832624 7.18437 0 6.92267 0H0.846217C0.584536 0 0.37808 0.0832624 0.226848 0.249787C0.0756159 0.416312 0 0.642311 0 0.927782V9.9405ZM2.12064 10.0476V8.39083C2.12064 8.27188 2.15633 8.17757 2.2277 8.1079C2.29907 8.03823 2.39252 8.00339 2.50807 8.00339H5.3067C5.42565 8.00339 5.51996 8.03823 5.58963 8.1079C5.6593 8.17757 5.69413 8.27188 5.69413 8.39083V10.0476H2.12064ZM1.95242 2.73747V1.74851C1.95242 1.60238 2.02209 1.52931 2.16142 1.52931H3.18097C3.3271 1.52931 3.40017 1.60238 3.40017 1.74851V2.73747C3.40017 2.8836 3.3271 2.95667 3.18097 2.95667H2.16142C2.02209 2.95667 1.95242 2.8836 1.95242 2.73747ZM4.41461 2.73747V1.74851C4.41461 1.60238 4.48598 1.52931 4.62871 1.52931H5.64313C5.78929 1.52931 5.86237 1.60238 5.86237 1.74851V2.73747C5.86237 2.8836 5.78929 2.95667 5.64313 2.95667H4.62871C4.48598 2.95667 4.41461 2.8836 4.41461 2.73747ZM1.95242 4.81733V3.82837C1.95242 3.68224 2.02209 3.60917 2.16142 3.60917H3.18097C3.3271 3.60917 3.40017 3.68224 3.40017 3.82837V4.81733C3.40017 4.96346 3.3271 5.03653 3.18097 5.03653H2.16142C2.02209 5.03653 1.95242 4.96346 1.95242 4.81733ZM4.41461 4.81733V3.82837C4.41461 3.68224 4.48598 3.60917 4.62871 3.60917H5.64313C5.78929 3.60917 5.86237 3.68224 5.86237 3.82837V4.81733C5.86237 4.96346 5.78929 5.03653 5.64313 5.03653H4.62871C4.48598 5.03653 4.41461 4.96346 4.41461 4.81733ZM1.95242 6.89721V5.90822C1.95242 5.7621 2.02209 5.68903 2.16142 5.68903H3.18097C3.3271 5.68903 3.40017 5.7621 3.40017 5.90822V6.89721C3.40017 7.04334 3.3271 7.1164 3.18097 7.1164H2.16142C2.02209 7.1164 1.95242 7.04334 1.95242 6.89721ZM4.41461 6.89721V5.90822C4.41461 5.7621 4.48598 5.68903 4.62871 5.68903H5.64313C5.78929 5.68903 5.86237 5.7621 5.86237 5.90822V6.89721C5.86237 7.04334 5.78929 7.1164 5.64313 7.1164H4.62871C4.48598 7.1164 4.41461 7.04334 4.41461 6.89721Z" fill="white"/>
</svg>
