<svg width="38" height="35" viewBox="0 0 38 35" fill="none" xmlns="http://www.w3.org/2000/svg">
<path d="M26.0221 34.7132H35.3365C36.1543 34.7132 36.8027 34.4468 37.2816 33.9141C37.7605 33.3814 38 32.6684 38 31.7751V11.1771C38 10.2838 37.7605 9.57087 37.2816 9.03816C36.8027 8.50545 36.1543 8.23909 35.3365 8.23909H26.8131V31.7751C26.8131 32.324 26.7458 32.8433 26.6112 33.3329C26.4768 33.8227 26.2804 34.2828 26.0221 34.7132ZM30.4775 16.4073V13.8245C30.4775 13.4478 30.6658 13.2595 31.0425 13.2595H33.7222C34.0988 13.2595 34.2872 13.4478 34.2872 13.8245V16.4073C34.2872 16.7947 34.0988 16.9884 33.7222 16.9884H31.0425C30.6658 16.9884 30.4775 16.7947 30.4775 16.4073ZM30.4775 22.7675V20.1847C30.4775 19.808 30.6658 19.6197 31.0425 19.6197H33.7222C34.0988 19.6197 34.2872 19.808 34.2872 20.1847V22.7675C34.2872 23.1442 34.0988 23.3325 33.7222 23.3325H31.0425C30.6658 23.3325 30.4775 23.1442 30.4775 22.7675ZM30.4775 29.1278V26.545C30.4775 26.1575 30.6658 25.9638 31.0425 25.9638H33.7222C34.0988 25.9638 34.2872 26.1575 34.2872 26.545V29.1278C34.2872 29.5045 34.0988 29.6928 33.7222 29.6928H31.0425C30.6658 29.6928 30.4775 29.5045 30.4775 29.1278ZM0 31.7751C0 32.6684 0.23945 33.3814 0.718351 33.9141C1.19725 34.4468 1.85103 34.7132 2.67969 34.7132H21.9218C22.7505 34.7132 23.4043 34.4468 23.8831 33.9141C24.362 33.3814 24.6015 32.6684 24.6015 31.7751V3.23485C24.6015 2.33086 24.362 1.6152 23.8831 1.08787C23.4043 0.560539 22.7505 0.296875 21.9218 0.296875H2.67969C1.85103 0.296875 1.19725 0.560539 0.718351 1.08787C0.23945 1.6152 0 2.33086 0 3.23485V31.7751ZM6.71537 32.1142V26.8678C6.71537 26.4912 6.82837 26.1925 7.05437 25.9719C7.28037 25.7513 7.57632 25.641 7.94222 25.641H16.8045C17.1812 25.641 17.4799 25.7513 17.7005 25.9719C17.9211 26.1925 18.0314 26.4912 18.0314 26.8678V32.1142H6.71537ZM6.18266 8.96552V5.83384C6.18266 5.37107 6.40327 5.13969 6.84451 5.13969H10.0731C10.5358 5.13969 10.7672 5.37107 10.7672 5.83384V8.96552C10.7672 9.42828 10.5358 9.65966 10.0731 9.65966H6.84451C6.40327 9.65966 6.18266 9.42828 6.18266 8.96552ZM13.9796 8.96552V5.83384C13.9796 5.37107 14.2056 5.13969 14.6576 5.13969H17.8699C18.3328 5.13969 18.5642 5.37107 18.5642 5.83384V8.96552C18.5642 9.42828 18.3328 9.65966 17.8699 9.65966H14.6576C14.2056 9.65966 13.9796 9.42828 13.9796 8.96552ZM6.18266 15.5517V12.4201C6.18266 11.9573 6.40327 11.7259 6.84451 11.7259H10.0731C10.5358 11.7259 10.7672 11.9573 10.7672 12.4201V15.5517C10.7672 16.0145 10.5358 16.2459 10.0731 16.2459H6.84451C6.40327 16.2459 6.18266 16.0145 6.18266 15.5517ZM13.9796 15.5517V12.4201C13.9796 11.9573 14.2056 11.7259 14.6576 11.7259H17.8699C18.3328 11.7259 18.5642 11.9573 18.5642 12.4201V15.5517C18.5642 16.0145 18.3328 16.2459 17.8699 16.2459H14.6576C14.2056 16.2459 13.9796 16.0145 13.9796 15.5517ZM6.18266 22.1381V19.0063C6.18266 18.5435 6.40327 18.3121 6.84451 18.3121H10.0731C10.5358 18.3121 10.7672 18.5435 10.7672 19.0063V22.1381C10.7672 22.6008 10.5358 22.8322 10.0731 22.8322H6.84451C6.40327 22.8322 6.18266 22.6008 6.18266 22.1381ZM13.9796 22.1381V19.0063C13.9796 18.5435 14.2056 18.3121 14.6576 18.3121H17.8699C18.3328 18.3121 18.5642 18.5435 18.5642 19.0063V22.1381C18.5642 22.6008 18.3328 22.8322 17.8699 22.8322H14.6576C14.2056 22.8322 13.9796 22.6008 13.9796 22.1381Z" fill="#96BCFF"/>
</svg>
