<svg width="38" height="37" viewBox="0 0 38 37" fill="none" xmlns="http://www.w3.org/2000/svg">
<path d="M19.7618 32.266C20.596 32.266 21.3911 31.9971 22.1468 31.4591C22.9025 30.921 23.5887 30.2741 24.2054 29.5184C24.822 28.7627 25.345 28.0402 25.7742 27.351C26.2035 26.6617 26.5088 26.166 26.6902 25.8637C27.1497 25.114 27.3462 24.3915 27.2795 23.6963C27.213 23.0011 27.1798 22.4237 27.1798 21.9642C27.1798 21.7466 27.34 21.4563 27.6605 21.0936C27.9809 20.7309 28.3013 20.3138 28.6218 19.8421C28.9422 19.3705 29.1024 18.8748 29.1024 18.3549C29.1024 17.9559 28.915 17.578 28.5402 17.2213C28.1653 16.8646 27.733 16.526 27.2433 16.2056C26.7536 15.8852 26.3214 15.592 25.9466 15.326C25.5717 15.0599 25.3842 14.8121 25.3842 14.5823C25.3842 14.2921 25.4779 14.0382 25.6654 13.8206C25.8529 13.6029 26.0614 13.4941 26.2911 13.4941C26.4966 13.4941 26.7596 13.6211 27.0801 13.875C27.4005 14.1289 27.7452 14.4221 28.114 14.7546C28.4827 15.0872 28.8455 15.3804 29.2022 15.6343C29.5589 15.8882 29.8763 16.0152 30.1544 16.0152C30.3962 16.0152 30.5776 15.9638 30.6986 15.861C30.8194 15.7582 30.9222 15.6524 31.0069 15.5436C31.0914 15.4348 31.2003 15.3804 31.3334 15.3804C31.563 15.3804 31.7655 15.6494 31.9409 16.1875C32.1162 16.7256 32.3248 17.3755 32.5666 18.1372C32.8084 18.899 33.1379 19.6245 33.5552 20.3137C33.9723 21.0029 34.5376 21.5046 35.2509 21.819C35.6378 21.3596 35.9431 20.8639 36.1669 20.3319C36.3906 19.7999 36.5025 19.1892 36.5025 18.5C36.5025 16.1421 36.049 13.9082 35.142 11.7983C34.2352 9.68831 32.9777 7.82319 31.3696 6.20293C29.7614 4.58267 27.8994 3.31005 25.7833 2.38505C23.6673 1.46005 21.4001 0.997547 18.9818 0.997547C17.1802 1.00964 15.7413 1.21217 14.6652 1.60515C13.589 1.99812 12.8091 2.49387 12.3255 3.0924C11.8418 3.69093 11.6 4.29248 11.6 4.89705C11.6 5.48953 11.5032 5.98528 11.3098 6.38431C11.1163 6.78333 10.8896 7.13096 10.6296 7.42719C10.3697 7.72343 10.143 8.01061 9.9495 8.28871C9.75603 8.56682 9.6593 8.88724 9.6593 9.24999C9.6593 9.69738 9.8044 10.0601 10.0946 10.3382C10.3848 10.6163 10.7778 10.7554 11.2735 10.7554C11.8055 10.7554 12.2197 10.6405 12.5159 10.4108C12.8122 10.181 13.054 9.91502 13.2414 9.61273C13.4288 9.31044 13.6072 9.04443 13.7765 8.81469C13.9457 8.58496 14.1634 8.47009 14.4294 8.47009C14.6954 8.47009 14.9644 8.57287 15.2365 8.77842C15.5086 8.98398 15.8078 9.18651 16.1343 9.38602C16.4608 9.58552 16.8477 9.68528 17.2951 9.68528C17.5974 9.68528 17.8241 9.59761 17.9752 9.42229C18.1264 9.24696 18.208 9.0263 18.2201 8.76029C18.2443 8.63937 18.2836 8.55171 18.338 8.4973C18.3924 8.44288 18.474 8.41568 18.5828 8.41568C18.9697 8.41568 19.3506 8.53357 19.7255 8.76935C20.1003 9.00514 20.4117 9.28928 20.6595 9.62179C20.9074 9.95432 21.0314 10.2536 21.0314 10.5196C21.0314 10.8944 20.9649 11.2118 20.8319 11.4718C20.6988 11.7318 20.5113 11.8618 20.2695 11.8618C19.9914 11.8618 19.6015 11.7832 19.0996 11.626C18.5979 11.4688 18.0417 11.3086 17.4311 11.1453C16.8205 10.9821 16.2129 10.9005 15.6083 10.9005C14.2541 10.9005 13.0117 11.1907 11.8811 11.7711C10.7506 12.3515 9.84672 13.1193 9.1696 14.0745C8.49247 15.0297 8.1539 16.0817 8.1539 17.2304C8.1539 18.7176 8.57711 19.8784 9.42352 20.7126C10.2699 21.547 11.4609 21.9642 12.9966 21.9642C13.9397 21.9642 14.7166 22.2454 15.3272 22.8076C15.9378 23.3699 16.2431 24.0863 16.2431 24.9568C16.2431 25.634 16.2522 26.3897 16.2703 27.224C16.2885 28.0583 16.3912 28.8593 16.5787 29.6271C16.7661 30.395 17.1046 31.0268 17.5943 31.5226C18.084 32.0182 18.8065 32.266 19.7618 32.266ZM24.3323 7.56323C24.0059 7.56323 23.7429 7.62067 23.5433 7.73553C23.3438 7.8504 23.099 7.90783 22.8088 7.90783C22.5307 7.90783 22.2979 7.82017 22.1104 7.64484C21.9231 7.46952 21.8294 7.23675 21.8294 6.94655C21.8294 6.51126 22.035 6.17572 22.446 5.93994C22.8571 5.70416 23.4375 5.58626 24.1872 5.58626C24.8281 5.58626 25.3601 5.73136 25.7833 6.02157C26.2065 6.31176 26.4181 6.66845 26.4181 7.09166C26.4181 7.33349 26.3517 7.53602 26.2187 7.69926C26.0856 7.86249 25.9163 7.9441 25.7107 7.9441C25.3842 7.9441 25.1212 7.88062 24.9218 7.75366C24.7223 7.62671 24.5258 7.56323 24.3323 7.56323ZM19 37C21.5272 37 23.9062 36.5163 26.137 35.5489C28.3679 34.5817 30.3358 33.2456 32.0406 31.5406C33.7456 29.8358 35.0817 27.8679 36.0489 25.637C37.0163 23.4062 37.5 21.0272 37.5 18.5C37.5 15.9729 37.0163 13.5939 36.0489 11.363C35.0817 9.1321 33.7456 7.16421 32.0406 5.4593C30.3358 3.75441 28.3649 2.4183 26.1279 1.45098C23.891 0.48366 21.509 0 18.9818 0C16.4547 0 14.0757 0.48366 11.8448 1.45098C9.61396 2.4183 7.64909 3.75441 5.95024 5.4593C4.25138 7.16421 2.9183 9.1321 1.95098 11.363C0.98366 13.5939 0.5 15.9729 0.5 18.5C0.5 21.0272 0.98366 23.4062 1.95098 25.637C2.9183 27.8679 4.25441 29.8358 5.9593 31.5406C7.66421 33.2456 9.6321 34.5817 11.863 35.5489C14.0939 36.5163 16.4729 37 19 37ZM19 34.5334C16.8114 34.5334 14.7498 34.1132 12.8152 33.2727C10.8805 32.4323 9.17564 31.2746 7.70048 29.7994C6.22532 28.3243 5.06757 26.6194 4.22721 24.6847C3.38684 22.7501 2.96665 20.6885 2.96665 18.5C2.96665 16.3114 3.38684 14.2498 4.22721 12.3152C5.06757 10.3805 6.2223 8.67564 7.69141 7.20048C9.16052 5.72532 10.8624 4.56757 12.797 3.72721C14.7317 2.88684 16.7933 2.46665 18.9818 2.46665C21.1705 2.46665 23.232 2.88684 25.1665 3.72721C27.1013 4.56757 28.8092 5.72532 30.2903 7.20048C31.7716 8.67564 32.9323 10.3805 33.7727 12.3152C34.6132 14.2498 35.0334 16.3114 35.0334 18.5C35.0334 20.6885 34.6132 22.7501 33.7727 24.6847C32.9323 26.6194 31.7746 28.3243 30.2994 29.7994C28.8243 31.2746 27.1194 32.4323 25.1847 33.2727C23.2501 34.1132 21.1885 34.5334 19 34.5334Z" fill="#96BCFF"/>
</svg>
