<svg width="12" height="12" viewBox="0 0 12 12" fill="none" xmlns="http://www.w3.org/2000/svg">
<path d="M6.24706 10.4647C6.51763 10.4647 6.77548 10.3774 7.0206 10.2029C7.26567 10.0284 7.48822 9.81862 7.68824 9.57355C7.88822 9.32843 8.05783 9.09411 8.19705 8.8706C8.33627 8.64705 8.4353 8.48626 8.49413 8.38824C8.64315 8.14509 8.70686 7.91077 8.68526 7.68529C8.66369 7.45981 8.65291 7.27256 8.65291 7.12354C8.65291 7.05294 8.70487 6.95881 8.8088 6.84115C8.91272 6.72354 9.01665 6.58825 9.12058 6.43529C9.2245 6.28233 9.27646 6.12155 9.27646 5.95293C9.27646 5.82352 9.21569 5.70097 9.09413 5.58529C8.97254 5.4696 8.83233 5.3598 8.67351 5.25588C8.51469 5.15196 8.3745 5.05686 8.25295 4.97058C8.13135 4.88431 8.07056 4.80392 8.07056 4.7294C8.07056 4.63529 8.10095 4.55294 8.16175 4.48235C8.22255 4.41176 8.29019 4.37646 8.36468 4.37646C8.43134 4.37646 8.51664 4.41764 8.62056 4.49999C8.72449 4.58235 8.83627 4.67745 8.95589 4.78529C9.07548 4.89313 9.19312 4.98823 9.30881 5.07058C9.4245 5.15294 9.52744 5.19411 9.61764 5.19411C9.69606 5.19411 9.75489 5.17745 9.79413 5.14411C9.83332 5.11078 9.86665 5.07646 9.89412 5.04117C9.92154 5.00588 9.95684 4.98823 10 4.98823C10.0745 4.98823 10.1402 5.07548 10.197 5.24999C10.2539 5.4245 10.3215 5.63529 10.4 5.88234C10.4784 6.12942 10.5853 6.36471 10.7206 6.58823C10.8559 6.81174 11.0392 6.97448 11.2706 7.07643C11.396 6.92745 11.4951 6.76668 11.5676 6.59413C11.6402 6.42158 11.6765 6.22353 11.6765 5.99999C11.6765 5.23529 11.5294 4.51078 11.2353 3.82647C10.9411 3.14215 10.5333 2.53725 10.0118 2.01176C9.4902 1.48627 8.88628 1.07353 8.2 0.773529C7.51372 0.473529 6.77842 0.323529 5.99411 0.323529C5.4098 0.327451 4.94313 0.393137 4.59411 0.520588C4.24509 0.648038 3.99215 0.808822 3.83529 1.00294C3.67843 1.19706 3.59999 1.39216 3.59999 1.58823C3.59999 1.78039 3.56862 1.94117 3.50588 2.07059C3.44313 2.2 3.3696 2.31274 3.28529 2.40882C3.20098 2.5049 3.12745 2.59804 3.0647 2.68823C3.00196 2.77843 2.97058 2.88235 2.97058 3C2.97058 3.1451 3.01764 3.26274 3.11176 3.35294C3.20588 3.44314 3.33333 3.48823 3.49411 3.48823C3.66666 3.48823 3.80098 3.45098 3.89706 3.37647C3.99313 3.30196 4.07156 3.21568 4.13235 3.11764C4.19313 3.0196 4.25098 2.93333 4.30588 2.85882C4.36078 2.78431 4.43137 2.74706 4.51764 2.74706C4.60391 2.74706 4.69117 2.78039 4.77941 2.84705C4.86764 2.91372 4.9647 2.97941 5.07058 3.04411C5.17646 3.10882 5.30195 3.14117 5.44705 3.14117C5.54509 3.14117 5.61862 3.11274 5.66764 3.05588C5.71666 2.99902 5.74313 2.92745 5.74705 2.84117C5.7549 2.80196 5.76764 2.77353 5.78529 2.75588C5.80293 2.73823 5.82941 2.72941 5.8647 2.72941C5.99018 2.72941 6.11371 2.76764 6.23531 2.84411C6.35686 2.92059 6.45784 3.01274 6.53823 3.12058C6.61863 3.22843 6.65882 3.32549 6.65882 3.41176C6.65882 3.53333 6.63726 3.63627 6.59413 3.72059C6.55096 3.8049 6.49016 3.84705 6.41174 3.84705C6.32155 3.84705 6.19507 3.82157 6.03232 3.77059C5.86959 3.7196 5.68921 3.66764 5.49117 3.6147C5.29313 3.56176 5.09607 3.53529 4.9 3.53529C4.46078 3.53529 4.05784 3.62941 3.69117 3.81764C3.3245 4.00588 3.03137 4.2549 2.81176 4.5647C2.59215 4.8745 2.48235 5.21568 2.48235 5.58823C2.48235 6.07057 2.6196 6.44704 2.89412 6.71761C3.16862 6.98823 3.5549 7.12354 4.05294 7.12354C4.35882 7.12354 4.61078 7.21471 4.80882 7.39707C5.00686 7.57942 5.10587 7.81177 5.10587 8.09411C5.10587 8.31373 5.10882 8.55882 5.1147 8.8294C5.12058 9.09998 5.15392 9.35977 5.2147 9.60878C5.27548 9.85783 5.38529 10.0628 5.54411 10.2235C5.70293 10.3843 5.93725 10.4647 6.24706 10.4647ZM7.72938 2.45294C7.62353 2.45294 7.53824 2.47157 7.4735 2.50882C7.40881 2.54607 7.3294 2.5647 7.23527 2.5647C7.14508 2.5647 7.06959 2.53627 7.00879 2.47941C6.94803 2.42255 6.91765 2.34706 6.91765 2.25294C6.91765 2.11176 6.98431 2.00294 7.11763 1.92647C7.25095 1.85 7.43919 1.81176 7.68234 1.81176C7.89019 1.81176 8.06275 1.85882 8.2 1.95294C8.33726 2.04706 8.40589 2.16274 8.40589 2.3C8.40589 2.37843 8.38432 2.44411 8.34119 2.49706C8.29802 2.55 8.24311 2.57647 8.17645 2.57647C8.07056 2.57647 7.98526 2.55588 7.92057 2.5147C7.85588 2.47353 7.79215 2.45294 7.72938 2.45294ZM5.99999 12C6.81962 12 7.59118 11.8431 8.31469 11.5294C9.03823 11.2157 9.67647 10.7823 10.2294 10.2294C10.7823 9.67647 11.2157 9.03823 11.5294 8.31469C11.8431 7.59118 12 6.81962 12 5.99999C12 5.18039 11.8431 4.40882 11.5294 3.68529C11.2157 2.96176 10.7823 2.32353 10.2294 1.77058C9.67647 1.21764 9.03725 0.784313 8.31174 0.470588C7.58626 0.156863 6.81372 0 5.99411 0C5.1745 0 4.40294 0.156863 3.67941 0.470588C2.95588 0.784313 2.31862 1.21764 1.76764 1.77058C1.21667 2.32353 0.784313 2.96176 0.470588 3.68529C0.156863 4.40882 0 5.18039 0 5.99999C0 6.81962 0.156863 7.59118 0.470588 8.31469C0.784313 9.03823 1.21764 9.67647 1.77058 10.2294C2.32353 10.7823 2.96176 11.2157 3.68529 11.5294C4.40882 11.8431 5.18039 12 5.99999 12ZM5.99999 11.2C5.29019 11.2 4.62156 11.0637 3.99411 10.7911C3.36666 10.5186 2.81372 10.1431 2.33529 9.66468C1.85686 9.18625 1.48137 8.63331 1.20882 8.00586C0.936272 7.37841 0.799996 6.70979 0.799996 5.99999C0.799996 5.29019 0.936272 4.62156 1.20882 3.99411C1.48137 3.36666 1.85588 2.81372 2.33235 2.33529C2.80882 1.85686 3.36078 1.48137 3.98823 1.20882C4.61568 0.936272 5.28431 0.799996 5.99411 0.799996C6.70393 0.799996 7.37255 0.936272 7.99996 1.20882C8.62745 1.48137 9.18137 1.85686 9.66173 2.33529C10.1421 2.81372 10.5186 3.36666 10.7911 3.99411C11.0637 4.62156 11.2 5.29019 11.2 5.99999C11.2 6.70979 11.0637 7.37841 10.7911 8.00586C10.5186 8.63331 10.1431 9.18625 9.66468 9.66468C9.18625 10.1431 8.63331 10.5186 8.00586 10.7911C7.37841 11.0637 6.70979 11.2 5.99999 11.2Z" fill="white"/>
</svg>
