<svg width="38" height="37" viewBox="0 0 38 37" fill="none" xmlns="http://www.w3.org/2000/svg">
<path d="M24.7649 36.9015V30.3162C24.7649 27.081 22.1422 24.4583 18.907 24.4583C15.6718 24.4583 13.0491 27.081 13.0491 30.3162V36.9014C14.6226 37 16.5263 37 18.907 37C21.2877 37 23.1915 37 24.7649 36.9015Z" fill="#96BCFF"/>
<path fill-rule="evenodd" clip-rule="evenodd" d="M0.4677 13.163C1.41164 10.5837 3.81501 8.83751 8.62176 5.34521C13.4285 1.85291 15.8319 0.106749 18.5766 0.00605804C18.7968 -0.00201935 19.0172 -0.00201935 19.2374 0.00605804C21.9822 0.106749 24.3856 1.85292 29.1923 5.34522C33.999 8.83752 36.4024 10.5837 37.3464 13.163C37.4221 13.3699 37.4902 13.5795 37.5505 13.7914C38.303 16.4329 37.385 19.2583 35.5489 24.9089C33.7129 30.5596 32.7949 33.3849 30.6335 35.0797C30.4602 35.2157 30.2818 35.3452 30.099 35.4681C29.33 35.9849 28.4823 36.3273 27.4685 36.5542V30.3162C27.4685 25.5878 23.6354 21.7547 18.907 21.7547C14.1786 21.7547 10.3455 25.5878 10.3455 30.3162V36.5542C9.33172 36.3273 8.48409 35.9849 7.71509 35.4681C7.53221 35.3452 7.35389 35.2157 7.18051 35.0797C5.01913 33.3849 4.10113 30.5596 2.26511 24.9089C0.429101 19.2583 -0.488905 16.4329 0.26351 13.7914C0.323869 13.5795 0.391978 13.3699 0.4677 13.163ZM19.6764 6.75555C20.5365 6.20996 21.9255 5.69405 23.125 6.91731C25.9725 9.82112 21.0894 15.4167 18.8539 15.4167C16.6184 15.4167 11.7352 9.82112 14.5827 6.91731C15.7822 5.69407 17.1712 6.20997 18.0313 6.75555C18.5173 7.06382 19.1905 7.06382 19.6764 6.75555ZM16.9132 7.57142C16.9888 7.7704 16.8888 7.993 16.6898 8.06861C16.5044 8.13905 16.3109 8.2584 16.1165 8.45113C15.869 8.69658 15.7123 8.9656 15.625 9.24884C15.5622 9.45224 15.3465 9.56629 15.1431 9.50357C14.9397 9.44084 14.8256 9.2251 14.8883 9.02169C15.0135 8.6157 15.2376 8.23712 15.5738 7.90374C15.8391 7.64072 16.1227 7.45951 16.416 7.34805C16.615 7.27244 16.8376 7.37245 16.9132 7.57142Z" fill="#96BCFF"/>
</svg>
