<svg width="38" height="37" viewBox="0 0 38 37" fill="none" xmlns="http://www.w3.org/2000/svg">
<path d="M24.7649 36.9015V30.3162C24.7649 27.081 22.1422 24.4583 18.907 24.4583C15.6718 24.4583 13.0491 27.081 13.0491 30.3162V36.9014C14.6226 37 16.5263 37 18.907 37C21.2877 37 23.1915 37 24.7649 36.9015Z" fill="#96BCFF"/>
<path fill-rule="evenodd" clip-rule="evenodd" d="M0.4677 13.163C1.41164 10.5837 3.81501 8.83751 8.62176 5.34521C13.4285 1.85291 15.8319 0.106749 18.5766 0.00605804C18.7968 -0.00201935 19.0172 -0.00201935 19.2374 0.00605804C21.9822 0.106749 24.3856 1.85292 29.1923 5.34522C33.999 8.83752 36.4024 10.5837 37.3464 13.163C37.4221 13.3699 37.4902 13.5795 37.5505 13.7914C38.303 16.4329 37.385 19.2583 35.5489 24.9089C33.7129 30.5596 32.7949 33.3849 30.6335 35.0797C30.4602 35.2157 30.2818 35.3452 30.099 35.4681C29.33 35.9849 28.4823 36.3273 27.4685 36.5542V30.3162C27.4685 25.5878 23.6354 21.7547 18.907 21.7547C14.1786 21.7547 10.3455 25.5878 10.3455 30.3162V36.5542C9.33172 36.3273 8.48409 35.9849 7.71509 35.4681C7.53221 35.3452 7.35389 35.2157 7.18051 35.0797C5.01913 33.3849 4.10113 30.5596 2.26511 24.9089C0.429101 19.2583 -0.488905 16.4329 0.26351 13.7914C0.323869 13.5795 0.391978 13.3699 0.4677 13.163ZM13.2444 7.70806C11.8897 7.70806 10.7916 8.80619 10.7916 10.1608V12.9639C10.7916 14.3185 11.8898 15.4167 13.2444 15.4167H15.3789C16.3818 15.4167 17.2837 14.8061 17.6562 13.8748L18.1607 12.6135H20.9371C21.0146 12.9934 20.9648 13.393 20.7875 13.7474L20.7136 13.8954C20.4539 14.4146 20.6644 15.0461 21.1837 15.3057C21.7029 15.5653 22.3343 15.3549 22.5939 14.8356L22.6679 14.6876C22.9929 14.0377 23.1232 13.3188 23.0589 12.6135H25.1418C25.2193 12.9934 25.1695 13.393 24.9922 13.7474L24.9183 13.8954C24.6586 14.4146 24.8691 15.0461 25.3883 15.3057C25.9076 15.5653 26.539 15.3549 26.7986 14.8356L26.8726 14.6876C27.4152 13.6025 27.4152 12.3253 26.8726 11.2402C26.6492 10.7934 26.1926 10.5112 25.693 10.5112L21.6749 10.5112H21.6309H18.1607L17.6562 9.24987C17.2837 8.31867 16.3818 7.70806 15.3789 7.70806H13.2444ZM13.2444 9.81041C13.0508 9.81041 12.894 9.96728 12.894 10.1608V12.9639C12.894 13.1574 13.0508 13.3143 13.2444 13.3143H15.3789C15.5222 13.3143 15.651 13.2271 15.7042 13.0941L16.2649 11.6925C16.2816 11.6507 16.2899 11.6066 16.2899 11.5624C16.2899 11.5181 16.2816 11.474 16.2649 11.4322L15.7042 10.0307C15.651 9.89764 15.5222 9.81041 15.3789 9.81041H13.2444Z" fill="#96BCFF"/>
</svg>
