<svg width="13" height="12" viewBox="0 0 13 12" fill="none" xmlns="http://www.w3.org/2000/svg">
<path d="M8.03186 11.968V9.83229C8.03186 8.78303 7.18127 7.93243 6.132 7.93243C5.08274 7.93243 4.23215 8.78303 4.23215 9.83229V11.968C4.74245 12 5.35988 12 6.13201 12C6.90413 12 7.52156 12 8.03186 11.968Z" fill="white"/>
<path fill-rule="evenodd" clip-rule="evenodd" d="M0.151687 4.26907C0.45783 3.43254 1.2373 2.86622 2.79625 1.73358C4.35519 0.600942 5.13466 0.0346213 6.02486 0.00196477C6.09627 -0.000654923 6.16775 -0.000654923 6.23916 0.00196477C7.12935 0.0346213 7.90883 0.600947 9.46778 1.73359C11.0267 2.86622 11.8062 3.43254 12.1123 4.26907C12.1369 4.33618 12.159 4.40416 12.1786 4.47289C12.4226 5.3296 12.1248 6.24593 11.5294 8.07858C10.9339 9.91123 10.6362 10.8276 9.9352 11.3772C9.87897 11.4213 9.82114 11.4633 9.76183 11.5032C9.51242 11.6708 9.23751 11.7818 8.90872 11.8554V9.83229C8.90872 8.29875 7.66554 7.05557 6.132 7.05557C4.59847 7.05557 3.35529 8.29875 3.35529 9.83229V11.8554C3.0265 11.7818 2.7516 11.6708 2.50219 11.5032C2.44288 11.4633 2.38505 11.4213 2.32881 11.3772C1.62783 10.8276 1.3301 9.91123 0.734631 8.07858C0.139168 6.24593 -0.158564 5.3296 0.0854627 4.47289C0.105038 4.40416 0.127128 4.33618 0.151687 4.26907ZM6.21439 2C6.48029 2 6.61324 2 6.72083 2.03496C6.90913 2.09614 7.0622 2.23217 7.14575 2.40873C7.05714 2.37068 6.95754 2.35001 6.84324 2.33817C6.68158 2.32143 6.47849 2.32143 6.22051 2.32143H6.20828C5.9503 2.32143 5.74722 2.32143 5.58556 2.33817C5.47126 2.35001 5.37164 2.37068 5.28304 2.40873C5.36658 2.23217 5.51966 2.09614 5.70795 2.03496C5.81555 2 5.94849 2 6.21439 2ZM5.06509 2.72301C4.92868 2.91077 4.92868 3.17861 4.92868 3.71429C4.92868 4.24996 4.92868 4.5178 5.06509 4.70556C5.10915 4.7662 5.16248 4.81953 5.22312 4.86358C5.41088 5 5.67872 5 6.21439 5C6.75007 5 7.01791 5 7.20567 4.86358C7.26631 4.81953 7.31963 4.7662 7.36369 4.70556C7.50011 4.5178 7.50011 4.24996 7.50011 3.71429C7.50011 3.17861 7.50011 2.91077 7.36369 2.72301C7.31963 2.66237 7.26631 2.60904 7.20567 2.56499L7.19574 2.55796C7.00846 2.42857 6.7407 2.42857 6.21439 2.42857C5.6881 2.42857 5.42035 2.42857 5.23306 2.55794L5.22312 2.56499C5.16248 2.60904 5.10915 2.66237 5.06509 2.72301Z" fill="white"/>
<path d="M5.53582 4C5.53582 3.94083 5.58379 3.89286 5.64296 3.89286H6.78582C6.84499 3.89286 6.89296 3.94083 6.89296 4C6.89296 4.05917 6.84499 4.10714 6.78582 4.10714H5.64296C5.58379 4.10714 5.53582 4.05917 5.53582 4Z" fill="white"/>
</svg>
