<svg width="39" height="37" viewBox="0 0 39 37" fill="none" xmlns="http://www.w3.org/2000/svg">
<path d="M24.9915 36.9015V30.3162C24.9915 27.081 22.3688 24.4583 19.1336 24.4583C15.8984 24.4583 13.2757 27.081 13.2757 30.3162V36.9014C14.8491 37 16.7529 37 19.1336 37C21.5143 37 23.418 37 24.9915 36.9015Z" fill="#96BCFF"/>
<path fill-rule="evenodd" clip-rule="evenodd" d="M0.694263 13.163C1.6382 10.5837 4.04158 8.83751 8.84832 5.34521C13.6551 1.85291 16.0584 0.106749 18.8032 0.00605804C19.0234 -0.00201935 19.2438 -0.00201935 19.464 0.00605804C22.2087 0.106749 24.6121 1.85292 29.4189 5.34522C34.2256 8.83752 36.629 10.5837 37.5729 13.163C37.6486 13.3699 37.7167 13.5795 37.7771 13.7914C38.5295 16.4329 37.6115 19.2583 35.7755 24.9089C33.9395 30.5596 33.0215 33.3849 30.8601 35.0797C30.6867 35.2157 30.5084 35.3452 30.3255 35.4681C29.5565 35.9849 28.7089 36.3273 27.6951 36.5542V30.3162C27.6951 25.5878 23.862 21.7547 19.1336 21.7547C14.4052 21.7547 10.572 25.5878 10.572 30.3162V36.5542C9.55829 36.3273 8.71066 35.9849 7.94165 35.4681C7.75877 35.3452 7.58046 35.2157 7.40707 35.0797C5.2457 33.3849 4.32769 30.5596 2.49168 24.9089C0.655663 19.2583 -0.262343 16.4329 0.490073 13.7914C0.550431 13.5795 0.61854 13.3699 0.694263 13.163ZM19.3876 6.16667C20.2075 6.16667 20.6174 6.16667 20.9491 6.27446C21.5297 6.4631 22.0017 6.88253 22.2593 7.42693C21.9861 7.30959 21.679 7.24587 21.3266 7.20936C20.8281 7.15773 20.2019 7.15773 19.4065 7.15774H19.3687C18.5733 7.15773 17.9472 7.15773 17.4487 7.20936C17.0963 7.24586 16.7891 7.30959 16.5159 7.42693C16.7735 6.88253 17.2455 6.4631 17.8261 6.27446C18.1578 6.16667 18.5678 6.16667 19.3876 6.16667ZM15.8439 8.39595C15.4233 8.97488 15.4233 9.80071 15.4233 11.4524C15.4233 13.104 15.4233 13.9299 15.8439 14.5088C15.9798 14.6958 16.1442 14.8602 16.3312 14.996C16.9101 15.4167 17.7359 15.4167 19.3876 15.4167C21.0393 15.4167 21.8651 15.4167 22.444 14.996C22.631 14.8602 22.7954 14.6958 22.9313 14.5088C23.3519 13.9299 23.3519 13.104 23.3519 11.4524C23.3519 9.80071 23.3519 8.97488 22.9313 8.39595C22.7954 8.20898 22.631 8.04455 22.444 7.90871L22.4134 7.88703C21.836 7.4881 21.0104 7.4881 19.3876 7.4881C17.7649 7.4881 16.9393 7.4881 16.3618 7.88699L16.3312 7.90871C16.1442 8.04455 15.9798 8.20898 15.8439 8.39595Z" fill="#96BCFF"/>
<path d="M17.2953 12.3333C17.2953 12.1509 17.4433 12.003 17.6257 12.003H21.1495C21.332 12.003 21.4799 12.1509 21.4799 12.3333C21.4799 12.5158 21.332 12.6637 21.1495 12.6637H17.6257C17.4433 12.6637 17.2953 12.5158 17.2953 12.3333Z" fill="#96BCFF"/>
</svg>
