
<svg width="2.3958vw" height="2vh" viewBox="0 0 46 72" fill="none" xmlns="http://www.w3.org/2000/svg">
<path d="M3.06034 34.3789C4.46766 36.5346 10.5757 44.0063 14.5792 46.5903L14.6125 71.9969H29.4103V47.9383C35.5897 40.8606 36.9936 35.131 38.6795 30.4114C39.3719 28.4733 42.9375 24.3246 43.5669 23.6144C44.4663 22.6019 45.3561 19.4325 45.4776 16.8734C45.6156 13.9632 43.705 12.8331 42.2189 13.2767C40.7343 13.7218 41.2553 17.154 41.1055 17.8978C40.958 18.6377 38.7309 21.9049 38.2858 22.3498C37.8396 22.7947 34.5715 24.8745 35.0164 23.9845C35.465 23.0923 38.5154 16.5605 38.9604 15.0745C39.4054 13.5886 40.1132 10.9201 40.0277 9.68151C39.8586 7.23895 39.2697 4.87964 38.3418 3.69956C37.189 2.23023 35.3092 2.77161 34.6346 4.03634C34.1706 4.9072 34.8035 7.65898 35.1403 9.93505C35.1926 10.2872 33.5687 14.4013 33.4557 14.8522C33.2712 15.5851 31.3202 18.8877 30.0852 20.6366C28.6896 22.6116 27.8151 21.3303 28.0626 20.1311C28.1852 19.5363 28.993 16.3133 29.5235 13.277C29.9126 11.0499 29.4712 5.05724 29.9161 3.27869C30.3636 1.49521 28.5812 -0.138227 26.9478 0.00928258C25.3144 0.158058 24.6016 2.04011 24.4231 3.57258C24.3005 4.61963 24.3529 9.71765 24.1769 10.9025C23.8246 13.2797 21.2085 20.6927 21.2085 20.6927C21.2085 20.6927 20.2889 21.3126 19.5464 20.1253C18.804 18.9357 17.9497 12.5694 17.6119 11.2846C17.211 9.75224 16.9398 6.31255 15.085 3.10994C14.2438 1.65495 10.8709 1.92972 10.9281 5.52508C10.9686 8.16873 11.9964 10.4673 12.6699 12.9408C12.8292 13.5249 13.4954 20.0708 13.7941 21.7042C14.0917 23.3365 11.9154 31.7432 11.3206 32.0406C10.7282 32.3369 6.7914 28.7783 6.93891 28.3333C7.08642 27.886 8.16075 25.4565 6.37854 22.0408C5.39589 20.1551 2.32279 20.4203 2.46904 21.4602C2.62006 22.5 0.984375 29.3218 0.984375 30.3676C0.984234 30.817 2.2941 33.2071 3.06034 34.3789Z" fill="white"/>
</svg>
