
<svg width="4.375vw" height="6.6667vh" viewBox="0 0 84 72" fill="none" xmlns="http://www.w3.org/2000/svg">
<path d="M46.4546 40.0178L57.6663 51.2295C59.8492 53.4125 62.1983 54.8895 64.7136 55.6607C67.2287 56.4319 69.7319 56.4793 72.2234 55.8029C74.7149 55.1267 77.0284 53.7327 79.164 51.621C81.2759 49.5328 82.67 47.243 83.3462 44.7515C84.0224 42.26 83.9749 39.7508 83.2037 37.2238C82.4325 34.6968 80.9435 32.3298 78.7368 30.1231L67.5255 18.9115L46.4546 40.0178Z" fill="white"/>
<path d="M42.7464 37.7985L63.7816 16.7279L52.6413 5.55192C50.4346 3.34518 48.0736 1.85622 45.5583 1.08505C43.043 0.313884 40.5397 0.266428 38.0484 0.942685C35.5568 1.61894 33.2551 3.01298 31.1433 5.1248C29.0315 7.23661 27.6375 9.53232 26.9612 12.0119C26.285 14.4915 26.3265 16.9948 27.0858 19.5219C27.8451 22.049 29.3281 24.4159 31.5348 26.6226L42.7464 37.7985ZM0 50.7188H36.9095C36.506 47.7052 35.4382 44.9882 33.706 42.5679C31.9738 40.1476 29.7849 38.2256 27.1392 36.802C24.4935 35.3783 21.6046 34.6665 18.4725 34.6665C15.3166 34.6665 12.4158 35.3783 9.7701 36.802C7.12441 38.2256 4.93549 40.1476 3.20331 42.5679C1.47115 44.9882 0.403381 47.7052 0 50.7188ZM0 55.915C0.403381 58.9522 1.47115 61.681 3.20331 64.1013C4.93549 66.5216 7.12441 68.4436 9.7701 69.8675C12.4158 71.2911 15.3166 72.0029 18.4725 72.0029C21.6046 72.0029 24.4876 71.2911 27.1214 69.8675C29.7552 68.4436 31.9382 66.5156 33.6704 64.0834C35.4026 61.6515 36.4823 58.9286 36.9095 55.915H0Z" fill="white"/>
</svg>
