
<svg width="4.0104vw" height="7.037vh" viewBox="0 0 77 76" fill="none" xmlns="http://www.w3.org/2000/svg">
<path d="M38.6093 76C43.8003 76 48.6869 75.0065 53.2691 73.0194C57.8515 71.0326 61.8937 68.2882 65.3955 64.7861C68.8976 61.2843 71.642 57.2422 73.6288 52.6597C75.6159 48.0775 76.6094 43.1909 76.6094 38C76.6094 32.8091 75.6159 27.9225 73.6288 23.3402C71.642 18.7578 68.8976 14.7157 65.3955 11.2137C61.8937 7.71175 57.8453 4.96731 53.2504 2.98039C48.6557 0.993463 43.7629 0 38.5721 0C33.3812 0 28.4946 0.993463 23.9123 2.98039C19.3299 4.96731 15.294 7.71175 11.8045 11.2137C8.31492 14.7157 5.57669 18.7578 3.58976 23.3402C1.60284 27.9225 0.609375 32.8091 0.609375 38C0.609375 43.1909 1.60284 48.0775 3.58976 52.6597C5.57669 57.2422 8.32113 61.2843 11.8231 64.7861C15.325 68.2882 19.3672 71.0326 23.9495 73.0194C28.5319 75.0065 33.4185 76 38.6093 76ZM38.6093 69.6665C34.2133 69.6665 30.1028 68.8469 26.278 67.2078C22.4531 65.5687 19.094 63.3024 16.2005 60.4089C13.3071 57.5154 11.0469 54.1563 9.42015 50.3315C7.79335 46.5067 6.97995 42.3962 6.97995 38C6.97995 33.6039 7.79335 29.4934 9.42015 25.6686C11.0469 21.8438 13.3009 18.4784 16.1819 15.5725C19.0629 12.6666 22.4159 10.4003 26.2407 8.7735C30.0656 7.14673 34.176 6.33334 38.5721 6.33334C42.9682 6.33334 47.0786 7.14673 50.9035 8.7735C54.7283 10.4003 58.0936 12.6666 60.9996 15.5725C63.9055 18.4784 66.1781 21.8438 67.8172 25.6686C69.4563 29.4934 70.2759 33.6039 70.2759 38C70.2759 42.3962 69.4626 46.5067 67.8359 50.3315C66.209 54.1563 63.9488 57.5154 61.0553 60.4089C58.1618 63.3024 54.7964 65.5687 50.9592 67.2078C47.1221 68.8469 43.0055 69.6665 38.6093 69.6665ZM35.1446 63.2586C36.759 63.2586 37.5662 62.377 37.5662 60.6138V45.3763C37.5662 44.5569 37.9015 44.1471 38.5721 44.1471C39.168 44.1471 39.466 44.5569 39.466 45.3763V60.6138C39.466 61.483 39.702 62.1411 40.1741 62.588C40.6458 63.0351 41.2418 63.2586 41.9621 63.2586C43.5516 63.2586 44.3464 62.377 44.3464 60.6138V34.0137C44.3464 33.3431 44.6321 33.0078 45.2036 33.0078C45.7499 33.0078 46.0231 33.3431 46.0231 34.0137V44.8922C46.0231 45.662 46.2404 46.2518 46.675 46.6615C47.1097 47.0715 47.6499 47.2765 48.2956 47.2765C49.761 47.2765 50.4937 46.4817 50.4937 44.8922V34.5725C50.4937 31.2444 49.5251 28.9967 47.5879 27.8294C45.6505 26.6621 42.6576 26.0784 38.6093 26.0784H35.4799C34.71 26.0784 34.0953 25.9977 33.6358 25.8362C33.1763 25.6748 32.661 25.3954 32.0897 24.998L28.8113 22.7255L28.327 15.2745C28.2773 14.5046 28.0352 13.9271 27.6005 13.5421C27.1659 13.1572 26.6257 12.9895 25.9799 13.0392C25.3093 13.0889 24.7816 13.3248 24.3966 13.7471C24.0116 14.1693 23.844 14.7902 23.8937 15.6098L24.378 23.0235C24.4276 23.8183 24.6201 24.4764 24.9554 24.998C25.2907 25.5196 25.7191 25.9666 26.2407 26.3392L31.6427 30.2882C32.3133 30.7849 32.6486 31.4431 32.6486 32.2627V60.6138C32.6486 61.483 32.8845 62.1411 33.3564 62.588C33.8283 63.0351 34.4244 63.2586 35.1446 63.2586ZM38.6093 23.9176C39.9506 23.9176 41.0931 23.4395 42.0369 22.4833C42.9807 21.5271 43.4526 20.4033 43.4526 19.1118C43.4526 17.7457 42.9807 16.5908 42.0369 15.647C41.0931 14.7033 39.9506 14.2314 38.6093 14.2314C37.2433 14.2314 36.0946 14.7033 35.1633 15.647C34.2319 16.5908 33.7662 17.7457 33.7662 19.1118C33.7662 20.3784 34.2319 21.496 35.1633 22.4647C36.0946 23.4333 37.2433 23.9176 38.6093 23.9176Z" fill="white"/>
</svg>
