
<svg width="6.875vw" height="3.8889vh" viewBox="0 0 132 42" fill="none" xmlns="http://www.w3.org/2000/svg">
<path fill-rule="evenodd" clip-rule="evenodd" d="M66.8398 0.979994C73.4597 1.4676 79.5195 3.77609 87.3725 8.8026C90.4651 10.7818 91.137 11.1228 91.4508 10.873C91.9277 10.4932 99.4074 10.7128 104.165 11.2462C113.784 12.3246 122.565 14.6831 128.008 17.6507L129.88 18.6717L130.028 20.7074C130.129 22.0986 130.346 23.0623 130.715 23.7514C131.378 24.9927 131.384 25.9624 130.745 28.7304C130.279 30.7549 130.274 30.9041 130.674 31.1853C130.908 31.35 131.19 31.4846 131.301 31.4846C131.412 31.4846 131.503 31.948 131.503 32.5147C131.503 33.4913 131.448 33.5706 130.427 34.046C128.643 34.8775 121.659 36.4913 121.307 36.1533C121.257 36.1057 121.397 35.3793 121.616 34.5389C122.59 30.814 121.513 27.1804 118.608 24.3937C112.101 18.1522 100.942 21.8996 99.7257 30.7341C99.4726 32.5727 99.7033 34.3392 100.426 36.0949C100.585 36.4831 100.315 36.5138 96.764 36.5111C94.6553 36.5095 85.2339 36.3452 75.8277 36.1459C65.0537 35.9179 55.5923 35.8441 50.2577 35.9466C41.9935 36.1057 41.7945 36.0985 41.9845 35.6533C42.0914 35.4023 42.3011 34.4141 42.4507 33.4573C43.3564 27.6623 39.186 21.9013 32.9594 20.3455C26.7414 18.7919 19.8811 22.6976 18.1187 28.7941C17.6149 30.5374 17.5115 33.2813 17.901 34.5837C18.0358 35.0351 18.1082 35.4411 18.0618 35.4859C17.9592 35.5843 9.8081 32.7595 8.89133 32.3078C7.832 31.7859 5.75278 29.4274 4.94012 27.8261C3.61215 25.2096 3.36873 21.5969 4.29873 18.3124C4.89269 16.2152 5.47865 12.3375 5.30638 11.6435C5.21949 11.2938 5.08967 10.8177 5.01752 10.5852C4.89618 10.1933 5.1406 10.1665 8.33757 10.2206C10.2355 10.2527 13.3883 10.1409 15.3439 9.97229C18.5224 9.69807 19.1044 9.57521 20.8366 8.81338C26.8171 6.18253 34.0045 3.68101 40.5 1.96934L44.245 0.982628L54.9806 0.94C60.8852 0.91653 66.2218 0.93449 66.8398 0.979994ZM31.8431 22.1434C34.923 22.5893 38.2081 24.9955 39.5363 27.7782C40.3847 29.5562 40.7382 32.0824 40.3739 33.7656C39.1019 39.6435 32.9302 43.2895 27.1656 41.5685C22.1049 40.0578 18.9936 35.323 19.8636 30.4565C20.8553 24.9088 26.0491 21.3047 31.8431 22.1434ZM112.223 23.3557C115.173 23.747 118.196 26.0728 119.288 28.791C119.688 29.7878 119.845 30.7041 119.855 32.1128C119.867 33.8312 119.776 34.239 119.072 35.6106C118.109 37.4876 116.309 39.176 114.331 40.058C113.138 40.59 112.554 40.6949 110.781 40.6949C109.008 40.6949 108.424 40.59 107.231 40.058C103.347 38.326 101.184 34.5547 101.833 30.6464C102.628 25.8601 107.155 22.6835 112.223 23.3557Z" fill="white"/>
<path d="M11.7261 2.50917L0.546875 0.929688V4.08866H13.3232L11.7261 2.50917Z" fill="white"/>
<rect opacity="0.1" width="6.31795" height="3.19407" transform="matrix(4.41971e-08 -1 -1 -4.3231e-08 10.125 10.4062)" fill="white"/>
</svg>
