<svg width="11" height="14" viewBox="0 0 11 14" fill="none" xmlns="http://www.w3.org/2000/svg">
<path d="M2.02734 14H8.97262C9.64841 14 10.1552 13.8291 10.4931 13.4874C10.831 13.1457 11 12.6353 11 11.9562V2.05038C11 1.36691 10.831 0.854321 10.4931 0.512594C10.1552 0.170865 9.64841 0 8.97262 0H7.31155C7.19819 0 7.10772 0.0359142 7.04013 0.107743C6.97253 0.179571 6.93874 0.274254 6.93874 0.391791C6.93874 0.404851 6.93874 0.420087 6.93874 0.4375C6.93874 0.454913 6.93874 0.470149 6.93874 0.483209C6.93874 0.905472 6.80686 1.2374 6.5431 1.47901C6.27932 1.72062 5.93162 1.84142 5.49999 1.84142C5.06836 1.84142 4.72066 1.72062 4.45689 1.47901C4.19312 1.2374 4.06123 0.905472 4.06123 0.483209C4.06123 0.470149 4.06123 0.454913 4.06123 0.4375C4.06123 0.420087 4.06123 0.404851 4.06123 0.391791C4.06123 0.274254 4.02744 0.179571 3.95987 0.107743C3.89229 0.0359142 3.80182 0 3.68846 0H2.02734C1.35156 0 0.844727 0.170865 0.506837 0.512594C0.168946 0.854321 0 1.36691 0 2.05038V11.9562C0 12.6353 0.168946 13.1457 0.506837 13.4874C0.844727 13.8291 1.35156 14 2.02734 14ZM3.0214 4.86474C2.90368 4.86474 2.80668 4.82556 2.73038 4.7472C2.65408 4.66884 2.61593 4.5709 2.61593 4.45336C2.61593 4.34018 2.65408 4.24549 2.73038 4.16931C2.80668 4.09313 2.90368 4.05504 3.0214 4.05504H7.98511C8.09846 4.05504 8.19329 4.09313 8.26959 4.16931C8.34589 4.24549 8.38404 4.34018 8.38404 4.45336C8.38404 4.5709 8.34589 4.66884 8.26959 4.7472C8.19329 4.82556 8.09846 4.86474 7.98511 4.86474H3.0214ZM3.0214 7.18284C2.90368 7.18284 2.80668 7.14475 2.73038 7.06857C2.65408 6.99239 2.61593 6.89771 2.61593 6.78452C2.61593 6.67133 2.65408 6.57556 2.73038 6.4972C2.80668 6.41885 2.90368 6.37967 3.0214 6.37967H5.3692C5.48691 6.37967 5.58392 6.41885 5.66022 6.4972C5.73652 6.57556 5.77467 6.67133 5.77467 6.78452C5.77467 6.89771 5.73652 6.99239 5.66022 7.06857C5.58392 7.14475 5.48691 7.18284 5.3692 7.18284H3.0214Z" fill="white" fill-opacity="0.7" style="fill:white;fill:white;fill-opacity:0.7;"/>
</svg>
