<svg opacity="0.4" width="17" height="17" viewBox="0 0 17 17" fill="none" xmlns="http://www.w3.org/2000/svg">
<path fill-rule="evenodd" clip-rule="evenodd" d="M8.32377 0.00934404C7.3272 0.243742 0.379916 2.02449 0.291169 2.06825C0.222341 2.10221 0.128664 2.17222 0.0830278 2.2238L0 2.31763V6.26113C0 9.31744 0.0113202 10.2549 0.0502901 10.4281C0.426578 12.1002 2.00399 13.7159 4.82137 15.3149C6.16489 16.0773 8.17901 17 8.5 17C8.82099 17 10.8351 16.0773 12.1786 15.3149C14.996 13.7159 16.5734 12.1002 16.9497 10.4281C16.9887 10.2549 17 9.31744 17 6.26113V2.31763L16.917 2.2238C16.8713 2.17222 16.7777 2.10221 16.7088 2.06825C16.5541 1.99189 8.77748 0.0223366 8.55916 0.00419354C8.47239 -0.00301717 8.36645 -0.000691137 8.32377 0.00934404Z" fill="white" fill-opacity="0.85"/>
</svg>
