<svg width="50" height="50" viewBox="0 0 50 50" fill="none" xmlns="http://www.w3.org/2000/svg">
<circle cx="25" cy="25" r="24.5" fill="#84B5FF" fill-opacity="0.26" stroke="#84B5FF"/>
<path fill-rule="evenodd" clip-rule="evenodd" d="M23.8688 31.8079H33.7455C34.3636 31.8079 34.7971 31.7222 35.0459 31.5506C35.2947 31.3791 35.4191 31.1245 35.4191 30.7866C35.4191 30.2951 35.2659 29.7754 34.9595 29.2275C34.653 28.6797 34.213 28.1665 33.6395 27.6878C33.0658 27.2091 32.3718 26.8201 31.5573 26.5206C30.7427 26.221 29.8247 26.0713 28.8032 26.0713C27.787 26.0713 26.8717 26.221 26.0571 26.5206C25.2426 26.8201 24.5485 27.2091 23.9749 27.6878C23.4013 28.1665 22.9613 28.6797 22.6548 29.2275C22.3484 29.7754 22.1952 30.2951 22.1952 30.7866C22.1952 31.1245 22.3196 31.3791 22.5684 31.5506C22.8173 31.7222 23.2507 31.8079 23.8688 31.8079ZM28.8111 24.6966C29.3716 24.6966 29.8902 24.5468 30.3669 24.2473C30.8436 23.9478 31.2273 23.5421 31.518 23.0301C31.8087 22.5182 31.9541 21.9422 31.9541 21.3022C31.9541 20.6725 31.8087 20.1081 31.518 19.6089C31.2273 19.1097 30.8436 18.7168 30.3669 18.4301C29.8902 18.1434 29.3716 18 28.8111 18C28.2506 18 27.732 18.1459 27.2553 18.4377C26.7786 18.7296 26.3949 19.1263 26.1042 19.6281C25.8135 20.1298 25.6682 20.693 25.6682 21.3176C25.6682 21.9524 25.8135 22.5246 26.1042 23.034C26.3949 23.5434 26.7786 23.9478 27.2553 24.2473C27.732 24.5468 28.2506 24.6966 28.8111 24.6966ZM15.3829 31.8079H21.3545C21.1502 31.5161 21.052 31.1654 21.0598 30.7558C21.0677 30.3463 21.1633 29.9162 21.3466 29.4657C21.53 29.0151 21.784 28.5786 22.1088 28.1562C22.4335 27.7339 22.8055 27.3614 23.2245 27.0389C22.7897 26.7522 22.2869 26.5154 21.7159 26.3285C21.1449 26.1417 20.4928 26.0482 19.7594 26.0482C18.8742 26.0482 18.0767 26.1903 17.3669 26.4745C16.6571 26.7586 16.0521 27.1323 15.5518 27.5956C15.0516 28.059 14.6679 28.5646 14.4007 29.1124C14.1336 29.6602 14 30.2003 14 30.7328C14 31.0758 14.1061 31.3407 14.3182 31.5276C14.5304 31.7145 14.8853 31.8079 15.3829 31.8079ZM19.7673 24.8732C20.2544 24.8732 20.7049 24.7427 21.1188 24.4816C21.5326 24.2205 21.8665 23.8659 22.1206 23.418C22.3746 22.97 22.5016 22.4695 22.5016 21.9166C22.5016 21.3637 22.3746 20.8709 22.1206 20.4383C21.8665 20.0057 21.5326 19.6652 21.1188 19.4169C20.7049 19.1686 20.2544 19.0444 19.7673 19.0444C19.2801 19.0444 18.8283 19.1711 18.4119 19.4246C17.9955 19.678 17.6602 20.0223 17.4062 20.4575C17.1521 20.8927 17.0251 21.3841 17.0251 21.932C17.0251 22.4798 17.1521 22.9764 17.4062 23.4218C17.6602 23.8672 17.9942 24.2205 18.408 24.4816C18.8218 24.7427 19.2749 24.8732 19.7673 24.8732Z" fill="#84B5FF"/>
</svg>
