<svg width="22" height="22" viewBox="0 0 22 22" fill="none" xmlns="http://www.w3.org/2000/svg">
<path d="M3.75232 22H18.2477C19.4985 22 20.4365 21.6916 21.0619 21.0749C21.6873 20.4582 22 19.5331 22 18.2995V3.72437C22 2.49086 21.6873 1.56574 21.0619 0.948989C20.4365 0.33224 19.4985 0.0238647 18.2477 0.0238647H3.75232C2.50154 0.0238647 1.56346 0.33224 0.938078 0.948989C0.312693 1.56574 0 2.49086 0 3.72437V18.2995C0 19.5331 0.312693 20.4582 0.938078 21.0749C1.56346 21.6916 2.50154 22 3.75232 22ZM13.3721 16.891C13.2127 17.0422 13.0036 17.1138 12.7447 17.1058C12.4858 17.0979 12.2727 17.0144 12.1054 16.8552L7.12222 12.1639C6.89916 11.957 6.74978 11.7103 6.67409 11.4238C6.59841 11.1373 6.59841 10.8508 6.67409 10.5643C6.74978 10.2778 6.89916 10.0311 7.12222 9.82422L12.1054 5.14487C12.2886 4.9698 12.5017 4.87828 12.7447 4.87033C12.9877 4.86237 13.1929 4.94195 13.3602 5.10907C13.5434 5.27619 13.639 5.48708 13.6469 5.74174C13.6549 5.99639 13.5673 6.21126 13.384 6.38633L8.47258 10.9941L13.384 15.6137C13.5593 15.7808 13.6469 15.9917 13.6469 16.2464C13.6469 16.501 13.5553 16.7159 13.3721 16.891Z" fill="white" fill-opacity="0.85" style="fill:white;fill:white;fill-opacity:0.85;"/>
</svg>
