<svg width="58" height="58" viewBox="0 0 58 58" fill="none" xmlns="http://www.w3.org/2000/svg">
<mask id="mask0_17_6920" style="mask-type:alpha" maskUnits="userSpaceOnUse" x="4" y="5" width="49" height="49">
<circle cx="28.6717" cy="29.3085" r="24.0809" fill="#D9D9D9" style="fill:#D9D9D9;fill:color(display-p3 0.8510 0.8510 0.8510);fill-opacity:1;"/>
</mask>
<g mask="url(#mask0_17_6920)">
<g filter="url(#filter0_d_17_6920)">
<path d="M21.0047 35.5419L21.2854 36.7076C21.4663 37.4652 21.7641 38.0367 22.179 38.422C22.5938 38.8073 23.1879 39 23.9614 39H34.0386C34.8121 39 35.4078 38.809 35.8257 38.4269C36.2437 38.0448 36.5431 37.4717 36.724 36.7076L37.0047 35.5419H21.0047ZM20.6959 34.2111H37.3228L39.0819 26.7316L38.3146 26.275L34.0012 29.5388C33.8452 29.6554 33.7096 29.6991 33.5941 29.67C33.4788 29.6408 33.3774 29.5583 33.2901 29.4223L29.2293 23.0501L28.7801 23.0307L24.6819 29.4514C24.6008 29.5745 24.5088 29.6505 24.4059 29.6797C24.3029 29.7088 24.1735 29.6651 24.0176 29.5486L19.7883 26.343L18.8901 26.5859L20.6959 34.2111ZM19.2363 28.6743C19.648 28.6743 20.0222 28.5691 20.3591 28.3586C20.6959 28.1482 20.9641 27.8681 21.1637 27.5184C21.3634 27.1687 21.4632 26.7769 21.4632 26.343C21.4632 25.9221 21.3634 25.5368 21.1637 25.1871C20.9641 24.8374 20.6959 24.5573 20.3591 24.3469C20.0222 24.1364 19.648 24.0312 19.2363 24.0312C18.8246 24.0312 18.4487 24.1364 18.1088 24.3469C17.7688 24.5573 17.499 24.8374 17.2994 25.1871C17.0998 25.5368 17 25.9221 17 26.343C17 26.7769 17.1014 27.1687 17.3041 27.5184C17.5068 27.8681 17.7782 28.1482 18.1181 28.3586C18.4581 28.5691 18.8308 28.6743 19.2363 28.6743ZM29.0047 24.6334C29.4102 24.6334 29.7829 24.5298 30.1228 24.3226C30.4628 24.1154 30.7326 23.8353 30.9322 23.4824C31.1318 23.1294 31.2316 22.7393 31.2316 22.3119C31.2316 21.8909 31.1318 21.5056 30.9322 21.1559C30.7326 20.8062 30.4628 20.5262 30.1228 20.3157C29.7829 20.1052 29.4102 20 29.0047 20C28.593 20 28.2172 20.1036 27.8772 20.3108C27.5372 20.5181 27.2674 20.7965 27.0678 21.1462C26.8682 21.4959 26.7684 21.8845 26.7684 22.3119C26.7684 22.7393 26.8682 23.1294 27.0678 23.4824C27.2674 23.8353 27.5372 24.1154 27.8772 24.3226C28.2172 24.5298 28.593 24.6334 29.0047 24.6334ZM38.7637 28.6743C39.1692 28.6743 39.5419 28.5691 39.8819 28.3586C40.2219 28.1482 40.4932 27.8681 40.6959 27.5184C40.8986 27.1687 41 26.7769 41 26.343C41 25.9221 40.9002 25.5368 40.7006 25.1871C40.501 24.8374 40.2312 24.5573 39.8913 24.3469C39.5513 24.1364 39.1755 24.0312 38.7637 24.0312C38.352 24.0312 37.9778 24.1364 37.641 24.3469C37.3041 24.5573 37.0359 24.8374 36.8363 25.1871C36.6366 25.5368 36.5368 25.9221 36.5368 26.343C36.5368 26.7769 36.6366 27.1687 36.8363 27.5184C37.0359 27.8681 37.3041 28.1482 37.641 28.3586C37.9778 28.5691 38.352 28.6743 38.7637 28.6743Z" fill="white" style="fill:white;fill:white;fill-opacity:1;"/>
</g>
</g>
<circle class="circle" cx="28.6712" cy="29.3084" r="27.521" stroke="#84B5FF" style="stroke:#84B5FF;stroke:color(display-p3 0.5167 0.7100 1.0000);stroke-opacity:1;" stroke-width="2.29342"/>
<defs>
<filter id="filter0_d_17_6920" x="-11" y="-8" width="80" height="75" filterUnits="userSpaceOnUse" color-interpolation-filters="sRGB">
<feFlood flood-opacity="0" result="BackgroundImageFix"/>
<feColorMatrix in="SourceAlpha" type="matrix" values="0 0 0 0 0 0 0 0 0 0 0 0 0 0 0 0 0 0 127 0" result="hardAlpha"/>
<feOffset/>
<feGaussianBlur stdDeviation="14"/>
<feComposite in2="hardAlpha" operator="out"/>
<feColorMatrix type="matrix" values="0 0 0 0 1 0 0 0 0 1 0 0 0 0 1 0 0 0 1 0"/>
<feBlend mode="normal" in2="BackgroundImageFix" result="effect1_dropShadow_17_6920"/>
<feBlend mode="normal" in="SourceGraphic" in2="effect1_dropShadow_17_6920" result="shape"/>
</filter>
</defs>
</svg>
