<svg width="16" height="12" viewBox="0 0 16 12" fill="none" xmlns="http://www.w3.org/2000/svg">
<path d="M9.6014 3.85225C9.47925 3.85225 9.37746 3.81315 9.29603 3.73493C9.21459 3.65671 9.17388 3.56111 9.17388 3.44813C9.17388 3.33515 9.21459 3.24063 9.29603 3.16459C9.37746 3.08854 9.47925 3.05052 9.6014 3.05052H13.3062C13.4238 3.05052 13.5234 3.08854 13.6048 3.16459C13.6862 3.24063 13.7269 3.33515 13.7269 3.44813C13.7269 3.56111 13.6862 3.65671 13.6048 3.73493C13.5234 3.81315 13.4238 3.85225 13.3062 3.85225H9.6014ZM9.6014 6.40739C9.47925 6.40739 9.37746 6.36828 9.29603 6.29007C9.21459 6.21185 9.17388 6.11408 9.17388 5.99675C9.17388 5.88811 9.21459 5.79577 9.29603 5.71973C9.37746 5.64368 9.47925 5.60566 9.6014 5.60566H13.3062C13.4238 5.60566 13.5234 5.64368 13.6048 5.71973C13.6862 5.79577 13.7269 5.88811 13.7269 5.99675C13.7269 6.11408 13.6862 6.21185 13.6048 6.29007C13.5234 6.36828 13.4238 6.40739 13.3062 6.40739H9.6014ZM9.6014 8.95603C9.47925 8.95603 9.37746 8.91801 9.29603 8.84196C9.21459 8.76591 9.17388 8.67356 9.17388 8.5649C9.17388 8.45192 9.21459 8.35525 9.29603 8.27488C9.37746 8.19448 9.47925 8.15427 9.6014 8.15427H13.3062C13.4238 8.15427 13.5234 8.19448 13.6048 8.27488C13.6862 8.35525 13.7269 8.45192 13.7269 8.5649C13.7269 8.67356 13.6862 8.76591 13.6048 8.84196C13.5234 8.91801 13.4238 8.95603 13.3062 8.95603H9.6014ZM2.53096 9.00162C2.4224 9.00162 2.33984 8.96902 2.28329 8.90384C2.22675 8.83869 2.19848 8.75831 2.19848 8.66268C2.19848 8.50627 2.25841 8.30748 2.37829 8.0663C2.49817 7.82512 2.68137 7.58177 2.92791 7.33623C3.17445 7.09074 3.48431 6.88542 3.85752 6.72029C4.23071 6.55515 4.67063 6.47258 5.17728 6.47258C5.68392 6.47258 6.12498 6.55515 6.50044 6.72029C6.87589 6.88542 7.18688 7.09074 7.4334 7.33623C7.67997 7.58177 7.8632 7.82512 7.98308 8.0663C8.10292 8.30748 8.16283 8.50627 8.16283 8.66268C8.16283 8.75831 8.13458 8.83869 8.07806 8.90384C8.02151 8.96902 7.93894 9.00162 7.83036 9.00162H2.53096ZM5.17728 6.0163C4.77015 6.0163 4.42071 5.86855 4.12893 5.57306C3.83716 5.27757 3.69127 4.90604 3.69127 4.45845C3.69127 4.18034 3.758 3.92613 3.89144 3.69582C4.02489 3.46551 4.2047 3.28083 4.43088 3.14177C4.65706 3.00272 4.90586 2.93319 5.17728 2.93319C5.45322 2.93319 5.70315 3.00272 5.92707 3.14177C6.15099 3.28083 6.32967 3.46551 6.46312 3.69582C6.59656 3.92613 6.66328 4.18034 6.66328 4.45845C6.66328 4.90604 6.51853 5.27757 6.22902 5.57306C5.93951 5.86855 5.58893 6.0163 5.17728 6.0163ZM2.13063 12H13.8694C14.5841 12 15.1179 11.8316 15.4707 11.4949C15.8236 11.1581 16 10.6551 16 9.98586V2.02064C16 1.35144 15.8236 0.847367 15.4707 0.50842C15.1179 0.169473 14.5841 0 13.8694 0H2.13063C1.42041 0 0.887758 0.168387 0.532656 0.505161C0.177552 0.841934 0 1.34709 0 2.02064V9.98586C0 10.6551 0.177552 11.1581 0.532656 11.4949C0.887758 11.8316 1.42041 12 2.13063 12Z" fill="white" fill-opacity="0.7" style="fill:white;fill:white;fill-opacity:0.7;"/>
</svg>
