<svg width="57" height="47" viewBox="0 0 57 47" fill="none" xmlns="http://www.w3.org/2000/svg">
<path d="M7.60822 47H49.3917C51.9361 47 53.8402 46.3856 55.1042 45.1568C56.3681 43.9281 57 42.0769 57 39.6032V16.0062C57 13.5163 56.3681 11.6611 55.1042 10.4404C53.8402 9.21972 51.9361 8.60939 49.3917 8.60939H7.60822C5.08035 8.60939 3.18035 9.21972 1.90821 10.4404C0.63607 11.6611 0 13.5163 0 16.0062V39.6032C0 42.0769 0.63607 43.9281 1.90821 45.1568C3.18035 46.3856 5.08035 47 7.60822 47ZM16.0043 10.7193H19.8208V6.42672C19.8208 5.50515 20.0834 4.79377 20.6087 4.29258C21.1339 3.79136 21.8808 3.54076 22.8493 3.54076H34.1507C35.1028 3.54076 35.8414 3.79136 36.3667 4.29258C36.892 4.79377 37.1546 5.50515 37.1546 6.42672V10.6708H40.9711V6.69349C40.9711 4.41382 40.3802 2.72833 39.1984 1.637C38.0166 0.545665 36.3094 0 34.0769 0H22.8985C20.7974 0 19.1231 0.545665 17.8756 1.637C16.6281 2.72833 16.0043 4.41382 16.0043 6.69349V10.7193Z" fill="white" fill-opacity="0.6" style="fill:white;fill:white;fill-opacity:0.6;"/>
</svg>
