<svg width="10" height="13" viewBox="0 0 10 13" fill="none" xmlns="http://www.w3.org/2000/svg">
<path d="M0.410375 4.60048C0.410375 5.27606 0.547166 5.91038 0.820749 6.50345C1.09433 7.09651 1.4632 7.60223 1.92735 8.02061L1.933 12.3678C1.933 12.5405 1.97168 12.6652 2.04904 12.742C2.1264 12.8188 2.22357 12.8571 2.34055 12.8571C2.43866 12.8571 2.52734 12.8312 2.60658 12.7794C2.68583 12.7276 2.76319 12.6633 2.83866 12.5866L4.67827 10.721C4.72732 10.675 4.77072 10.6423 4.80846 10.6232C4.84619 10.604 4.88204 10.5944 4.916 10.5944C4.94997 10.5944 4.98581 10.604 5.02355 10.6232C5.06128 10.6423 5.10468 10.675 5.15373 10.721L6.99333 12.5866C7.07259 12.6672 7.15184 12.7324 7.23109 12.7823C7.31035 12.8322 7.39713 12.8571 7.49146 12.8571C7.61221 12.8571 7.71127 12.8188 7.78863 12.742C7.86599 12.6652 7.90467 12.5405 7.90467 12.3678V8.00333C8.36504 7.58495 8.73012 7.08114 8.99992 6.49189C9.26975 5.9027 9.40654 5.27222 9.41028 4.60048C9.41407 3.96712 9.29805 3.37311 9.06222 2.81844C8.82636 2.26377 8.50183 1.77532 8.08864 1.35308C7.67541 0.930843 7.19711 0.59977 6.65374 0.359863C6.11033 0.119954 5.5292 0 4.91034 0C4.29148 0 3.71035 0.119954 3.16696 0.359863C2.62357 0.59977 2.14527 0.930843 1.73206 1.35308C1.31886 1.77532 0.995277 2.26377 0.761316 2.81844C0.527355 3.37311 0.410375 3.96712 0.410375 4.60048ZM1.33301 4.60048C1.33301 4.08996 1.42452 3.61206 1.60754 3.16679C1.79055 2.72152 2.04432 2.32999 2.36885 1.9922C2.69338 1.65441 3.07356 1.39051 3.50941 1.2005C3.94526 1.01049 4.41412 0.915488 4.916 0.915488C5.41789 0.915488 5.88581 1.01049 6.31976 1.2005C6.75374 1.39051 7.13393 1.65441 7.46033 1.9922C7.78674 2.32999 8.04144 2.72152 8.22444 3.16679C8.40749 3.61206 8.49901 4.08996 8.49901 4.60048C8.50276 5.111 8.41313 5.58891 8.23012 6.03419C8.04712 6.47945 7.79242 6.87002 7.46601 7.2059C7.13957 7.54177 6.75843 7.80471 6.3226 7.99472C5.88675 8.18473 5.41789 8.27781 4.916 8.27396C4.41412 8.27396 3.94526 8.17895 3.50941 7.98894C3.07356 7.79894 2.69338 7.53599 2.36885 7.20012C2.04432 6.86424 1.79055 6.47464 1.60754 6.0313C1.42452 5.58794 1.33301 5.111 1.33301 4.60048Z" fill="white" style="fill:white;fill:white;fill-opacity:1;"/>
</svg>
