<svg width="22" height="19" viewBox="0 0 22 19" fill="none" xmlns="http://www.w3.org/2000/svg">
<path d="M13.4821 7.32197C14.4668 7.32197 15.43 7.27166 16.3717 7.17104C17.3133 7.07042 18.2472 6.90402 19.1736 6.67182C20.1 6.43962 21.0276 6.12745 21.9565 5.73529V5.10835C21.9565 4.31372 21.7611 3.72162 21.3703 3.33204C20.9794 2.94246 20.3906 2.74768 19.6038 2.74768H17.3424V2.13622C17.3424 1.40867 17.1584 0.870743 16.7904 0.522446C16.4224 0.174148 15.8958 0 15.2105 0H11.7461C11.0963 0 10.5799 0.174148 10.1966 0.522446C9.81337 0.870743 9.62174 1.40867 9.62174 2.13622V2.74768H7.35275C6.57104 2.74768 5.98348 2.94246 5.59009 3.33204C5.1967 3.72162 5 4.31372 5 5.10835V5.73529C5.934 6.12745 6.86291 6.43962 7.78675 6.67182C8.71059 6.90402 9.64332 7.07042 10.5849 7.17104C11.5265 7.27166 12.4923 7.32197 13.4821 7.32197ZM10.8019 2.74768V2.05108C10.8019 1.75696 10.8831 1.52993 11.0456 1.36997C11.208 1.21001 11.4364 1.13003 11.7308 1.13003H15.2257C15.5252 1.13003 15.7562 1.21001 15.9186 1.36997C16.081 1.52993 16.1622 1.75696 16.1622 2.05108V2.74768H10.8019ZM7.35275 15H19.6038C20.3906 15 20.9794 14.8039 21.3703 14.4118C21.7611 14.0196 21.9565 13.4288 21.9565 12.6393V7.00464C21.2155 7.27811 20.4858 7.50773 19.7675 7.69349C19.0492 7.87925 18.3361 8.02761 17.628 8.13857C16.9199 8.24948 16.213 8.33074 15.5075 8.38237V9.00929C15.5075 9.5717 15.2257 9.8529 14.6623 9.8529H12.2943C11.7359 9.8529 11.4567 9.5717 11.4567 9.00929V8.38237C10.7461 8.33074 10.0367 8.24948 9.32861 8.13857C8.62049 8.02761 7.90731 7.87925 7.18905 7.69349C6.47079 7.50773 5.7411 7.27811 5 7.00464V12.6393C5 13.4288 5.1967 14.0196 5.59009 14.4118C5.98348 14.8039 6.57104 15 7.35275 15Z" fill="white" style="fill:white;fill:white;fill-opacity:1;"/>
<path d="M4.96094 18.6231C5.63151 18.6231 6.26628 18.4928 6.86523 18.2324C7.46419 17.972 7.99316 17.6139 8.45215 17.1582C8.91113 16.7024 9.27083 16.1751 9.53125 15.5762C9.79167 14.9772 9.92188 14.3391 9.92188 13.6621C9.92188 12.9785 9.7933 12.3372 9.53613 11.7383C9.27897 11.1393 8.92253 10.612 8.4668 10.1563C8.01107 9.70054 7.48372 9.34407 6.88477 9.08687C6.28581 8.82974 5.64453 8.70117 4.96094 8.70117C4.28385 8.70117 3.64583 8.82974 3.04688 9.08687C2.44792 9.34407 1.92057 9.70214 1.46484 10.1611C1.00911 10.6201 0.651042 11.1474 0.390625 11.7432C0.130208 12.3388 0 12.9785 0 13.6621C0 14.3457 0.130208 14.9869 0.390625 15.5859C0.651042 16.1849 1.00911 16.7122 1.46484 17.168C1.92057 17.6237 2.44792 17.9801 3.04688 18.2373C3.64583 18.4945 4.28385 18.6231 4.96094 18.6231Z" fill="white" style="fill:white;fill:white;fill-opacity:1;"/>
<path d="M4.96094 16.7676C4.77865 16.7676 4.63379 16.7123 4.52637 16.6016C4.41894 16.491 4.36523 16.3477 4.36523 16.1719V14.2578H2.45117C2.27539 14.2578 2.13216 14.2041 2.02148 14.0967C1.91081 13.9893 1.85547 13.8445 1.85547 13.6621C1.85547 13.4799 1.91081 13.335 2.02148 13.2275C2.13216 13.1201 2.27539 13.0664 2.45117 13.0664H4.36523V11.1523C4.36523 10.9766 4.41894 10.8334 4.52637 10.7227C4.63379 10.612 4.77865 10.5566 4.96094 10.5566C5.14323 10.5566 5.28809 10.612 5.39551 10.7227C5.50293 10.8334 5.55664 10.9766 5.55664 11.1523V13.0664H7.4707C7.64648 13.0664 7.78972 13.1201 7.90039 13.2275C8.01107 13.335 8.06641 13.4799 8.06641 13.6621C8.06641 13.8445 8.01107 13.9893 7.90039 14.0967C7.78972 14.2041 7.64648 14.2578 7.4707 14.2578H5.55664V16.1719C5.55664 16.3477 5.50293 16.491 5.39551 16.6016C5.28809 16.7123 5.14323 16.7676 4.96094 16.7676Z" fill="#FF5B5B" style="fill:#FF5B5B;fill:color(display-p3 1.0000 0.3569 0.3569);fill-opacity:1;"/>
</svg>
