<svg width="17" height="15" viewBox="0 0 17 15" fill="none" xmlns="http://www.w3.org/2000/svg">
<path d="M3.46292 14.0335H14.4662C15.3094 14.0335 15.9404 13.8404 16.3592 13.4542C16.7781 13.068 16.9875 12.4888 16.9875 11.7164V2.59003C16.9875 1.81766 16.7781 1.23839 16.3592 0.852208C15.9404 0.466025 15.3094 0.272934 14.4662 0.272934H3.46292C2.61981 0.272934 1.98748 0.466025 1.56592 0.852208C1.14437 1.23839 0.933594 1.81766 0.933594 2.59003V11.7164C0.933594 12.4888 1.14437 13.068 1.56592 13.4542C1.98748 13.8404 2.61981 14.0335 3.46292 14.0335ZM3.34208 12.8301C2.98766 12.8301 2.71378 12.7417 2.52046 12.5647C2.32714 12.3878 2.23048 12.1275 2.23048 11.7837V4.73521C2.23048 4.39138 2.32714 4.13102 2.52046 3.95412C2.71378 3.77723 2.98766 3.68878 3.34208 3.68878H14.571C14.9308 3.68878 15.2073 3.77723 15.4007 3.95412C15.594 4.13102 15.6906 4.39138 15.6906 4.73521V11.7837C15.6906 12.1275 15.594 12.3878 15.4007 12.5647C15.2073 12.7417 14.9308 12.8301 14.571 12.8301H3.34208ZM7.39383 6.3796H7.86908C8.00871 6.3796 8.10671 6.35469 8.1631 6.30486C8.21949 6.25502 8.24768 6.16533 8.24768 6.03578V5.59478C8.24768 5.46522 8.21949 5.37677 8.1631 5.32944C8.10671 5.28209 8.00871 5.25842 7.86908 5.25842H7.39383C7.25421 5.25842 7.1562 5.28209 7.09982 5.32944C7.04344 5.37677 7.01524 5.46522 7.01524 5.59478V6.03578C7.01524 6.16533 7.04344 6.25502 7.09982 6.30486C7.1562 6.35469 7.25421 6.3796 7.39383 6.3796ZM10.0681 6.3796H10.5434C10.6884 6.3796 10.7878 6.35469 10.8414 6.30486C10.8951 6.25502 10.922 6.16533 10.922 6.03578V5.59478C10.922 5.46522 10.8951 5.37677 10.8414 5.32944C10.7878 5.28209 10.6884 5.25842 10.5434 5.25842H10.0681C9.92851 5.25842 9.83186 5.28209 9.77819 5.32944C9.72447 5.37677 9.69761 5.46522 9.69761 5.59478V6.03578C9.69761 6.16533 9.72447 6.25502 9.77819 6.30486C9.83186 6.35469 9.92851 6.3796 10.0681 6.3796ZM12.7505 6.3796H13.2177C13.3627 6.3796 13.462 6.35469 13.5157 6.30486C13.5695 6.25502 13.5963 6.16533 13.5963 6.03578V5.59478C13.5963 5.46522 13.5695 5.37677 13.5157 5.32944C13.462 5.28209 13.3627 5.25842 13.2177 5.25842H12.7505C12.6055 5.25842 12.5062 5.28209 12.4524 5.32944C12.3988 5.37677 12.3719 5.46522 12.3719 5.59478V6.03578C12.3719 6.16533 12.3988 6.25502 12.4524 6.30486C12.5062 6.35469 12.6055 6.3796 12.7505 6.3796ZM4.71952 8.82376H5.19478C5.3344 8.82376 5.43106 8.79886 5.48476 8.74906C5.53846 8.6992 5.56531 8.6095 5.56531 8.47995V8.04643C5.56531 7.91188 5.53846 7.82094 5.48476 7.7736C5.43106 7.72626 5.3344 7.70259 5.19478 7.70259H4.71952C4.57452 7.70259 4.47518 7.72626 4.42148 7.7736C4.36778 7.82094 4.34093 7.91188 4.34093 8.04643V8.47995C4.34093 8.6095 4.36778 8.6992 4.42148 8.74906C4.47518 8.79886 4.57452 8.82376 4.71952 8.82376ZM7.39383 8.82376H7.86908C8.00871 8.82376 8.10671 8.79886 8.1631 8.74906C8.21949 8.6992 8.24768 8.6095 8.24768 8.47995V8.04643C8.24768 7.91188 8.21949 7.82094 8.1631 7.7736C8.10671 7.72626 8.00871 7.70259 7.86908 7.70259H7.39383C7.25421 7.70259 7.1562 7.72626 7.09982 7.7736C7.04344 7.82094 7.01524 7.91188 7.01524 8.04643V8.47995C7.01524 8.6095 7.04344 8.6992 7.09982 8.74906C7.1562 8.79886 7.25421 8.82376 7.39383 8.82376ZM10.0681 8.82376H10.5434C10.6884 8.82376 10.7878 8.79886 10.8414 8.74906C10.8951 8.6992 10.922 8.6095 10.922 8.47995V8.04643C10.922 7.91188 10.8951 7.82094 10.8414 7.7736C10.7878 7.72626 10.6884 7.70259 10.5434 7.70259H10.0681C9.92851 7.70259 9.83186 7.72626 9.77819 7.7736C9.72447 7.82094 9.69761 7.91188 9.69761 8.04643V8.47995C9.69761 8.6095 9.72447 8.6992 9.77819 8.74906C9.83186 8.79886 9.92851 8.82376 10.0681 8.82376ZM12.7505 8.82376H13.2177C13.3627 8.82376 13.462 8.79886 13.5157 8.74906C13.5695 8.6992 13.5963 8.6095 13.5963 8.47995V8.04643C13.5963 7.91188 13.5695 7.82094 13.5157 7.7736C13.462 7.72626 13.3627 7.70259 13.2177 7.70259H12.7505C12.6055 7.70259 12.5062 7.72626 12.4524 7.7736C12.3988 7.82094 12.3719 7.91188 12.3719 8.04643V8.47995C12.3719 8.6095 12.3988 8.6992 12.4524 8.74906C12.5062 8.79886 12.6055 8.82376 12.7505 8.82376ZM4.71952 11.268H5.19478C5.3344 11.268 5.43106 11.2443 5.48476 11.1969C5.53846 11.1496 5.56531 11.0586 5.56531 10.9241V10.4905C5.56531 10.356 5.53846 10.2651 5.48476 10.2178C5.43106 10.1704 5.3344 10.1467 5.19478 10.1467H4.71952C4.57452 10.1467 4.47518 10.1704 4.42148 10.2178C4.36778 10.2651 4.34093 10.356 4.34093 10.4905V10.9241C4.34093 11.0586 4.36778 11.1496 4.42148 11.1969C4.47518 11.2443 4.57452 11.268 4.71952 11.268ZM7.39383 11.268H7.86908C8.00871 11.268 8.10671 11.2443 8.1631 11.1969C8.21949 11.1496 8.24768 11.0586 8.24768 10.9241V10.4905C8.24768 10.356 8.21949 10.2651 8.1631 10.2178C8.10671 10.1704 8.00871 10.1467 7.86908 10.1467H7.39383C7.25421 10.1467 7.1562 10.1704 7.09982 10.2178C7.04344 10.2651 7.01524 10.356 7.01524 10.4905V10.9241C7.01524 11.0586 7.04344 11.1496 7.09982 11.1969C7.1562 11.2443 7.25421 11.268 7.39383 11.268ZM10.0681 11.268H10.5434C10.6884 11.268 10.7878 11.2443 10.8414 11.1969C10.8951 11.1496 10.922 11.0586 10.922 10.9241V10.4905C10.922 10.356 10.8951 10.2651 10.8414 10.2178C10.7878 10.1704 10.6884 10.1467 10.5434 10.1467H10.0681C9.92851 10.1467 9.83186 10.1704 9.77819 10.2178C9.72447 10.2651 9.69761 10.356 9.69761 10.4905V10.9241C9.69761 11.0586 9.72447 11.1496 9.77819 11.1969C9.83186 11.2443 9.92851 11.268 10.0681 11.268Z" fill="white" fill-opacity="0.7" style="fill:white;fill:white;fill-opacity:0.7;"/>
</svg>
