<svg width="21" height="20" viewBox="0 0 21 20" fill="none" xmlns="http://www.w3.org/2000/svg">
<path d="M5 19C5.54068 19 6.05249 18.895 6.53543 18.685C7.01837 18.475 7.44488 18.1863 7.81496 17.8189C8.18503 17.4514 8.47506 17.0262 8.68504 16.5433C8.89501 16.0603 9 15.5459 9 15C9 14.4488 8.89632 13.9317 8.68897 13.4488C8.48162 12.9659 8.19422 12.5407 7.82677 12.1732C7.45931 11.8058 7.03412 11.5184 6.55118 11.311C6.06824 11.1037 5.55118 11 5 11C4.45407 11 3.93963 11.1037 3.4567 11.311C2.97376 11.5184 2.54856 11.8071 2.1811 12.1771C1.81365 12.5472 1.52493 12.9724 1.31496 13.4528C1.10499 13.933 1 14.4488 1 15C1 15.5511 1.10499 16.0682 1.31496 16.5511C1.52493 17.0341 1.81365 17.4593 2.1811 17.8268C2.54856 18.1942 2.97376 18.4816 3.4567 18.6889C3.93963 18.8963 4.45407 19 5 19Z" fill="white" fill-opacity="0.85" style="fill:white;fill:white;fill-opacity:0.85;"/>
<path d="M5 17C4.8826 17 4.78931 16.9644 4.72013 16.8931C4.65094 16.8218 4.61635 16.7296 4.61635 16.6164V15.3836H3.38365C3.27044 15.3836 3.1782 15.3491 3.10691 15.2799C3.03564 15.2107 3 15.1174 3 15C3 14.8826 3.03564 14.7893 3.10691 14.7201C3.1782 14.6509 3.27044 14.6164 3.38365 14.6164H4.61635V13.3836C4.61635 13.2705 4.65094 13.1782 4.72013 13.107C4.78931 13.0357 4.8826 13 5 13C5.1174 13 5.21069 13.0357 5.27987 13.107C5.34906 13.1782 5.38365 13.2705 5.38365 13.3836V14.6164H6.61635C6.72956 14.6164 6.8218 14.6509 6.89308 14.7201C6.96436 14.7893 7 14.8826 7 15C7 15.1174 6.96436 15.2107 6.89308 15.2799C6.8218 15.3491 6.72956 15.3836 6.61635 15.3836H5.38365V16.6164C5.38365 16.7296 5.34906 16.8218 5.27987 16.8931C5.21069 16.9644 5.1174 17 5 17Z" fill="#84B5FF" style="fill:#84B5FF;fill:color(display-p3 0.5167 0.7100 1.0000);fill-opacity:1;"/>
<path fill-rule="evenodd" clip-rule="evenodd" d="M14.4736 17.2746H9.33703C9.40696 17.1452 9.4717 17.012 9.53125 16.875C9.79167 16.276 9.92188 15.638 9.92188 14.9609C9.92188 14.2773 9.7933 13.636 9.53613 13.0371C9.27897 12.4382 8.92253 11.9108 8.4668 11.4551C8.01107 10.9994 7.48372 10.6429 6.88477 10.3857C6.28581 10.1286 5.64453 10 4.96094 10C4.68173 10 4.40916 10.0219 4.14323 10.0656L4.10972 7.32306L2.15905 7.76711C1.78901 7.84641 1.48637 7.81204 1.25113 7.66403C1.01589 7.51601 0.85333 7.25169 0.763461 6.87108L0.0577342 4.05609C-0.0374202 3.68076 -0.0149533 3.36226 0.125135 3.10058C0.265223 2.83892 0.515002 2.63143 0.874473 2.47812L6.45685 0.0992661C6.61544 0.0305434 6.76875 -0.00249632 6.91677 0.000146842C7.06479 0.00279001 7.2128 0.0384728 7.36082 0.107195C7.70972 0.271072 8.04408 0.408517 8.36391 0.51953C8.68372 0.630544 9.01147 0.715125 9.34714 0.773275C9.68281 0.831427 10.0489 0.860503 10.4454 0.860503C10.8366 0.860503 11.2 0.831427 11.5357 0.773275C11.8714 0.715125 12.1992 0.630544 12.519 0.51953C12.8388 0.408517 13.1731 0.271072 13.522 0.107195C13.6701 0.0384728 13.8181 0.00279001 13.9661 0.000146842C14.1141 -0.00249632 14.2674 0.0305434 14.426 0.0992661L20.0084 2.47812C20.3731 2.63143 20.6242 2.83892 20.7617 3.10058C20.8992 3.36226 20.9203 3.68076 20.8252 4.05609L20.1194 6.87108C20.0295 7.25169 19.867 7.51601 19.6317 7.66403C19.3965 7.81204 19.0939 7.84641 18.7238 7.76711L16.7811 7.32306L16.678 15.1098C16.6674 15.8393 16.4811 16.3825 16.119 16.7394C15.7568 17.0962 15.2084 17.2746 14.4736 17.2746ZM10.4454 3.33451C9.99077 3.33451 9.58502 3.2605 9.22818 3.11248C8.8714 2.96447 8.56745 2.75301 8.31633 2.47812C8.06522 2.20323 7.87095 1.87283 7.73351 1.48693C8.14582 1.64552 8.58325 1.76711 9.04581 1.85169C9.50837 1.93627 9.97491 1.97856 10.4454 1.97856C10.9106 1.97856 11.3744 1.93627 11.837 1.85169C12.2996 1.76711 12.737 1.64552 13.1493 1.48693C13.0172 1.86755 12.8269 2.1953 12.5784 2.47019C12.33 2.74508 12.026 2.95786 11.6666 3.10852C11.3071 3.25918 10.9 3.33451 10.4454 3.33451Z" fill="white" fill-opacity="0.85" style="fill:white;fill:white;fill-opacity:0.85;"/>
</svg>
