<svg width="149" height="139" viewBox="0 0 149 139" fill="none" xmlns="http://www.w3.org/2000/svg">
<path fill-rule="evenodd" clip-rule="evenodd" d="M57 123H45.7289C40.4863 123 36.5731 121.73 33.9895 119.189C33.0532 118.268 32.2817 117.173 31.6748 115.904H20.3472C19.7725 115.904 19.2919 115.723 18.9054 115.36C18.519 114.998 18.3258 114.543 18.3258 113.994C18.3258 113.445 18.519 112.985 18.9054 112.613C19.2919 112.241 19.7725 112.055 20.3472 112.055H30.4366C30.1696 110.694 30.0244 109.204 30.0009 107.586L29.8875 98.3219C29.8689 98.0798 29.8597 97.8285 29.8597 97.5681V96.0518V76H29.6142H16.2152C13.1435 76 10.8397 76.7738 9.3038 78.3214C7.76793 79.8689 7 82.1707 7 85.2267V129.803C7 132.878 7.76793 135.18 9.3038 136.708C10.8397 138.236 13.1435 139 16.2152 139H47.7846C50.8564 139 53.1602 138.231 54.696 136.693C56.232 135.156 57 132.859 57 129.803V123ZM20.3472 127.041C19.7725 127.041 19.2919 126.854 18.9054 126.482C18.519 126.11 18.3258 125.66 18.3258 125.131C18.3258 124.582 18.519 124.122 18.9054 123.749C19.2919 123.377 19.7725 123.191 20.3472 123.191H43.7419C44.2969 123.191 44.7676 123.377 45.154 123.749C45.5404 124.122 45.7336 124.582 45.7336 125.131C45.7336 125.66 45.5404 126.11 45.154 126.482C44.7676 126.854 44.2969 127.041 43.7419 127.041H20.3472Z" fill="white" fill-opacity="0.25" style="fill:white;fill:white;fill-opacity:0.25;"/>
<path fill-rule="evenodd" clip-rule="evenodd" d="M103.266 123C108.509 123 112.422 121.73 115.006 119.189C117.589 116.648 118.919 112.78 118.995 107.586L119.73 52.1421L133.591 55.3039C136.231 55.8685 138.39 55.6238 140.068 54.5699C141.747 53.516 142.907 51.634 143.548 48.9239L148.583 28.8805C149.262 26.208 149.111 23.9402 148.13 22.077C147.15 20.2138 145.358 18.7365 142.756 17.6449L102.927 0.706801C101.795 0.217477 100.701 -0.0177745 99.6454 0.00104555C98.5894 0.0198656 97.5333 0.273936 96.477 0.763258C93.9878 1.93011 91.6023 2.90875 89.3205 3.6992C87.0387 4.48964 84.7001 5.09188 82.3048 5.50592C79.9098 5.91998 77.3169 6.12701 74.526 6.12701C71.697 6.12701 69.0849 5.91998 66.69 5.50592C64.295 5.09188 61.9566 4.48964 59.6748 3.6992C57.3929 2.90875 55.0073 1.93011 52.518 0.763258C51.4619 0.273936 50.4059 0.0198656 49.3498 0.00104555C48.2937 -0.0177745 47.1999 0.217477 46.0684 0.706801L6.23919 17.6449C3.67444 18.7365 1.89231 20.2138 0.892812 22.077C-0.106689 23.9402 -0.266986 26.208 0.411922 28.8805L5.44714 48.9239C6.08834 51.634 7.24814 53.516 8.92655 54.5699C10.605 55.6238 12.7642 55.8685 15.4044 55.3039L29.322 52.1421L29.6142 76H29.8597V96.0518L29.8875 98.3219C30.1324 101.522 31.9959 103.122 35.478 103.122H57V123H103.266ZM65.8413 22.1617C68.3872 23.2156 71.2822 23.7426 74.526 23.7426C77.7695 23.7426 80.6737 23.2062 83.2386 22.1335C85.8032 21.0607 87.9718 19.5457 89.7446 17.5884C91.5173 15.6311 92.8751 13.2974 93.8178 10.5873C90.876 11.7166 87.7549 12.5823 84.4547 13.1845C81.1544 13.7868 77.8449 14.0879 74.526 14.0879C71.169 14.0879 67.8403 13.7868 64.5401 13.1845C61.2398 12.5823 58.1188 11.7166 55.1771 10.5873C56.1577 13.3351 57.5438 15.6876 59.3353 17.6449C61.127 19.6022 63.2957 21.1078 65.8413 22.1617ZM56.6432 99.0961H35.5672C34.4772 99.0961 33.9322 98.5672 33.9322 97.5093V76.3232C34.5465 76.4212 35.1708 76.6807 35.805 77.1019C36.4391 77.5231 37.103 78.0863 37.7967 78.7915L54.1758 95.2761C54.8893 96.0009 55.4542 96.667 55.8704 97.2742C56.2866 97.8815 56.5442 98.4888 56.6432 99.0961Z" fill="white" fill-opacity="0.25" style="fill:white;fill:white;fill-opacity:0.25;"/>
</svg>
