<svg width="14" height="15" viewBox="0 0 14 15" fill="none" xmlns="http://www.w3.org/2000/svg">
<path d="M3.31081 12.1073L5.55404 11.1337C5.63963 11.1005 5.70607 11.065 5.75337 11.0271C5.80067 10.9891 5.85135 10.9441 5.9054 10.892L12.3716 4.14016C12.687 3.8085 12.8435 3.45788 12.8412 3.0883C12.839 2.71873 12.6779 2.36337 12.3581 2.02222L10.9391 0.515496C10.6148 0.179088 10.2759 0.00733083 9.92227 0.000223652C9.56867 -0.00688353 9.23421 0.155398 8.91889 0.487067L2.44595 7.23891C2.39639 7.29102 2.35472 7.34196 2.32094 7.39174C2.28716 7.44147 2.25225 7.50899 2.21621 7.59428L1.27027 9.95388C1.1982 10.1292 1.1723 10.3021 1.19256 10.4727C1.21284 10.6433 1.28829 10.7972 1.41892 10.9346L2.37838 11.951C2.5045 12.0836 2.64865 12.1618 2.81081 12.1855C2.97297 12.2092 3.13964 12.1831 3.31081 12.1073ZM3.20945 11.0057C3.14189 11.0294 3.08108 11.0389 3.02702 11.0341C2.97297 11.0294 2.91441 10.9939 2.85135 10.9276L2.39189 10.4443C2.32882 10.3826 2.29504 10.3222 2.29054 10.263C2.28603 10.2038 2.29729 10.141 2.32432 10.0747L3.16216 8.0065L9.60137 1.28307C9.70045 1.18831 9.80405 1.13856 9.91217 1.13382C10.0202 1.12908 10.1193 1.1741 10.2095 1.26886L11.6351 2.78269C11.8288 2.99117 11.822 3.20439 11.6148 3.42234L5.17567 10.1457L3.20945 11.0057ZM0.675674 12.4627H1.49324C1.58783 12.4627 1.66329 12.4508 1.71959 12.4272C1.7759 12.4035 1.84009 12.3608 1.91216 12.2992L2.54729 11.7875L1.57432 10.7427L0.479729 11.9581C0.38063 12.0718 0.351351 12.1843 0.391891 12.2957C0.432432 12.407 0.527026 12.4627 0.675674 12.4627ZM2.54729 8.0065L5.3108 10.9276L5.94594 10.2666L3.18243 7.3384L2.54729 8.0065ZM8.15539 2.15726L10.9189 5.07832L11.554 4.42446L8.79054 1.49629L8.15539 2.15726ZM0.54054 15H13.4527C13.6013 15 13.7297 14.9431 13.8378 14.8294C13.9459 14.7157 14 14.5806 14 14.4243C14 14.2679 13.9459 14.1341 13.8378 14.0227C13.7297 13.9114 13.6013 13.8557 13.4527 13.8557H0.54054C0.391891 13.8557 0.264639 13.9114 0.158783 14.0227C0.0529278 14.1341 0 14.2679 0 14.4243C0 14.5806 0.0529278 14.7157 0.158783 14.8294C0.264639 14.9431 0.391891 15 0.54054 15Z" fill="white" style="fill:white;fill:white;fill-opacity:1;"/>
</svg>
