<svg width="58" height="58" viewBox="0 0 58 58" fill="none" xmlns="http://www.w3.org/2000/svg">
<mask id="mask0_17_6947" style="mask-type:alpha" maskUnits="userSpaceOnUse" x="4" y="5" width="49" height="49">
<circle cx="28.742" cy="29.3085" r="24.0809" fill="#D9D9D9" style="fill:#D9D9D9;fill:color(display-p3 0.8510 0.8510 0.8510);fill-opacity:1;"/>
</mask>
<g mask="url(#mask0_17_6947)">
<g filter="url(#filter0_d_17_6947)">
<path d="M19 25.661C19 27.0797 19.2888 28.4118 19.8663 29.6572C20.4439 30.9027 21.2226 31.9647 22.2025 32.8433L22.2144 41.9723C22.2144 42.335 22.2961 42.597 22.4594 42.7582C22.6227 42.9194 22.8279 43 23.0748 43C23.2819 43 23.4691 42.9456 23.6364 42.8368C23.8037 42.728 23.967 42.593 24.1264 42.4318L28.01 38.5142C28.1136 38.4174 28.2052 38.3489 28.2848 38.3086C28.3645 38.2683 28.4402 38.2482 28.5119 38.2482C28.5836 38.2482 28.6593 38.2683 28.7389 38.3086C28.8186 38.3489 28.9102 38.4174 29.0138 38.5142L32.8974 42.4318C33.0647 42.601 33.232 42.738 33.3993 42.8429C33.5666 42.9476 33.7498 43 33.949 43C34.2039 43 34.413 42.9194 34.5763 42.7582C34.7396 42.597 34.8213 42.335 34.8213 41.9723V32.807C35.7932 31.9284 36.5639 30.8704 37.1335 29.633C37.7031 28.3957 37.9919 27.0717 37.9998 25.661C38.0078 24.331 37.7629 23.0835 37.265 21.9187C36.7671 20.7539 36.082 19.7282 35.2097 18.8415C34.3373 17.9548 33.3275 17.2595 32.1804 16.7557C31.0333 16.2519 29.8064 16 28.4999 16C27.1934 16 25.9666 16.2519 24.8195 16.7557C23.6723 17.2595 22.6626 17.9548 21.7902 18.8415C20.9179 19.7282 20.2348 20.7539 19.7409 21.9187C19.247 23.0835 19 24.331 19 25.661ZM20.9478 25.661C20.9478 24.5889 21.141 23.5853 21.5273 22.6503C21.9137 21.7152 22.4495 20.893 23.1346 20.1836C23.8197 19.4743 24.6223 18.9201 25.5424 18.521C26.4625 18.122 27.4524 17.9225 28.5119 17.9225C29.5714 17.9225 30.5592 18.122 31.4754 18.521C32.3915 18.9201 33.1942 19.4743 33.8832 20.1836C34.5723 20.893 35.11 21.7152 35.4964 22.6503C35.8828 23.5853 36.076 24.5889 36.076 25.661C36.0839 26.7331 35.8947 27.7367 35.5084 28.6718C35.122 29.6069 34.5843 30.427 33.8952 31.1324C33.2061 31.8377 32.4015 32.3899 31.4814 32.7889C30.5612 33.1879 29.5714 33.3834 28.5119 33.3753C27.4524 33.3753 26.4625 33.1758 25.5424 32.7768C24.6223 32.3778 23.8197 31.8256 23.1346 31.1203C22.4495 30.4149 21.9137 29.5967 21.5273 28.6657C21.141 27.7347 20.9478 26.7331 20.9478 25.661Z" fill="white" style="fill:white;fill:white;fill-opacity:1;"/>
</g>
</g>
<circle cx="28.7425" cy="29.3084" r="27.521" stroke="#84B5FF" style="stroke:#84B5FF;stroke:color(display-p3 0.5167 0.7100 1.0000);stroke-opacity:1;" stroke-width="2.29342"/>
<defs>
<filter id="filter0_d_17_6947" x="-9" y="-12" width="75" height="83" filterUnits="userSpaceOnUse" color-interpolation-filters="sRGB">
<feFlood flood-opacity="0" result="BackgroundImageFix"/>
<feColorMatrix in="SourceAlpha" type="matrix" values="0 0 0 0 0 0 0 0 0 0 0 0 0 0 0 0 0 0 127 0" result="hardAlpha"/>
<feOffset/>
<feGaussianBlur stdDeviation="14"/>
<feComposite in2="hardAlpha" operator="out"/>
<feColorMatrix type="matrix" values="0 0 0 0 1 0 0 0 0 1 0 0 0 0 1 0 0 0 1 0"/>
<feBlend mode="normal" in2="BackgroundImageFix" result="effect1_dropShadow_17_6947"/>
<feBlend mode="normal" in="SourceGraphic" in2="effect1_dropShadow_17_6947" result="shape"/>
</filter>
</defs>
</svg>
