<svg  width="29" height="14" viewBox="0 0 29 14" fill="none"
    xmlns="http://www.w3.org/2000/svg">
    <path
        d="M9.67251 13.5586H19.1439C19.7421 13.5586 20.1607 13.4744 20.3995 13.306C20.6383 13.1376 20.7577 12.8875 20.7577 12.5556C20.7577 12.073 20.6107 11.5627 20.3166 11.0248C20.0225 10.4869 19.6001 9.98295 19.0496 9.51289C18.4991 9.04283 17.8331 8.66075 17.0513 8.36665C16.2696 8.07255 15.3885 7.92549 14.4082 7.92549C13.4329 7.92549 12.5544 8.07255 11.7726 8.36665C10.9909 8.66075 10.3235 9.04283 9.7705 9.51289C9.21751 9.98295 8.79522 10.4869 8.50364 11.0248C8.21206 11.5627 8.06627 12.073 8.06627 12.5556C8.06627 12.8875 8.18568 13.1376 8.42449 13.306C8.66325 13.4744 9.07926 13.5586 9.67251 13.5586ZM14.4158 6.5757C14.9537 6.5757 15.4514 6.42865 15.9089 6.13455C16.3663 5.84045 16.7346 5.44204 17.0136 4.93931C17.2926 4.43658 17.4321 3.87101 17.4321 3.2426C17.4321 2.62424 17.2926 2.06998 17.0136 1.57982C16.7346 1.08967 16.3663 0.703823 15.9089 0.422292C15.4514 0.140764 14.9537 0 14.4158 0C13.8778 0 13.3801 0.143278 12.9227 0.429833C12.4652 0.71639 12.0969 1.10601 11.8179 1.59868C11.5389 2.09135 11.3994 2.64436 11.3994 3.25769C11.3994 3.88107 11.5389 4.44287 11.8179 4.94308C12.0969 5.4433 12.4652 5.84045 12.9227 6.13455C13.3801 6.42865 13.8778 6.5757 14.4158 6.5757ZM1.52075 13.5586H7.24432C7.04825 13.272 6.95525 12.9277 6.9653 12.5255C6.97536 12.1233 7.06836 11.701 7.24432 11.2586C7.42028 10.8162 7.66283 10.3877 7.97199 9.97288C8.28117 9.55811 8.63937 9.19238 9.04657 8.87568C8.62428 8.59414 8.14042 8.36163 7.59497 8.17816C7.04951 7.99463 6.42487 7.90287 5.72105 7.90287C4.87143 7.90287 4.10603 8.04238 3.42483 8.3214C2.74364 8.60042 2.16298 8.96741 1.68288 9.42239C1.20277 9.87736 0.834522 10.3738 0.57813 10.9117C0.321738 11.4496 0.193542 11.98 0.193542 12.5029C0.193542 12.8397 0.295345 13.0999 0.498951 13.2833C0.702556 13.4669 1.04315 13.5586 1.52075 13.5586ZM5.72105 6.74914C6.19361 6.74914 6.62847 6.62094 7.02563 6.36455C7.42279 6.10816 7.74202 5.76002 7.98334 5.32013C8.22462 4.88024 8.34526 4.38882 8.34526 3.84587C8.34526 3.30293 8.22462 2.81905 7.98334 2.39425C7.74202 1.96944 7.42153 1.63513 7.02186 1.3913C6.62219 1.14748 6.18859 1.02557 5.72105 1.02557C5.25854 1.02557 4.82745 1.14999 4.42778 1.39884C4.02811 1.6477 3.70511 1.98578 3.45877 2.4131C3.21243 2.84042 3.09178 3.32304 3.09681 3.86096C3.09681 4.39888 3.21746 4.88653 3.45877 5.3239C3.70008 5.76128 4.02057 6.10816 4.42024 6.36455C4.81991 6.62094 5.25351 6.74914 5.72105 6.74914ZM27.2957 13.5586C27.7733 13.5586 28.1139 13.4669 28.3175 13.2833C28.5211 13.0999 28.6229 12.8397 28.6229 12.5029C28.6229 11.98 28.4959 11.4496 28.242 10.9117C27.9882 10.3738 27.6199 9.87736 27.1373 9.42239C26.6547 8.96741 26.0728 8.60042 25.3916 8.3214C24.7104 8.04238 23.945 7.90287 23.0954 7.90287C22.3915 7.90287 21.7669 7.99463 21.2214 8.17816C20.676 8.36163 20.1921 8.59414 19.7698 8.87568C20.177 9.19238 20.5352 9.55811 20.8444 9.97288C21.1536 10.3877 21.3962 10.8162 21.5721 11.2586C21.748 11.701 21.841 12.1233 21.8511 12.5255C21.8612 12.9277 21.7681 13.272 21.5721 13.5586H27.2957ZM23.0954 6.74914C23.5629 6.74914 23.9965 6.62094 24.3962 6.36455C24.7958 6.10816 25.1163 5.76128 25.3577 5.3239C25.5989 4.88653 25.7196 4.39888 25.7196 3.86096C25.7196 3.32304 25.5977 2.84042 25.3539 2.4131C25.1101 1.98578 24.7883 1.6477 24.3886 1.39884C23.9889 1.14999 23.5579 1.02557 23.0954 1.02557C22.6278 1.02557 22.1942 1.14748 21.7945 1.3913C21.3949 1.63513 21.0744 1.96944 20.8331 2.39425C20.5918 2.81905 20.4711 3.30293 20.4711 3.84587C20.4711 4.38882 20.5918 4.88024 20.8331 5.32013C21.0744 5.76002 21.3937 6.10816 21.7908 6.36455C22.1879 6.62094 22.6228 6.74914 23.0954 6.74914Z"
        fill="white" fill-opacity="0.85" />
</svg>