<svg width="16" height="13" viewBox="0 0 16 13" fill="none" xmlns="http://www.w3.org/2000/svg">
<path fill-rule="evenodd" clip-rule="evenodd" d="M15.5229 7.14854C15.5229 7.16598 15.5229 7.18358 15.5229 7.20118V8.80118C15.5229 8.81878 15.5229 8.83638 15.5229 8.85382C15.5229 9.56302 15.523 10.1741 15.4592 10.6634C15.3907 11.1878 15.2365 11.6905 14.8409 12.0982C14.4454 12.506 13.9576 12.6649 13.4489 12.7355C12.9741 12.8013 12.3813 12.8013 11.6932 12.8012H6.93418C6.24612 12.8013 5.65327 12.8013 5.17853 12.7355C4.66976 12.6649 4.18206 12.506 3.78648 12.0982C3.39091 11.6905 3.23666 11.1878 3.16825 10.6634C3.10442 10.1741 3.10446 9.56302 3.10449 8.85382V7.14854C3.10446 6.43934 3.10442 5.8283 3.16825 5.33894C3.23666 4.81454 3.39091 4.31186 3.78648 3.90412C4.18206 3.49639 4.66976 3.3374 5.17853 3.26689C5.65327 3.2011 6.24612 3.20113 6.93418 3.20117H11.6422C11.6592 3.20117 11.6763 3.20117 11.6932 3.20117C12.3813 3.20113 12.9741 3.2011 13.4489 3.26689C13.9576 3.3374 14.4454 3.49639 14.8409 3.90412C15.2365 4.31186 15.3907 4.81454 15.4592 5.33894C15.523 5.8283 15.5229 6.43934 15.5229 7.14854ZM6.98525 8.00118C6.98525 6.67566 8.02778 5.60118 9.3137 5.60118C10.5997 5.60118 11.6422 6.67566 11.6422 8.00118C11.6422 9.3267 10.5997 10.4012 9.3137 10.4012C8.02778 10.4012 6.98525 9.3267 6.98525 8.00118Z" fill="#488355" fill-opacity="0.7" style="fill:#488355;fill:color(display-p3 0.2824 0.5137 0.3333);fill-opacity:0.7;"/>
<path d="M12.4157 2.40323C12.1936 2.40005 11.9652 2.40008 11.7345 2.40011H6.89322C6.23839 2.40004 5.602 2.39996 5.07529 2.47296C4.48096 2.55532 3.8019 2.75597 3.23784 3.33737C2.67378 3.91876 2.47911 4.61869 2.39921 5.2313C2.32839 5.77418 2.32845 6.4301 2.32852 7.10514V8.89507C2.3285 9.12955 2.32848 9.3617 2.33142 9.58763C2.28116 9.58507 2.23256 9.58203 2.18566 9.57827C1.89599 9.55523 1.60728 9.50443 1.32682 9.36667C0.844694 9.12987 0.4562 8.72946 0.226459 8.2325C0.0928062 7.94338 0.0435285 7.64586 0.0211753 7.3473C-1.35519e-05 7.06418 -5.8516e-06 6.72098 9.6714e-06 6.32322L1.89936e-06 3.94742C-3.69081e-05 3.23824 -6.79707e-05 2.62718 0.0637626 2.13785C0.132165 1.61344 0.286417 1.11076 0.681997 0.703027C1.07757 0.295298 1.56526 0.136306 2.07404 0.065802C2.54878 9.94206e-06 3.14162 4.19593e-05 3.82967 8.19593e-05L9.73215 4.1905e-05C10.0595 -0.000254095 10.3416 -0.0005099 10.5925 0.0566502C11.4771 0.258194 12.168 0.970307 12.3635 1.88209C12.3979 2.04232 12.4109 2.21487 12.4157 2.40323Z" fill="#488355" fill-opacity="0.7" style="fill:#488355;fill:color(display-p3 0.2824 0.5137 0.3333);fill-opacity:0.7;"/>
</svg>
