<svg xmlns="http://www.w3.org/2000/svg" width="60" height="60" viewBox="0 0 60 60" fill="none">
    <g opacity="0.4">

        <path
            d="M24.4043 38.9785H35.1172C36.0807 38.9785 36.8132 38.7327 37.3145 38.2412C37.8158 37.7496 38.0664 37.0254 38.0664 36.0684V26.7227H21.4551V36.0684C21.4551 37.0319 21.7057 37.7578 22.207 38.2461C22.7083 38.7343 23.4408 38.9785 24.4043 38.9785ZM26.543 30.248C26.3346 30.248 26.167 30.1829 26.04 30.0527C25.9131 29.9225 25.8496 29.75 25.8496 29.5352V29.2324C25.8496 29.0176 25.9131 28.8467 26.04 28.7197C26.167 28.5928 26.3346 28.5293 26.543 28.5293H32.9883C33.1966 28.5293 33.3659 28.5928 33.4961 28.7197C33.6263 28.8467 33.6914 29.0176 33.6914 29.2324V29.5352C33.6914 29.75 33.6263 29.9225 33.4961 30.0527C33.3659 30.1829 33.1966 30.248 32.9883 30.248H26.543ZM21.6602 25.3848H37.8613C38.4147 25.3848 38.8297 25.2301 39.1064 24.9209C39.3831 24.6117 39.5215 24.1836 39.5215 23.6367V22.748C39.5215 22.2012 39.3831 21.7731 39.1064 21.4639C38.8297 21.1546 38.4147 21 37.8613 21H21.6602C21.1393 21 20.7324 21.1546 20.4395 21.4639C20.1465 21.7731 20 22.2012 20 22.748V23.6367C20 24.1836 20.1383 24.6117 20.415 24.9209C20.6917 25.2301 21.1068 25.3848 21.6602 25.3848Z"
            fill="white" fill-opacity="0.85" style="fill:white;fill:white;fill-opacity:0.85;" />
    </g>
</svg>