<svg width="58" height="58" viewBox="0 0 58 58" fill="none" xmlns="http://www.w3.org/2000/svg">
<circle cx="28.6712" cy="29.3089" r="27.521" stroke="#FF8484" style="stroke:#FF8484;stroke:color(display-p3 1.0000 0.5167 0.5167);stroke-opacity:1;" stroke-width="2.29342"/>
<path d="M29.0059 29.227C30.5158 29.227 31.9927 29.1499 33.4365 28.9956C34.8803 28.8413 36.3124 28.5862 37.7329 28.2301C39.1533 27.8741 40.5757 27.3954 42 26.7941V25.8328C42 24.6144 41.7004 23.7065 41.1011 23.1091C40.5017 22.5118 39.5989 22.2131 38.3925 22.2131H34.9251V21.2755C34.9251 20.16 34.6429 19.3351 34.0787 18.8011C33.5144 18.267 32.7068 18 31.6561 18H26.344C25.3477 18 24.5558 18.267 23.9681 18.8011C23.3805 19.3351 23.0867 20.16 23.0867 21.2755V22.2131H19.6076C18.4089 22.2131 17.508 22.5118 16.9048 23.1091C16.3016 23.7065 16 24.6144 16 25.8328V26.7941C17.4321 27.3954 18.8565 27.8741 20.273 28.2301C21.6896 28.5862 23.1198 28.8413 24.5636 28.9956C26.0074 29.1499 27.4881 29.227 29.0059 29.227ZM24.8963 22.2131V21.145C24.8963 20.694 25.0208 20.3459 25.2699 20.1006C25.519 19.8553 25.8692 19.7327 26.3206 19.7327H31.6794C32.1386 19.7327 32.4928 19.8553 32.7418 20.1006C32.9909 20.3459 33.1154 20.694 33.1154 21.145V22.2131H24.8963ZM19.6076 41H38.3925C39.5989 41 40.5017 40.6993 41.1011 40.098C41.7004 39.4967 42 38.5908 42 37.3803V28.7404C40.8637 29.1598 39.7449 29.5119 38.6435 29.7967C37.5422 30.0815 36.4486 30.309 35.3629 30.4791C34.2771 30.6492 33.1933 30.7738 32.1114 30.853V31.8142C32.1114 32.6766 31.6795 33.1078 30.8155 33.1078H27.1846C26.3284 33.1078 25.9003 32.6766 25.9003 31.8142V30.853C24.8107 30.7738 23.723 30.6492 22.6372 30.4791C21.5514 30.309 20.4579 30.0815 19.3565 29.7967C18.2552 29.5119 17.1364 29.1598 16 28.7404V37.3803C16 38.5908 16.3016 39.4967 16.9048 40.098C17.508 40.6993 18.4089 41 19.6076 41Z" fill="#FF8383" style="fill:#FF8383;fill:color(display-p3 1.0000 0.5125 0.5125);fill-opacity:1;"/>
</svg>
