<svg width="13" height="14" viewBox="0 0 13 14" fill="none" xmlns="http://www.w3.org/2000/svg">
<path d="M6.57662 4.28661L5.76134 5.17571C6.16593 5.21083 6.50615 5.29206 6.782 5.41939C7.05781 5.54671 7.29584 5.71795 7.49607 5.93309C7.85165 6.31946 8.08869 6.74426 8.2072 7.20748C8.32571 7.67066 8.32671 8.13276 8.21021 8.59377C8.09375 9.05479 7.85775 9.47629 7.50222 9.85827L5.49775 12.0053C5.14222 12.3873 4.74991 12.6419 4.32081 12.7692C3.89172 12.8966 3.46161 12.8977 3.03047 12.7725C2.59934 12.6474 2.206 12.3939 1.85047 12.0119C1.49494 11.6255 1.25791 11.2007 1.1394 10.7375C1.02089 10.2743 1.02089 9.81221 1.1394 9.35119C1.25791 8.89017 1.49494 8.46867 1.85047 8.0867L3.05193 6.79583C2.96611 6.58948 2.91196 6.36886 2.88949 6.13396C2.86701 5.89906 2.87212 5.67404 2.90481 5.4589L1.10262 7.38856C0.616315 7.91544 0.290409 8.4972 0.124901 9.13383C-0.0406058 9.77046 -0.0416275 10.4082 0.121836 11.047C0.2853 11.6859 0.614273 12.2709 1.10875 12.8022C1.60732 13.3379 2.1539 13.6935 2.7485 13.8691C3.3431 14.0447 3.93668 14.0436 4.52923 13.8658C5.12179 13.688 5.66122 13.3378 6.14753 12.8154L8.24398 10.5564C8.73434 10.0295 9.06227 9.44776 9.22778 8.81113C9.39328 8.1745 9.39431 7.53677 9.23085 6.89794C9.0674 6.25909 8.73639 5.67404 8.23783 5.14278C8.04575 4.93203 7.81894 4.75531 7.5574 4.61261C7.29586 4.46992 6.96893 4.36125 6.57662 4.28661ZM6.42339 9.71341L7.23865 8.82428C6.83408 8.78917 6.49387 8.70795 6.21802 8.58062C5.94217 8.4533 5.70413 8.28207 5.50389 8.06694C5.14426 7.68055 4.9052 7.25575 4.78669 6.79253C4.66818 6.32933 4.66818 5.86723 4.78669 5.40622C4.9052 4.9452 5.14222 4.5237 5.49775 4.14172L7.49607 1.99471C7.8557 1.61273 8.25007 1.35807 8.67916 1.23075C9.10826 1.10342 9.53736 1.10232 9.96646 1.22746C10.3956 1.35259 10.7899 1.60834 11.1495 1.99471C11.5051 2.37669 11.7421 2.79929 11.8606 3.2625C11.9791 3.72571 11.9791 4.18782 11.8606 4.64884C11.7421 5.10985 11.5051 5.53135 11.1495 5.91333L9.94806 7.20418C10.0339 7.41491 10.088 7.63663 10.1105 7.86934C10.133 8.10205 10.1279 8.32597 10.0952 8.5411L11.8974 6.61143C12.3837 6.08456 12.7096 5.50281 12.8751 4.86617C13.0406 4.22953 13.0416 3.5918 12.8782 2.95296C12.7147 2.31413 12.3857 1.72908 11.8912 1.19782C11.3927 0.662163 10.8461 0.306524 10.2515 0.1309C9.65689 -0.0447242 9.06332 -0.0436265 8.47077 0.134193C7.87822 0.312013 7.33674 0.66436 6.84634 1.19124L4.75604 3.44361C4.26565 3.97048 3.9377 4.55224 3.77219 5.18888C3.60668 5.82552 3.60566 6.46325 3.76913 7.10208C3.93259 7.74091 4.2636 8.32597 4.76217 8.85726C4.95424 9.06799 5.18104 9.2447 5.44259 9.38741C5.70413 9.53011 6.03106 9.63878 6.42339 9.71341Z" fill="white" style="fill:white;fill:white;fill-opacity:1;"/>
</svg>
