<svg width="14" height="16" viewBox="0 0 14 16" fill="none" xmlns="http://www.w3.org/2000/svg">
<g clip-path="url(#clip0_169_2)">
<path d="M4.03906 3.15206C4.03906 3.56476 4.12465 3.94697 4.29582 4.2987C4.467 4.65043 4.70266 4.95058 5.00281 5.19914C5.30295 5.44769 5.64296 5.61887 6.02283 5.71266V10.1656C6.02283 10.6862 6.04394 11.1458 6.08614 11.5443C6.12835 11.943 6.18228 12.2783 6.24794 12.5503C6.31359 12.8223 6.38394 13.0275 6.45897 13.1658C6.53401 13.3042 6.6067 13.3734 6.67705 13.3734C6.74739 13.3734 6.82126 13.3042 6.89864 13.1658C6.97602 13.0275 7.04637 12.8223 7.10968 12.5503C7.17299 12.2783 7.22575 11.943 7.26796 11.5443C7.31018 11.1458 7.33128 10.6862 7.33128 10.1656V5.71266C7.71115 5.61887 8.05115 5.44769 8.35129 5.19914C8.65144 4.95058 8.88826 4.65043 9.06177 4.2987C9.23533 3.94697 9.3221 3.56476 9.3221 3.15206C9.3221 2.66432 9.20368 2.21997 8.96683 1.81899C8.72998 1.41802 8.41223 1.09794 8.01359 0.858766C7.615 0.619589 7.16949 0.5 6.67705 0.5C6.18931 0.5 5.74613 0.619589 5.34751 0.858766C4.94888 1.09794 4.63114 1.41802 4.39431 1.81899C4.15748 2.21997 4.03906 2.66432 4.03906 3.15206Z" fill="white" fill-opacity="0.7" style="fill:white;fill:white;fill-opacity:0.7;"/>
<path d="M5.92387 3.29227C5.68469 3.29227 5.47482 3.20199 5.29427 3.02144C5.11371 2.84089 5.02344 2.62867 5.02344 2.38481C5.02344 2.14094 5.11371 1.9299 5.29427 1.75169C5.47482 1.57348 5.68469 1.48438 5.92387 1.48438C6.17242 1.48438 6.38581 1.57348 6.56402 1.75169C6.74223 1.9299 6.83133 2.14094 6.83133 2.38481C6.83133 2.62867 6.74223 2.84089 6.56402 3.02144C6.38581 3.20199 6.17242 3.29227 5.92387 3.29227Z" fill="#875354" style="fill:#875354;fill:color(display-p3 0.5294 0.3255 0.3294);fill-opacity:1;"/>
<path d="M6.68387 15.9484C7.74377 15.9484 8.68758 15.8652 9.51531 15.6987C10.343 15.5322 11.043 15.3071 11.6151 15.0234C12.1873 14.7396 12.6211 14.4184 12.9166 14.0596C13.212 13.7009 13.3597 13.3269 13.3597 12.9376C13.3597 12.5671 13.2554 12.2259 13.0467 11.914C12.838 11.6022 12.5578 11.3243 12.2061 11.0805C11.8543 10.8366 11.4639 10.6291 11.0348 10.4579C10.6057 10.2867 10.1695 10.1554 9.72637 10.064C9.28316 9.9725 8.86695 9.92676 8.47772 9.92676V10.9538C8.82008 10.9585 9.1894 11.0066 9.58569 11.098C9.98197 11.1895 10.3583 11.3149 10.7147 11.4744C11.0711 11.6339 11.3642 11.8238 11.5941 12.0442C11.8239 12.2646 11.9388 12.5061 11.9388 12.7687C11.9388 13.0736 11.8075 13.3515 11.5448 13.6024C11.2822 13.8533 10.9152 14.0713 10.4439 14.2566C9.97256 14.4418 9.41681 14.5849 8.77667 14.6857C8.13652 14.7865 7.43892 14.8369 6.68387 14.8369C5.92413 14.8369 5.22419 14.7865 4.58403 14.6857C3.94389 14.5849 3.38815 14.443 2.91683 14.2601C2.44551 14.0772 2.07971 13.8592 1.81943 13.6059C1.55915 13.3527 1.42901 13.0736 1.42901 12.7687C1.42901 12.5061 1.54273 12.2646 1.77018 12.0442C1.99764 11.8238 2.28958 11.6339 2.646 11.4744C3.00242 11.3149 3.37994 11.1895 3.77857 11.098C4.1772 11.0066 4.54535 10.9585 4.88301 10.9538V9.92676C4.49845 9.92676 4.08458 9.9725 3.6414 10.064C3.19822 10.1554 2.76207 10.2867 2.33295 10.4579C1.90384 10.6291 1.51342 10.8366 1.16169 11.0805C0.809959 11.3243 0.528574 11.6022 0.317535 11.914C0.106496 12.2259 0.000976562 12.5671 0.000976562 12.9376C0.000976562 13.3269 0.149876 13.7009 0.447675 14.0596C0.745473 14.4184 1.18045 14.7396 1.7526 15.0234C2.32475 15.3071 3.0247 15.5322 3.85244 15.6987C4.68018 15.8652 5.62399 15.9484 6.68387 15.9484Z" fill="white" fill-opacity="0.7" style="fill:white;fill:white;fill-opacity:0.7;"/>
</g>
<defs>
<clipPath id="clip0_169_2">
<rect width="13.3587" height="15.4551" fill="white" style="fill:white;fill:white;fill-opacity:1;" transform="translate(0 0.5)"/>
</clipPath>
</defs>
</svg>
