<svg xmlns="http://www.w3.org/2000/svg" width="60" height="60" viewBox="0 0 60 60" fill="none">
    <g >

        <path
            d="M24.2503 37.9046L34.5622 39.6115C35.178 39.7177 35.7075 39.6852 36.1505 39.5143C36.5935 39.3433 36.9345 39.0485 37.1732 38.6299C37.412 38.2112 37.5314 37.6865 37.5314 37.0556V26.3805C37.5314 25.5137 37.2973 24.8917 36.8291 24.5143C36.361 24.137 35.6682 23.8716 34.7507 23.7183L24.7404 22.0556C24.2817 21.9849 23.8826 22.0099 23.5433 22.1308C23.204 22.2517 22.94 22.4551 22.7515 22.741C22.563 23.027 22.4688 23.3823 22.4688 23.8068V35.9766C22.4688 36.5249 22.618 36.9598 22.9165 37.2811C23.215 37.6024 23.6596 37.8103 24.2503 37.9046ZM25.9469 26.9642C25.7835 26.9406 25.6579 26.8743 25.5699 26.7652C25.4819 26.6561 25.4379 26.522 25.4379 26.3628C25.4379 26.1741 25.5086 26.0252 25.65 25.9162C25.7914 25.8071 25.9752 25.7702 26.2014 25.8056L33.6479 27.0261C33.9998 27.0969 34.1758 27.2973 34.1758 27.6275C34.1758 27.8162 34.1098 27.968 33.9778 28.083C33.8459 28.198 33.6637 28.2378 33.4311 28.2024L25.9469 26.9642ZM25.9469 30.5196C25.7835 30.496 25.6579 30.4297 25.5699 30.3206C25.4819 30.2115 25.4379 30.0774 25.4379 29.9182C25.4379 29.7354 25.5086 29.5895 25.65 29.4804C25.7914 29.3713 25.9752 29.3344 26.2014 29.3698L33.6479 30.5904C33.9998 30.6494 34.1758 30.8469 34.1758 31.1829C34.1758 31.3775 34.1098 31.5323 33.9778 31.6473C33.8459 31.7622 33.6637 31.802 33.4311 31.7666L25.9469 30.5196ZM26.8235 21.18L34.977 22.5244C35.7688 22.66 36.4412 22.8693 36.9941 23.1523V22.4624C36.9941 21.5308 36.6799 20.8557 36.0516 20.4371C35.4231 20.0185 34.5497 19.9005 33.4311 20.0833L26.8235 21.18Z"
            fill="white" fill-opacity="0.85" style="fill:white;fill:white;fill-opacity:0.85;" />
    </g>
</svg>