<svg width="111" height="75" viewBox="0 0 111 75" fill="none" xmlns="http://www.w3.org/2000/svg">
<path d="M55.3982 72.9734C59.1811 72.9734 62.8142 72.6465 66.2977 71.9929C69.7812 71.3393 73.0606 70.4407 76.1359 69.2972L65.4404 58.5953C63.9436 59.385 62.3448 59.9841 60.644 60.3926C58.9429 60.8011 57.1943 61.0053 55.3982 61.0053C52.214 61.0053 49.2408 60.4131 46.4785 59.2285C43.7162 58.044 41.2941 56.3964 39.2121 54.2858C37.1302 52.1755 35.4973 49.7519 34.3134 47.015C33.1296 44.2784 32.5376 41.3579 32.5376 38.2535C32.5376 36.429 32.7417 34.6522 33.15 32.923C33.5582 31.1938 34.1433 29.5667 34.9053 28.0418L20.9441 13.9905C17.7327 16.0056 14.8411 18.1637 12.2693 20.4647C9.69746 22.7657 7.49986 25.0464 5.67648 27.3065C3.85307 29.5667 2.4583 31.6499 1.49217 33.5561C0.526035 35.4623 0.0429688 37.0281 0.0429688 38.2535C0.0429688 39.6423 0.655305 41.4464 1.87998 43.6659C3.10465 45.8852 4.88043 48.302 7.20732 50.9162C9.53419 53.5304 12.3373 56.1309 15.6167 58.7178C18.8961 61.3047 22.5905 63.6738 26.7 65.8251C30.8095 67.9764 35.2727 69.7055 40.0898 71.0125C44.9068 72.3197 50.0097 72.9734 55.3982 72.9734ZM90.9953 61.8222C94.9687 59.208 98.4319 56.3827 101.385 53.3464C104.337 50.31 106.63 47.4439 108.263 44.748C109.896 42.0522 110.713 39.8874 110.713 38.2535C110.713 36.8647 110.107 35.0606 108.896 32.8413C107.685 30.622 105.93 28.2052 103.63 25.591C101.33 22.9768 98.5475 20.3762 95.2817 17.7892C92.0158 15.2023 88.3282 12.8331 84.2187 10.6819C80.1093 8.53061 75.6393 6.80143 70.8086 5.49433C65.9779 4.18723 60.8412 3.53368 55.3982 3.53368C51.9147 3.53368 48.5537 3.81281 45.3151 4.37106C42.0765 4.92929 38.974 5.69856 36.0075 6.67888L46.6215 17.2991C47.9549 16.7272 49.3564 16.2847 50.8259 15.9715C52.2957 15.6584 53.8198 15.5018 55.3982 15.5018C58.5551 15.5018 61.5147 16.0805 64.277 17.2378C67.0393 18.3951 69.4615 20.0154 71.5435 22.0986C73.6255 24.1818 75.2584 26.5986 76.4423 29.3489C77.6261 32.0992 78.218 35.0674 78.218 38.2535C78.218 39.8057 78.0547 41.317 77.7281 42.7875C77.4015 44.2579 76.9252 45.6467 76.2993 46.9539L90.9953 61.8222ZM42.376 37.314C42.376 39.7104 42.9679 41.8889 44.1518 43.8495C45.3356 45.8101 46.9141 47.3758 48.8871 48.5467C50.8602 49.7179 53.0442 50.3034 55.4392 50.3034C55.7112 50.3034 55.9833 50.2966 56.2556 50.2829C56.5276 50.2693 56.8132 50.2488 57.1125 50.2215L42.4575 35.5576C42.4302 35.8571 42.4097 36.1567 42.3961 36.4562C42.3827 36.7558 42.376 37.0417 42.376 37.314ZM68.3799 37.3957C68.3799 35.0266 67.8015 32.8549 66.6447 30.8807C65.4882 28.9064 63.9302 27.3406 61.9708 26.1833C60.0111 25.0259 57.8203 24.4473 55.3982 24.4473C55.126 24.4473 54.8607 24.4541 54.6023 24.4677C54.3437 24.4813 54.0919 24.5017 53.847 24.529L68.298 38.9887C68.3253 38.7437 68.3458 38.485 68.3594 38.2127C68.3731 37.9403 68.3799 37.668 68.3799 37.3957ZM87.1579 73.6267C87.784 74.2533 88.5258 74.5801 89.383 74.6071C90.2402 74.6344 90.9818 74.3076 91.6077 73.6267C92.288 72.946 92.6146 72.1905 92.5875 71.3601C92.5602 70.5294 92.2336 69.8009 91.6077 69.1746L23.3526 0.919487C22.7538 0.320401 22.0123 0.0140501 21.1278 0.000434541C20.2433 -0.0131811 19.488 0.29317 18.8621 0.919487C18.2634 1.51857 17.964 2.26063 17.964 3.14564C17.964 4.03066 18.2634 4.7727 18.8621 5.37178L87.1579 73.6267Z" fill="white" fill-opacity="0.85" style="fill:white;fill:white;fill-opacity:0.85;"/>
</svg>
