<svg width="26" height="29" viewBox="0 0 26 29" fill="none" xmlns="http://www.w3.org/2000/svg">
<g opacity="0.2" clip-path="url(#clip0_274_4419)">
<path d="M2.49753 22.7731L21.9696 17.5555C22.5511 17.3997 22.9694 17.1425 23.2245 16.7839C23.4795 16.4255 23.5466 16.0205 23.4256 15.5692C23.3157 15.159 23.0903 14.7929 22.7495 14.4709C22.4086 14.1489 22.0106 13.851 21.5554 13.5771C21.1002 13.3034 20.6471 13.0291 20.1959 12.7542C19.8509 12.5477 19.5422 12.2391 19.2698 11.8284C18.9973 11.4177 18.7561 10.9679 18.546 10.4789C18.336 9.98991 18.1509 9.51187 17.9907 9.04478C17.8747 8.64493 17.7554 8.25697 17.6327 7.88092C17.51 7.50487 17.3798 7.14182 17.242 6.79178C16.9638 6.99826 16.6697 7.1782 16.3597 7.33162C16.0497 7.48504 15.7186 7.60893 15.3664 7.70329C14.2771 7.99518 13.212 7.99255 12.1712 7.69541C11.1304 7.39827 10.2208 6.8703 9.44252 6.11148C8.66423 5.35266 8.12998 4.43171 7.83977 3.34864C7.6441 2.61839 7.58527 1.89104 7.66328 1.1666C7.74128 0.442162 7.92806 -0.236672 8.22362 -0.869901C7.70343 -0.976755 7.16487 -0.955566 6.60793 -0.806335C5.70702 -0.564937 5.02418 -0.0829674 4.55941 0.639573C4.09465 1.36211 3.85534 2.15615 3.84147 3.02171C2.85772 3.70743 2.14422 4.55817 1.70097 5.57395C1.25772 6.58972 1.04538 7.75469 1.06394 9.06886C1.08249 10.383 1.29054 11.8311 1.6881 13.413C1.78284 13.8977 1.86151 14.4042 1.92412 14.9327C1.98673 15.4612 2.00273 15.9714 1.97213 16.4633C1.94153 16.9552 1.82846 17.3768 1.63294 17.7281C1.37971 18.1918 1.12442 18.6559 0.867062 19.1206C0.609735 19.5853 0.413982 20.0423 0.279803 20.4916C0.145624 20.9409 0.133489 21.3706 0.243398 21.7808C0.364339 22.2322 0.624882 22.5493 1.02503 22.7323C1.42519 22.9153 1.91603 22.9289 2.49753 22.7731ZM13.5499 25.1013C14.2461 24.9148 14.8279 24.5962 15.2953 24.1456C15.7626 23.6949 16.0962 23.179 16.296 22.5978C16.4958 22.0167 16.5474 21.4312 16.4508 20.8415L8.91996 22.8594C9.12301 23.4206 9.45838 23.9024 9.92608 24.3046C10.3938 24.7069 10.9427 24.9864 11.5728 25.143C12.2029 25.2996 12.8619 25.2856 13.5499 25.1013Z" fill="white" style="fill:white;fill:white;fill-opacity:1;"/>
<path d="M14.9305 6.02623C15.7004 5.81994 16.3572 5.43728 16.9009 4.87827C17.4446 4.31927 17.8221 3.66408 18.0334 2.91273C18.2445 2.1614 18.2457 1.39599 18.0368 0.616504C17.828 -0.162977 17.4443 -0.82526 16.8857 -1.37034C16.3271 -1.9154 15.6726 -2.29406 14.9222 -2.50633C14.1718 -2.71859 13.4117 -2.72158 12.6418 -2.51529C11.8555 -2.30461 11.1926 -1.92031 10.653 -1.3624C10.1134 -0.80449 9.73804 -0.149871 9.52686 0.601455C9.31559 1.35281 9.31439 2.11823 9.52325 2.89771C9.73212 3.6772 10.1159 4.33947 10.6745 4.88453C11.2331 5.42961 11.8855 5.80883 12.6317 6.0222C13.378 6.23556 14.1442 6.23691 14.9305 6.02623Z" fill="#FF4242" style="fill:#FF4242;fill:color(display-p3 1.0000 0.2583 0.2583);fill-opacity:1;"/>
</g>
<defs>
<clipPath id="clip0_274_4419">
<rect width="24" height="27" fill="white" style="fill:white;fill:white;fill-opacity:1;" transform="translate(-5 2.21191) rotate(-15)"/>
</clipPath>
</defs>
</svg>
