<svg xmlns="http://www.w3.org/2000/svg" width="60" height="60" viewBox="0 0 60 60" fill="none">
    <g >

        <path
            d="M25.8272 38.2746H33.8916C34.6264 38.2746 35.1748 38.0962 35.537 37.7394C35.8991 37.3825 36.0854 36.8393 36.096 36.1098L36.1991 28.3231L38.1418 28.7671C38.5118 28.8464 38.8145 28.812 39.0497 28.664C39.2849 28.516 39.4475 28.2517 39.5374 27.8711L40.2431 25.0561C40.3383 24.6808 40.3171 24.3623 40.1796 24.1006C40.0422 23.8389 39.7911 23.6314 39.4264 23.4781L33.844 21.0993C33.6854 21.0305 33.5321 20.9975 33.3841 21.0001C33.2361 21.0028 33.088 21.0385 32.94 21.1072C32.5911 21.2711 32.2568 21.4085 31.937 21.5195C31.6171 21.6305 31.2894 21.7151 30.9536 21.7733C30.618 21.8314 30.2546 21.8605 29.8634 21.8605C29.4669 21.8605 29.1008 21.8314 28.7651 21.7733C28.4294 21.7151 28.1017 21.6305 27.7819 21.5195C27.462 21.4085 27.1277 21.2711 26.7788 21.1072C26.6308 21.0385 26.4828 21.0028 26.3347 21.0001C26.1867 20.9975 26.0334 21.0305 25.8748 21.0993L20.2924 23.4781C19.933 23.6314 19.6832 23.8389 19.5431 24.1006C19.403 24.3623 19.3805 24.6808 19.4757 25.0561L20.1814 27.8711C20.2713 28.2517 20.4339 28.516 20.6691 28.664C20.9043 28.812 21.207 28.8464 21.577 28.7671L23.5277 28.3231L23.6228 36.1098C23.6334 36.8393 23.8198 37.3825 24.1819 37.7394C24.544 38.0962 25.0924 38.2746 25.8272 38.2746ZM29.8634 24.3345C29.4087 24.3345 29.003 24.2605 28.6462 24.1125C28.2894 23.9645 27.9854 23.753 27.7343 23.4781C27.4832 23.2032 27.2889 22.8728 27.1515 22.4869C27.5638 22.6455 28.0012 22.7671 28.4638 22.8517C28.9263 22.9363 29.3929 22.9786 29.8634 22.9786C30.3286 22.9786 30.7924 22.9363 31.255 22.8517C31.7175 22.7671 32.155 22.6455 32.5673 22.4869C32.4352 22.8675 32.2449 23.1953 31.9964 23.4702C31.7479 23.7451 31.444 23.9579 31.0845 24.1085C30.725 24.2592 30.318 24.3345 29.8634 24.3345Z"
            fill="white" fill-opacity="0.85" style="fill:white;fill:white;fill-opacity:0.85;" />
    </g>
</svg>