<svg width="122" height="101" viewBox="0 0 122 101" fill="none" xmlns="http://www.w3.org/2000/svg">
<path d="M37.4425 101H84.5535C88.8461 101 92.0502 99.9568 94.1658 97.8705C96.2811 95.7842 97.3698 92.6083 97.4318 88.3429L98.0337 42.8159L109.383 45.4122C111.545 45.8758 113.313 45.6749 114.687 44.8094C116.061 43.944 117.011 42.3986 117.536 40.1733L121.659 23.7149C122.215 21.5204 122.091 19.6582 121.288 18.1283C120.485 16.5984 119.018 15.3852 116.887 14.4889L84.2756 0.580382C83.349 0.178579 82.4534 -0.0145953 81.5888 0.000858543C80.7242 0.0163124 79.8595 0.22494 78.9946 0.62674C76.9564 1.58488 75.0032 2.38849 73.1349 3.03755C71.2666 3.68661 69.3518 4.18114 67.3905 4.52112C65.4295 4.86112 63.3064 5.03112 61.0213 5.03112C58.7049 5.03112 56.5662 4.86112 54.6052 4.52112C52.6442 4.18114 50.7296 3.68661 48.8613 3.03755C46.9929 2.38849 45.0395 1.58488 43.0013 0.62674C42.1366 0.22494 41.2719 0.0163124 40.4072 0.000858543C39.5425 -0.0145953 38.6469 0.178579 37.7204 0.580382L5.1086 14.4889C3.0086 15.3852 1.54941 16.5984 0.731027 18.1283C-0.0873561 19.6582 -0.218606 21.5204 0.337278 23.7149L4.46008 40.1733C4.98508 42.3986 5.93472 43.944 7.30898 44.8094C8.68325 45.6749 10.4513 45.8758 12.613 45.4122L24.0086 42.8159L24.5645 88.3429C24.6263 92.6083 25.7149 95.7842 27.8303 97.8705C29.9458 99.9568 33.1498 101 37.4425 101ZM61.0213 19.4959C58.3653 19.4959 55.9949 19.0632 53.9103 18.1978C51.826 17.3324 50.0503 16.0961 48.5833 14.4889C47.1164 12.8817 45.9815 10.9499 45.1785 8.69368C47.5872 9.62091 50.1427 10.3318 52.8449 10.8263C55.5471 11.3208 58.2726 11.5681 61.0213 11.5681C63.7387 11.5681 66.4486 11.3208 69.1508 10.8263C71.853 10.3318 74.4085 9.62091 76.8173 8.69368C76.0454 10.919 74.9336 12.8353 73.4821 14.4425C72.0306 16.0497 70.2549 17.2938 68.1551 18.1746C66.055 19.0555 63.6771 19.4959 61.0213 19.4959Z" fill="white" fill-opacity="0.85" style="fill:white;fill:white;fill-opacity:0.85;"/>
</svg>
