<svg xmlns="http://www.w3.org/2000/svg" width="22" height="19" viewBox="0 0 22 19" fill="none">
    <path
        opacity="0.4"
        d="M10.8789 9.23828C12.1419 9.23828 13.3773 9.1748 14.585 9.04785C15.7927 8.9209 16.9906 8.71094 18.1787 8.41797C19.3668 8.125 20.5566 7.73112 21.748 7.23633V6.44531C21.748 5.44271 21.4974 4.69564 20.9961 4.2041C20.4948 3.71257 19.7396 3.4668 18.7305 3.4668H15.8301V2.69531C15.8301 1.77734 15.5941 1.09863 15.1221 0.65918C14.6501 0.219727 13.9746 0 13.0957 0H8.65234C7.81901 0 7.15657 0.219727 6.66504 0.65918C6.1735 1.09863 5.92773 1.77734 5.92773 2.69531V3.4668H3.01758C2.01497 3.4668 1.26139 3.71257 0.756836 4.2041C0.252279 4.69564 0 5.44271 0 6.44531V7.23633C1.19792 7.73112 2.38933 8.125 3.57422 8.41797C4.75911 8.71094 5.9554 8.9209 7.16309 9.04785C8.37077 9.1748 9.60937 9.23828 10.8789 9.23828ZM7.44141 3.4668V2.58789C7.44141 2.2168 7.54558 1.93034 7.75391 1.72852C7.96224 1.52669 8.25521 1.42578 8.63281 1.42578H13.1152C13.4993 1.42578 13.7956 1.52669 14.0039 1.72852C14.2122 1.93034 14.3164 2.2168 14.3164 2.58789V3.4668H7.44141ZM3.01758 18.9258H18.7305C19.7396 18.9258 20.4948 18.6784 20.9961 18.1836C21.4974 17.6888 21.748 16.9434 21.748 15.9473V8.83789C20.7975 9.18294 19.8617 9.47266 18.9404 9.70703C18.0192 9.94141 17.1045 10.1286 16.1963 10.2686C15.2881 10.4085 14.3815 10.5111 13.4766 10.5762V11.3672C13.4766 12.0768 13.1153 12.4316 12.3926 12.4316H9.35547C8.63932 12.4316 8.28125 12.0768 8.28125 11.3672V10.5762C7.36979 10.5111 6.45996 10.4085 5.55176 10.2686C4.64355 10.1286 3.72884 9.94141 2.80762 9.70703C1.88639 9.47266 0.95052 9.18294 0 8.83789V15.9473C0 16.9434 0.252279 17.6888 0.756836 18.1836C1.26139 18.6784 2.01497 18.9258 3.01758 18.9258Z"
        fill="white" fill-opacity="0.85" style="fill:white;fill:white;fill-opacity:0.85;" />
</svg>