<svg width="13" height="14" viewBox="0 0 13 14" fill="none" xmlns="http://www.w3.org/2000/svg">
<path d="M1.30392 14H11.5294C11.9361 14 12.2551 13.9079 12.4864 13.7236C12.7177 13.5393 12.8333 13.2862 12.8333 12.9644C12.8333 12.466 12.6847 11.9391 12.3873 11.3837C12.0899 10.8283 11.6629 10.3079 11.1062 9.82256C10.5496 9.3372 9.87602 8.94268 9.08551 8.639C8.29505 8.33533 7.40417 8.18349 6.41287 8.18349C5.42667 8.18349 4.53832 8.33533 3.74783 8.639C2.95734 8.94268 2.2825 9.3372 1.72332 9.82256C1.16413 10.3079 0.73711 10.8283 0.442267 11.3837C0.147422 11.9391 0 12.466 0 12.9644C0 13.2862 0.11565 13.5393 0.346951 13.7236C0.578252 13.9079 0.897243 14 1.30392 14ZM6.4205 6.78975C6.96444 6.78975 7.46769 6.63791 7.93027 6.33424C8.39288 6.03057 8.76526 5.61919 9.0474 5.1001C9.32954 4.58101 9.47061 3.99702 9.47061 3.34815C9.47061 2.70967 9.32954 2.13737 9.0474 1.63125C8.76526 1.12514 8.39288 0.726734 7.93027 0.436039C7.46769 0.145346 6.96444 0 6.4205 0C5.87656 0 5.37329 0.147942 4.91069 0.443825C4.44809 0.73971 4.07572 1.14201 3.79359 1.65072C3.51145 2.15943 3.37038 2.73044 3.37038 3.36373C3.37038 4.00741 3.51145 4.58749 3.79359 5.10399C4.07572 5.62049 4.44809 6.03057 4.91069 6.33424C5.37329 6.63791 5.87656 6.78975 6.4205 6.78975Z" fill="white" fill-opacity="0.7" style="fill:white;fill:white;fill-opacity:0.7;"/>
</svg>
