<svg width="20" height="20" viewBox="0 0 20 20" fill="none" xmlns="http://www.w3.org/2000/svg">
<path d="M0.989399 6.72388C1.63554 6.72388 1.9788 6.37052 1.9788 5.72438V3.44271C1.9788 2.4634 2.49369 1.9788 3.43261 1.9788H5.76477C6.4109 1.9788 6.76426 1.62544 6.76426 0.989399C6.76426 0.353357 6.4109 0 5.76477 0H3.31146C1.13074 0 0 1.12065 0 3.27108V5.72438C0 6.37052 0.353357 6.72388 0.989399 6.72388ZM19.0106 6.72388C19.6567 6.72388 20 6.37052 20 5.72438V3.27108C20 1.12065 18.8693 0 16.6885 0H14.2352C13.5891 0 13.2357 0.353357 13.2357 0.989399C13.2357 1.62544 13.5891 1.9788 14.2352 1.9788H16.5674C17.4962 1.9788 18.0212 2.4634 18.0212 3.44271V5.72438C18.0212 6.37052 18.3746 6.72388 19.0106 6.72388ZM9.19737 11.6911H9.28824C10.318 11.6911 10.8935 11.1257 10.8935 10.0858V6.9258C10.8935 6.51186 10.6209 6.22918 10.1969 6.22918C9.77284 6.22918 9.50025 6.51186 9.50025 6.9258V10.1464C9.50025 10.2373 9.44977 10.2877 9.35891 10.2877H9.04594C8.6522 10.2877 8.34932 10.5805 8.34932 10.9642C8.34932 11.4286 8.67239 11.6911 9.19737 11.6911ZM6.20899 9.32862C6.70368 9.32862 7.05704 8.97526 7.05704 8.47047V7.09743C7.05704 6.59263 6.70368 6.23927 6.20899 6.23927C5.71429 6.23927 5.36093 6.60273 5.36093 7.09743V8.47047C5.36093 8.97526 5.71429 9.32862 6.20899 9.32862ZM13.7708 9.32862C14.2554 9.32862 14.6088 8.97526 14.6088 8.47047V7.09743C14.6088 6.60273 14.2554 6.23927 13.7708 6.23927C13.266 6.23927 12.9127 6.59263 12.9127 7.09743V8.47047C12.9127 8.97526 13.266 9.32862 13.7708 9.32862ZM9.94447 15.0227C11.1661 15.0227 12.4079 14.4977 13.2862 13.6194C13.4175 13.4881 13.4881 13.3165 13.4881 13.1045C13.4881 12.7007 13.1752 12.4079 12.7814 12.4079C12.5795 12.4079 12.4281 12.4886 12.2362 12.7007C11.6911 13.2559 10.8228 13.6396 9.94447 13.6396C9.10651 13.6396 8.24836 13.2761 7.6628 12.6906C7.49117 12.529 7.34982 12.4079 7.10752 12.4079C6.70368 12.4079 6.40081 12.7007 6.40081 13.1045C6.40081 13.2862 6.47148 13.4478 6.60273 13.6093C7.4104 14.5381 8.69258 15.0227 9.94447 15.0227ZM3.31146 20H5.76477C6.4109 20 6.76426 19.6466 6.76426 19.0106C6.76426 18.3746 6.4109 18.0212 5.76477 18.0212H3.43261C2.49369 18.0212 1.9788 17.5366 1.9788 16.5472V14.2655C1.9788 13.6194 1.62544 13.266 0.989399 13.266C0.343261 13.266 0 13.6194 0 14.2655V16.7188C0 18.8794 1.13074 20 3.31146 20ZM14.2352 20H16.6885C18.8693 20 20 18.8794 20 16.7188V14.2655C20 13.6194 19.6466 13.266 19.0106 13.266C18.3645 13.266 18.0212 13.6295 18.0212 14.2655V16.5472C18.0212 17.5366 17.4962 18.0212 16.5674 18.0212H14.2352C13.5891 18.0212 13.2357 18.3746 13.2357 19.0106C13.2357 19.6466 13.5891 20 14.2352 20Z" fill="white" style="fill:white;fill:white;fill-opacity:1;"/>
</svg>
