<svg xmlns="http://www.w3.org/2000/svg" width="60" height="60" viewBox="0 0 60 60" fill="none">
	<g >
		<path fill-rule="evenodd" clip-rule="evenodd"
			d="M17.0005 28.666C16.9924 28.4154 17.0894 28.1769 17.2915 27.9506L20.2868 24.555C20.497 24.3206 20.7295 24.2054 20.9841 24.2094C21.2388 24.2135 21.4672 24.3287 21.6693 24.555L24.6768 27.9506C24.8708 28.1688 24.9678 28.4013 24.9678 28.6479C24.9678 28.8944 24.8829 29.1067 24.7131 29.2845C24.5434 29.4624 24.2968 29.5513 23.9734 29.5513H21.9361V34.8629C21.9361 35.1297 21.8451 35.354 21.6632 35.536C21.4813 35.7178 21.261 35.8088 21.0023 35.8088C20.7275 35.8088 20.4991 35.7178 20.3172 35.536C20.1353 35.354 20.0443 35.1297 20.0443 34.8629V29.5513H17.9827C17.6836 29.5513 17.4471 29.4664 17.2733 29.2966C17.0995 29.1269 17.0086 28.9167 17.0005 28.666Z"
			fill="white" fill-opacity="0.85" style="fill:white;fill:white;fill-opacity:0.85;" />
		<path fill-rule="evenodd" clip-rule="evenodd"
			d="M36.0005 31.3521C35.9924 31.6027 36.0894 31.8412 36.2915 32.0675L39.2868 35.4631C39.497 35.6975 39.7295 35.8127 39.9841 35.8087C40.2388 35.8046 40.4672 35.6894 40.6693 35.4631L43.6768 32.0675C43.8708 31.8493 43.9678 31.6168 43.9678 31.3702C43.9678 31.1237 43.8829 30.9114 43.7131 30.7336C43.5434 30.5557 43.2968 30.4668 42.9734 30.4668H40.9361V25.1552C40.9361 24.8884 40.8451 24.6641 40.6632 24.4821C40.4813 24.3003 40.261 24.2093 40.0023 24.2093C39.7275 24.2093 39.4991 24.3003 39.3172 24.4821C39.1353 24.6641 39.0443 24.8884 39.0443 25.1552V30.4668H36.9827C36.6836 30.4668 36.4471 30.5517 36.2733 30.7215C36.0995 30.8912 36.0086 31.1014 36.0005 31.3521Z"
			fill="white" fill-opacity="0.85" style="fill:white;fill:white;fill-opacity:0.85;" />
		<path fill-rule="evenodd" clip-rule="evenodd"
			d="M25.479 36.5586H34.9504C35.5486 36.5586 35.9671 36.4744 36.2059 36.306C36.4448 36.1376 36.5642 35.8875 36.5642 35.5556C36.5642 35.073 36.4171 34.5627 36.123 34.0248C35.8289 33.4869 35.4066 32.9829 34.8561 32.5129C34.3056 32.0428 33.6395 31.6607 32.8578 31.3666C32.076 31.0725 31.195 30.9255 30.2147 30.9255C29.2394 30.9255 28.3609 31.0725 27.5791 31.3666C26.7974 31.6607 26.13 32.0428 25.577 32.5129C25.024 32.9829 24.6017 33.4869 24.3101 34.0248C24.0185 34.5627 23.8727 35.073 23.8727 35.5556C23.8727 35.8875 23.9921 36.1376 24.2309 36.306C24.4697 36.4744 24.8857 36.5586 25.479 36.5586ZM30.2222 29.5757C30.7601 29.5757 31.2578 29.4286 31.7153 29.1345C32.1728 28.8405 32.541 28.442 32.82 27.9393C33.0991 27.4366 33.2386 26.871 33.2386 26.2426C33.2386 25.6242 33.0991 25.07 32.82 24.5798C32.541 24.0897 32.1728 23.7038 31.7153 23.4223C31.2578 23.1408 30.7601 23 30.2222 23C29.6843 23 29.1866 23.1433 28.7291 23.4298C28.2716 23.7164 27.9034 24.106 27.6243 24.5987C27.3453 25.0914 27.2058 25.6444 27.2058 26.2577C27.2058 26.8811 27.3453 27.4429 27.6243 27.9431C27.9034 28.4433 28.2716 28.8405 28.7291 29.1345C29.1866 29.4286 29.6843 29.5757 30.2222 29.5757Z"
			fill="white" fill-opacity="0.85" style="fill:white;fill:white;fill-opacity:0.85;" />
	</g>
</svg>