<svg width="16" height="16" viewBox="0 0 16 16" fill="none" xmlns="http://www.w3.org/2000/svg">
<path d="M14.991 7.75C15.4102 7.75 15.7539 8.09061 15.7129 8.50777C15.6059 9.59638 15.2694 10.653 14.7222 11.6068C14.0487 12.7806 13.0797 13.7576 11.9114 14.4406C10.7431 15.1236 9.41632 15.4887 8.06309 15.4997C6.70985 15.5108 5.37732 15.1672 4.19808 14.5034C3.01883 13.8395 2.03397 12.8784 1.34149 11.7157C0.649016 10.553 0.273059 9.22927 0.251027 7.87617C0.228995 6.52307 0.561657 5.18779 1.21591 4.00318C1.74751 3.04065 2.47637 2.20486 3.35162 1.54878C3.68702 1.29737 4.15648 1.41452 4.37389 1.7729C4.59131 2.13127 4.4735 2.59462 4.14419 2.85396C3.49269 3.36705 2.94806 4.00667 2.54468 4.73705C2.01857 5.68964 1.75106 6.76338 1.76878 7.85146C1.78649 8.93953 2.08881 10.004 2.64566 10.939C3.20251 11.8739 3.99446 12.6468 4.94274 13.1806C5.89101 13.7145 6.96255 13.9907 8.05073 13.9818C9.13891 13.973 10.2058 13.6793 11.1453 13.1301C12.0847 12.5809 12.864 11.7953 13.4055 10.8514C13.8208 10.1277 14.0851 9.33026 14.1859 8.50712C14.2368 8.09105 14.5719 7.75 14.991 7.75Z" fill="white" style="fill:white;fill:white;fill-opacity:1;"/>
<path d="M5.38877 1.28223C5.22853 0.885331 5.41967 0.429643 5.83058 0.309829C6.62012 0.0796145 7.4429 -0.0239269 8.26812 0.00463931C9.09333 0.0332055 9.90699 0.193395 10.6787 0.477656C11.0804 0.625597 11.2395 1.09341 11.0522 1.47828C10.8649 1.86314 10.4021 2.01823 9.99687 1.88037C9.42327 1.68523 8.82281 1.57477 8.2145 1.55371C7.60618 1.53265 6.99952 1.60133 6.4138 1.75634C6.00002 1.86584 5.54901 1.67912 5.38877 1.28223Z" fill="white" style="fill:white;fill:white;fill-opacity:1;"/>
<path d="M12.3148 2.26972C12.5795 1.93342 13.07 1.87283 13.3782 2.16986C14.1083 2.87358 14.6934 3.71392 15.0999 4.64294C15.2715 5.03505 15.0445 5.47397 14.6372 5.60556C14.2299 5.73716 13.7974 5.51085 13.616 5.12314C13.3164 4.48267 12.9095 3.89808 12.4128 3.39483C12.1121 3.09019 12.05 2.60602 12.3148 2.26972Z" fill="white" style="fill:white;fill:white;fill-opacity:1;"/>
</svg>
