<svg xmlns="http://www.w3.org/2000/svg" width="24" height="21" viewBox="0 0 24 21" fill="none">
    <g clip-path="url(#clip0_11_2217)">
        <path
            d="M13.6621 20.5156C15.0228 20.5156 16.3037 20.2552 17.5049 19.7344C18.706 19.2135 19.7656 18.4958 20.6836 17.5811C21.6015 16.6664 22.3209 15.6068 22.8418 14.4023C23.3626 13.1979 23.623 11.9154 23.623 10.5547C23.623 9.19401 23.361 7.91309 22.8369 6.71191C22.3128 5.51074 21.5918 4.45117 20.6738 3.5332C19.7559 2.61524 18.6963 1.89584 17.4951 1.375C16.294 0.854167 15.013 0.59375 13.6523 0.59375C12.3828 0.59375 11.1832 0.821615 10.0537 1.27734C8.92415 1.73307 7.91179 2.36621 7.0166 3.17675C6.12142 3.9873 5.39063 4.92968 4.82422 6.0039C4.25781 7.07812 3.90625 8.23372 3.76953 9.4707C4.16016 9.39258 4.55729 9.35351 4.96094 9.35351C5.95703 9.35351 6.87988 9.56836 7.72949 9.99804C8.5791 10.4277 9.29851 11.0072 9.8877 11.7363C10.4769 12.4655 10.8757 13.2826 11.084 14.1875C11.4681 14.0898 11.875 14.015 12.3047 13.9629C12.7344 13.9108 13.1836 13.8848 13.6523 13.8848C14.6354 13.8848 15.5339 13.9906 16.3477 14.2022C17.1615 14.4137 17.8646 14.6904 18.457 15.0322C19.0495 15.374 19.5052 15.737 19.8242 16.1211C19.3359 16.6745 18.7663 17.1579 18.1152 17.5713C17.4642 17.9847 16.7611 18.3053 16.0059 18.5332C15.2506 18.7611 14.4661 18.875 13.6523 18.875C13.151 18.875 12.64 18.8262 12.1191 18.7285C11.5983 18.6308 11.1068 18.4876 10.6445 18.2988C10.5794 18.4746 10.4671 18.6911 10.3076 18.9482C10.1481 19.2054 9.96422 19.4544 9.75586 19.6953C10.3614 19.9622 10.9912 20.1657 11.6455 20.3057C12.2998 20.4456 12.972 20.5156 13.6621 20.5156ZM13.6523 12.2246C13.0273 12.2181 12.4609 12.0538 11.9531 11.7315C11.4453 11.4092 11.0433 10.9714 10.7471 10.418C10.4508 9.86459 10.3027 9.23959 10.3027 8.54297C10.2962 7.88542 10.4427 7.2832 10.7422 6.73632C11.0417 6.18945 11.4453 5.75163 11.9531 5.42285C12.4609 5.09407 13.0273 4.92968 13.6523 4.92968C14.2773 4.92968 14.8421 5.09407 15.3467 5.42285C15.8512 5.75163 16.2532 6.18945 16.5527 6.73632C16.8522 7.2832 17.002 7.88542 17.002 8.54297C17.002 9.23959 16.8522 9.86784 16.5527 10.4277C16.2532 10.9876 15.8512 11.4287 15.3467 11.751C14.8421 12.0733 14.2773 12.2311 13.6523 12.2246Z"
            fill="white" fill-opacity="0.85" style="fill:white;fill:white;fill-opacity:0.85;" />
        <path
            d="M4.96094 20.6231C5.63151 20.6231 6.26628 20.4929 6.86523 20.2324C7.46419 19.972 7.99316 19.6139 8.45215 19.1582C8.91113 18.7025 9.27083 18.1751 9.53125 17.5762C9.79167 16.9772 9.92188 16.3392 9.92188 15.6621C9.92188 14.9785 9.7933 14.3372 9.53613 13.7383C9.27897 13.1394 8.92253 12.612 8.4668 12.1563C8.01107 11.7006 7.48372 11.3441 6.88477 11.0869C6.28581 10.8298 5.64453 10.7012 4.96094 10.7012C4.28385 10.7012 3.64583 10.8298 3.04688 11.0869C2.44792 11.3441 1.92057 11.7022 1.46484 12.1611C1.00911 12.6201 0.651042 13.1475 0.390625 13.7432C0.130208 14.3389 0 14.9785 0 15.6621C0 16.3457 0.130208 16.987 0.390625 17.5859C0.651042 18.1849 1.00911 18.7123 1.46484 19.168C1.92057 19.6237 2.44792 19.9802 3.04688 20.2373C3.64583 20.4945 4.28385 20.6231 4.96094 20.6231Z"
            fill="white" fill-opacity="0.85" style="fill:white;fill:white;fill-opacity:0.85;" />
        <path
            d="M4.96094 18.7676C4.77865 18.7676 4.63379 18.7123 4.52637 18.6016C4.41894 18.4909 4.36523 18.3477 4.36523 18.1719V16.2578H2.45117C2.27539 16.2578 2.13216 16.2041 2.02148 16.0967C1.91081 15.9893 1.85547 15.8444 1.85547 15.6621C1.85547 15.4798 1.91081 15.335 2.02148 15.2275C2.13216 15.1201 2.27539 15.0664 2.45117 15.0664H4.36523V13.1523C4.36523 12.9766 4.41894 12.8334 4.52637 12.7227C4.63379 12.612 4.77865 12.5566 4.96094 12.5566C5.14323 12.5566 5.28809 12.612 5.39551 12.7227C5.50293 12.8334 5.55664 12.9766 5.55664 13.1523V15.0664H7.4707C7.64648 15.0664 7.78972 15.1201 7.90039 15.2275C8.01107 15.335 8.06641 15.4798 8.06641 15.6621C8.06641 15.8444 8.01107 15.9893 7.90039 16.0967C7.78972 16.2041 7.64648 16.2578 7.4707 16.2578H5.55664V18.1719C5.55664 18.3477 5.50293 18.4909 5.39551 18.6016C5.28809 18.7123 5.14323 18.7676 4.96094 18.7676Z"
            fill="#548DE8"
            style="fill:#548DE8;fill:color(display-p3 0.3294 0.5529 0.9098);fill-opacity:1;" />
    </g>
    <defs>
        <clipPath id="clip0_11_2217">
            <rect width="23.623" height="20.127" fill="white"
                style="fill:white;fill:white;fill-opacity:1;" transform="translate(0 0.496094)" />
        </clipPath>
    </defs>
</svg>