<svg width="14" height="14" viewBox="0 0 14 14" fill="none" xmlns="http://www.w3.org/2000/svg">
<path fill-rule="evenodd" clip-rule="evenodd" d="M11.6122 14H2.38784C1.59189 14 0.99493 13.8036 0.596959 13.4107C0.198986 13.0178 0 12.4284 0 11.6426V2.35742C0 1.57161 0.198986 0.982257 0.596959 0.589355C0.99493 0.196452 1.59189 0 2.38784 0H11.6122C12.4081 0 13.0051 0.196452 13.403 0.589355C13.801 0.982257 14 1.57161 14 2.35742V11.6426C14 12.4284 13.801 13.0178 13.403 13.4107C13.0051 13.8036 12.4081 14 11.6122 14ZM6.73765 11.3651C6.80862 11.4335 6.89734 11.4677 7.00381 11.4677C7.11027 11.4677 7.19899 11.4335 7.26997 11.3651C7.34095 11.2966 7.37643 11.2066 7.37643 11.0951V10.5476C7.98478 10.4867 8.49682 10.2852 8.91255 9.943C9.32827 9.60079 9.53613 9.13309 9.53613 8.53992C9.53613 8.00762 9.36375 7.57923 9.01899 7.25477C8.67429 6.93031 8.16225 6.70724 7.4829 6.58556L7.37643 6.56276V4.38024C7.65528 4.43094 7.88976 4.5374 8.07987 4.69963C8.26998 4.86186 8.40558 5.07479 8.48667 5.33842C8.5729 5.59697 8.73261 5.72625 8.96581 5.72625C9.10265 5.72625 9.21419 5.68316 9.30042 5.59697C9.3866 5.51079 9.42968 5.39925 9.42968 5.26237C9.42968 5.22181 9.42587 5.18125 9.41824 5.14069C9.41066 5.10014 9.40178 5.05958 9.39161 5.01902C9.28518 4.59824 9.0482 4.24969 8.68065 3.97339C8.3131 3.69709 7.87836 3.53106 7.37643 3.47529V2.93536C7.37643 2.82383 7.34095 2.73385 7.26997 2.6654C7.19899 2.59696 7.11027 2.56274 7.00381 2.56274C6.89734 2.56274 6.80862 2.59696 6.73765 2.6654C6.66667 2.73385 6.63118 2.82383 6.63118 2.93536V3.47529C6.03803 3.5412 5.55007 3.74779 5.1673 4.09507C4.78454 4.44234 4.59316 4.88468 4.59316 5.42206C4.59316 5.9189 4.76046 6.32067 5.09506 6.62739C5.42966 6.93411 5.92396 7.16605 6.57796 7.32321L6.63118 7.33842V9.65021C6.28137 9.59954 6.00381 9.48294 5.79848 9.30041C5.59316 9.11788 5.45755 8.89735 5.39164 8.63882C5.34601 8.50192 5.28264 8.40178 5.20153 8.33839C5.12041 8.27506 5.02155 8.24339 4.90495 8.24339C4.77313 8.24339 4.66414 8.28648 4.57795 8.37266C4.49177 8.45883 4.44867 8.57037 4.44867 8.70727C4.44867 8.74781 4.45248 8.78836 4.46008 8.8289C4.46769 8.86945 4.47656 8.91002 4.4867 8.95061C4.59823 9.40689 4.85171 9.77189 5.24715 10.0456C5.64259 10.3194 6.10393 10.4817 6.63118 10.5323V11.0951C6.63118 11.2066 6.66667 11.2966 6.73765 11.3651ZM6.63118 6.36503V4.38024C6.30165 4.436 6.04183 4.55514 5.85172 4.73766C5.6616 4.92017 5.56655 5.13056 5.56655 5.36883C5.56655 5.60204 5.64766 5.79722 5.80989 5.95439C5.97212 6.11155 6.22814 6.24336 6.57796 6.34983L6.63118 6.36503ZM7.37643 7.52093V9.65021C7.77692 9.60457 8.07476 9.48543 8.26996 9.29278C8.46515 9.10013 8.56275 8.86693 8.56275 8.59319C8.56275 8.34478 8.48797 8.13692 8.3384 7.9696C8.18884 7.8023 7.92395 7.66795 7.54373 7.56656L7.37643 7.52093Z" fill="white" style="fill:white;fill:white;fill-opacity:1;"/>
</svg>
