<svg width="18" height="19" viewBox="0 0 18 19" fill="none" xmlns="http://www.w3.org/2000/svg">
<path d="M7.08658 14.6297C8.64738 14.6297 10.1635 14.1092 11.3949 13.1506L16.0404 17.7938C16.3874 18.1288 16.9404 18.1192 17.2756 17.7723C17.6025 17.434 17.6025 16.8976 17.2756 16.5592L12.6301 11.9161C15.0099 8.85411 14.4558 4.44359 11.3922 2.06492C8.32865 -0.313749 3.91591 0.240161 1.53603 3.30215C-0.843858 6.36414 -0.289665 10.7747 2.77389 13.1533C4.00725 14.111 5.52476 14.6305 7.08658 14.6297ZM3.35396 3.87924C5.41545 1.81877 8.75779 1.81873 10.8193 3.87917C12.8808 5.93961 12.8809 9.28024 10.8194 11.3407C8.7579 13.4012 5.41557 13.4012 3.35404 11.3408C3.354 11.3408 3.354 11.3408 3.35396 11.3407C1.29247 9.29529 1.28033 5.96684 3.3268 3.9064C3.33584 3.89732 3.34488 3.88828 3.35396 3.87924Z" fill="white" fill-opacity="0.49" style="fill:white;fill:white;fill-opacity:0.49;"/>
</svg>
