<svg width="16" height="14" viewBox="0 0 16 14" fill="none" xmlns="http://www.w3.org/2000/svg">
<path d="M8.0036 6.7966C8.93279 6.7966 9.84165 6.7499 10.7302 6.6565C11.6187 6.5631 12.5 6.40864 13.3741 6.1931C14.2482 5.97756 15.1235 5.68779 16 5.32377V4.74181C16 4.0042 15.8156 3.45458 15.4468 3.09296C15.078 2.73133 14.5224 2.55052 13.78 2.55052H11.6462V1.98294C11.6462 1.30759 11.4726 0.808264 11.1253 0.484959C10.7781 0.161653 10.2811 0 9.6345 0H6.36553C5.75244 0 5.26509 0.161653 4.90347 0.484959C4.54184 0.808264 4.36103 1.30759 4.36103 1.98294V2.55052H2.22003C1.48242 2.55052 0.928006 2.73133 0.556804 3.09296C0.185601 3.45458 0 4.0042 0 4.74181V5.32377C0.88131 5.68779 1.75783 5.97756 2.62955 6.1931C3.50128 6.40864 4.38139 6.5631 5.26988 6.6565C6.15837 6.7499 7.06961 6.7966 8.0036 6.7966ZM5.47464 2.55052V1.90391C5.47464 1.6309 5.55128 1.42015 5.70455 1.27167C5.85782 1.12319 6.07336 1.04895 6.35116 1.04895H9.64885C9.93146 1.04895 10.1494 1.12319 10.3027 1.27167C10.4559 1.42015 10.5326 1.6309 10.5326 1.90391V2.55052H5.47464ZM2.22003 13.9237H13.78C14.5224 13.9237 15.078 13.7417 15.4468 13.3777C15.8156 13.0136 16 12.4652 16 11.7324V6.50203C15.3007 6.75589 14.6122 6.96903 13.9344 7.14146C13.2567 7.31389 12.5838 7.45161 11.9156 7.55461C11.2475 7.65756 10.5805 7.73299 9.91473 7.78091V8.36285C9.91473 8.8849 9.6489 9.14593 9.11723 9.14593H6.88282C6.35595 9.14593 6.09251 8.8849 6.09251 8.36285V7.78091C5.42195 7.73299 4.75259 7.65756 4.08443 7.55461C3.41626 7.45161 2.74331 7.31389 2.06557 7.14146C1.38782 6.96903 0.699297 6.75589 0 6.50203V11.7324C0 12.4652 0.185601 13.0136 0.556804 13.3777C0.928006 13.7417 1.48242 13.9237 2.22003 13.9237Z" fill="white" fill-opacity="0.7" style="fill:white;fill:white;fill-opacity:0.7;"/>
</svg>
