<svg width="117" height="125" viewBox="0 0 117 125" fill="none" xmlns="http://www.w3.org/2000/svg">
<path d="M27.5481 62.927C32.2636 62.927 36.6954 63.8256 40.8436 65.6226C44.9918 67.4193 48.6436 69.9011 51.799 73.0681C54.9546 76.2348 57.4186 79.8997 59.1911 84.0629C60.9639 88.2261 61.8503 92.6739 61.8503 97.4062C61.8503 100.466 61.4514 103.437 60.6538 106.32C59.8562 109.202 58.7127 111.906 57.2235 114.432H100.513C106.009 114.432 110.13 113.035 112.878 110.242C115.626 107.449 117 103.277 117 97.7265V49.2635H78.4965C71.7956 49.2635 68.4451 45.901 68.4451 39.176V0H44.0345C38.5391 0 34.4175 1.40549 31.6697 4.21646C28.922 7.02747 27.5481 11.2084 27.5481 16.7592V62.927ZM78.656 41.9514H116.362C116.185 40.8483 115.724 39.7453 114.979 38.6422C114.234 37.5392 113.224 36.3294 111.947 35.0128L82.6446 5.07043C81.4036 3.78949 80.2159 2.7665 79.0814 2.00149C77.9468 1.23648 76.8299 0.765013 75.7306 0.587095V39.0692C75.7306 40.9907 76.7057 41.9514 78.656 41.9514ZM25.2613 125H29.835C30.6504 125 31.3595 124.769 31.9622 124.306C32.565 123.844 32.955 123.185 33.1322 122.331L34.4086 117.101C34.7632 116.994 35.1531 116.861 35.5786 116.701C36.004 116.54 36.3941 116.354 36.7486 116.14L41.3222 118.969C42.0313 119.396 42.7493 119.592 43.4761 119.556C44.2029 119.521 44.8854 119.183 45.5236 118.542L48.6613 115.339C49.2286 114.734 49.5388 114.067 49.592 113.338C49.6452 112.608 49.4413 111.852 48.9804 111.07L46.2681 106.479C46.4809 106.088 46.6581 105.723 46.7999 105.386C46.9418 105.048 47.0658 104.701 47.1722 104.345L52.4372 103.063C53.2881 102.85 53.9529 102.45 54.4315 101.863C54.9103 101.276 55.1497 100.555 55.1497 99.7011V95.1643C55.1497 94.3816 54.9015 93.7056 54.4049 93.1361C53.9086 92.5669 53.2527 92.1756 52.4372 91.9621L47.2786 90.681C47.1013 90.2186 46.9329 89.8184 46.7734 89.4802C46.6138 89.1421 46.4631 88.8129 46.3213 88.4926L49.1931 83.7426C49.6186 83.0664 49.7959 82.3369 49.7249 81.5543C49.654 80.7716 49.335 80.1134 48.7677 79.5796L45.5236 76.4305C44.9209 75.8256 44.2472 75.4698 43.5027 75.3631C42.7581 75.2563 42.0668 75.4164 41.4286 75.8435L36.7486 78.7789C36.3231 78.5297 35.9154 78.343 35.5254 78.2187C35.1354 78.0941 34.7632 77.9606 34.4086 77.8181L33.1322 72.4806C32.955 71.6979 32.565 71.0576 31.9622 70.5595C31.3595 70.0614 30.6504 69.8124 29.835 69.8124H25.2613C24.4459 69.8124 23.7279 70.0703 23.1074 70.5863C22.487 71.1022 22.1059 71.7337 21.964 72.4806L20.7409 77.7646C20.28 77.9427 19.8545 78.0941 19.4645 78.2187C19.0745 78.343 18.6845 78.5297 18.2946 78.7789L13.6677 75.8435C13.065 75.4164 12.3825 75.2563 11.6202 75.3631C10.858 75.4698 10.1754 75.8256 9.5727 76.4305L6.43499 79.5796C5.86772 80.1488 5.52204 80.8159 5.39795 81.5811C5.27386 82.3459 5.42454 83.0664 5.85 83.7426L8.775 88.4926C8.63319 88.8129 8.4825 89.16 8.32294 89.5338C8.16342 89.9073 8.01273 90.2897 7.87089 90.681L2.65909 91.9621C1.84363 92.1756 1.19659 92.5759 0.717954 93.1628C0.239318 93.7502 0 94.4173 0 95.1643V99.7011C0 100.555 0.239318 101.276 0.717954 101.863C1.19659 102.45 1.84363 102.85 2.65909 103.063L7.92409 104.345C8.0659 104.701 8.21659 105.048 8.37615 105.386C8.53567 105.723 8.68634 106.088 8.82815 106.479L6.11592 111.123C5.69046 111.87 5.50432 112.617 5.55751 113.365C5.61069 114.112 5.92092 114.77 6.48819 115.339L9.5727 118.542C10.1754 119.183 10.8491 119.521 11.5936 119.556C12.3382 119.592 13.065 119.396 13.7741 118.969L18.4009 116.14C18.8618 116.389 19.2784 116.585 19.6507 116.727C20.0229 116.869 20.3863 116.994 20.7409 117.101L21.964 122.331C22.1059 123.15 22.487 123.799 23.1074 124.28C23.7279 124.76 24.4459 125 25.2613 125ZM27.6013 106.32C25.0841 106.32 22.9745 105.457 21.2727 103.731C19.5709 102.005 18.72 99.9148 18.72 97.4597C18.72 95.0043 19.5709 92.9049 21.2727 91.1614C22.9745 89.4179 25.0841 88.5283 27.6013 88.4926C29.9768 88.4573 32.042 89.3292 33.797 91.1084C35.552 92.8872 36.4295 95.0043 36.4295 97.4597C36.4295 99.9148 35.552 102.005 33.797 103.731C32.042 105.457 29.9768 106.32 27.6013 106.32Z" fill="white" fill-opacity="0.26" style="fill:white;fill:white;fill-opacity:0.26;"/>
</svg>
