<svg width="13" height="13" viewBox="0 0 13 13" fill="none" xmlns="http://www.w3.org/2000/svg">
<path d="M4.49164 2.13784C5.2869 0.712613 5.68468 0 6.27916 0C6.87364 0 7.27143 0.712613 8.06668 2.13784L8.27248 2.50656C8.49853 2.91156 8.61156 3.11406 8.78769 3.24768C8.96398 3.38129 9.18343 3.43089 9.62219 3.53009L10.0219 3.62039C11.5664 3.96946 12.3386 4.14401 12.5222 4.73417C12.706 5.32435 12.1795 5.9393 11.1267 7.16921L10.8542 7.4874C10.555 7.83689 10.4054 8.01166 10.3382 8.22785C10.2708 8.44404 10.2934 8.67719 10.3386 9.14349L10.3798 9.56804C10.5389 11.209 10.6187 12.0295 10.1376 12.3942C9.65657 12.759 8.93352 12.4264 7.48743 11.7613L7.11335 11.5893C6.70238 11.4003 6.49689 11.3057 6.27916 11.3057C6.06143 11.3057 5.85595 11.4003 5.44498 11.5893L5.07089 11.7613C3.6248 12.4264 2.90171 12.759 2.42071 12.3942C1.93971 12.0295 2.0193 11.209 2.17849 9.56804L2.21967 9.14349C2.26491 8.67718 2.28753 8.44404 2.22023 8.22785C2.15292 8.01166 2.00332 7.83689 1.70412 7.4874L1.43171 7.16921C0.378788 5.9393 -0.147672 5.32435 0.0360564 4.73417C0.219785 4.14401 0.992012 3.96946 2.53648 3.62039L2.93606 3.53009C3.37489 3.43089 3.59435 3.38129 3.77064 3.24768C3.94677 3.11406 4.05979 2.91156 4.28584 2.50656L4.49164 2.13784Z" fill="white" fill-opacity="0.7" style="fill:white;fill:white;fill-opacity:0.7;"/>
</svg>
