<svg width="96" height="88" viewBox="0 0 96 88" fill="none" xmlns="http://www.w3.org/2000/svg">
<g opacity="0.17" clip-path="url(#clip0_17_6288)">
<path d="M12.446 80.5445H53.7077C53.1265 79.5664 52.6178 78.5418 52.1816 77.4708C51.7457 76.4001 51.3957 75.2963 51.1316 74.1595H11.8514C10.1074 74.1595 8.75972 73.6902 7.80844 72.7516C6.85717 71.8132 6.38153 70.4318 6.38153 68.6074V31.2105C6.38153 29.3862 6.85717 28.0048 7.80844 27.0663C8.75972 26.1277 10.1074 25.6584 11.8514 25.6584H67.105C68.8754 25.6584 70.2364 26.1277 71.1877 27.0663C72.1388 28.0048 72.6144 29.3862 72.6144 31.2105V42.4733C73.1959 42.4205 73.7509 42.3742 74.2793 42.3344C74.8078 42.2949 75.3362 42.2751 75.8647 42.2751C76.3931 42.2751 76.9216 42.2882 77.4501 42.3145C77.9785 42.341 78.4938 42.3939 78.996 42.4733V19.8287C78.996 15.7308 77.9655 12.6573 75.9045 10.6083C73.8434 8.55939 70.7384 7.53491 66.5895 7.53491H12.446C8.29729 7.53491 5.1858 8.55939 3.11149 10.6083C1.03716 12.6573 0 15.7308 0 19.8287V68.2504C0 72.3485 1.03716 75.4219 3.11149 77.4708C5.1858 79.5199 8.29729 80.5445 12.446 80.5445ZM18.7086 40.411H60.3666C61.0538 40.411 61.6287 40.1665 62.0911 39.6774C62.5536 39.1882 62.7848 38.6 62.7848 37.9126C62.7848 37.2516 62.5536 36.6898 62.0911 36.2271C61.6287 35.7645 61.0538 35.5331 60.3666 35.5331H18.7086C17.9951 35.5331 17.4005 35.7645 16.9249 36.2271C16.4492 36.6898 16.2114 37.2516 16.2114 37.9126C16.2114 38.6 16.4492 39.1882 16.9249 39.6774C17.4005 40.1665 17.9951 40.411 18.7086 40.411ZM18.7086 52.3478H55.5707C56.2577 51.4225 56.991 50.5501 57.7705 49.7306C58.5501 48.9111 59.4023 48.1576 60.3272 47.4702H18.7086C17.9951 47.4702 17.4005 47.7081 16.9249 48.1837C16.4492 48.6597 16.2114 49.2546 16.2114 49.9685C16.2114 50.6294 16.4492 51.1911 16.9249 51.6538C17.4005 52.1165 17.9951 52.3478 18.7086 52.3478ZM18.7086 64.2849H45.146C45.8596 64.2849 46.4476 64.0536 46.91 63.5909C47.3724 63.1282 47.6037 62.5663 47.6037 61.9052C47.6037 61.2178 47.3724 60.6297 46.91 60.1408C46.4476 59.6516 45.8596 59.4069 45.146 59.4069H18.7086C17.9951 59.4069 17.4005 59.6516 16.9249 60.1408C16.4492 60.6297 16.2114 61.2178 16.2114 61.9052C16.2114 62.5663 16.4492 63.1282 16.9249 63.5909C17.4005 64.0536 17.9951 64.2849 18.7086 64.2849Z" fill="#84B5FF" style="fill:#84B5FF;fill:color(display-p3 0.5167 0.7100 1.0000);fill-opacity:1;"/>
<path d="M75.8638 88.0001C78.5857 88.0001 81.162 87.4713 83.593 86.4138C86.0239 85.3564 88.1709 83.9023 90.0339 82.0516C91.8969 80.2009 93.3569 78.0593 94.4138 75.6268C95.4707 73.1946 95.9991 70.6037 95.9991 67.8542C95.9991 65.0781 95.4773 62.474 94.4337 60.0417C93.39 57.6093 91.9433 55.4677 90.0936 53.6169C88.2438 51.7662 86.1034 50.3188 83.6721 49.2746C81.2412 48.2301 78.6384 47.7079 75.8638 47.7079C73.1157 47.7079 70.5261 48.2301 68.0949 49.2746C65.6639 50.3188 63.5236 51.7729 61.6738 53.6368C59.8241 55.5008 58.3708 57.6423 57.3139 60.0612C56.257 62.4805 55.7285 65.0781 55.7285 67.8542C55.7285 70.6302 56.257 73.2344 57.3139 75.6666C58.3708 78.0988 59.8241 80.2403 61.6738 82.091C63.5236 83.9417 65.6639 85.3893 68.0949 86.4338C70.5261 87.478 73.1157 88.0001 75.8638 88.0001Z" fill="#84B5FF" style="fill:#84B5FF;fill:color(display-p3 0.5167 0.7100 1.0000);fill-opacity:1;"/>
<path d="M75.8644 80.4654C75.1246 80.4654 74.5366 80.2405 74.1004 79.7908C73.6645 79.3414 73.4465 78.7599 73.4465 78.0463V70.2732H65.6776C64.9643 70.2732 64.3831 70.0552 63.9339 69.619C63.4845 69.1826 63.2598 68.5943 63.2598 67.8541C63.2598 67.1137 63.4845 66.5254 63.9339 66.0893C64.3831 65.6531 64.9643 65.435 65.6776 65.435H73.4465V57.662C73.4465 56.9481 73.6645 56.3664 74.1004 55.917C74.5366 55.4676 75.1246 55.2429 75.8644 55.2429C76.6042 55.2429 77.1921 55.4676 77.6283 55.917C78.0642 56.3664 78.2822 56.9481 78.2822 57.662V65.435H86.0512C86.7644 65.435 87.3458 65.6531 87.7952 66.0893C88.2444 66.5254 88.469 67.1137 88.469 67.8541C88.469 68.5943 88.2444 69.1826 87.7952 69.619C87.3458 70.0552 86.7644 70.2732 86.0512 70.2732H78.2822V78.0463C78.2822 78.7599 78.0642 79.3414 77.6283 79.7908C77.1921 80.2405 76.6042 80.4654 75.8644 80.4654Z" fill="#222E42" style="fill:#222E42;fill:color(display-p3 0.1333 0.1804 0.2588);fill-opacity:1;"/>
</g>
<defs>
<clipPath id="clip0_17_6288">
<rect width="96" height="88" fill="white" style="fill:white;fill:white;fill-opacity:1;"/>
</clipPath>
</defs>
</svg>
