<svg width="17" height="8" viewBox="0 0 17 8" fill="none" xmlns="http://www.w3.org/2000/svg">
<path d="M7.25739 1.11533C7.67228 0.371776 7.87981 0 8.18995 0C8.5001 0 8.70762 0.371776 9.12251 1.11533L9.22988 1.30769C9.34781 1.51898 9.40678 1.62463 9.49867 1.69434C9.59064 1.76405 9.70513 1.78992 9.93403 1.84168L10.1425 1.88879C10.9483 2.0709 11.3512 2.16196 11.447 2.46985C11.5429 2.77775 11.2682 3.09858 10.7189 3.74023L10.5768 3.90624C10.4207 4.08857 10.3426 4.17974 10.3076 4.29253C10.2724 4.40532 10.2842 4.52696 10.3078 4.77023L10.3293 4.99172C10.4123 5.84782 10.4539 6.27587 10.2029 6.46617C9.95197 6.65646 9.57475 6.48296 8.82031 6.13597L8.62515 6.04621C8.41075 5.9476 8.30354 5.8983 8.18995 5.8983C8.07636 5.8983 7.96916 5.9476 7.75475 6.04621L7.55959 6.13597C6.80515 6.48296 6.42791 6.65646 6.17697 6.46617C5.92602 6.27587 5.96755 5.84782 6.0506 4.99172L6.07208 4.77023C6.09568 4.52695 6.10748 4.40532 6.07237 4.29253C6.03726 4.17974 5.95921 4.08857 5.80311 3.90624L5.661 3.74023C5.11168 3.09858 4.83702 2.77775 4.93287 2.46985C5.02873 2.16196 5.4316 2.0709 6.23737 1.88879L6.44583 1.84168C6.67477 1.78992 6.78926 1.76405 6.88123 1.69434C6.97312 1.62463 7.03209 1.51898 7.15002 1.30769L7.25739 1.11533Z" fill="white" fill-opacity="0.7" style="fill:white;fill:white;fill-opacity:0.7;"/>
<path d="M14.2751 4.65532C14.4826 4.28354 14.5863 4.09766 14.7414 4.09766C14.8966 4.09766 15.0002 4.28355 15.2078 4.65532L15.2614 4.75151C15.3204 4.85715 15.3499 4.90998 15.3958 4.94483C15.4417 4.97968 15.499 4.99262 15.6135 5.01849L15.7177 5.04205C16.1206 5.13311 16.3221 5.17863 16.37 5.33259C16.4179 5.48653 16.2806 5.64694 16.0059 5.96777L15.9348 6.05077C15.8568 6.14194 15.8178 6.18753 15.8002 6.24392C15.7827 6.30032 15.7886 6.36113 15.8004 6.48277L15.8111 6.59353C15.8526 7.02155 15.8734 7.23556 15.748 7.3307C15.6225 7.42585 15.4339 7.33913 15.0567 7.16562L14.959 7.12078C14.8518 7.07145 14.7983 7.04683 14.7414 7.04683C14.6846 7.04683 14.631 7.07145 14.5238 7.12078L14.4262 7.16562C14.049 7.33913 13.8604 7.42585 13.7349 7.3307C13.6095 7.23556 13.6303 7.02155 13.6718 6.59353L13.6825 6.48277C13.6943 6.36113 13.7002 6.30032 13.6827 6.24392C13.6651 6.18753 13.6261 6.14194 13.548 6.05077L13.4769 5.96777C13.2023 5.64694 13.065 5.48653 13.1129 5.33259C13.1608 5.17863 13.3623 5.13311 13.7651 5.04205L13.8694 5.01849C13.9839 4.99262 14.0411 4.97968 14.0871 4.94483C14.133 4.90998 14.1625 4.85715 14.2215 4.75151L14.2751 4.65532Z" fill="white" fill-opacity="0.7" style="fill:white;fill:white;fill-opacity:0.7;"/>
<path d="M1.17165 4.65532C1.37912 4.28354 1.48286 4.09766 1.63795 4.09766C1.79304 4.09766 1.89678 4.28355 2.10425 4.65532L2.15792 4.75151C2.21688 4.85715 2.24636 4.90998 2.29232 4.94483C2.33828 4.97968 2.39552 4.99262 2.51001 5.01849L2.61424 5.04205C3.01712 5.13311 3.21857 5.17863 3.26649 5.33259C3.31442 5.48653 3.17709 5.64694 2.90243 5.96777L2.83137 6.05077C2.75332 6.14194 2.71429 6.18753 2.69674 6.24392C2.67918 6.30032 2.68508 6.36113 2.69688 6.48277L2.70763 6.59353C2.74915 7.02155 2.76992 7.23556 2.64444 7.3307C2.51897 7.42585 2.33037 7.33913 1.95315 7.16562L1.85555 7.12078C1.74835 7.07145 1.69476 7.04683 1.63795 7.04683C1.58114 7.04683 1.52754 7.07145 1.42035 7.12078L1.32275 7.16562C0.94554 7.33913 0.756931 7.42585 0.631456 7.3307C0.505981 7.23556 0.52675 7.02155 0.568272 6.59353L0.579017 6.48277C0.590818 6.36113 0.596715 6.30032 0.579156 6.24392C0.561606 6.18753 0.522582 6.14194 0.444525 6.05077L0.373471 5.96777C0.0988125 5.64694 -0.038521 5.48653 0.00940525 5.33259C0.0573315 5.17863 0.258774 5.13311 0.66166 5.04205L0.76589 5.01849C0.880374 4.99262 0.937621 4.97968 0.983581 4.94483C1.02954 4.90998 1.05903 4.85715 1.11797 4.75151L1.17165 4.65532Z" fill="white" fill-opacity="0.7" style="fill:white;fill:white;fill-opacity:0.7;"/>
</svg>
