<svg width="16" height="12" viewBox="0 0 16 12" fill="none" xmlns="http://www.w3.org/2000/svg">
<path d="M7.37196 11.5H14.7439C15.2057 11.5 15.5304 11.4317 15.7182 11.295C15.9061 11.1584 16 10.9555 16 10.6863C16 10.2947 15.8855 9.88076 15.6566 9.44436C15.4277 9.00796 15.099 8.59908 14.6706 8.21772C14.2421 7.83637 13.7236 7.52639 13.1152 7.28779C12.5067 7.04918 11.821 6.92988 11.0579 6.92988C10.2988 6.92988 9.61507 7.04918 9.00663 7.28779C8.39815 7.52639 7.8787 7.83637 7.44829 8.21772C7.01787 8.59908 6.68919 9.00796 6.46224 9.44436C6.23525 9.88076 6.12176 10.2947 6.12176 10.6863C6.12176 10.9555 6.2147 11.1584 6.40058 11.295C6.58645 11.4317 6.91025 11.5 7.37196 11.5ZM11.0638 5.8348C11.4825 5.8348 11.8699 5.7155 12.226 5.47691C12.5821 5.23831 12.8677 4.91508 13.0829 4.50722C13.2981 4.09936 13.4057 3.64052 13.4057 3.13069C13.4057 2.62903 13.2981 2.17936 13.0829 1.7817C12.8677 1.38404 12.5821 1.07101 12.226 0.842602C11.8699 0.614201 11.4825 0.5 11.0638 0.5C10.6451 0.5 10.2578 0.61624 9.90168 0.84872C9.54559 1.0812 9.25896 1.39729 9.04179 1.79699C8.82466 2.1967 8.71609 2.64534 8.71609 3.14293C8.71609 3.64868 8.8237 4.10446 9.03891 4.51028C9.25411 4.9161 9.53974 5.23831 9.89579 5.47691C10.2519 5.7155 10.6412 5.8348 11.0638 5.8348ZM1.03302 11.5H5.48789C5.33529 11.2675 5.2629 10.9881 5.27072 10.6618C5.27855 10.3355 5.35094 9.99292 5.48789 9.63399C5.62485 9.2751 5.81364 8.92741 6.05427 8.59091C6.29492 8.25441 6.57371 7.9577 6.89065 7.70076C6.56197 7.47235 6.18536 7.28372 5.76082 7.13487C5.33627 6.98597 4.85008 6.91153 4.30227 6.91153C3.64099 6.91153 3.04524 7.02471 2.51504 7.25108C1.98484 7.47744 1.53289 7.77518 1.15921 8.1443C0.785522 8.51342 0.498899 8.91618 0.29934 9.35258C0.0997799 9.78898 0 10.2193 0 10.6435C0 10.9168 0.079237 11.1278 0.237711 11.2767C0.396185 11.4256 0.661286 11.5 1.03302 11.5ZM4.30227 5.97552C4.67009 5.97552 5.00856 5.87151 5.31768 5.6635C5.6268 5.4555 5.87528 5.17305 6.0631 4.81617C6.2509 4.4593 6.3448 4.06061 6.3448 3.62012C6.3448 3.17964 6.2509 2.78707 6.0631 2.44243C5.87528 2.09779 5.62582 1.82656 5.31474 1.62875C5.00367 1.43094 4.66618 1.33203 4.30227 1.33203C3.94228 1.33203 3.60675 1.43298 3.29567 1.63487C2.98459 1.83676 2.73319 2.11105 2.54145 2.45773C2.34972 2.80441 2.25581 3.19595 2.25972 3.63236C2.25972 4.06877 2.35363 4.4644 2.54145 4.81924C2.72928 5.17407 2.97872 5.4555 3.2898 5.6635C3.60088 5.87151 3.93837 5.97552 4.30227 5.97552Z" fill="white" fill-opacity="0.7" style="fill:white;fill:white;fill-opacity:0.7;"/>
</svg>
