<svg width="14" height="12" viewBox="0 0 14 12" fill="none" xmlns="http://www.w3.org/2000/svg">
<path d="M2.93972 12H10.0902C10.7333 12 11.2222 11.836 11.5568 11.5079C11.8914 11.1798 12.0587 10.6964 12.0587 10.0576V3.81967H0.971215V10.0576C0.971215 10.7007 1.13852 11.1852 1.47312 11.5111C1.80772 11.837 2.29658 12 2.93972 12ZM4.3672 6.17275C4.22815 6.17275 4.11625 6.1293 4.03152 6.04239C3.94678 5.95547 3.90441 5.84032 3.90441 5.69692V5.49485C3.90441 5.35145 3.94678 5.23739 4.03152 5.15265C4.11625 5.06791 4.22815 5.02554 4.3672 5.02554H8.66924C8.80829 5.02554 8.92127 5.06791 9.00818 5.15265C9.09508 5.23739 9.13853 5.35145 9.13853 5.49485V5.69692C9.13853 5.84032 9.09508 5.95547 9.00818 6.04239C8.92127 6.1293 8.80829 6.17275 8.66924 6.17275H4.3672ZM1.1081 2.92668H11.9218C12.2912 2.92668 12.5682 2.82347 12.7529 2.61706C12.9376 2.41065 13.0299 2.12494 13.0299 1.75992V1.16676C13.0299 0.801741 12.9376 0.516025 12.7529 0.309615C12.5682 0.103205 12.2912 0 11.9218 0H1.1081C0.760459 0 0.488866 0.103205 0.29332 0.309615C0.0977732 0.516025 0 0.801741 0 1.16676V1.75992C0 2.12494 0.0923414 2.41065 0.277024 2.61706C0.461707 2.82347 0.738732 2.92668 1.1081 2.92668Z" fill="white" fill-opacity="0.7" style="fill:white;fill:white;fill-opacity:0.7;"/>
</svg>
