<svg width="22" height="22" viewBox="0 0 22 22" fill="none" xmlns="http://www.w3.org/2000/svg">
<path d="M3.74865 21.9785H18.2299C19.4794 21.9785 20.4166 21.6701 21.0413 21.0533C21.6661 20.4365 21.9785 19.5113 21.9785 18.2776V3.7009C21.9785 2.46726 21.6661 1.54204 21.0413 0.925223C20.4166 0.308408 19.4794 0 18.2299 0H3.74865C2.4991 0 1.56193 0.308408 0.937162 0.925223C0.312387 1.54204 0 2.46726 0 3.7009V18.2776C0 19.5113 0.312387 20.4365 0.937162 21.0533C1.56193 21.6701 2.4991 21.9785 3.74865 21.9785ZM5.229 6.69743L8.32104 3.7009C8.49613 3.5258 8.69113 3.43825 8.90602 3.43825C9.13683 3.43825 9.32585 3.51187 9.47309 3.65911C9.62033 3.80635 9.69395 3.99537 9.69395 4.22618C9.69395 4.45699 9.61437 4.64801 9.45519 4.79922L8.1539 6.06469L7.66443 6.50641L8.23747 6.49447H16.2004C16.4312 6.49447 16.6222 6.57008 16.7734 6.7213C16.9246 6.87251 17.0002 7.06353 17.0002 7.29434C17.0002 7.52515 16.9246 7.71815 16.7734 7.87335C16.6222 8.02855 16.4312 8.10615 16.2004 8.10615H8.22554L7.6525 8.07033L8.1539 8.54787L9.45519 9.8014C9.61437 9.96057 9.69395 10.1516 9.69395 10.3744C9.69395 10.6052 9.62033 10.7923 9.47309 10.9355C9.32585 11.0788 9.13683 11.1504 8.90602 11.1504C8.69909 11.1504 8.50409 11.0748 8.32104 10.9236L5.229 7.89126C5.06982 7.73208 4.99023 7.53311 4.99023 7.29434C4.99023 7.05557 5.06982 6.8566 5.229 6.69743ZM16.7376 15.2572L13.6575 18.2896C13.4665 18.4567 13.2715 18.5402 13.0726 18.5402C12.8497 18.5402 12.6626 18.4646 12.5114 18.3134C12.3602 18.1623 12.2845 17.9752 12.2845 17.7523C12.2845 17.5454 12.3681 17.3544 12.5353 17.1793L13.8246 15.9138L14.338 15.4721L13.741 15.484H5.77816C5.55531 15.484 5.36828 15.4084 5.21707 15.2572C5.06585 15.106 4.99023 14.9111 4.99023 14.6723C4.99023 14.4415 5.06585 14.2504 5.21707 14.0992C5.36828 13.948 5.55531 13.8724 5.77816 13.8724H13.753L14.338 13.9082L13.8246 13.4307L12.5114 12.1771C12.3602 12.018 12.2845 11.8269 12.2845 11.6041C12.2845 11.3812 12.3582 11.1962 12.5054 11.049C12.6527 10.9017 12.8418 10.8281 13.0726 10.8281C13.2954 10.8281 13.4904 10.9077 13.6575 11.0669L16.7376 14.0992C16.9047 14.2583 16.9903 14.4494 16.9943 14.6723C16.9982 14.8951 16.9126 15.0901 16.7376 15.2572Z" fill="white" fill-opacity="0.85" style="fill:white;fill:white;fill-opacity:0.85;"/>
</svg>
