<svg xmlns="http://www.w3.org/2000/svg" width="60" height="60" viewBox="0 0 60 60" fill="none">
    <g opacity="0.4">
     
        <g opacity="0.85">
            <path fill-rule="evenodd" clip-rule="evenodd"
                d="M21.0664 23H31.0015C31.0005 23.0499 31 23.0999 31 23.15C31 24.5402 31.3967 25.8378 32.0831 26.9355H18V26.0273C18 25.0182 18.2555 24.2614 18.7666 23.7568C19.2777 23.2523 20.0443 23 21.0664 23ZM18 29.1523H34.2632C35.3821 29.8784 36.7168 30.3 38.15 30.3C39.1434 30.3 40.0895 30.0974 40.9492 29.7313V36.6621C40.9492 37.6647 40.6937 38.4183 40.1826 38.9228C39.6715 39.4274 38.9049 39.6797 37.8828 39.6797H21.0664C20.0443 39.6797 19.2777 39.4274 18.7666 38.9228C18.2555 38.4183 18 37.6647 18 36.6621V29.1523ZM21.9941 36.6523C21.7077 36.6523 21.4766 36.5644 21.3008 36.3886C21.125 36.2129 21.0371 35.9883 21.0371 35.7148V33.9082C21.0371 33.6282 21.125 33.402 21.3008 33.2295C21.4766 33.057 21.7077 32.9707 21.9941 32.9707H24.3867C24.6732 32.9707 24.9043 33.057 25.0801 33.2295C25.2559 33.402 25.3438 33.6282 25.3438 33.9082V35.7148C25.3438 35.9883 25.2559 36.2129 25.0801 36.3886C24.9043 36.5644 24.6732 36.6523 24.3867 36.6523H21.9941Z"
                fill="white" style="fill:white;fill:white;fill-opacity:1;" />
            <path fill-rule="evenodd" clip-rule="evenodd"
                d="M35.3348 27H40.6652C41.0019 27 41.2375 26.9503 41.3719 26.8509C41.5063 26.7516 41.5735 26.604 41.5735 26.4082C41.5735 26.1234 41.4907 25.8224 41.3252 25.505C41.1597 25.1876 40.922 24.8902 40.6122 24.6129C40.3024 24.3355 39.9275 24.1101 39.4876 23.9366C39.0476 23.763 38.5517 23.6763 38 23.6763C37.4511 23.6763 36.9567 23.763 36.5167 23.9366C36.0768 24.1101 35.7012 24.3355 35.3899 24.6129C35.0787 24.8902 34.841 25.1876 34.6769 25.505C34.5128 25.8224 34.4308 26.1234 34.4308 26.4082C34.4308 26.604 34.498 26.7516 34.6324 26.8509C34.7667 26.9503 35.0009 27 35.3348 27ZM38.0043 22.8799C38.307 22.8799 38.5871 22.7931 38.8446 22.6196C39.102 22.446 39.3093 22.211 39.4663 21.9143C39.6233 21.6177 39.7019 21.284 39.7019 20.9132C39.7019 20.5484 39.6233 20.2214 39.4663 19.9321C39.3093 19.6429 39.102 19.4153 38.8446 19.2492C38.5871 19.0831 38.307 19 38.0043 19C37.7015 19 37.4214 19.0845 37.1639 19.2536C36.9065 19.4227 36.6992 19.6526 36.5422 19.9433C36.3851 20.234 36.3066 20.5602 36.3066 20.9221C36.3066 21.2899 36.3851 21.6214 36.5422 21.9166C36.6992 22.2117 36.9065 22.446 37.1639 22.6196C37.4214 22.7931 37.7015 22.8799 38.0043 22.8799Z"
                fill="white" style="fill:white;fill:white;fill-opacity:1;" />
        </g>
    </g>
</svg>