<svg width="11" height="11" viewBox="0 0 11 11" fill="none" xmlns="http://www.w3.org/2000/svg">
<path d="M8.6087 11H8.56087C8.08261 11 7.65217 10.7885 7.31739 10.45C6.98261 10.1115 6.83913 9.64615 6.88696 9.18077L7.36522 6.34615C7.41304 6.13462 7.31739 5.92308 7.12609 5.75385C6.55217 5.28846 6.21739 4.56923 6.21739 3.80769C6.21739 2.41154 7.26957 1.26923 8.6087 1.26923C9.94783 1.26923 11 2.41154 11 3.80769C11 4.56923 10.6652 5.28846 10.0913 5.79615C9.9 5.96538 9.80435 6.17692 9.85217 6.38846L10.3304 9.26538C10.4261 9.73077 10.2348 10.1538 9.9 10.4923C9.56522 10.8308 9.08696 11 8.6087 11Z" fill="white"/>
<path d="M5.97826 9.09615L6.4087 6.38846C5.6913 5.75385 5.26087 4.82308 5.26087 3.85C5.26087 2.24231 6.36087 0.888462 7.84348 0.55C7.60435 0.211539 7.17391 0 6.69565 0H1.91304C1.1 0 0.478261 0.55 0.478261 1.26923C0.478261 1.94615 1.05217 2.49615 1.81739 2.53846H3.34783C3.58696 2.53846 3.82609 2.75 3.82609 2.96154C3.82609 3.17308 3.58696 3.38462 3.34783 3.38462H1.19565C1.05217 3.46923 0.956522 3.55385 0.813043 3.63846C0.334783 3.85 0 4.27308 0 4.78077V5.07692H3.82609C4.11304 5.07692 4.30435 5.24615 4.30435 5.5V8.88462C4.30435 9.13846 4.11304 9.30769 3.82609 9.30769H0V9.73077C0 10.45 0.621739 11 1.43478 11H6.6C6.07391 10.45 5.83478 9.77308 5.97826 9.09615Z" fill="white"/>
</svg>
