<svg width="11" height="11" viewBox="0 0 11 11" fill="none" xmlns="http://www.w3.org/2000/svg">
<path d="M9.69805 7.92988C10.0697 7.64844 10.3125 7.20586 10.3125 6.70312C10.3125 5.84805 9.6207 5.15625 8.76562 5.15625H8.4627C8.75059 4.90488 8.9375 4.5375 8.9375 4.125C8.9375 3.3666 8.3209 2.75 7.5625 2.75H7.43574C7.51309 2.53301 7.5625 2.30527 7.5625 2.0625C7.5625 0.923828 6.63867 0 5.5 0C5.38828 0 5.28086 0.0150391 5.17559 0.0322266C5.37754 0.313672 5.5 0.657422 5.5 1.03125C5.5 1.98086 4.73086 2.75 3.78125 2.75H3.4375C2.6791 2.75 2.0625 3.3666 2.0625 4.125C2.0625 4.5375 2.24941 4.90488 2.5373 5.15625H2.23438C1.3793 5.15625 0.6875 5.84805 0.6875 6.70312C0.6875 7.20586 0.930274 7.64844 1.30195 7.92988C0.565039 8.04805 0 8.68184 0 9.45312C0 10.3082 0.691797 11 1.54688 11H9.45312C10.3082 11 11 10.3082 11 9.45312C11 8.68184 10.435 8.04805 9.69805 7.92988ZM4.125 5.5C4.50527 5.5 4.8125 5.80723 4.8125 6.1875C4.8125 6.56777 4.50527 6.875 4.125 6.875C3.74473 6.875 3.4375 6.56777 3.4375 6.1875C3.4375 5.80723 3.74473 5.5 4.125 5.5ZM7.55176 8.48633C7.32617 9.08574 6.29492 9.625 5.5 9.625C4.70508 9.625 3.67383 9.08574 3.44824 8.48633C3.40527 8.37246 3.49121 8.25 3.61582 8.25H7.38418C7.50879 8.25 7.59473 8.37246 7.55176 8.48633ZM6.875 6.875C6.49473 6.875 6.1875 6.56777 6.1875 6.1875C6.1875 5.80723 6.49473 5.5 6.875 5.5C7.25527 5.5 7.5625 5.80723 7.5625 6.1875C7.5625 6.56777 7.25527 6.875 6.875 6.875Z" fill="white"/>
<path d="M4.125 5.5C4.50527 5.5 4.8125 5.80723 4.8125 6.1875C4.8125 6.56777 4.50527 6.875 4.125 6.875C3.74473 6.875 3.4375 6.56777 3.4375 6.1875C3.4375 5.80723 3.74473 5.5 4.125 5.5Z" fill="white"/>
<path d="M6.875 6.875C6.49473 6.875 6.1875 6.56777 6.1875 6.1875C6.1875 5.80723 6.49473 5.5 6.875 5.5C7.25527 5.5 7.5625 5.80723 7.5625 6.1875C7.5625 6.56777 7.25527 6.875 6.875 6.875Z" fill="white"/>
<path d="M7.55176 8.48633C7.32617 9.08574 6.29492 9.625 5.5 9.625C4.70508 9.625 3.67383 9.08574 3.44824 8.48633C3.40527 8.37246 3.49121 8.25 3.61582 8.25H7.38418C7.50879 8.25 7.59473 8.37246 7.55176 8.48633Z" fill="white"/>
</svg>
