<svg width="6" height="12" viewBox="0 0 6 12" fill="none" xmlns="http://www.w3.org/2000/svg">
<path d="M3.77229 7.7758C3.44893 7.7758 3.15263 7.7057 2.8661 7.63773C2.57942 7.57004 2.28313 7.4998 1.96243 7.4998C1.70731 7.4998 1.46278 7.54393 1.21514 7.63463L1.11803 7.67V10.4423C1.11803 10.529 1.14278 10.609 1.19188 10.6804C1.23922 10.7485 1.30724 10.8035 1.38378 10.8351C1.4379 10.8574 1.49336 10.8684 1.55325 10.8684H4.44623C4.53504 10.8682 4.61688 10.8439 4.6896 10.796C4.75947 10.7501 4.81558 10.6834 4.84812 10.6081C4.87068 10.556 4.88198 10.5004 4.88198 10.4428V7.50758L4.67531 7.59114C4.3672 7.71528 4.07172 7.7758 3.77229 7.7758Z" fill="white"/>
<path d="M5.99996 4.70704C6.00063 4.59248 5.9948 4.19821 5.89306 3.93925C5.76591 3.61635 5.42977 3.1158 5.05644 2.82407C4.93425 2.72833 4.79482 2.63212 4.64726 2.53021C4.47212 2.40935 4.16818 2.19937 4.0417 2.06812C4.0452 2.06261 4.04885 2.05708 4.05232 2.05204C4.14943 1.90521 4.31226 1.65972 4.31226 1.28294C4.31226 0.575694 3.72364 0 3.00006 0C2.27632 0 1.68772 0.575694 1.68772 1.28297C1.68772 1.65956 1.85055 1.90523 1.94766 2.05207C1.95114 2.05711 1.95481 2.06261 1.95845 2.06814C1.8318 2.19923 1.52786 2.40937 1.35273 2.53024C1.20531 2.63214 1.06571 2.72835 0.943379 2.8241C0.570215 3.11599 0.233928 3.61654 0.106919 3.93927C0.00534919 4.19823 -0.000477565 4.5925 2.59663e-05 4.70706L0.00170458 4.97901H2.59663e-05V10.5037C2.59663e-05 10.7058 0.0406922 10.9017 0.121377 11.0863C0.238052 11.3535 0.431264 11.5814 0.679937 11.7444C0.934579 11.9115 1.23255 12 1.54145 12H4.458C4.66598 12 4.86802 11.9604 5.05792 11.8822C5.33381 11.7689 5.56853 11.5817 5.73635 11.3403C5.90899 11.093 6.0001 10.8037 5.99996 10.5037V4.97898H5.99828L5.99996 4.70704ZM0.595775 4.12277C0.696697 3.86608 0.983038 3.44842 1.27039 3.22354C1.67923 2.90404 2.42522 2.48983 2.50257 2.16255C2.57777 1.84357 2.21125 1.73013 2.21125 1.28297C2.21125 0.856873 2.56434 0.51178 3.00006 0.51178C3.43564 0.51178 3.78888 0.856897 3.78888 1.28297C3.78888 1.73015 3.42219 1.84357 3.49738 2.16255C3.57474 2.48983 4.32073 2.90406 4.72957 3.22354C5.01692 3.44842 5.30326 3.86608 5.40418 4.12277C5.47873 4.31195 5.4764 4.7043 5.4764 4.7043H0.523578C0.523578 4.7043 0.521253 4.31195 0.595775 4.12277ZM5.48535 10.5036C5.48535 10.6385 5.4583 10.7689 5.40469 10.8916C5.32717 11.0701 5.19819 11.2219 5.03203 11.3308C4.86205 11.442 4.66335 11.5007 4.45767 11.5009H1.54229C1.40351 11.5009 1.2689 11.4744 1.14256 11.4225C0.958653 11.3472 0.802103 11.2223 0.689888 11.061C0.575179 10.8961 0.514754 10.7034 0.514611 10.5037V5.21605H5.48537L5.48535 10.5036Z" fill="white"/>
</svg>
