<svg width="16" height="14" viewBox="0 0 16 14" fill="none" xmlns="http://www.w3.org/2000/svg">
<path d="M7.77539 0.500005L3.27539 4.76837e-06V1L7.77539 0.500005Z" fill="#438EFF"/>
<path d="M7.77539 0.500005L3.27539 4.76837e-06V1L7.77539 0.500005Z" fill="url(#paint0_radial_82_357)"/>
<path d="M7.77539 0.500005L12.2754 1V4.76837e-06L7.77539 0.500005Z" fill="#438EFF"/>
<path d="M7.77539 0.500005L12.2754 1V4.76837e-06L7.77539 0.500005Z" fill="url(#paint1_radial_82_357)"/>
<path fill-rule="evenodd" clip-rule="evenodd" d="M9.4636 11.2996C8.85402 11.3126 8.27492 11.3192 7.72629 11.3192C7.17771 11.3192 6.59862 11.3126 5.98904 11.2996C5.37946 11.2865 4.78078 11.268 4.19298 11.2441C3.60518 11.2201 3.06636 11.1929 2.57653 11.1624C2.55125 11.1608 2.52621 11.1593 2.50142 11.1577V12.2531C2.50142 12.4969 2.4176 12.7016 2.24997 12.867C2.08234 13.0325 1.87661 13.1152 1.63278 13.1152H0.86864C0.620457 13.1152 0.413638 13.0325 0.248183 12.867C0.0827275 12.7016 0 12.4969 0 12.2531V8.49121C0 8.12111 0.0272129 7.79781 0.0816388 7.52133C0.136065 7.24484 0.223147 6.98577 0.342883 6.74412C0.462621 6.50247 0.624809 6.25103 0.829449 5.98978L1.37807 5.27788C1.45644 4.88602 1.55223 4.49851 1.66543 4.11535C1.77864 3.73219 1.88967 3.38822 1.99852 3.08343C2.10737 2.77864 2.20098 2.5457 2.27936 2.3846C2.45352 2.0145 2.70388 1.71951 3.03044 1.49963C3.35699 1.27975 3.73797 1.14369 4.17338 1.09144C4.31707 1.07402 4.56199 1.05878 4.90814 1.04572C5.25428 1.03266 5.6701 1.02178 6.15558 1.01307C6.64107 1.00436 7.16464 1 7.72629 1C8.28798 1 8.81157 1.00327 9.29707 1.0098C9.78252 1.01633 10.1983 1.02613 10.5445 1.03919C10.8907 1.05225 11.1377 1.06967 11.2858 1.09144C11.7168 1.14804 12.0967 1.2852 12.4254 1.5029C12.7542 1.7206 13.0056 2.0145 13.1798 2.3846C13.2538 2.5457 13.3463 2.77864 13.4574 3.08343C13.5684 3.38822 13.6794 3.73219 13.7904 4.11535C13.9015 4.49851 13.9962 4.88602 14.0745 5.27788L14.6297 5.98978C14.83 6.25103 14.9911 6.50247 15.113 6.74412C15.2349 6.98577 15.322 7.24484 15.3743 7.52133C15.4265 7.79781 15.4526 8.12111 15.4526 8.49121V12.2531C15.4526 12.4969 15.3699 12.7016 15.2045 12.867C15.039 13.0325 14.8344 13.1152 14.5905 13.1152H13.8199C13.576 13.1152 13.3714 13.0325 13.2059 12.867C13.0405 12.7016 12.9577 12.4969 12.9577 12.2531V11.1573C12.9308 11.159 12.9036 11.1607 12.8761 11.1624C12.3863 11.1929 11.8474 11.2201 11.2596 11.2441C10.6718 11.268 10.0732 11.2865 9.4636 11.2996ZM2.89328 3.97819C2.81055 4.24379 2.74524 4.49415 2.69735 4.72927C2.66687 4.85119 2.67667 4.93718 2.72674 4.98725C2.77681 5.03732 2.86498 5.05801 2.99125 5.0493C3.35264 5.02753 3.74886 5.00576 4.17991 4.98399C4.61097 4.96221 5.11278 4.9448 5.68534 4.93174C6.2579 4.91868 6.93822 4.91214 7.72629 4.91214C8.51439 4.91214 9.19472 4.91868 9.76729 4.93174C10.3399 4.9448 10.8428 4.96221 11.276 4.98399C11.7092 5.00576 12.1065 5.02753 12.4679 5.0493C12.5942 5.05801 12.6824 5.03732 12.7324 4.98725C12.7825 4.93718 12.7923 4.85119 12.7618 4.72927C12.7052 4.49415 12.6366 4.2427 12.5561 3.97493C12.4755 3.70715 12.3928 3.45897 12.3079 3.23038C12.223 3.00179 12.1435 2.82654 12.0695 2.70463C11.9781 2.55223 11.8801 2.43903 11.7756 2.36501C11.6711 2.29099 11.5296 2.24092 11.3511 2.2148C11.1073 2.17561 10.6947 2.14731 10.1135 2.12989C9.53219 2.11247 8.73647 2.10376 7.72629 2.10376C6.71616 2.10376 5.92155 2.11356 5.34245 2.13316C4.76336 2.15275 4.34972 2.17996 4.10154 2.2148C3.92738 2.24092 3.78587 2.29099 3.67702 2.36501C3.56817 2.43903 3.4702 2.55223 3.38312 2.70463C3.31345 2.83089 3.23508 3.00832 3.148 3.23691C3.06092 3.4655 2.97601 3.71259 2.89328 3.97819ZM2.2663 9.25209C2.46658 9.45456 2.71694 9.55579 3.01738 9.55579C3.31781 9.55579 3.56817 9.45456 3.76846 9.25209C3.96874 9.04963 4.06888 8.80035 4.06888 8.50426C4.06888 8.20384 3.96874 7.95349 3.76846 7.75321C3.56817 7.5529 3.31781 7.45275 3.01738 7.45275C2.71694 7.45275 2.46658 7.5529 2.2663 7.75321C2.06601 7.95349 1.96586 8.20384 1.96586 8.50426C1.96586 8.80035 2.06601 9.04963 2.2663 9.25209ZM5.45349 9.0855C5.59282 9.22483 5.77569 9.29449 6.0021 9.29449H9.45704C9.67912 9.29449 9.85983 9.22483 9.99916 9.0855C10.1385 8.94617 10.2082 8.7633 10.2082 8.53689C10.2082 8.31486 10.1385 8.13417 9.99916 7.99484C9.85983 7.85551 9.67912 7.78585 9.45704 7.78585H6.0021C5.77569 7.78585 5.59282 7.85551 5.45349 7.99484C5.31415 8.13417 5.24449 8.31486 5.24449 8.53689C5.24449 8.7633 5.31415 8.94617 5.45349 9.0855ZM11.6907 9.25209C11.891 9.45456 12.1392 9.55579 12.4353 9.55579C12.7357 9.55579 12.986 9.45456 13.1863 9.25209C13.3866 9.04963 13.4867 8.80035 13.4867 8.50426C13.4867 8.20384 13.3866 7.95349 13.1863 7.75321C12.986 7.5529 12.7357 7.45275 12.4353 7.45275C12.1392 7.45275 11.891 7.5529 11.6907 7.75321C11.4904 7.95349 11.3902 8.20384 11.3902 8.50426C11.3902 8.80035 11.4904 9.04963 11.6907 9.25209Z" fill="#438EFF"/>
<path fill-rule="evenodd" clip-rule="evenodd" d="M9.4636 11.2996C8.85402 11.3126 8.27492 11.3192 7.72629 11.3192C7.17771 11.3192 6.59862 11.3126 5.98904 11.2996C5.37946 11.2865 4.78078 11.268 4.19298 11.2441C3.60518 11.2201 3.06636 11.1929 2.57653 11.1624C2.55125 11.1608 2.52621 11.1593 2.50142 11.1577V12.2531C2.50142 12.4969 2.4176 12.7016 2.24997 12.867C2.08234 13.0325 1.87661 13.1152 1.63278 13.1152H0.86864C0.620457 13.1152 0.413638 13.0325 0.248183 12.867C0.0827275 12.7016 0 12.4969 0 12.2531V8.49121C0 8.12111 0.0272129 7.79781 0.0816388 7.52133C0.136065 7.24484 0.223147 6.98577 0.342883 6.74412C0.462621 6.50247 0.624809 6.25103 0.829449 5.98978L1.37807 5.27788C1.45644 4.88602 1.55223 4.49851 1.66543 4.11535C1.77864 3.73219 1.88967 3.38822 1.99852 3.08343C2.10737 2.77864 2.20098 2.5457 2.27936 2.3846C2.45352 2.0145 2.70388 1.71951 3.03044 1.49963C3.35699 1.27975 3.73797 1.14369 4.17338 1.09144C4.31707 1.07402 4.56199 1.05878 4.90814 1.04572C5.25428 1.03266 5.6701 1.02178 6.15558 1.01307C6.64107 1.00436 7.16464 1 7.72629 1C8.28798 1 8.81157 1.00327 9.29707 1.0098C9.78252 1.01633 10.1983 1.02613 10.5445 1.03919C10.8907 1.05225 11.1377 1.06967 11.2858 1.09144C11.7168 1.14804 12.0967 1.2852 12.4254 1.5029C12.7542 1.7206 13.0056 2.0145 13.1798 2.3846C13.2538 2.5457 13.3463 2.77864 13.4574 3.08343C13.5684 3.38822 13.6794 3.73219 13.7904 4.11535C13.9015 4.49851 13.9962 4.88602 14.0745 5.27788L14.6297 5.98978C14.83 6.25103 14.9911 6.50247 15.113 6.74412C15.2349 6.98577 15.322 7.24484 15.3743 7.52133C15.4265 7.79781 15.4526 8.12111 15.4526 8.49121V12.2531C15.4526 12.4969 15.3699 12.7016 15.2045 12.867C15.039 13.0325 14.8344 13.1152 14.5905 13.1152H13.8199C13.576 13.1152 13.3714 13.0325 13.2059 12.867C13.0405 12.7016 12.9577 12.4969 12.9577 12.2531V11.1573C12.9308 11.159 12.9036 11.1607 12.8761 11.1624C12.3863 11.1929 11.8474 11.2201 11.2596 11.2441C10.6718 11.268 10.0732 11.2865 9.4636 11.2996ZM2.89328 3.97819C2.81055 4.24379 2.74524 4.49415 2.69735 4.72927C2.66687 4.85119 2.67667 4.93718 2.72674 4.98725C2.77681 5.03732 2.86498 5.05801 2.99125 5.0493C3.35264 5.02753 3.74886 5.00576 4.17991 4.98399C4.61097 4.96221 5.11278 4.9448 5.68534 4.93174C6.2579 4.91868 6.93822 4.91214 7.72629 4.91214C8.51439 4.91214 9.19472 4.91868 9.76729 4.93174C10.3399 4.9448 10.8428 4.96221 11.276 4.98399C11.7092 5.00576 12.1065 5.02753 12.4679 5.0493C12.5942 5.05801 12.6824 5.03732 12.7324 4.98725C12.7825 4.93718 12.7923 4.85119 12.7618 4.72927C12.7052 4.49415 12.6366 4.2427 12.5561 3.97493C12.4755 3.70715 12.3928 3.45897 12.3079 3.23038C12.223 3.00179 12.1435 2.82654 12.0695 2.70463C11.9781 2.55223 11.8801 2.43903 11.7756 2.36501C11.6711 2.29099 11.5296 2.24092 11.3511 2.2148C11.1073 2.17561 10.6947 2.14731 10.1135 2.12989C9.53219 2.11247 8.73647 2.10376 7.72629 2.10376C6.71616 2.10376 5.92155 2.11356 5.34245 2.13316C4.76336 2.15275 4.34972 2.17996 4.10154 2.2148C3.92738 2.24092 3.78587 2.29099 3.67702 2.36501C3.56817 2.43903 3.4702 2.55223 3.38312 2.70463C3.31345 2.83089 3.23508 3.00832 3.148 3.23691C3.06092 3.4655 2.97601 3.71259 2.89328 3.97819ZM2.2663 9.25209C2.46658 9.45456 2.71694 9.55579 3.01738 9.55579C3.31781 9.55579 3.56817 9.45456 3.76846 9.25209C3.96874 9.04963 4.06888 8.80035 4.06888 8.50426C4.06888 8.20384 3.96874 7.95349 3.76846 7.75321C3.56817 7.5529 3.31781 7.45275 3.01738 7.45275C2.71694 7.45275 2.46658 7.5529 2.2663 7.75321C2.06601 7.95349 1.96586 8.20384 1.96586 8.50426C1.96586 8.80035 2.06601 9.04963 2.2663 9.25209ZM5.45349 9.0855C5.59282 9.22483 5.77569 9.29449 6.0021 9.29449H9.45704C9.67912 9.29449 9.85983 9.22483 9.99916 9.0855C10.1385 8.94617 10.2082 8.7633 10.2082 8.53689C10.2082 8.31486 10.1385 8.13417 9.99916 7.99484C9.85983 7.85551 9.67912 7.78585 9.45704 7.78585H6.0021C5.77569 7.78585 5.59282 7.85551 5.45349 7.99484C5.31415 8.13417 5.24449 8.31486 5.24449 8.53689C5.24449 8.7633 5.31415 8.94617 5.45349 9.0855ZM11.6907 9.25209C11.891 9.45456 12.1392 9.55579 12.4353 9.55579C12.7357 9.55579 12.986 9.45456 13.1863 9.25209C13.3866 9.04963 13.4867 8.80035 13.4867 8.50426C13.4867 8.20384 13.3866 7.95349 13.1863 7.75321C12.986 7.5529 12.7357 7.45275 12.4353 7.45275C12.1392 7.45275 11.891 7.5529 11.6907 7.75321C11.4904 7.95349 11.3902 8.20384 11.3902 8.50426C11.3902 8.80035 11.4904 9.04963 11.6907 9.25209Z" fill="url(#paint2_radial_82_357)"/>
<defs>
<radialGradient id="paint0_radial_82_357" cx="0" cy="0" r="1" gradientUnits="userSpaceOnUse" gradientTransform="translate(5.84899 3.09593) rotate(49.9851) scale(14.7893 14.7815)">
<stop stop-color="white"/>
<stop offset="1" stop-color="white" stop-opacity="0"/>
</radialGradient>
<radialGradient id="paint1_radial_82_357" cx="0" cy="0" r="1" gradientUnits="userSpaceOnUse" gradientTransform="translate(5.84899 3.09593) rotate(49.9851) scale(14.7893 14.7815)">
<stop stop-color="white"/>
<stop offset="1" stop-color="white" stop-opacity="0"/>
</radialGradient>
<radialGradient id="paint2_radial_82_357" cx="0" cy="0" r="1" gradientUnits="userSpaceOnUse" gradientTransform="translate(5.84899 3.09593) rotate(49.9851) scale(14.7893 14.7815)">
<stop stop-color="white"/>
<stop offset="1" stop-color="white" stop-opacity="0"/>
</radialGradient>
</defs>
</svg>
