<svg width="15" height="15" viewBox="0 0 15 15" fill="none" xmlns="http://www.w3.org/2000/svg">
<path d="M0 6.0669C0 6.90319 0.157121 7.68752 0.471363 8.41989C0.785606 9.15231 1.22149 9.79728 1.77902 10.3548C2.33654 10.9123 2.9815 11.3482 3.71388 11.6625C4.44627 11.9767 5.23061 12.1338 6.0669 12.1338C6.72579 12.1338 7.35426 12.0324 7.95231 11.8297C8.55042 11.627 9.09781 11.3482 9.5945 10.9934L13.335 14.7415C13.4262 14.8277 13.5263 14.8923 13.6353 14.9354C13.7443 14.9785 13.8596 15 13.9812 15C14.1536 15 14.3056 14.9607 14.4374 14.8821C14.5691 14.8036 14.6718 14.6959 14.7453 14.5591C14.8188 14.4222 14.8555 14.2701 14.8555 14.1028C14.8555 13.9812 14.834 13.8672 14.7909 13.7608C14.7478 13.6543 14.6857 13.5606 14.6047 13.4795L10.887 9.73899C11.2772 9.23213 11.5826 8.66699 11.8031 8.04356C12.0235 7.42016 12.1338 6.76127 12.1338 6.0669C12.1338 5.23061 11.9767 4.44627 11.6625 3.71389C11.3482 2.9815 10.9123 2.33654 10.3548 1.77902C9.79728 1.22149 9.15231 0.785606 8.41989 0.471363C7.68752 0.157121 6.90319 0 6.0669 0C5.23061 0 4.44627 0.157121 3.71388 0.471363C2.9815 0.785606 2.33654 1.22149 1.77902 1.77902C1.22149 2.33654 0.785606 2.9815 0.471363 3.71389C0.157121 4.44627 0 5.23061 0 6.0669ZM1.30005 6.0669C1.30005 5.408 1.42296 4.79092 1.66877 4.21566C1.91459 3.64039 2.25671 3.13355 2.69513 2.69513C3.13355 2.25671 3.64039 1.91459 4.21566 1.66877C4.79092 1.42296 5.408 1.30005 6.0669 1.30005C6.72579 1.30005 7.34287 1.42296 7.91814 1.66877C8.4934 1.91459 8.99897 2.25671 9.43483 2.69513C9.87074 3.13355 10.2129 3.64039 10.4612 4.21566C10.7096 4.79092 10.8337 5.408 10.8337 6.0669C10.8337 6.72579 10.7096 7.34287 10.4612 7.91814C10.2129 8.4934 9.87074 8.99897 9.43483 9.43483C8.99897 9.87074 8.4934 10.2129 7.91814 10.4612C7.34287 10.7096 6.72579 10.8337 6.0669 10.8337C5.408 10.8337 4.79092 10.7096 4.21566 10.4612C3.64039 10.2129 3.13355 9.87074 2.69513 9.43483C2.25671 8.99897 1.91459 8.4934 1.66877 7.91814C1.42296 7.34287 1.30005 6.72579 1.30005 6.0669Z" fill="url(#paint0_linear_69_9837)" fill-opacity="0.85"/>
<defs>
<linearGradient id="paint0_linear_69_9837" x1="7.78509" y1="5.83882" x2="18.295" y2="16.3487" gradientUnits="userSpaceOnUse">
<stop stop-color="#C3CDFF"/>
<stop offset="1" stop-color="#B2BEFF" stop-opacity="0.24"/>
</linearGradient>
</defs>
</svg>
