<svg viewBox="0 0 56 56" fill="none" xmlns="http://www.w3.org/2000/svg">
<g filter="url(#filter0_d_57_12243)">
<path d="M38.2189 23.4576C38.83 20.271 36.0324 17.4734 32.8458 18.0845L23.6967 19.8391C21.7079 20.2206 20.1173 21.726 19.612 23.6822C18.6031 27.5878 22.2252 31.1572 26.1142 30.0135C26.2216 29.9819 26.3214 30.0817 26.2898 30.1891C25.1462 34.0782 28.7156 37.7003 32.6212 36.6914C34.5774 36.186 36.0828 34.5955 36.4642 32.6066L38.2189 23.4576Z" fill="#A9B6FF"/>
<path d="M20.6945 32.4269C20.9874 32.134 20.9874 31.6591 20.6945 31.3662C20.4017 31.0733 19.9268 31.0733 19.6339 31.3662L18.2197 32.7804C17.9268 33.0733 17.9268 33.5482 18.2197 33.8411C18.5126 34.134 18.9874 34.134 19.2803 33.8411L20.6945 32.4269Z" fill="#A9B6FF"/>
<path d="M24.2301 32.0733C24.523 32.3662 24.523 32.8411 24.2301 33.134L22.8159 34.5482C22.523 34.8411 22.0481 34.8411 21.7552 34.5482C21.4623 34.2553 21.4623 33.7804 21.7552 33.4875L23.1694 32.0733C23.4623 31.7804 23.9372 31.7804 24.2301 32.0733Z" fill="#A9B6FF"/>
<path d="M24.9372 36.6695C25.2301 36.3766 25.2301 35.9017 24.9372 35.6088C24.6443 35.316 24.1694 35.316 23.8765 35.6088L22.4623 37.0231C22.1694 37.316 22.1694 37.7908 22.4623 38.0837C22.7552 38.3766 23.2301 38.3766 23.523 38.0837L24.9372 36.6695Z" fill="#A9B6FF"/>
</g>
<defs>
<filter id="filter0_d_57_12243" x="0.6" y="0.6" width="55.1033" height="55.1034" filterUnits="userSpaceOnUse" color-interpolation-filters="sRGB">
<feFlood flood-opacity="0" result="BackgroundImageFix"/>
<feColorMatrix in="SourceAlpha" type="matrix" values="0 0 0 0 0 0 0 0 0 0 0 0 0 0 0 0 0 0 127 0" result="hardAlpha"/>
<feOffset/>
<feGaussianBlur stdDeviation="8.7"/>
<feComposite in2="hardAlpha" operator="out"/>
<feColorMatrix type="matrix" values="0 0 0 0 0.662745 0 0 0 0 0.713726 0 0 0 0 1 0 0 0 0.5 0"/>
<feBlend mode="normal" in2="BackgroundImageFix" result="effect1_dropShadow_57_12243"/>
<feBlend mode="normal" in="SourceGraphic" in2="effect1_dropShadow_57_12243" result="shape"/>
</filter>
</defs>
</svg>
