<?xml version="1.0" encoding="utf-8"?>
<!-- Svg Vector Icons : http://www.onlinewebfonts.com/icon -->
<!DOCTYPE svg PUBLIC "-//W3C//DTD SVG 1.1//EN" "http://www.w3.org/Graphics/SVG/1.1/DTD/svg11.dtd">
<svg version="1.1" xmlns="http://www.w3.org/2000/svg" xmlns:xlink="http://www.w3.org/1999/xlink" x="0px" y="0px" viewBox="0 0 1000 1000" enable-background="new 0 0 1000 1000" xml:space="preserve">
<metadata> Svg Vector Icons : http://www.onlinewebfonts.com/icon </metadata>
<g><g><path d="M20.2,938.2c7.3,1.8,14.9-2.4,16.8-9.7c28.2-105.4,143-132.7,211.6-149c17.2-4.1,30.8-7.3,39.6-11.1c78.1-33.9,103.6-88.5,111.2-128.3c0.9-4.8-0.8-9.7-4.5-13c-40.7-35.1-75-87.8-96.7-148.5c-0.6-1.7-1.6-3.3-2.8-4.7c-28.7-31.1-45.1-64.1-45.1-90.3c0-15.3,5.8-25.6,18.8-33.4c4-2.4,6.5-6.6,6.7-11.2c6.1-139.7,105.5-249.6,227.5-250.3c0.1,0,2.8,0.2,2.9,0.2c122.6,1.7,221.5,114,225,255.7c0.1,3.9,1.9,7.6,4.9,10.1c8.6,7.3,12.6,16.5,12.6,29c0,22-11.7,49-32.9,76c-1,1.3-1.8,2.8-2.3,4.3c-21.9,69.5-61.3,130.9-108,168.5c-3.9,3.2-5.8,8.3-4.9,13.2c7.6,39.8,33.1,94.3,111.2,128.3c9.2,4,23.6,7.1,41.8,11c67.9,14.7,181.6,39.3,209.5,143.5c1.6,6.1,7.2,10.1,13.2,10.1c1.2,0,2.4-0.2,3.6-0.5c7.3-2,11.7-9.5,9.7-16.8c-32.2-120.3-161-148.2-230.1-163.1c-16-3.5-29.9-6.5-36.6-9.4c-51-22.2-82.4-55.9-93.5-100.5c47.4-40.7,87-103.4,109.6-173.8c24-31.3,37.3-63.4,37.3-90.9c0-18.3-5.9-33.6-17.7-45.6C752,184.4,642.3,63.4,506.2,61.4l-4.1-0.1c-133.6,0.7-243.7,118.5-253.3,269.5c-17.2,12.6-25.9,30.3-25.9,52.8c0,32.4,18.3,71.2,50.5,106.8c22.2,61,56.6,114.5,97.5,152c-11,44.7-42.5,78.6-93.6,100.8c-6.6,2.9-19.8,6-35,9.7c-69.7,16.6-199.3,47.4-231.8,168.5C8.5,928.7,12.9,936.2,20.2,938.2L20.2,938.2z"/></g></g>
</svg>