<svg width="17" height="28" viewBox="0 0 17 28" fill="none" xmlns="http://www.w3.org/2000/svg">
<path d="M14.2494 19.2928C14.4002 19.6239 14.1581 20 13.7944 20H12.1429V26.7857C12.1429 27.4563 11.5992 28 10.9286 28C10.2579 28 9.71428 27.4563 9.71428 26.7857V20H7.14L5.27 22.5733L7.36431 24.8633C7.80815 25.3486 7.80893 26.0922 7.36611 26.5784C6.86077 27.1333 5.98738 27.1324 5.48321 26.5764L3.55786 24.4533C3.13286 24 2.89 23.3733 2.85357 22.72C2.81714 22.0667 2.99929 21.4133 3.37571 20.9067L4.03143 20H3.20565C2.84186 20 2.59984 19.6239 2.7506 19.2928L4.85714 14.6667V10.6667C4.10429 11.2933 3.49714 12.0933 3.07214 13.0133C2.8139 13.5805 2.63188 14.1771 2.52879 14.7913C2.4178 15.4527 1.88495 16 1.21436 16C0.543715 16 -0.00742673 15.4543 0.0720378 14.7884C0.314055 12.7603 1.1583 10.8629 2.48995 9.40073C4.08394 7.65047 6.24576 6.66702 8.5 6.66667C10.115 6.66667 11.6571 5.96 12.7986 4.72C13.6676 3.75548 14.249 2.53038 14.4708 1.20878C14.5818 0.547395 15.1151 0 15.7857 0C16.4563 0 17.0075 0.545601 16.927 1.21139C16.7657 2.54649 16.3396 3.83486 15.6764 4.97333C14.819 6.46433 13.5936 7.65728 12.1429 8.41333V14.6667L14.2494 19.2928ZM10.9286 2.66667C10.9286 3.2 10.7829 3.70667 10.5157 4.14667C10.2486 4.58667 9.87214 4.93333 9.435 5.13333C8.99032 5.33351 8.50161 5.38461 8.03051 5.28021C7.55941 5.1758 7.12702 4.92056 6.78786 4.54667C6.44786 4.17333 6.21714 3.70667 6.12 3.18667C6.02286 2.66667 6.07143 2.13333 6.25357 1.65333C6.43571 1.16 6.75143 0.746667 7.15214 0.453333C7.55286 0.16 8.01429 0 8.5 0C9.14357 0 9.76286 0.28 10.2121 0.786667C10.6736 1.28 10.9286 1.96 10.9286 2.66667Z" fill="white" fill-opacity="0.5"/>
</svg>
