<svg width="479" height="870" viewBox="0 0 479 870" fill="none" xmlns="http://www.w3.org/2000/svg">
<rect width="408" height="708" rx="3" transform="matrix(-1 0 0 1 412.034 81)" fill="url(#paint0_linear_1_1115)" fill-opacity="0.06"/>
<mask id="mask0_1_1115" style="mask-type:alpha" maskUnits="userSpaceOnUse" x="4" y="81" width="409" height="708">
<rect x="-1.5" y="1.5" width="405" height="705" rx="1.5" transform="matrix(-1 0 0 1 409.034 81)" stroke="url(#paint1_linear_1_1115)" stroke-opacity="0.96" stroke-width="3"/>
</mask>
<g mask="url(#mask0_1_1115)">
<g filter="url(#filter0_f_1_1115)">
<circle cx="35" cy="35" r="35" transform="matrix(-1 0 0 1 245.034 61)" fill="#00B0FF"/>
</g>
</g>
<g filter="url(#filter1_f_1_1115)">
<mask id="mask1_1_1115" style="mask-type:alpha" maskUnits="userSpaceOnUse" x="0" y="75" width="417" height="722">
<rect x="-1.5" y="1.5" width="413.068" height="719" rx="1.5" transform="matrix(-1 0 0 1 413.068 75)" stroke="url(#paint2_linear_1_1115)" stroke-opacity="0.96" stroke-width="3"/>
</mask>
<g mask="url(#mask1_1_1115)">
<g filter="url(#filter2_f_1_1115)">
<circle cx="125" cy="125" r="125" transform="matrix(-1 0 0 1 333.034 75)" fill="#00B0FF"/>
</g>
</g>
</g>
<mask id="mask2_1_1115" style="mask-type:alpha" maskUnits="userSpaceOnUse" x="4" y="81" width="409" height="708">
<rect width="408" height="708" rx="3" transform="matrix(-1 0 0 1 412.034 81)" fill="url(#paint3_linear_1_1115)" fill-opacity="0.91"/>
</mask>
<g mask="url(#mask2_1_1115)">
<g filter="url(#filter3_f_1_1115)">
<ellipse cx="122.5" cy="236" rx="122.5" ry="236" transform="matrix(-1 0 0 1 566.034 171)" fill="#00B0FF"/>
</g>
</g>
<g filter="url(#filter4_d_1_1115)">
<rect width="7" height="708" transform="matrix(-1 0 0 1 429.034 81)" fill="#00B0FF"/>
</g>
<g opacity="0.13">
<g opacity="0.24">
<rect width="4.72727" height="4.72727" transform="matrix(-1 0 0 1 391.034 749)" fill="white"/>
<rect width="4.72727" height="4.72727" transform="matrix(-1 0 0 1 391.034 759.636)" fill="white"/>
<rect width="4.72727" height="4.72727" transform="matrix(-1 0 0 1 391.034 770.273)" fill="white"/>
<rect width="4.72727" height="4.72727" transform="matrix(-1 0 0 1 380.398 749)" fill="white"/>
<rect width="4.72727" height="4.72727" transform="matrix(-1 0 0 1 380.398 759.636)" fill="white"/>
<rect width="4.72727" height="4.72727" transform="matrix(-1 0 0 1 380.398 770.273)" fill="white"/>
<rect width="4.72727" height="4.72727" transform="matrix(-1 0 0 1 369.761 749)" fill="white"/>
<rect width="4.72727" height="4.72727" transform="matrix(-1 0 0 1 369.761 759.636)" fill="white"/>
<rect width="4.72727" height="4.72727" transform="matrix(-1 0 0 1 369.761 770.273)" fill="white"/>
<rect width="4.72727" height="4.72727" transform="matrix(-1 0 0 1 359.125 749)" fill="white"/>
<rect width="4.72727" height="4.72727" transform="matrix(-1 0 0 1 359.125 759.636)" fill="white"/>
<rect width="4.72727" height="4.72727" transform="matrix(-1 0 0 1 359.125 770.273)" fill="white"/>
</g>
<g opacity="0.24">
<rect width="4.72727" height="4.72727" transform="matrix(-1 0 0 1 391.034 677)" fill="white"/>
<rect width="4.72727" height="4.72727" transform="matrix(-1 0 0 1 391.034 687.636)" fill="white"/>
<rect width="4.72727" height="4.72727" transform="matrix(-1 0 0 1 391.034 698.273)" fill="white"/>
<rect width="4.72727" height="4.72727" transform="matrix(-1 0 0 1 380.398 677)" fill="white"/>
<rect width="4.72727" height="4.72727" transform="matrix(-1 0 0 1 380.398 687.636)" fill="white"/>
<rect width="4.72727" height="4.72727" transform="matrix(-1 0 0 1 380.398 698.273)" fill="white"/>
<rect width="4.72727" height="4.72727" transform="matrix(-1 0 0 1 369.761 677)" fill="white"/>
<rect width="4.72727" height="4.72727" transform="matrix(-1 0 0 1 369.761 687.636)" fill="white"/>
<rect width="4.72727" height="4.72727" transform="matrix(-1 0 0 1 369.761 698.273)" fill="white"/>
<rect width="4.72727" height="4.72727" transform="matrix(-1 0 0 1 359.125 677)" fill="white"/>
<rect width="4.72727" height="4.72727" transform="matrix(-1 0 0 1 359.125 687.636)" fill="white"/>
<rect width="4.72727" height="4.72727" transform="matrix(-1 0 0 1 359.125 698.273)" fill="white"/>
</g>
<g opacity="0.24">
<rect width="4.72727" height="4.72727" transform="matrix(-1 0 0 1 344.034 677)" fill="white"/>
<rect width="4.72727" height="4.72727" transform="matrix(-1 0 0 1 344.034 687.636)" fill="white"/>
<rect width="4.72727" height="4.72727" transform="matrix(-1 0 0 1 344.034 698.273)" fill="white"/>
<rect width="4.72727" height="4.72727" transform="matrix(-1 0 0 1 333.398 677)" fill="white"/>
<rect width="4.72727" height="4.72727" transform="matrix(-1 0 0 1 333.398 687.636)" fill="white"/>
<rect width="4.72727" height="4.72727" transform="matrix(-1 0 0 1 333.398 698.273)" fill="white"/>
<rect width="4.72727" height="4.72727" transform="matrix(-1 0 0 1 322.761 677)" fill="white"/>
<rect width="4.72727" height="4.72727" transform="matrix(-1 0 0 1 322.761 687.636)" fill="white"/>
<rect width="4.72727" height="4.72727" transform="matrix(-1 0 0 1 322.761 698.273)" fill="white"/>
<rect width="4.72727" height="4.72727" transform="matrix(-1 0 0 1 312.125 677)" fill="white"/>
<rect width="4.72727" height="4.72727" transform="matrix(-1 0 0 1 312.125 687.636)" fill="white"/>
<rect width="4.72727" height="4.72727" transform="matrix(-1 0 0 1 312.125 698.273)" fill="white"/>
</g>
<g opacity="0.24">
<rect width="4.72727" height="4.72727" transform="matrix(-1 0 0 1 297.034 677)" fill="white"/>
<rect width="4.72727" height="4.72727" transform="matrix(-1 0 0 1 297.034 687.636)" fill="white"/>
<rect width="4.72727" height="4.72727" transform="matrix(-1 0 0 1 297.034 698.273)" fill="white"/>
<rect width="4.72727" height="4.72727" transform="matrix(-1 0 0 1 286.398 677)" fill="white"/>
<rect width="4.72727" height="4.72727" transform="matrix(-1 0 0 1 286.398 687.636)" fill="white"/>
<rect width="4.72727" height="4.72727" transform="matrix(-1 0 0 1 286.398 698.273)" fill="white"/>
<rect width="4.72727" height="4.72727" transform="matrix(-1 0 0 1 275.761 677)" fill="white"/>
<rect width="4.72727" height="4.72727" transform="matrix(-1 0 0 1 275.761 687.636)" fill="white"/>
<rect width="4.72727" height="4.72727" transform="matrix(-1 0 0 1 275.761 698.273)" fill="white"/>
<rect width="4.72727" height="4.72727" transform="matrix(-1 0 0 1 265.125 677)" fill="white"/>
<rect width="4.72727" height="4.72727" transform="matrix(-1 0 0 1 265.125 687.636)" fill="white"/>
<rect width="4.72727" height="4.72727" transform="matrix(-1 0 0 1 265.125 698.273)" fill="white"/>
</g>
<g opacity="0.24">
<rect width="4.72727" height="4.72727" transform="matrix(-1 0 0 1 250.034 677)" fill="white"/>
<rect width="4.72727" height="4.72727" transform="matrix(-1 0 0 1 250.034 687.636)" fill="white"/>
<rect width="4.72727" height="4.72727" transform="matrix(-1 0 0 1 250.034 698.273)" fill="white"/>
<rect width="4.72727" height="4.72727" transform="matrix(-1 0 0 1 239.398 677)" fill="white"/>
<rect width="4.72727" height="4.72727" transform="matrix(-1 0 0 1 239.398 687.636)" fill="white"/>
<rect width="4.72727" height="4.72727" transform="matrix(-1 0 0 1 239.398 698.273)" fill="white"/>
<rect width="4.72727" height="4.72727" transform="matrix(-1 0 0 1 228.761 677)" fill="white"/>
<rect width="4.72727" height="4.72727" transform="matrix(-1 0 0 1 228.761 687.636)" fill="white"/>
<rect width="4.72727" height="4.72727" transform="matrix(-1 0 0 1 228.761 698.273)" fill="white"/>
<rect width="4.72727" height="4.72727" transform="matrix(-1 0 0 1 218.125 677)" fill="white"/>
<rect width="4.72727" height="4.72727" transform="matrix(-1 0 0 1 218.125 687.636)" fill="white"/>
<rect width="4.72727" height="4.72727" transform="matrix(-1 0 0 1 218.125 698.273)" fill="white"/>
</g>
<g opacity="0.24">
<rect width="4.72727" height="4.72727" transform="matrix(-1 0 0 1 203.034 677)" fill="white"/>
<rect width="4.72727" height="4.72727" transform="matrix(-1 0 0 1 203.034 687.636)" fill="white"/>
<rect width="4.72727" height="4.72727" transform="matrix(-1 0 0 1 203.034 698.273)" fill="white"/>
<rect width="4.72727" height="4.72727" transform="matrix(-1 0 0 1 192.398 677)" fill="white"/>
<rect width="4.72727" height="4.72727" transform="matrix(-1 0 0 1 192.398 687.636)" fill="white"/>
<rect width="4.72727" height="4.72727" transform="matrix(-1 0 0 1 192.398 698.273)" fill="white"/>
<rect width="4.72727" height="4.72727" transform="matrix(-1 0 0 1 181.761 677)" fill="white"/>
<rect width="4.72727" height="4.72727" transform="matrix(-1 0 0 1 181.761 687.636)" fill="white"/>
<rect width="4.72727" height="4.72727" transform="matrix(-1 0 0 1 181.761 698.273)" fill="white"/>
<rect width="4.72727" height="4.72727" transform="matrix(-1 0 0 1 171.125 677)" fill="white"/>
<rect width="4.72727" height="4.72727" transform="matrix(-1 0 0 1 171.125 687.636)" fill="white"/>
<rect width="4.72727" height="4.72727" transform="matrix(-1 0 0 1 171.125 698.273)" fill="white"/>
</g>
<g opacity="0.24">
<rect width="4.72727" height="4.72727" transform="matrix(-1 0 0 1 156.034 677)" fill="white"/>
<rect width="4.72727" height="4.72727" transform="matrix(-1 0 0 1 156.034 687.636)" fill="white"/>
<rect width="4.72727" height="4.72727" transform="matrix(-1 0 0 1 156.034 698.273)" fill="white"/>
<rect width="4.72727" height="4.72727" transform="matrix(-1 0 0 1 145.398 677)" fill="white"/>
<rect width="4.72727" height="4.72727" transform="matrix(-1 0 0 1 145.398 687.636)" fill="white"/>
<rect width="4.72727" height="4.72727" transform="matrix(-1 0 0 1 145.398 698.273)" fill="white"/>
<rect width="4.72727" height="4.72727" transform="matrix(-1 0 0 1 134.761 677)" fill="white"/>
<rect width="4.72727" height="4.72727" transform="matrix(-1 0 0 1 134.761 687.636)" fill="white"/>
<rect width="4.72727" height="4.72727" transform="matrix(-1 0 0 1 134.761 698.273)" fill="white"/>
<rect width="4.72727" height="4.72727" transform="matrix(-1 0 0 1 124.125 677)" fill="white"/>
<rect width="4.72727" height="4.72727" transform="matrix(-1 0 0 1 124.125 687.636)" fill="white"/>
<rect width="4.72727" height="4.72727" transform="matrix(-1 0 0 1 124.125 698.273)" fill="white"/>
</g>
<g opacity="0.24">
<rect width="4.72727" height="4.72727" transform="matrix(-1 0 0 1 109.034 677)" fill="white"/>
<rect width="4.72727" height="4.72727" transform="matrix(-1 0 0 1 109.034 687.636)" fill="white"/>
<rect width="4.72727" height="4.72727" transform="matrix(-1 0 0 1 109.034 698.273)" fill="white"/>
<rect width="4.72727" height="4.72727" transform="matrix(-1 0 0 1 98.3977 677)" fill="white"/>
<rect width="4.72727" height="4.72727" transform="matrix(-1 0 0 1 98.3977 687.636)" fill="white"/>
<rect width="4.72727" height="4.72727" transform="matrix(-1 0 0 1 98.3977 698.273)" fill="white"/>
<rect width="4.72727" height="4.72727" transform="matrix(-1 0 0 1 87.7615 677)" fill="white"/>
<rect width="4.72727" height="4.72727" transform="matrix(-1 0 0 1 87.7615 687.636)" fill="white"/>
<rect width="4.72727" height="4.72727" transform="matrix(-1 0 0 1 87.7615 698.273)" fill="white"/>
<rect width="4.72727" height="4.72727" transform="matrix(-1 0 0 1 77.125 677)" fill="white"/>
<rect width="4.72727" height="4.72727" transform="matrix(-1 0 0 1 77.125 687.636)" fill="white"/>
<rect width="4.72727" height="4.72727" transform="matrix(-1 0 0 1 77.125 698.273)" fill="white"/>
</g>
<g opacity="0.24">
<rect width="4.72727" height="4.72727" transform="matrix(-1 0 0 1 62.0342 677)" fill="white"/>
<rect width="4.72727" height="4.72727" transform="matrix(-1 0 0 1 62.0342 687.636)" fill="white"/>
<rect width="4.72727" height="4.72727" transform="matrix(-1 0 0 1 62.0342 698.273)" fill="white"/>
<rect width="4.72727" height="4.72727" transform="matrix(-1 0 0 1 51.3977 677)" fill="white"/>
<rect width="4.72727" height="4.72727" transform="matrix(-1 0 0 1 51.3977 687.636)" fill="white"/>
<rect width="4.72727" height="4.72727" transform="matrix(-1 0 0 1 51.3977 698.273)" fill="white"/>
<rect width="4.72727" height="4.72727" transform="matrix(-1 0 0 1 40.7615 677)" fill="white"/>
<rect width="4.72727" height="4.72727" transform="matrix(-1 0 0 1 40.7615 687.636)" fill="white"/>
<rect width="4.72727" height="4.72727" transform="matrix(-1 0 0 1 40.7615 698.273)" fill="white"/>
<rect width="4.72727" height="4.72727" transform="matrix(-1 0 0 1 30.125 677)" fill="white"/>
<rect width="4.72727" height="4.72727" transform="matrix(-1 0 0 1 30.125 687.636)" fill="white"/>
<rect width="4.72727" height="4.72727" transform="matrix(-1 0 0 1 30.125 698.273)" fill="white"/>
</g>
<g opacity="0.24">
<rect width="4.72727" height="4.72727" transform="matrix(-1 0 0 1 344.034 713)" fill="white"/>
<rect width="4.72727" height="4.72727" transform="matrix(-1 0 0 1 344.034 723.636)" fill="white"/>
<rect width="4.72727" height="4.72727" transform="matrix(-1 0 0 1 344.034 734.273)" fill="white"/>
<rect width="4.72727" height="4.72727" transform="matrix(-1 0 0 1 333.398 713)" fill="white"/>
<rect width="4.72727" height="4.72727" transform="matrix(-1 0 0 1 333.398 723.636)" fill="white"/>
<rect width="4.72727" height="4.72727" transform="matrix(-1 0 0 1 333.398 734.273)" fill="white"/>
<rect width="4.72727" height="4.72727" transform="matrix(-1 0 0 1 322.761 713)" fill="white"/>
<rect width="4.72727" height="4.72727" transform="matrix(-1 0 0 1 322.761 723.636)" fill="white"/>
<rect width="4.72727" height="4.72727" transform="matrix(-1 0 0 1 322.761 734.273)" fill="white"/>
<rect width="4.72727" height="4.72727" transform="matrix(-1 0 0 1 312.125 713)" fill="white"/>
<rect width="4.72727" height="4.72727" transform="matrix(-1 0 0 1 312.125 723.636)" fill="white"/>
<rect width="4.72727" height="4.72727" transform="matrix(-1 0 0 1 312.125 734.273)" fill="white"/>
</g>
<g opacity="0.24">
<rect width="4.72727" height="4.72727" transform="matrix(-1 0 0 1 297.034 713)" fill="white"/>
<rect width="4.72727" height="4.72727" transform="matrix(-1 0 0 1 297.034 723.636)" fill="white"/>
<rect width="4.72727" height="4.72727" transform="matrix(-1 0 0 1 297.034 734.273)" fill="white"/>
<rect width="4.72727" height="4.72727" transform="matrix(-1 0 0 1 286.398 713)" fill="white"/>
<rect width="4.72727" height="4.72727" transform="matrix(-1 0 0 1 286.398 723.636)" fill="white"/>
<rect width="4.72727" height="4.72727" transform="matrix(-1 0 0 1 286.398 734.273)" fill="white"/>
<rect width="4.72727" height="4.72727" transform="matrix(-1 0 0 1 275.761 713)" fill="white"/>
<rect width="4.72727" height="4.72727" transform="matrix(-1 0 0 1 275.761 723.636)" fill="white"/>
<rect width="4.72727" height="4.72727" transform="matrix(-1 0 0 1 275.761 734.273)" fill="white"/>
<rect width="4.72727" height="4.72727" transform="matrix(-1 0 0 1 265.125 713)" fill="white"/>
<rect width="4.72727" height="4.72727" transform="matrix(-1 0 0 1 265.125 723.636)" fill="white"/>
<rect width="4.72727" height="4.72727" transform="matrix(-1 0 0 1 265.125 734.273)" fill="white"/>
</g>
<g opacity="0.24">
<rect width="4.72727" height="4.72727" transform="matrix(-1 0 0 1 250.034 713)" fill="white"/>
<rect width="4.72727" height="4.72727" transform="matrix(-1 0 0 1 250.034 723.636)" fill="white"/>
<rect width="4.72727" height="4.72727" transform="matrix(-1 0 0 1 250.034 734.273)" fill="white"/>
<rect width="4.72727" height="4.72727" transform="matrix(-1 0 0 1 239.398 713)" fill="white"/>
<rect width="4.72727" height="4.72727" transform="matrix(-1 0 0 1 239.398 723.636)" fill="white"/>
<rect width="4.72727" height="4.72727" transform="matrix(-1 0 0 1 239.398 734.273)" fill="white"/>
<rect width="4.72727" height="4.72727" transform="matrix(-1 0 0 1 228.761 713)" fill="white"/>
<rect width="4.72727" height="4.72727" transform="matrix(-1 0 0 1 228.761 723.636)" fill="white"/>
<rect width="4.72727" height="4.72727" transform="matrix(-1 0 0 1 228.761 734.273)" fill="white"/>
<rect width="4.72727" height="4.72727" transform="matrix(-1 0 0 1 218.125 713)" fill="white"/>
<rect width="4.72727" height="4.72727" transform="matrix(-1 0 0 1 218.125 723.636)" fill="white"/>
<rect width="4.72727" height="4.72727" transform="matrix(-1 0 0 1 218.125 734.273)" fill="white"/>
</g>
<g opacity="0.24">
<rect width="4.72727" height="4.72727" transform="matrix(-1 0 0 1 203.034 713)" fill="white"/>
<rect width="4.72727" height="4.72727" transform="matrix(-1 0 0 1 203.034 723.636)" fill="white"/>
<rect width="4.72727" height="4.72727" transform="matrix(-1 0 0 1 203.034 734.273)" fill="white"/>
<rect width="4.72727" height="4.72727" transform="matrix(-1 0 0 1 192.398 713)" fill="white"/>
<rect width="4.72727" height="4.72727" transform="matrix(-1 0 0 1 192.398 723.636)" fill="white"/>
<rect width="4.72727" height="4.72727" transform="matrix(-1 0 0 1 192.398 734.273)" fill="white"/>
<rect width="4.72727" height="4.72727" transform="matrix(-1 0 0 1 181.761 713)" fill="white"/>
<rect width="4.72727" height="4.72727" transform="matrix(-1 0 0 1 181.761 723.636)" fill="white"/>
<rect width="4.72727" height="4.72727" transform="matrix(-1 0 0 1 181.761 734.273)" fill="white"/>
<rect width="4.72727" height="4.72727" transform="matrix(-1 0 0 1 171.125 713)" fill="white"/>
<rect width="4.72727" height="4.72727" transform="matrix(-1 0 0 1 171.125 723.636)" fill="white"/>
<rect width="4.72727" height="4.72727" transform="matrix(-1 0 0 1 171.125 734.273)" fill="white"/>
</g>
<g opacity="0.24">
<rect width="4.72727" height="4.72727" transform="matrix(-1 0 0 1 156.034 713)" fill="white"/>
<rect width="4.72727" height="4.72727" transform="matrix(-1 0 0 1 156.034 723.636)" fill="white"/>
<rect width="4.72727" height="4.72727" transform="matrix(-1 0 0 1 156.034 734.273)" fill="white"/>
<rect width="4.72727" height="4.72727" transform="matrix(-1 0 0 1 145.398 713)" fill="white"/>
<rect width="4.72727" height="4.72727" transform="matrix(-1 0 0 1 145.398 723.636)" fill="white"/>
<rect width="4.72727" height="4.72727" transform="matrix(-1 0 0 1 145.398 734.273)" fill="white"/>
<rect width="4.72727" height="4.72727" transform="matrix(-1 0 0 1 134.761 713)" fill="white"/>
<rect width="4.72727" height="4.72727" transform="matrix(-1 0 0 1 134.761 723.636)" fill="white"/>
<rect width="4.72727" height="4.72727" transform="matrix(-1 0 0 1 134.761 734.273)" fill="white"/>
<rect width="4.72727" height="4.72727" transform="matrix(-1 0 0 1 124.125 713)" fill="white"/>
<rect width="4.72727" height="4.72727" transform="matrix(-1 0 0 1 124.125 723.636)" fill="white"/>
<rect width="4.72727" height="4.72727" transform="matrix(-1 0 0 1 124.125 734.273)" fill="white"/>
</g>
<g opacity="0.24">
<rect width="4.72727" height="4.72727" transform="matrix(-1 0 0 1 109.034 713)" fill="white"/>
<rect width="4.72727" height="4.72727" transform="matrix(-1 0 0 1 109.034 723.636)" fill="white"/>
<rect width="4.72727" height="4.72727" transform="matrix(-1 0 0 1 109.034 734.273)" fill="white"/>
<rect width="4.72727" height="4.72727" transform="matrix(-1 0 0 1 98.3977 713)" fill="white"/>
<rect width="4.72727" height="4.72727" transform="matrix(-1 0 0 1 98.3977 723.636)" fill="white"/>
<rect width="4.72727" height="4.72727" transform="matrix(-1 0 0 1 98.3977 734.273)" fill="white"/>
<rect width="4.72727" height="4.72727" transform="matrix(-1 0 0 1 87.7615 713)" fill="white"/>
<rect width="4.72727" height="4.72727" transform="matrix(-1 0 0 1 87.7615 723.636)" fill="white"/>
<rect width="4.72727" height="4.72727" transform="matrix(-1 0 0 1 87.7615 734.273)" fill="white"/>
<rect width="4.72727" height="4.72727" transform="matrix(-1 0 0 1 77.125 713)" fill="white"/>
<rect width="4.72727" height="4.72727" transform="matrix(-1 0 0 1 77.125 723.636)" fill="white"/>
<rect width="4.72727" height="4.72727" transform="matrix(-1 0 0 1 77.125 734.273)" fill="white"/>
</g>
<g opacity="0.24">
<rect width="4.72727" height="4.72727" transform="matrix(-1 0 0 1 62.0342 713)" fill="white"/>
<rect width="4.72727" height="4.72727" transform="matrix(-1 0 0 1 62.0342 723.636)" fill="white"/>
<rect width="4.72727" height="4.72727" transform="matrix(-1 0 0 1 62.0342 734.273)" fill="white"/>
<rect width="4.72727" height="4.72727" transform="matrix(-1 0 0 1 51.3977 713)" fill="white"/>
<rect width="4.72727" height="4.72727" transform="matrix(-1 0 0 1 51.3977 723.636)" fill="white"/>
<rect width="4.72727" height="4.72727" transform="matrix(-1 0 0 1 51.3977 734.273)" fill="white"/>
<rect width="4.72727" height="4.72727" transform="matrix(-1 0 0 1 40.7615 713)" fill="white"/>
<rect width="4.72727" height="4.72727" transform="matrix(-1 0 0 1 40.7615 723.636)" fill="white"/>
<rect width="4.72727" height="4.72727" transform="matrix(-1 0 0 1 40.7615 734.273)" fill="white"/>
<rect width="4.72727" height="4.72727" transform="matrix(-1 0 0 1 30.125 713)" fill="white"/>
<rect width="4.72727" height="4.72727" transform="matrix(-1 0 0 1 30.125 723.636)" fill="white"/>
<rect width="4.72727" height="4.72727" transform="matrix(-1 0 0 1 30.125 734.273)" fill="white"/>
</g>
<g opacity="0.24">
<rect width="4.72727" height="4.72727" transform="matrix(-1 0 0 1 344.034 749)" fill="white"/>
<rect width="4.72727" height="4.72727" transform="matrix(-1 0 0 1 344.034 759.636)" fill="white"/>
<rect width="4.72727" height="4.72727" transform="matrix(-1 0 0 1 344.034 770.273)" fill="white"/>
<rect width="4.72727" height="4.72727" transform="matrix(-1 0 0 1 333.398 749)" fill="white"/>
<rect width="4.72727" height="4.72727" transform="matrix(-1 0 0 1 333.398 759.636)" fill="white"/>
<rect width="4.72727" height="4.72727" transform="matrix(-1 0 0 1 333.398 770.273)" fill="white"/>
<rect width="4.72727" height="4.72727" transform="matrix(-1 0 0 1 322.761 749)" fill="white"/>
<rect width="4.72727" height="4.72727" transform="matrix(-1 0 0 1 322.761 759.636)" fill="white"/>
<rect width="4.72727" height="4.72727" transform="matrix(-1 0 0 1 322.761 770.273)" fill="white"/>
<rect width="4.72727" height="4.72727" transform="matrix(-1 0 0 1 312.125 749)" fill="white"/>
<rect width="4.72727" height="4.72727" transform="matrix(-1 0 0 1 312.125 759.636)" fill="white"/>
<rect width="4.72727" height="4.72727" transform="matrix(-1 0 0 1 312.125 770.273)" fill="white"/>
</g>
<g opacity="0.24">
<rect width="4.72727" height="4.72727" transform="matrix(-1 0 0 1 297.034 749)" fill="white"/>
<rect width="4.72727" height="4.72727" transform="matrix(-1 0 0 1 297.034 759.636)" fill="white"/>
<rect width="4.72727" height="4.72727" transform="matrix(-1 0 0 1 297.034 770.273)" fill="white"/>
<rect width="4.72727" height="4.72727" transform="matrix(-1 0 0 1 286.398 749)" fill="white"/>
<rect width="4.72727" height="4.72727" transform="matrix(-1 0 0 1 286.398 759.636)" fill="white"/>
<rect width="4.72727" height="4.72727" transform="matrix(-1 0 0 1 286.398 770.273)" fill="white"/>
<rect width="4.72727" height="4.72727" transform="matrix(-1 0 0 1 275.761 749)" fill="white"/>
<rect width="4.72727" height="4.72727" transform="matrix(-1 0 0 1 275.761 759.636)" fill="white"/>
<rect width="4.72727" height="4.72727" transform="matrix(-1 0 0 1 275.761 770.273)" fill="white"/>
<rect width="4.72727" height="4.72727" transform="matrix(-1 0 0 1 265.125 749)" fill="white"/>
<rect width="4.72727" height="4.72727" transform="matrix(-1 0 0 1 265.125 759.636)" fill="white"/>
<rect width="4.72727" height="4.72727" transform="matrix(-1 0 0 1 265.125 770.273)" fill="white"/>
</g>
<g opacity="0.24">
<rect width="4.72727" height="4.72727" transform="matrix(-1 0 0 1 250.034 749)" fill="white"/>
<rect width="4.72727" height="4.72727" transform="matrix(-1 0 0 1 250.034 759.636)" fill="white"/>
<rect width="4.72727" height="4.72727" transform="matrix(-1 0 0 1 250.034 770.273)" fill="white"/>
<rect width="4.72727" height="4.72727" transform="matrix(-1 0 0 1 239.398 749)" fill="white"/>
<rect width="4.72727" height="4.72727" transform="matrix(-1 0 0 1 239.398 759.636)" fill="white"/>
<rect width="4.72727" height="4.72727" transform="matrix(-1 0 0 1 239.398 770.273)" fill="white"/>
<rect width="4.72727" height="4.72727" transform="matrix(-1 0 0 1 228.761 749)" fill="white"/>
<rect width="4.72727" height="4.72727" transform="matrix(-1 0 0 1 228.761 759.636)" fill="white"/>
<rect width="4.72727" height="4.72727" transform="matrix(-1 0 0 1 228.761 770.273)" fill="white"/>
<rect width="4.72727" height="4.72727" transform="matrix(-1 0 0 1 218.125 749)" fill="white"/>
<rect width="4.72727" height="4.72727" transform="matrix(-1 0 0 1 218.125 759.636)" fill="white"/>
<rect width="4.72727" height="4.72727" transform="matrix(-1 0 0 1 218.125 770.273)" fill="white"/>
</g>
<g opacity="0.24">
<rect width="4.72727" height="4.72727" transform="matrix(-1 0 0 1 203.034 749)" fill="white"/>
<rect width="4.72727" height="4.72727" transform="matrix(-1 0 0 1 203.034 759.636)" fill="white"/>
<rect width="4.72727" height="4.72727" transform="matrix(-1 0 0 1 203.034 770.273)" fill="white"/>
<rect width="4.72727" height="4.72727" transform="matrix(-1 0 0 1 192.398 749)" fill="white"/>
<rect width="4.72727" height="4.72727" transform="matrix(-1 0 0 1 192.398 759.636)" fill="white"/>
<rect width="4.72727" height="4.72727" transform="matrix(-1 0 0 1 192.398 770.273)" fill="white"/>
<rect width="4.72727" height="4.72727" transform="matrix(-1 0 0 1 181.761 749)" fill="white"/>
<rect width="4.72727" height="4.72727" transform="matrix(-1 0 0 1 181.761 759.636)" fill="white"/>
<rect width="4.72727" height="4.72727" transform="matrix(-1 0 0 1 181.761 770.273)" fill="white"/>
<rect width="4.72727" height="4.72727" transform="matrix(-1 0 0 1 171.125 749)" fill="white"/>
<rect width="4.72727" height="4.72727" transform="matrix(-1 0 0 1 171.125 759.636)" fill="white"/>
<rect width="4.72727" height="4.72727" transform="matrix(-1 0 0 1 171.125 770.273)" fill="white"/>
</g>
<g opacity="0.24">
<rect width="4.72727" height="4.72727" transform="matrix(-1 0 0 1 156.034 749)" fill="white"/>
<rect width="4.72727" height="4.72727" transform="matrix(-1 0 0 1 156.034 759.636)" fill="white"/>
<rect width="4.72727" height="4.72727" transform="matrix(-1 0 0 1 156.034 770.273)" fill="white"/>
<rect width="4.72727" height="4.72727" transform="matrix(-1 0 0 1 145.398 749)" fill="white"/>
<rect width="4.72727" height="4.72727" transform="matrix(-1 0 0 1 145.398 759.636)" fill="white"/>
<rect width="4.72727" height="4.72727" transform="matrix(-1 0 0 1 145.398 770.273)" fill="white"/>
<rect width="4.72727" height="4.72727" transform="matrix(-1 0 0 1 134.761 749)" fill="white"/>
<rect width="4.72727" height="4.72727" transform="matrix(-1 0 0 1 134.761 759.636)" fill="white"/>
<rect width="4.72727" height="4.72727" transform="matrix(-1 0 0 1 134.761 770.273)" fill="white"/>
<rect width="4.72727" height="4.72727" transform="matrix(-1 0 0 1 124.125 749)" fill="white"/>
<rect width="4.72727" height="4.72727" transform="matrix(-1 0 0 1 124.125 759.636)" fill="white"/>
<rect width="4.72727" height="4.72727" transform="matrix(-1 0 0 1 124.125 770.273)" fill="white"/>
</g>
<g opacity="0.24">
<rect width="4.72727" height="4.72727" transform="matrix(-1 0 0 1 109.034 749)" fill="white"/>
<rect width="4.72727" height="4.72727" transform="matrix(-1 0 0 1 109.034 759.636)" fill="white"/>
<rect width="4.72727" height="4.72727" transform="matrix(-1 0 0 1 109.034 770.273)" fill="white"/>
<rect width="4.72727" height="4.72727" transform="matrix(-1 0 0 1 98.3977 749)" fill="white"/>
<rect width="4.72727" height="4.72727" transform="matrix(-1 0 0 1 98.3977 759.636)" fill="white"/>
<rect width="4.72727" height="4.72727" transform="matrix(-1 0 0 1 98.3977 770.273)" fill="white"/>
<rect width="4.72727" height="4.72727" transform="matrix(-1 0 0 1 87.7615 749)" fill="white"/>
<rect width="4.72727" height="4.72727" transform="matrix(-1 0 0 1 87.7615 759.636)" fill="white"/>
<rect width="4.72727" height="4.72727" transform="matrix(-1 0 0 1 87.7615 770.273)" fill="white"/>
<rect width="4.72727" height="4.72727" transform="matrix(-1 0 0 1 77.125 749)" fill="white"/>
<rect width="4.72727" height="4.72727" transform="matrix(-1 0 0 1 77.125 759.636)" fill="white"/>
<rect width="4.72727" height="4.72727" transform="matrix(-1 0 0 1 77.125 770.273)" fill="white"/>
</g>
<g opacity="0.24">
<rect width="4.72727" height="4.72727" transform="matrix(-1 0 0 1 62.0342 749)" fill="white"/>
<rect width="4.72727" height="4.72727" transform="matrix(-1 0 0 1 62.0342 759.636)" fill="white"/>
<rect width="4.72727" height="4.72727" transform="matrix(-1 0 0 1 62.0342 770.273)" fill="white"/>
<rect width="4.72727" height="4.72727" transform="matrix(-1 0 0 1 51.3977 749)" fill="white"/>
<rect width="4.72727" height="4.72727" transform="matrix(-1 0 0 1 51.3977 759.636)" fill="white"/>
<rect width="4.72727" height="4.72727" transform="matrix(-1 0 0 1 51.3977 770.273)" fill="white"/>
<rect width="4.72727" height="4.72727" transform="matrix(-1 0 0 1 40.7615 749)" fill="white"/>
<rect width="4.72727" height="4.72727" transform="matrix(-1 0 0 1 40.7615 759.636)" fill="white"/>
<rect width="4.72727" height="4.72727" transform="matrix(-1 0 0 1 40.7615 770.273)" fill="white"/>
<rect width="4.72727" height="4.72727" transform="matrix(-1 0 0 1 30.125 749)" fill="white"/>
<rect width="4.72727" height="4.72727" transform="matrix(-1 0 0 1 30.125 759.636)" fill="white"/>
<rect width="4.72727" height="4.72727" transform="matrix(-1 0 0 1 30.125 770.273)" fill="white"/>
</g>
<g opacity="0.24">
<rect width="4.72727" height="4.72727" transform="matrix(-1 0 0 1 391.034 713)" fill="white"/>
<rect width="4.72727" height="4.72727" transform="matrix(-1 0 0 1 391.034 723.636)" fill="white"/>
<rect width="4.72727" height="4.72727" transform="matrix(-1 0 0 1 391.034 734.273)" fill="white"/>
<rect width="4.72727" height="4.72727" transform="matrix(-1 0 0 1 380.398 713)" fill="white"/>
<rect width="4.72727" height="4.72727" transform="matrix(-1 0 0 1 380.398 723.636)" fill="white"/>
<rect width="4.72727" height="4.72727" transform="matrix(-1 0 0 1 380.398 734.273)" fill="white"/>
<rect width="4.72727" height="4.72727" transform="matrix(-1 0 0 1 369.761 713)" fill="white"/>
<rect width="4.72727" height="4.72727" transform="matrix(-1 0 0 1 369.761 723.636)" fill="white"/>
<rect width="4.72727" height="4.72727" transform="matrix(-1 0 0 1 369.761 734.273)" fill="white"/>
<rect width="4.72727" height="4.72727" transform="matrix(-1 0 0 1 359.125 713)" fill="white"/>
<rect width="4.72727" height="4.72727" transform="matrix(-1 0 0 1 359.125 723.636)" fill="white"/>
<rect width="4.72727" height="4.72727" transform="matrix(-1 0 0 1 359.125 734.273)" fill="white"/>
</g>
<g opacity="0.24">
<rect width="4.72727" height="4.72727" transform="matrix(-1 0 0 1 391.034 641)" fill="white"/>
<rect width="4.72727" height="4.72727" transform="matrix(-1 0 0 1 391.034 651.636)" fill="white"/>
<rect width="4.72727" height="4.72727" transform="matrix(-1 0 0 1 391.034 662.273)" fill="white"/>
<rect width="4.72727" height="4.72727" transform="matrix(-1 0 0 1 380.398 641)" fill="white"/>
<rect width="4.72727" height="4.72727" transform="matrix(-1 0 0 1 380.398 651.636)" fill="white"/>
<rect width="4.72727" height="4.72727" transform="matrix(-1 0 0 1 380.398 662.273)" fill="white"/>
<rect width="4.72727" height="4.72727" transform="matrix(-1 0 0 1 369.761 641)" fill="white"/>
<rect width="4.72727" height="4.72727" transform="matrix(-1 0 0 1 369.761 651.636)" fill="white"/>
<rect width="4.72727" height="4.72727" transform="matrix(-1 0 0 1 369.761 662.273)" fill="white"/>
<rect width="4.72727" height="4.72727" transform="matrix(-1 0 0 1 359.125 641)" fill="white"/>
<rect width="4.72727" height="4.72727" transform="matrix(-1 0 0 1 359.125 651.636)" fill="white"/>
<rect width="4.72727" height="4.72727" transform="matrix(-1 0 0 1 359.125 662.273)" fill="white"/>
</g>
<g opacity="0.24">
<rect width="4.72727" height="4.72727" transform="matrix(-1 0 0 1 344.034 641)" fill="white"/>
<rect width="4.72727" height="4.72727" transform="matrix(-1 0 0 1 344.034 651.636)" fill="white"/>
<rect width="4.72727" height="4.72727" transform="matrix(-1 0 0 1 344.034 662.273)" fill="white"/>
<rect width="4.72727" height="4.72727" transform="matrix(-1 0 0 1 333.398 641)" fill="white"/>
<rect width="4.72727" height="4.72727" transform="matrix(-1 0 0 1 333.398 651.636)" fill="white"/>
<rect width="4.72727" height="4.72727" transform="matrix(-1 0 0 1 333.398 662.273)" fill="white"/>
<rect width="4.72727" height="4.72727" transform="matrix(-1 0 0 1 322.761 641)" fill="white"/>
<rect width="4.72727" height="4.72727" transform="matrix(-1 0 0 1 322.761 651.636)" fill="white"/>
<rect width="4.72727" height="4.72727" transform="matrix(-1 0 0 1 322.761 662.273)" fill="white"/>
<rect width="4.72727" height="4.72727" transform="matrix(-1 0 0 1 312.125 641)" fill="white"/>
<rect width="4.72727" height="4.72727" transform="matrix(-1 0 0 1 312.125 651.636)" fill="white"/>
<rect width="4.72727" height="4.72727" transform="matrix(-1 0 0 1 312.125 662.273)" fill="white"/>
</g>
<g opacity="0.24">
<rect width="4.72727" height="4.72727" transform="matrix(-1 0 0 1 297.034 641)" fill="white"/>
<rect width="4.72727" height="4.72727" transform="matrix(-1 0 0 1 297.034 651.636)" fill="white"/>
<rect width="4.72727" height="4.72727" transform="matrix(-1 0 0 1 297.034 662.273)" fill="white"/>
<rect width="4.72727" height="4.72727" transform="matrix(-1 0 0 1 286.398 641)" fill="white"/>
<rect width="4.72727" height="4.72727" transform="matrix(-1 0 0 1 286.398 651.636)" fill="white"/>
<rect width="4.72727" height="4.72727" transform="matrix(-1 0 0 1 286.398 662.273)" fill="white"/>
<rect width="4.72727" height="4.72727" transform="matrix(-1 0 0 1 275.761 641)" fill="white"/>
<rect width="4.72727" height="4.72727" transform="matrix(-1 0 0 1 275.761 651.636)" fill="white"/>
<rect width="4.72727" height="4.72727" transform="matrix(-1 0 0 1 275.761 662.273)" fill="white"/>
<rect width="4.72727" height="4.72727" transform="matrix(-1 0 0 1 265.125 641)" fill="white"/>
<rect width="4.72727" height="4.72727" transform="matrix(-1 0 0 1 265.125 651.636)" fill="white"/>
<rect width="4.72727" height="4.72727" transform="matrix(-1 0 0 1 265.125 662.273)" fill="white"/>
</g>
<g opacity="0.24">
<rect width="4.72727" height="4.72727" transform="matrix(-1 0 0 1 250.034 641)" fill="white"/>
<rect width="4.72727" height="4.72727" transform="matrix(-1 0 0 1 250.034 651.636)" fill="white"/>
<rect width="4.72727" height="4.72727" transform="matrix(-1 0 0 1 250.034 662.273)" fill="white"/>
<rect width="4.72727" height="4.72727" transform="matrix(-1 0 0 1 239.398 641)" fill="white"/>
<rect width="4.72727" height="4.72727" transform="matrix(-1 0 0 1 239.398 651.636)" fill="white"/>
<rect width="4.72727" height="4.72727" transform="matrix(-1 0 0 1 239.398 662.273)" fill="white"/>
<rect width="4.72727" height="4.72727" transform="matrix(-1 0 0 1 228.761 641)" fill="white"/>
<rect width="4.72727" height="4.72727" transform="matrix(-1 0 0 1 228.761 651.636)" fill="white"/>
<rect width="4.72727" height="4.72727" transform="matrix(-1 0 0 1 228.761 662.273)" fill="white"/>
<rect width="4.72727" height="4.72727" transform="matrix(-1 0 0 1 218.125 641)" fill="white"/>
<rect width="4.72727" height="4.72727" transform="matrix(-1 0 0 1 218.125 651.636)" fill="white"/>
<rect width="4.72727" height="4.72727" transform="matrix(-1 0 0 1 218.125 662.273)" fill="white"/>
</g>
<g opacity="0.24">
<rect width="4.72727" height="4.72727" transform="matrix(-1 0 0 1 203.034 641)" fill="white"/>
<rect width="4.72727" height="4.72727" transform="matrix(-1 0 0 1 203.034 651.636)" fill="white"/>
<rect width="4.72727" height="4.72727" transform="matrix(-1 0 0 1 203.034 662.273)" fill="white"/>
<rect width="4.72727" height="4.72727" transform="matrix(-1 0 0 1 192.398 641)" fill="white"/>
<rect width="4.72727" height="4.72727" transform="matrix(-1 0 0 1 192.398 651.636)" fill="white"/>
<rect width="4.72727" height="4.72727" transform="matrix(-1 0 0 1 192.398 662.273)" fill="white"/>
<rect width="4.72727" height="4.72727" transform="matrix(-1 0 0 1 181.761 641)" fill="white"/>
<rect width="4.72727" height="4.72727" transform="matrix(-1 0 0 1 181.761 651.636)" fill="white"/>
<rect width="4.72727" height="4.72727" transform="matrix(-1 0 0 1 181.761 662.273)" fill="white"/>
<rect width="4.72727" height="4.72727" transform="matrix(-1 0 0 1 171.125 641)" fill="white"/>
<rect width="4.72727" height="4.72727" transform="matrix(-1 0 0 1 171.125 651.636)" fill="white"/>
<rect width="4.72727" height="4.72727" transform="matrix(-1 0 0 1 171.125 662.273)" fill="white"/>
</g>
<g opacity="0.24">
<rect width="4.72727" height="4.72727" transform="matrix(-1 0 0 1 156.034 641)" fill="white"/>
<rect width="4.72727" height="4.72727" transform="matrix(-1 0 0 1 156.034 651.636)" fill="white"/>
<rect width="4.72727" height="4.72727" transform="matrix(-1 0 0 1 156.034 662.273)" fill="white"/>
<rect width="4.72727" height="4.72727" transform="matrix(-1 0 0 1 145.398 641)" fill="white"/>
<rect width="4.72727" height="4.72727" transform="matrix(-1 0 0 1 145.398 651.636)" fill="white"/>
<rect width="4.72727" height="4.72727" transform="matrix(-1 0 0 1 145.398 662.273)" fill="white"/>
<rect width="4.72727" height="4.72727" transform="matrix(-1 0 0 1 134.761 641)" fill="white"/>
<rect width="4.72727" height="4.72727" transform="matrix(-1 0 0 1 134.761 651.636)" fill="white"/>
<rect width="4.72727" height="4.72727" transform="matrix(-1 0 0 1 134.761 662.273)" fill="white"/>
<rect width="4.72727" height="4.72727" transform="matrix(-1 0 0 1 124.125 641)" fill="white"/>
<rect width="4.72727" height="4.72727" transform="matrix(-1 0 0 1 124.125 651.636)" fill="white"/>
<rect width="4.72727" height="4.72727" transform="matrix(-1 0 0 1 124.125 662.273)" fill="white"/>
</g>
<g opacity="0.24">
<rect width="4.72727" height="4.72727" transform="matrix(-1 0 0 1 109.034 641)" fill="white"/>
<rect width="4.72727" height="4.72727" transform="matrix(-1 0 0 1 109.034 651.636)" fill="white"/>
<rect width="4.72727" height="4.72727" transform="matrix(-1 0 0 1 109.034 662.273)" fill="white"/>
<rect width="4.72727" height="4.72727" transform="matrix(-1 0 0 1 98.3977 641)" fill="white"/>
<rect width="4.72727" height="4.72727" transform="matrix(-1 0 0 1 98.3977 651.636)" fill="white"/>
<rect width="4.72727" height="4.72727" transform="matrix(-1 0 0 1 98.3977 662.273)" fill="white"/>
<rect width="4.72727" height="4.72727" transform="matrix(-1 0 0 1 87.7615 641)" fill="white"/>
<rect width="4.72727" height="4.72727" transform="matrix(-1 0 0 1 87.7615 651.636)" fill="white"/>
<rect width="4.72727" height="4.72727" transform="matrix(-1 0 0 1 87.7615 662.273)" fill="white"/>
<rect width="4.72727" height="4.72727" transform="matrix(-1 0 0 1 77.125 641)" fill="white"/>
<rect width="4.72727" height="4.72727" transform="matrix(-1 0 0 1 77.125 651.636)" fill="white"/>
<rect width="4.72727" height="4.72727" transform="matrix(-1 0 0 1 77.125 662.273)" fill="white"/>
</g>
<g opacity="0.24">
<rect width="4.72727" height="4.72727" transform="matrix(-1 0 0 1 62.0342 641)" fill="white"/>
<rect width="4.72727" height="4.72727" transform="matrix(-1 0 0 1 62.0342 651.636)" fill="white"/>
<rect width="4.72727" height="4.72727" transform="matrix(-1 0 0 1 62.0342 662.273)" fill="white"/>
<rect width="4.72727" height="4.72727" transform="matrix(-1 0 0 1 51.3977 641)" fill="white"/>
<rect width="4.72727" height="4.72727" transform="matrix(-1 0 0 1 51.3977 651.636)" fill="white"/>
<rect width="4.72727" height="4.72727" transform="matrix(-1 0 0 1 51.3977 662.273)" fill="white"/>
<rect width="4.72727" height="4.72727" transform="matrix(-1 0 0 1 40.7615 641)" fill="white"/>
<rect width="4.72727" height="4.72727" transform="matrix(-1 0 0 1 40.7615 651.636)" fill="white"/>
<rect width="4.72727" height="4.72727" transform="matrix(-1 0 0 1 40.7615 662.273)" fill="white"/>
<rect width="4.72727" height="4.72727" transform="matrix(-1 0 0 1 30.125 641)" fill="white"/>
<rect width="4.72727" height="4.72727" transform="matrix(-1 0 0 1 30.125 651.636)" fill="white"/>
<rect width="4.72727" height="4.72727" transform="matrix(-1 0 0 1 30.125 662.273)" fill="white"/>
</g>
</g>
<defs>
<filter id="filter0_f_1_1115" x="96.0342" y="-18" width="228" height="228" filterUnits="userSpaceOnUse" color-interpolation-filters="sRGB">
<feFlood flood-opacity="0" result="BackgroundImageFix"/>
<feBlend mode="normal" in="SourceGraphic" in2="BackgroundImageFix" result="shape"/>
<feGaussianBlur stdDeviation="39.5" result="effect1_foregroundBlur_1_1115"/>
</filter>
<filter id="filter1_f_1_1115" x="73.0342" y="65" width="270" height="270" filterUnits="userSpaceOnUse" color-interpolation-filters="sRGB">
<feFlood flood-opacity="0" result="BackgroundImageFix"/>
<feBlend mode="normal" in="SourceGraphic" in2="BackgroundImageFix" result="shape"/>
<feGaussianBlur stdDeviation="5" result="effect1_foregroundBlur_1_1115"/>
</filter>
<filter id="filter2_f_1_1115" x="4.03418" y="-4" width="408" height="408" filterUnits="userSpaceOnUse" color-interpolation-filters="sRGB">
<feFlood flood-opacity="0" result="BackgroundImageFix"/>
<feBlend mode="normal" in="SourceGraphic" in2="BackgroundImageFix" result="shape"/>
<feGaussianBlur stdDeviation="39.5" result="effect1_foregroundBlur_1_1115"/>
</filter>
<filter id="filter3_f_1_1115" x="-178.966" y="-329" width="1245" height="1472" filterUnits="userSpaceOnUse" color-interpolation-filters="sRGB">
<feFlood flood-opacity="0" result="BackgroundImageFix"/>
<feBlend mode="normal" in="SourceGraphic" in2="BackgroundImageFix" result="shape"/>
<feGaussianBlur stdDeviation="250" result="effect1_foregroundBlur_1_1115"/>
</filter>
<filter id="filter4_d_1_1115" x="341.034" y="0" width="169" height="870" filterUnits="userSpaceOnUse" color-interpolation-filters="sRGB">
<feFlood flood-opacity="0" result="BackgroundImageFix"/>
<feColorMatrix in="SourceAlpha" type="matrix" values="0 0 0 0 0 0 0 0 0 0 0 0 0 0 0 0 0 0 127 0" result="hardAlpha"/>
<feOffset/>
<feGaussianBlur stdDeviation="40.5"/>
<feComposite in2="hardAlpha" operator="out"/>
<feColorMatrix type="matrix" values="0 0 0 0 0 0 0 0 0 0.690196 0 0 0 0 1 0 0 0 1 0"/>
<feBlend mode="normal" in2="BackgroundImageFix" result="effect1_dropShadow_1_1115"/>
<feBlend mode="normal" in="SourceGraphic" in2="effect1_dropShadow_1_1115" result="shape"/>
</filter>
<linearGradient id="paint0_linear_1_1115" x1="1.43024e-07" y1="304.5" x2="408" y2="304.5" gradientUnits="userSpaceOnUse">
<stop stop-color="white"/>
<stop offset="1" stop-color="white" stop-opacity="0"/>
</linearGradient>
<linearGradient id="paint1_linear_1_1115" x1="3.98646e-06" y1="327" x2="408" y2="327" gradientUnits="userSpaceOnUse">
<stop stop-color="#00B0FF"/>
<stop offset="1" stop-color="#00B0FF" stop-opacity="0"/>
</linearGradient>
<linearGradient id="paint2_linear_1_1115" x1="0.0338965" y1="341.5" x2="416.034" y2="341.5" gradientUnits="userSpaceOnUse">
<stop stop-color="#00B0FF"/>
<stop offset="1" stop-color="#00B0FF" stop-opacity="0"/>
</linearGradient>
<linearGradient id="paint3_linear_1_1115" x1="0" y1="354" x2="408" y2="354" gradientUnits="userSpaceOnUse">
<stop stop-color="white"/>
<stop offset="1" stop-color="white" stop-opacity="0"/>
</linearGradient>
</defs>
</svg>
