<?xml version="1.0" standalone="no"?>
<!DOCTYPE svg PUBLIC "-//W3C//DTD SVG 20010904//EN"
 "http://www.w3.org/TR/2001/REC-SVG-20010904/DTD/svg10.dtd">
<svg version="1.0" xmlns="http://www.w3.org/2000/svg"
 width="981.000000pt" height="878.000000pt" viewBox="0 0 981.000000 878.000000"
 preserveAspectRatio="xMidYMid meet">

<g transform="translate(0.000000,878.000000) scale(0.100000,-0.100000)"
fill="#000000" stroke="none">
<path d="M4770 8773 c-106 -8 -274 -37 -395 -68 -921 -236 -1659 -1056 -1869
-2076 -47 -228 -56 -334 -66 -769 -5 -228 -14 -478 -20 -555 -70 -908 -296
-1483 -683 -1744 -43 -29 -87 -67 -98 -84 -26 -43 -24 -96 4 -138 54 -81 440
-297 697 -391 151 -56 363 -109 525 -134 150 -22 485 -23 618 -2 103 17 100
25 36 -108 -115 -243 -336 -469 -613 -628 -188 -109 -250 -131 -649 -231 -415
-104 -606 -161 -812 -242 -742 -291 -1203 -726 -1399 -1317 -40 -120 -44 -162
-21 -207 34 -64 128 -89 192 -49 39 24 45 33 88 166 147 448 468 788 980 1039
290 142 504 213 1070 354 373 92 385 96 530 165 411 196 725 495 890 849 59
127 115 307 122 394 l6 73 -40 40 c-36 35 -46 40 -86 40 -25 0 -87 -11 -139
-25 -169 -44 -303 -58 -508 -52 -189 5 -287 19 -461 63 -183 46 -407 134 -576
227 l-92 50 98 103 c326 338 512 865 586 1664 9 91 20 361 25 601 5 239 14
475 20 525 63 522 244 970 548 1359 82 105 314 331 422 411 416 309 876 452
1360 423 572 -35 1080 -306 1466 -783 185 -229 361 -577 454 -901 87 -301 109
-487 120 -1015 13 -612 34 -866 105 -1230 49 -249 141 -532 232 -714 85 -169
223 -360 328 -453 l55 -49 -68 -36 c-195 -104 -491 -191 -781 -228 -212 -28
-630 -28 -850 -1 -75 10 -88 9 -128 -9 -35 -15 -48 -28 -64 -66 -19 -43 -20
-52 -9 -108 24 -116 90 -298 150 -415 171 -329 455 -594 845 -788 137 -67 239
-99 530 -163 278 -62 505 -118 640 -160 780 -240 1242 -626 1430 -1195 20 -60
41 -117 48 -125 40 -52 125 -66 183 -31 41 25 68 83 60 131 -22 136 -162 445
-273 599 -81 113 -246 288 -352 373 -176 142 -430 289 -668 387 -256 105 -532
184 -993 287 -140 31 -284 65 -320 76 -69 21 -252 109 -335 161 -295 184 -509
430 -613 705 l-19 48 286 0 c309 0 460 13 705 60 312 61 597 169 812 309 137
89 175 141 159 215 -10 43 -39 75 -116 125 -320 207 -539 668 -638 1345 -36
241 -52 477 -61 920 -9 426 -15 518 -46 710 -97 615 -362 1163 -767 1587 -471
493 -1140 756 -1797 706z"/>
</g>
</svg>
