<svg width=".7292vw" height="1.0185vh" viewBox="0 0 14 11" fill="none"><path fill-rule="evenodd" clip-rule="evenodd" d="M5.23276 0.539063H5.19277C4.37558 0.53906 3.73489 0.539058 3.21996 0.581129C2.69562 0.62397 2.26245 0.71265 1.87037 0.912423C1.22582 1.24084 0.701778 1.76488 0.373361 2.40944C0.173587 2.80151 0.084907 3.23469 0.0420668 3.75902C-4.68277e-06 4.27395 -2.60543e-06 4.91464 4.18911e-08 5.73183V5.77182C-2.60543e-06 6.58901 -4.68277e-06 7.2297 0.0420668 7.74463C0.084907 8.26897 0.173587 8.70214 0.373361 9.09422C0.701778 9.73878 1.22582 10.2628 1.87037 10.5912C2.26245 10.791 2.69562 10.8797 3.21996 10.9225C3.73485 10.9646 4.37547 10.9646 5.19256 10.9646H5.23277C6.04986 10.9646 6.69068 10.9646 7.20557 10.9225C7.72991 10.8797 8.16308 10.791 8.55516 10.5912C9.19971 10.2628 9.72375 9.73878 10.0522 9.09422C10.082 9.03573 10.1093 8.97631 10.1344 8.91577C10.8295 9.21943 11.3986 9.46593 11.8607 9.59127C12.3521 9.72459 12.8308 9.75205 13.2587 9.47203C13.6867 9.19201 13.8532 8.74236 13.9278 8.23867C14 7.75093 14 7.10759 14 6.31789V5.18577C14 4.39607 14 3.75272 13.9278 3.26499C13.8532 2.7613 13.6867 2.31164 13.2587 2.03162C12.8308 1.75161 12.3521 1.77907 11.8607 1.91239C11.3986 2.03773 10.8295 2.28422 10.1344 2.58788C10.1093 2.52735 10.082 2.46793 10.0522 2.40944C9.72375 1.76488 9.19971 1.24084 8.55516 0.912423C8.16308 0.71265 7.72991 0.62397 7.20557 0.581129C6.69064 0.539058 6.04995 0.53906 5.23276 0.539063ZM2.82979 3.51779C2.58302 3.51779 2.38298 3.71783 2.38298 3.96459C2.38298 4.21136 2.58302 4.4114 2.82979 4.4114H5.21277C5.45953 4.4114 5.65957 4.21136 5.65957 3.96459C5.65957 3.71783 5.45953 3.51779 5.21277 3.51779H2.82979Z" fill="white"/></svg>