<svg width=".625vw" height="1.2037vh" viewBox="0 0 12 13" fill="none"><path d="M11.0769 3.67347H7.38462V0.918367L6 0L4.61538 0.918367V3.67347H0.923077L0 4.59184V5.5102H12V4.59184L11.0769 3.67347ZM6 1.37755C6.36923 1.37755 6.64615 1.65306 6.64615 2.11224C6.64615 2.57143 6.36923 2.7551 6 2.7551C5.63077 2.7551 5.26154 2.47959 5.26154 2.02041C5.26154 1.65306 5.63077 1.37755 6 1.37755ZM11.0769 6.42857H0.923077V10.102L0 11.4796V12.8571H12V11.4796L11.0769 10.102V6.42857ZM3.69231 11.4796H2.76923V7.34694H3.69231V11.4796ZM6.46154 11.4796H5.53846V7.34694H6.46154V11.4796ZM9.23077 11.4796H8.30769V7.34694H9.23077V11.4796Z" fill="white"/></svg>