<svg width=".5729vw" height="1.0185vh" viewBox="0 0 11 11" fill="none"><path d="M8.14303 3.86463C7.86997 2.57641 7.59688 1.28819 7.32364 0C6.86252 0 6.40142 0 5.94038 0C6.00628 1.28822 6.07225 2.57644 6.1382 3.86463H8.14303Z" fill="white"/><path d="M6.2434 5.92109C6.33015 7.61408 6.41679 9.30701 6.50339 11C7.55412 11 8.60485 11 9.65555 11C9.29659 9.30704 8.93782 7.61408 8.57903 5.92109H6.2434Z" fill="white"/><path d="M5.05959 0C4.59852 0 4.1374 0 3.67636 0C3.40324 1.28819 3.13028 2.57641 2.85721 3.86463H4.86196C4.92777 2.57641 4.99361 1.28819 5.05959 0Z" fill="white"/><path d="M1.34442 11C2.39521 11 3.44588 11 4.49658 11C4.58352 9.30704 4.67015 7.61408 4.75668 5.92109H2.42133C2.06248 7.61408 1.70358 9.30707 1.34442 11Z" fill="white"/><path d="M10.8723 4.3986H0.127652C0.0571509 4.3986 0 4.45836 0 4.53208V5.25365C0 5.32736 0.0571509 5.38712 0.127652 5.38712H0.818537V6.46792C0.818537 6.54164 0.875661 6.60142 0.946162 6.60142H1.63561C1.69401 6.60142 1.74495 6.55995 1.75929 6.50083L2.0301 5.38718H8.9699L9.24065 6.50083C9.255 6.56001 9.30599 6.60142 9.36439 6.60142H10.0537C10.1243 6.60142 10.1814 6.54164 10.1814 6.46792V5.38712H10.8723C10.9428 5.38712 11 5.32736 11 5.25365V4.53208C11 4.45836 10.9428 4.3986 10.8723 4.3986Z" fill="white"/></svg>