<svg width=".7292vw" height="1.2037vh" viewBox="0 0 14 13" fill="none"><path fill-rule="evenodd" clip-rule="evenodd" d="M13.2065 5.59333L12.6976 5.18622V11.8863H13.5116C13.7813 11.8863 14 12.105 14 12.3747C14 12.6445 13.7813 12.8631 13.5116 12.8631H0.48839C0.218666 12.8631 1.85683e-05 12.6445 1.85683e-05 12.3747C1.85683e-05 12.105 0.218666 11.8863 0.48839 11.8863H1.30234V5.18622L0.793472 5.59333C0.582854 5.76185 0.275525 5.72766 0.107037 5.51708C-0.0614577 5.30643 -0.0273107 4.99908 0.183307 4.83062L5.47459 0.597589C6.36641 -0.115863 7.63363 -0.115863 8.5254 0.597589L13.8167 4.83062C14.0273 4.99908 14.0614 5.30643 13.893 5.51708C13.7245 5.72766 13.4172 5.76185 13.2065 5.59333ZM6.99999 2.44453C6.011 2.44453 5.20931 3.24625 5.20931 4.23522C5.20931 5.22418 6.011 6.02589 6.99999 6.02589C7.98897 6.02589 8.79068 5.22418 8.79068 4.23522C8.79068 3.24625 7.98897 2.44453 6.99999 2.44453ZM8.13685 6.71717C7.8381 6.67705 7.46511 6.67705 7.03215 6.67705H6.96788C6.53493 6.67705 6.16188 6.67705 5.86319 6.71717C5.54304 6.76021 5.23617 6.8573 4.98727 7.10624C4.73837 7.35511 4.6413 7.662 4.59826 7.98211C4.5581 8.2808 4.55812 8.65385 4.55815 9.08681V11.8863H5.53489H8.4651H9.44184V9.08681V9.00633C9.44171 8.60749 9.43937 8.26218 9.40173 7.98211C9.35869 7.662 9.26166 7.35511 9.01273 7.10624C8.76385 6.8573 8.45696 6.76021 8.13685 6.71717Z" fill="white"/><g opacity="0.5"><path fill-rule="evenodd" clip-rule="evenodd" d="M6.1875 4.23583C6.1875 3.78629 6.55189 3.42188 7.00145 3.42188C7.45101 3.42188 7.8154 3.78629 7.8154 4.23583C7.8154 4.68539 7.45101 5.04978 7.00145 5.04978C6.55189 5.04978 6.1875 4.68539 6.1875 4.23583Z" fill="white"/><path fill-rule="evenodd" clip-rule="evenodd" d="M6.1875 4.23583C6.1875 3.78629 6.55189 3.42188 7.00145 3.42188C7.45101 3.42188 7.8154 3.78629 7.8154 4.23583C7.8154 4.68539 7.45101 5.04978 7.00145 5.04978C6.55189 5.04978 6.1875 4.68539 6.1875 4.23583Z" fill="white"/></g><path opacity="0.5" d="M7.02871 6.67188C7.4616 6.67188 7.83465 6.67181 8.13334 6.71199C8.45352 6.75503 8.76035 6.85212 9.00928 7.10099C9.25816 7.34993 9.35525 7.65676 9.39829 7.97693C9.43593 8.25693 9.43827 8.60231 9.4384 9.00108V11.8812H4.55469V9.08156C4.55467 8.64867 4.55464 8.27562 4.59481 7.97693C4.63785 7.65676 4.73491 7.34993 4.98381 7.10099C5.23272 6.85212 5.53958 6.75503 5.85975 6.71199C6.15843 6.67181 6.53148 6.67188 6.96438 6.67188H7.02871Z" fill="white"/><path opacity="0.5" d="M9.60683 0H11.2347C11.4145 0 11.5603 0.145769 11.5603 0.325581V3.0211L9.28125 1.19784V0.325581C9.28125 0.145769 9.42705 0 9.60683 0Z" fill="white"/></svg>