<svg width=".4167vw" height="1.1111vh" viewBox="0 0 8 12" fill="none"><path d="M2.76539 8.31406C1.31733 8.31406 0.351959 7.64492 0.0703918 6.73043C0.0251399 6.5966 0 6.45162 0 6.31779C0 5.91631 0.231287 5.65981 0.57319 5.65981C0.859785 5.65981 1.04079 5.78806 1.18158 6.11147C1.40784 6.80849 2.03131 7.12076 2.80562 7.12076C3.68049 7.12076 4.2939 6.64121 4.2939 5.97207C4.2939 5.39215 3.93188 5.03527 2.98662 4.8178L2.20729 4.63937C0.754198 4.31037 0.0754198 3.55202 0.0754198 2.37545C0.0754198 0.9591 1.19666 0 2.77042 0C4.05256 0 5.0481 0.635683 5.34475 1.70073C5.37492 1.78995 5.39 1.8959 5.39 2.02972C5.39 2.38102 5.16374 2.6208 4.82687 2.6208C4.52519 2.6208 4.33915 2.47582 4.2034 2.16355C3.95702 1.48326 3.43914 1.1933 2.76036 1.1933C1.95589 1.1933 1.3827 1.61709 1.3827 2.2918C1.3827 2.83827 1.74471 3.18957 2.64975 3.40146L3.42909 3.5799C4.95759 3.93119 5.60118 4.61149 5.60118 5.80479C5.60118 7.34381 4.5101 8.31406 2.76539 8.31406Z" fill="white"/><path d="M4.36422 12C2.91616 12 1.95078 11.3309 1.66922 10.4164C1.62396 10.2825 1.59882 10.1376 1.59882 10.0037C1.59882 9.60225 1.83011 9.34575 2.17201 9.34575C2.45861 9.34575 2.63962 9.474 2.7804 9.79742C3.00666 10.4944 3.63013 10.8067 4.40444 10.8067C5.27931 10.8067 5.89272 10.3272 5.89272 9.65801C5.89272 9.07809 5.53071 8.72122 4.58545 8.50375L3.80611 8.32531C2.35302 7.99632 1.67424 7.23796 1.67424 6.06139C1.67424 4.64504 2.79548 3.68594 4.36924 3.68594C5.65138 3.68594 6.64692 4.32162 6.94357 5.38667C6.97374 5.47589 6.98882 5.58184 6.98882 5.71566C6.98882 6.06696 6.76256 6.30674 6.42569 6.30674C6.12401 6.30674 5.93798 6.16176 5.80222 5.84949C5.55585 5.1692 5.03797 4.87924 4.35919 4.87924C3.55471 4.87924 2.98152 5.30303 2.98152 5.97774C2.98152 6.52421 3.34353 6.87551 4.24857 7.0874L5.02791 7.26584C6.55642 7.61714 7.2 8.29743 7.2 9.49073C7.2 11.0297 6.10893 12 4.36422 12Z" fill="white"/></svg>