<svg width=".7292vw" height="1.1111vh" viewBox="0 0 14 12" fill="none"><path fill-rule="evenodd" clip-rule="evenodd" d="M8.60818 0.197728C8.7989 0.00700721 9.10812 0.00700721 9.29884 0.197728L11.7605 2.65935H13.5116C13.7813 2.65935 14 2.878 14 3.14772C14 3.41744 13.7813 3.63609 13.5116 3.63609H13.1572C13.0098 4.19352 12.8191 4.83618 12.5973 5.58395L11.9298 7.83406C11.6647 8.72828 11.5022 9.27645 11.2173 9.72221C10.7268 10.4896 9.97343 11.0519 9.09823 11.3039C8.58986 11.4503 8.0181 11.4502 7.08542 11.4501H6.91458C5.9819 11.4502 5.41014 11.4503 4.90177 11.3039C4.02657 11.0519 3.2732 10.4896 2.78274 9.72221C2.49784 9.27646 2.33531 8.72828 2.07018 7.83408L1.40281 5.58436C1.18093 4.83642 0.990243 4.19362 0.842809 3.63609H0.488372C0.218652 3.63609 0 3.41744 0 3.14772C0 2.878 0.218652 2.65935 0.488372 2.65935H2.39757L4.85918 0.197738C5.0499 0.00701714 5.35912 0.00701714 5.54984 0.197738C5.74056 0.388459 5.74056 0.69768 5.54984 0.888401L3.7789 2.65935H10.3791L8.60818 0.888391C8.41746 0.69767 8.41746 0.38845 8.60818 0.197728ZM6.18605 5.75237C6.18605 5.48265 5.96739 5.264 5.69767 5.264C5.42795 5.264 5.2093 5.48265 5.2093 5.75237V8.35702C5.2093 8.62674 5.42795 8.8454 5.69767 8.8454C5.96739 8.8454 6.18605 8.62674 6.18605 8.35702V5.75237ZM8.7907 5.75237C8.7907 5.48265 8.57205 5.264 8.30233 5.264C8.03261 5.264 7.81395 5.48265 7.81395 5.75237V8.35702C7.81395 8.62674 8.03261 8.8454 8.30233 8.8454C8.57205 8.8454 8.7907 8.62674 8.7907 8.35702V5.75237Z" fill="white"/></svg>